<?xml version="1.0" encoding="UTF-8"?>
<svg xmlns="http://www.w3.org/2000/svg" xmlns:xlink="http://www.w3.org/1999/xlink" width="1700px" height="1000px" viewBox="0 0 1700 1000" version="1.1">
<g id="surface1">
<path style=" stroke:none;fill-rule:nonzero;fill:rgb(0%,0%,0%);fill-opacity:1;" d="M 1225.488281 437.5 L 1643.261719 437.5 L 1454.773438 610.625 L 1205.085938 463.125 M 56.738281 562.5 L 474.511719 562.5 L 286.023438 389.375 L 36.335938 536.875 "/>
<path style=" stroke:none;fill-rule:evenodd;fill:rgb(0%,0%,0%);fill-opacity:1;" d="M 850 187.5 C 685.101562 187.5 537.625 231.6875 440.195312 301.125 C 428.347656 310.15625 409.074219 314.675781 389.917969 312.910156 C 370.757812 311.144531 354.753906 303.378906 348.167969 292.652344 C 341.578125 281.921875 345.453125 269.933594 358.273438 261.375 C 517.144531 148.230469 773.585938 99.96875 1014.601562 137.855469 C 1255.613281 175.742188 1436.941406 292.820312 1478.679688 437.5 L 1370.625 437.5 C 1320.128906 291.980469 1102.488281 187.46875 850 187.5 M 329.375 562.5 C 370.425781 680.441406 522.953125 774.035156 721.539062 803.144531 C 920.125 832.25 1129.480469 791.695312 1259.804688 698.875 C 1271.652344 689.84375 1290.925781 685.324219 1310.082031 687.089844 C 1329.242188 688.855469 1345.246094 696.621094 1351.832031 707.347656 C 1358.421875 718.078125 1354.546875 730.066406 1341.726562 738.625 C 1182.855469 851.769531 926.414062 900.03125 685.398438 862.144531 C 444.386719 824.257812 263.058594 707.179688 221.320312 562.5 Z M 329.375 562.5 "/>
</g>
</svg>
