<?xml version="1.0" encoding="UTF-8"?>
<svg xmlns="http://www.w3.org/2000/svg" xmlns:xlink="http://www.w3.org/1999/xlink" width="1700px" height="1000px" viewBox="0 0 1700 1000" version="1.1">
<g id="surface1">
<path style=" stroke:none;fill-rule:nonzero;fill:rgb(0%,0%,0%);fill-opacity:1;" d="M 106.25 176.75 C 200.28125 153.625 335.113281 128.6875 466.226562 120.9375 C 607.539062 112.5625 727.386719 124.875 796.875 167.9375 L 796.875 777.0625 C 697.53125 743.9375 571.625 739.375 455.492188 746.25 C 330.117188 753.75 203.679688 775.0625 106.25 796.9375 Z M 903.125 167.9375 C 972.613281 124.875 1092.460938 112.5625 1233.773438 120.9375 C 1364.886719 128.6875 1499.71875 153.625 1593.75 176.75 L 1593.75 796.9375 C 1496.210938 775.0625 1369.882812 753.6875 1244.507812 746.3125 C 1128.269531 739.375 1002.46875 743.875 903.125 777.0625 Z M 850 111.4375 C 745.34375 58.5 593.617188 50.625 455.492188 58.75 C 294.632812 68.3125 132.28125 100.75 31.132812 127.8125 C 12.175781 132.882812 0.00390625 144 0 156.25 L 0 843.75 C 0.00390625 854.375 9.1875 864.269531 24.375 870.019531 C 39.5625 875.769531 58.675781 876.585938 75.117188 872.1875 C 168.832031 847.1875 319.8125 817.125 466.117188 808.4375 C 615.824219 799.5625 741.304688 813.875 808.5625 863.25 C 818.644531 870.644531 833.886719 874.945312 850 874.945312 C 866.113281 874.945312 881.355469 870.644531 891.4375 863.25 C 958.695312 813.875 1084.175781 799.5625 1233.773438 808.4375 C 1380.1875 817.125 1531.273438 847.1875 1624.882812 872.1875 C 1641.324219 876.585938 1660.4375 875.769531 1675.625 870.019531 C 1690.8125 864.269531 1699.996094 854.375 1700 843.75 L 1700 156.25 C 1699.996094 144 1687.824219 132.882812 1668.867188 127.8125 C 1567.71875 100.75 1405.367188 68.3125 1244.507812 58.75 C 1106.382812 50.5625 954.65625 58.5 850 111.4375 "/>
</g>
</svg>
