<?xml version="1.0" encoding="UTF-8"?>
<svg xmlns="http://www.w3.org/2000/svg" xmlns:xlink="http://www.w3.org/1999/xlink" width="1700px" height="1000px" viewBox="0 0 1700 1000" version="1.1">
<g id="surface1">
<path style=" stroke:none;fill-rule:nonzero;fill:rgb(0%,0%,0%);fill-opacity:1;" d="M 690.625 62.5 C 602.605469 62.5 531.25 104.472656 531.25 156.25 L 531.25 187.5 L 159.375 187.5 C 71.355469 187.5 0 229.472656 0 281.25 L 0 781.25 C 0 833.027344 71.355469 875 159.375 875 L 1540.625 875 C 1628.644531 875 1700 833.027344 1700 781.25 L 1700 281.25 C 1700 229.472656 1628.644531 187.5 1540.625 187.5 L 1168.75 187.5 L 1168.75 156.25 C 1168.75 104.472656 1097.394531 62.5 1009.375 62.5 Z M 690.625 125 L 1009.375 125 C 1038.714844 125 1062.5 138.992188 1062.5 156.25 L 1062.5 187.5 L 637.5 187.5 L 637.5 156.25 C 637.5 138.992188 661.285156 125 690.625 125 M 891.011719 557.125 L 1593.75 446.9375 L 1593.75 781.25 C 1593.75 798.507812 1569.964844 812.5 1540.625 812.5 L 159.375 812.5 C 130.035156 812.5 106.25 798.507812 106.25 781.25 L 106.25 446.875 L 808.988281 557.125 C 835.859375 561.335938 864.140625 561.335938 891.011719 557.125 M 159.375 250 L 1540.625 250 C 1569.964844 250 1593.75 263.992188 1593.75 281.25 L 1593.75 382.25 L 863.707031 496.75 C 854.726562 498.160156 845.273438 498.160156 836.292969 496.75 L 106.25 382.25 L 106.25 281.25 C 106.25 263.992188 130.035156 250 159.375 250 "/>
</g>
</svg>
