<svg id="svg" version="1.1" xmlns="http://www.w3.org/2000/svg" xmlns:xlink="http://www.w3.org/1999/xlink" width="400" height="464.5537948290242" viewBox="0, 0, 400,464.5537948290242"><g id="svgg"><path id="path0" d="M118.780 143.472 C 118.035 143.549,116.837 143.622,116.118 143.635 C 115.399 143.648,114.811 143.735,114.811 143.828 C 114.811 144.099,107.020 144.600,100.581 144.742 C 94.971 144.865,95.571 144.610,91.383 148.658 L 87.828 152.094 88.259 158.380 C 89.010 169.334,89.904 180.363,90.156 181.768 L 90.272 182.413 89.231 181.889 C 85.852 180.191,81.207 173.221,77.752 164.666 C 76.594 161.798,76.875 162.019,74.927 162.452 C 74.022 162.653,72.628 162.903,71.830 163.008 C 68.569 163.437,61.375 166.655,61.375 167.684 C 61.375 167.781,61.274 167.861,61.150 167.861 C 61.027 167.861,60.326 168.470,59.592 169.216 C 58.859 169.961,58.110 170.571,57.929 170.570 C 57.309 170.568,54.889 171.556,54.230 172.080 C 53.394 172.744,51.888 174.263,51.888 174.441 C 51.888 174.516,51.671 174.829,51.407 175.137 C 51.142 175.445,50.514 176.308,50.011 177.055 C 49.508 177.801,48.897 178.620,48.653 178.874 C 48.409 179.129,48.209 179.448,48.209 179.584 C 48.209 179.721,48.138 179.861,48.050 179.897 C 47.915 179.952,46.939 181.291,45.886 182.869 C 45.605 183.290,45.054 184.029,43.916 185.516 C 43.615 185.909,43.369 186.290,43.369 186.362 C 43.369 186.434,43.129 186.779,42.836 187.128 C 42.544 187.478,41.999 188.214,41.626 188.765 C 41.254 189.316,40.687 190.100,40.368 190.508 C 40.048 190.916,39.177 192.140,38.432 193.228 C 37.686 194.317,36.881 195.436,36.641 195.716 C 36.402 195.996,36.206 196.333,36.205 196.467 C 36.205 196.600,36.140 196.709,36.060 196.710 C 35.980 196.711,35.701 197.037,35.441 197.436 C 35.180 197.835,34.679 198.524,34.327 198.968 C 33.976 199.412,33.688 199.836,33.688 199.910 C 33.688 199.985,33.449 200.332,33.156 200.681 C 32.863 201.030,32.318 201.769,31.946 202.323 C 31.573 202.877,31.050 203.605,30.784 203.941 C 30.518 204.276,30.213 204.692,30.106 204.865 C 29.933 205.145,28.843 206.678,27.783 208.132 C 26.723 209.586,25.633 211.119,25.460 211.399 C 25.353 211.571,25.048 211.987,24.782 212.323 C 24.516 212.658,23.993 213.380,23.621 213.927 C 22.788 215.149,21.602 216.808,21.189 217.328 C 21.020 217.541,20.401 218.412,19.813 219.264 C 19.226 220.116,18.489 221.162,18.177 221.588 C 17.119 223.030,15.974 224.637,15.779 224.952 C 15.673 225.124,15.368 225.540,15.102 225.875 C 14.835 226.211,14.313 226.936,13.940 227.487 C 13.567 228.038,12.979 228.839,12.633 229.267 C 12.287 229.696,12.004 230.169,12.004 230.318 C 12.004 230.468,11.926 230.591,11.830 230.591 C 11.735 230.591,11.385 231.015,11.051 231.534 C 10.718 232.053,10.274 232.676,10.063 232.919 C 9.853 233.162,9.681 233.418,9.681 233.489 C 9.681 233.560,9.419 233.911,9.100 234.269 C 8.780 234.627,8.519 235.027,8.519 235.159 C 8.519 235.291,8.445 235.428,8.355 235.463 C 8.265 235.499,7.829 236.062,7.385 236.716 C 6.942 237.369,6.449 238.011,6.290 238.143 C 6.132 238.275,6.002 238.458,6.002 238.551 C 6.002 238.643,5.719 239.097,5.373 239.560 C 5.027 240.022,4.482 240.772,4.163 241.226 C 3.843 241.680,3.364 242.326,3.098 242.662 C 2.832 242.998,2.527 243.414,2.420 243.587 C 2.314 243.759,1.856 244.429,1.404 245.076 C 0.425 246.475,0.423 246.514,1.266 247.628 C 1.628 248.107,2.402 249.197,2.986 250.048 C 3.570 250.900,4.359 252.033,4.740 252.565 C 5.122 253.098,5.642 253.838,5.897 254.211 C 6.152 254.584,6.709 255.368,7.134 255.954 C 7.559 256.539,8.406 257.759,9.016 258.664 C 9.626 259.569,10.225 260.397,10.346 260.503 C 10.468 260.610,10.738 260.969,10.947 261.302 C 11.369 261.974,12.022 262.923,13.064 264.376 C 13.445 264.908,14.387 266.249,15.156 267.355 C 15.925 268.462,16.728 269.603,16.941 269.892 C 17.154 270.181,17.585 270.800,17.898 271.269 C 18.212 271.737,18.638 272.313,18.845 272.548 C 19.052 272.784,19.318 273.144,19.436 273.348 C 19.879 274.113,21.373 276.188,21.526 276.250 C 21.613 276.286,21.685 276.417,21.686 276.541 C 21.687 276.665,21.970 277.133,22.316 277.580 C 22.661 278.027,23.248 278.841,23.621 279.390 C 23.993 279.939,24.516 280.662,24.782 280.998 C 25.048 281.334,25.353 281.754,25.460 281.933 C 26.035 282.897,27.416 284.800,27.541 284.801 C 27.621 284.801,27.686 284.932,27.686 285.092 C 27.686 285.252,27.853 285.549,28.056 285.752 C 28.259 285.955,28.978 286.924,29.653 287.905 C 30.328 288.886,31.170 290.091,31.523 290.585 C 31.876 291.078,32.428 291.895,32.750 292.401 C 33.071 292.907,33.414 293.320,33.511 293.320 C 33.609 293.320,33.688 293.421,33.688 293.543 C 33.688 293.666,33.952 294.124,34.275 294.560 C 34.598 294.996,35.165 295.762,35.534 296.261 C 35.903 296.761,36.205 297.251,36.205 297.351 C 36.205 297.451,36.336 297.641,36.496 297.773 C 36.655 297.906,37.326 298.810,37.986 299.782 C 38.646 300.754,39.257 301.636,39.344 301.742 C 39.432 301.849,39.716 302.241,39.977 302.614 C 41.617 304.962,41.956 305.444,42.304 305.918 C 42.871 306.692,43.930 308.200,44.606 309.197 C 44.931 309.676,45.351 310.237,45.541 310.443 C 45.731 310.650,45.886 310.925,45.886 311.056 C 45.886 311.187,45.957 311.323,46.044 311.359 C 46.217 311.429,47.763 313.603,48.171 314.349 C 48.310 314.603,48.487 314.811,48.564 314.811 C 48.753 314.811,49.849 313.628,49.999 313.262 C 50.065 313.103,51.628 311.355,53.472 309.379 C 55.316 307.403,58.073 304.448,59.599 302.812 C 63.478 298.654,62.735 299.024,66.263 299.491 C 67.887 299.707,69.274 299.822,69.346 299.748 C 69.417 299.673,70.088 298.088,70.837 296.225 C 73.720 289.048,76.197 283.477,79.661 276.379 C 96.453 241.975,119.242 212.400,148.328 187.266 C 150.204 185.645,151.964 183.978,152.239 183.563 C 154.628 179.953,159.051 177.731,163.833 177.738 C 168.034 177.744,167.611 177.541,183.519 187.200 C 186.008 188.711,188.083 189.909,188.131 189.862 C 188.233 189.759,188.386 190.063,184.119 181.897 C 183.563 180.833,182.677 179.134,182.151 178.122 C 178.100 170.334,178.282 170.649,176.337 168.089 C 175.524 167.019,172.250 163.677,171.276 162.922 C 164.409 157.601,157.300 155.610,147.531 156.273 C 145.814 156.389,141.278 155.415,140.077 154.672 C 139.971 154.606,139.539 154.441,139.117 154.305 C 138.451 154.090,136.594 153.021,136.014 152.518 C 135.906 152.425,135.557 152.182,135.237 151.977 C 134.607 151.574,131.680 149.565,131.365 149.319 C 130.625 148.741,128.510 147.338,128.378 147.338 C 128.290 147.338,128.109 147.207,127.977 147.048 C 127.845 146.888,126.864 146.170,125.798 145.451 C 124.732 144.732,123.588 143.952,123.256 143.719 C 122.600 143.257,121.476 143.195,118.780 143.472 M57.493 232.676 C 57.711 233.656,57.890 234.685,57.890 234.961 C 57.890 236.326,60.599 246.498,61.186 247.338 C 61.260 247.444,61.380 247.778,61.452 248.080 C 61.665 248.967,63.362 251.973,65.088 254.520 C 67.326 257.822,71.153 261.580,73.751 263.028 C 75.168 263.818,74.937 264.609,72.991 265.631 C 72.725 265.771,72.464 265.947,72.410 266.022 C 72.240 266.264,69.626 267.790,68.925 268.058 C 67.649 268.546,65.924 269.096,64.376 269.510 C 61.463 270.287,60.911 271.410,62.067 274.205 C 63.648 278.026,63.857 280.074,63.021 283.558 C 62.729 284.774,62.430 285.770,62.356 285.770 C 62.179 285.770,61.375 284.677,61.375 284.437 C 61.375 284.334,61.173 284.004,60.927 283.703 C 60.543 283.234,59.951 282.314,59.141 280.929 C 59.031 280.740,58.718 280.249,58.447 279.838 C 57.053 277.726,55.747 275.693,55.342 275.003 C 54.810 274.096,53.436 271.945,51.742 269.365 C 51.077 268.351,50.532 267.451,50.532 267.366 C 50.532 267.281,50.420 267.095,50.282 266.955 C 50.144 266.814,49.687 266.145,49.265 265.468 C 48.844 264.791,48.369 264.035,48.209 263.788 C 48.049 263.541,47.546 262.744,47.090 262.018 C 46.634 261.291,45.916 260.174,45.494 259.535 C 45.072 258.896,44.668 258.243,44.596 258.083 C 44.525 257.924,44.230 257.444,43.940 257.018 C 43.651 256.592,43.085 255.721,42.683 255.082 C 41.816 253.703,40.856 252.201,40.347 251.425 C 40.146 251.117,39.894 250.727,39.787 250.557 C 39.681 250.387,39.340 249.863,39.030 249.391 L 38.467 248.534 39.224 247.853 C 39.918 247.229,43.990 243.363,48.232 239.303 C 49.177 238.398,51.048 236.612,52.388 235.334 C 53.729 234.056,55.318 232.516,55.921 231.913 C 56.523 231.309,57.034 230.832,57.056 230.854 C 57.078 230.876,57.274 231.696,57.493 232.676 M57.696 358.628 C 57.696 358.661,57.979 358.944,58.325 359.257 L 58.955 359.826 58.386 359.197 C 57.856 358.610,57.696 358.478,57.696 358.628 M183.011 365.090 C 183.197 365.139,183.502 365.139,183.688 365.090 C 183.875 365.041,183.722 365.001,183.349 365.001 C 182.977 365.001,182.824 365.041,183.011 365.090 M189.787 365.090 C 189.973 365.139,190.278 365.139,190.465 365.090 C 190.651 365.041,190.499 365.001,190.126 365.001 C 189.753 365.001,189.601 365.041,189.787 365.090 M205.290 388.507 C 203.632 389.094,203.176 389.715,191.301 407.530 C 184.973 417.024,179.728 424.768,179.645 424.738 C 179.562 424.709,177.611 422.159,175.309 419.071 C 169.383 411.123,169.181 410.941,166.312 410.949 C 162.263 410.961,159.481 415.539,161.469 418.919 C 162.547 420.752,176.206 438.657,176.858 439.091 C 178.784 440.375,181.389 440.313,183.287 438.939 C 184.154 438.311,212.074 396.652,212.408 395.489 C 213.677 391.064,209.536 387.002,205.290 388.507 M137.702 417.812 C 137.702 418.185,137.742 418.337,137.791 418.151 C 137.839 417.965,137.839 417.660,137.791 417.473 C 137.742 417.287,137.702 417.439,137.702 417.812 " stroke="none" fill="#2ca39b" fill-rule="evenodd"></path><path id="path1" d="M87.262 48.580 C 86.073 48.825,84.615 49.576,83.005 50.770 C 82.177 51.385,81.462 51.888,81.417 51.888 C 81.373 51.888,80.949 52.149,80.475 52.469 C 80.002 52.788,79.558 53.049,79.489 53.049 C 79.419 53.049,78.711 53.354,77.915 53.727 C 77.119 54.100,76.353 54.405,76.213 54.405 C 76.072 54.405,75.203 54.666,74.281 54.985 C 73.359 55.305,72.452 55.565,72.266 55.564 C 71.704 55.559,68.346 56.724,66.796 57.462 C 63.557 59.003,61.885 60.944,61.171 63.988 C 60.675 66.105,60.363 66.786,59.675 67.260 C 57.897 68.484,54.211 74.025,54.211 75.473 C 54.211 75.678,54.085 76.204,53.931 76.641 C 51.420 83.758,56.105 93.976,63.375 97.237 C 63.895 97.470,63.917 97.532,63.816 98.451 C 63.258 103.549,63.601 113.015,64.455 116.070 C 64.663 116.815,65.147 119.080,65.531 121.104 C 65.915 123.127,66.406 125.610,66.622 126.621 C 66.839 127.633,67.150 129.158,67.313 130.010 C 67.476 130.862,67.862 132.498,68.171 133.646 C 68.479 134.794,68.733 135.927,68.735 136.163 C 68.737 136.399,68.997 137.464,69.313 138.529 C 69.628 139.593,69.889 140.639,69.892 140.852 C 69.895 141.065,70.157 142.067,70.474 143.078 C 70.791 144.090,71.051 145.048,71.052 145.208 C 71.054 145.753,73.476 153.501,75.076 158.083 C 75.299 158.722,75.585 159.550,75.712 159.923 C 75.839 160.295,76.230 161.210,76.580 161.955 C 76.930 162.701,77.547 164.138,77.950 165.150 C 81.103 173.056,85.938 180.234,89.225 181.887 L 90.261 182.407 90.142 181.668 C 89.705 178.948,87.910 154.842,87.885 151.345 C 87.877 150.259,87.766 148.181,87.639 146.727 L 87.408 144.083 87.925 144.350 C 90.543 145.704,94.527 145.638,99.710 144.157 L 101.936 143.521 101.999 141.896 C 102.033 141.002,102.003 139.293,101.932 138.098 L 101.802 135.925 101.094 135.796 C 94.615 134.612,85.303 127.506,84.155 122.869 C 81.372 111.620,83.855 104.529,92.661 98.578 L 93.841 97.781 98.372 97.729 L 102.904 97.677 103.630 96.225 C 104.505 94.477,105.131 92.120,105.131 90.579 C 105.131 87.571,106.656 92.287,107.167 96.876 C 107.275 97.843,107.408 98.136,108.060 98.843 C 112.259 103.399,119.297 103.382,128.993 98.794 L 130.881 97.900 130.881 96.954 C 130.881 95.741,131.074 95.880,131.949 97.722 C 138.875 112.314,131.249 130.118,115.924 135.132 L 114.618 135.559 114.618 137.452 C 114.618 140.313,114.769 141.142,115.289 141.142 C 115.523 141.142,116.796 141.364,118.118 141.635 C 119.441 141.907,121.229 142.249,122.093 142.396 C 122.956 142.543,124.437 142.848,125.384 143.074 C 128.654 143.853,134.389 144.075,135.526 143.467 C 136.468 142.963,137.243 141.936,137.388 141.003 C 137.539 140.031,138.574 144.388,138.617 146.176 C 138.626 146.549,138.892 148.161,139.209 149.758 C 139.526 151.355,139.787 153.011,139.789 153.437 C 139.795 154.611,139.934 154.706,142.919 155.577 L 145.692 156.386 145.748 154.988 C 145.779 154.218,145.577 151.507,145.299 148.963 C 145.021 146.419,144.718 143.161,144.627 141.723 C 144.535 140.286,144.243 137.106,143.976 134.656 C 143.710 132.207,143.441 129.463,143.379 128.558 C 143.317 127.652,143.009 124.080,142.695 120.620 C 141.467 107.078,141.492 102.722,142.810 100.473 C 143.171 99.857,143.466 99.307,143.466 99.250 C 143.466 99.193,143.692 98.815,143.968 98.411 C 145.061 96.814,144.294 89.557,142.612 85.576 C 141.860 83.796,140.713 81.556,140.349 81.155 C 140.179 80.969,139.918 80.590,139.768 80.314 C 138.627 78.208,134.415 73.967,131.822 72.314 C 131.655 72.207,131.136 71.866,130.667 71.555 C 128.711 70.256,128.430 70.087,128.217 70.087 C 128.094 70.087,127.551 69.826,127.009 69.506 C 126.467 69.187,125.979 68.925,125.925 68.925 C 125.870 68.925,125.112 68.631,124.239 68.270 C 122.347 67.489,119.087 66.479,118.006 66.338 C 117.580 66.283,116.229 66.059,115.005 65.840 C 110.627 65.060,105.397 65.124,100.581 66.018 C 99.516 66.215,98.231 66.433,97.725 66.501 L 96.805 66.626 96.802 64.726 C 96.793 60.332,95.642 54.842,94.317 52.867 C 94.134 52.595,93.864 52.133,93.717 51.840 C 92.612 49.643,89.567 48.105,87.262 48.580 M238.199 53.485 C 236.789 55.034,237.239 57.707,238.934 57.851 C 240.672 57.998,241.682 55.125,240.446 53.553 C 239.919 52.884,238.778 52.849,238.199 53.485 M226.106 55.212 C 223.223 56.883,226.602 61.044,230.188 60.238 C 230.927 60.072,231.268 59.868,232.104 59.094 C 234.333 57.031,228.963 53.555,226.106 55.212 M265.400 97.712 C 264.832 97.861,264.235 99.065,264.220 100.091 C 264.177 102.892,266.951 103.342,267.559 100.632 C 268.030 98.528,267.097 97.265,265.400 97.712 M96.031 111.229 C 96.031 111.477,96.569 111.520,99.710 111.520 C 102.850 111.520,103.388 111.477,103.388 111.229 C 103.388 110.981,102.850 110.939,99.710 110.939 C 96.569 110.939,96.031 110.981,96.031 111.229 M114.037 111.229 C 114.037 111.477,114.575 111.520,117.715 111.520 C 120.856 111.520,121.394 111.477,121.394 111.229 C 121.394 110.981,120.856 110.939,117.715 110.939 C 114.575 110.939,114.037 110.981,114.037 111.229 M319.551 121.349 C 318.432 122.154,318.800 125.034,320.109 125.713 C 322.203 126.800,323.318 123.599,321.530 121.636 C 321.132 121.199,319.989 121.033,319.551 121.349 M369.409 148.828 C 368.735 148.940,367.590 149.307,367.473 149.447 C 367.420 149.512,367.202 149.660,366.989 149.777 C 366.060 150.288,365.809 152.628,366.618 153.240 C 369.177 155.175,373.475 153.989,373.475 151.348 C 373.475 149.725,371.473 148.484,369.409 148.828 M359.293 154.836 C 358.511 155.699,358.734 158.009,359.684 158.889 C 361.520 160.590,363.361 157.348,361.717 155.311 C 361.026 154.454,359.847 154.224,359.293 154.836 M221.684 191.216 C 220.673 191.486,219.537 191.783,219.161 191.876 C 218.263 192.098,214.521 193.978,214.521 194.207 C 214.521 194.305,214.380 194.385,214.209 194.385 C 213.301 194.385,207.164 200.586,207.164 201.503 C 207.164 201.667,206.869 202.333,206.508 202.982 C 203.388 208.601,202.872 216.495,205.237 222.421 C 212.273 240.051,235.667 242.663,246.329 227.009 C 246.764 226.370,247.223 225.760,247.348 225.653 C 247.946 225.146,249.003 222.588,249.669 220.039 C 250.933 215.193,250.585 209.333,248.796 205.324 C 247.597 202.638,246.791 201.184,246.108 200.474 C 245.879 200.237,245.692 199.957,245.692 199.854 C 245.692 199.564,242.025 195.897,241.088 195.249 C 236.181 191.856,232.550 190.700,226.851 190.716 C 223.922 190.725,223.304 190.784,221.684 191.216 M51.251 317.026 C 50.856 317.499,50.532 317.965,50.532 318.061 C 50.532 318.157,50.355 318.396,50.139 318.592 C 49.797 318.902,49.502 319.349,48.356 321.297 C 48.230 321.510,47.963 321.932,47.762 322.235 C 47.327 322.890,44.530 328.434,44.530 328.641 C 44.530 328.720,44.269 329.350,43.950 330.040 C 43.630 330.730,43.369 331.408,43.369 331.545 C 43.369 331.683,43.107 332.430,42.788 333.204 C 42.469 333.979,42.207 334.749,42.207 334.915 C 42.207 335.081,41.950 336.049,41.637 337.067 C 40.870 339.550,39.898 343.793,39.683 345.588 C 39.587 346.391,39.329 348.224,39.108 349.661 C 37.806 358.150,38.229 373.688,40.093 385.833 C 40.588 389.065,40.492 388.857,41.790 389.473 C 42.392 389.759,43.974 390.512,45.305 391.147 C 46.636 391.782,48.291 392.568,48.984 392.894 C 50.102 393.420,51.211 393.962,52.081 394.409 C 52.241 394.491,53.591 395.134,55.082 395.839 C 56.573 396.543,58.316 397.366,58.955 397.668 C 59.593 397.970,60.813 398.541,61.665 398.937 C 62.517 399.333,63.737 399.905,64.376 400.208 C 65.015 400.510,66.147 401.034,66.893 401.371 C 67.638 401.708,68.771 402.223,69.409 402.515 C 70.048 402.807,71.181 403.310,71.926 403.633 C 72.672 403.956,73.983 404.534,74.839 404.917 C 75.696 405.301,76.456 405.615,76.528 405.615 C 76.600 405.615,77.119 405.826,77.681 406.085 C 79.069 406.723,81.055 407.529,81.994 407.835 C 82.420 407.974,83.248 408.301,83.833 408.562 C 84.853 409.017,85.805 409.378,87.706 410.029 C 88.185 410.193,89.304 410.618,90.194 410.972 C 91.083 411.327,91.906 411.617,92.023 411.617 C 92.140 411.617,92.937 411.867,93.795 412.173 C 96.992 413.313,106.616 416.080,108.422 416.378 C 108.795 416.440,110.145 416.735,111.423 417.035 C 115.301 417.945,126.945 419.942,128.375 419.942 L 128.863 419.942 129.101 416.699 C 129.884 406.035,129.953 405.409,130.284 406.003 C 130.452 406.307,130.983 407.182,131.462 407.947 C 132.522 409.638,132.516 409.629,133.594 411.391 C 135.146 413.928,135.323 414.224,135.555 414.666 C 135.681 414.906,135.856 415.102,135.946 415.102 C 136.035 415.102,136.110 415.820,136.112 416.699 C 136.126 422.590,138.820 432.380,141.959 437.948 C 143.408 440.519,143.908 441.364,144.135 441.626 C 144.274 441.786,144.532 442.178,144.708 442.498 C 145.550 444.021,148.530 447.647,150.794 449.906 C 152.691 451.798,154.995 453.824,155.249 453.824 C 155.370 453.824,155.470 453.895,155.470 453.982 C 155.470 454.133,157.868 455.965,158.277 456.127 C 158.383 456.169,158.819 456.436,159.245 456.719 C 161.309 458.094,161.873 458.428,163.311 459.125 C 164.163 459.538,165.351 460.126,165.952 460.432 C 166.552 460.737,167.138 460.987,167.253 460.987 C 167.368 460.987,167.922 461.195,168.484 461.448 C 170.711 462.451,174.363 463.428,179.090 464.285 C 182.056 464.823,191.418 464.823,194.385 464.285 C 199.192 463.414,203.048 462.374,205.171 461.376 C 205.626 461.162,206.093 460.987,206.210 460.987 C 206.551 460.987,211.787 458.330,213.195 457.443 C 215.513 455.982,217.857 454.320,217.953 454.069 C 218.005 453.934,218.136 453.824,218.245 453.824 C 218.890 453.824,226.525 446.165,226.525 445.519 C 226.525 445.401,226.596 445.305,226.683 445.305 C 226.853 445.305,228.572 443.009,229.002 442.208 C 229.145 441.942,229.369 441.593,229.500 441.433 C 230.842 439.797,234.857 431.346,234.852 430.171 C 234.851 429.993,235.010 429.471,235.206 429.009 C 236.637 425.636,237.270 421.040,237.268 414.037 L 237.266 407.841 236.559 404.453 C 236.171 402.590,235.627 400.379,235.351 399.540 C 235.076 398.701,234.850 397.894,234.850 397.746 C 234.850 397.599,234.766 397.327,234.663 397.142 C 234.326 396.536,233.688 394.992,233.688 394.783 C 233.688 394.671,233.600 394.579,233.493 394.579 C 233.386 394.579,233.150 394.209,232.969 393.757 C 228.100 381.589,215.919 370.545,202.517 366.148 C 173.546 356.643,142.299 375.257,137.077 405.131 C 136.890 406.200,136.649 407.048,136.538 407.024 C 136.351 406.985,133.684 405.380,118.587 396.223 C 115.286 394.221,109.971 390.998,106.776 389.061 C 103.582 387.125,98.485 384.033,95.450 382.191 C 92.415 380.349,88.320 377.867,86.350 376.676 C 84.380 375.485,81.723 373.873,80.445 373.095 C 79.167 372.316,76.510 370.703,74.540 369.509 C 58.483 359.780,58.922 360.068,57.470 358.277 C 53.993 353.987,53.207 347.753,55.555 343.102 C 55.871 342.475,56.403 340.938,56.737 339.686 L 57.345 337.410 56.661 335.936 C 54.994 332.347,54.984 328.251,56.632 324.733 L 57.290 323.329 55.598 320.958 C 54.668 319.654,53.527 318.042,53.063 317.377 C 52.057 315.935,52.149 315.952,51.251 317.026 M194.869 365.612 C 236.419 372.967,250.411 425.079,218.076 452.041 C 193.590 472.458,155.638 463.949,142.261 435.044 C 127.893 403.995,147.701 369.286,182.188 365.080 C 184.508 364.797,192.052 365.113,194.869 365.612 " stroke="none" fill="#2f2f47" fill-rule="evenodd"></path><path id="path2" d="M0.000 91.191 L 0.000 182.381 0.770 182.381 L 1.539 182.381 1.594 141.578 C 1.654 96.357,1.603 98.296,2.941 90.610 C 3.265 88.746,3.561 86.960,3.598 86.641 C 3.698 85.780,4.804 81.299,5.444 79.161 C 5.751 78.135,6.002 77.178,6.002 77.035 C 6.002 76.892,6.208 76.207,6.461 75.512 C 6.713 74.818,7.158 73.509,7.450 72.604 C 7.742 71.699,8.046 70.871,8.126 70.765 C 8.206 70.658,8.334 70.311,8.410 69.993 C 8.487 69.676,8.760 68.954,9.018 68.390 C 9.276 67.826,9.487 67.306,9.487 67.234 C 9.487 66.754,14.296 56.923,15.140 55.678 C 15.435 55.244,15.677 54.736,15.679 54.550 C 15.681 54.364,15.749 54.211,15.831 54.211 C 15.913 54.211,16.267 53.710,16.617 53.098 C 17.570 51.434,17.981 50.765,18.970 49.274 C 20.587 46.835,21.197 45.985,21.442 45.828 C 21.576 45.743,21.686 45.568,21.688 45.441 C 21.689 45.313,21.929 44.926,22.220 44.582 C 22.511 44.237,23.054 43.552,23.427 43.058 C 23.800 42.564,24.409 41.791,24.782 41.340 C 25.155 40.889,25.678 40.234,25.944 39.886 C 26.210 39.537,26.711 38.974,27.057 38.635 C 27.403 38.295,27.686 37.920,27.686 37.802 C 27.686 37.684,27.948 37.401,28.267 37.173 C 28.587 36.946,28.848 36.686,28.848 36.595 C 28.848 36.270,37.563 27.686,37.893 27.686 C 37.961 27.686,38.289 27.403,38.621 27.057 C 38.953 26.711,39.510 26.210,39.859 25.944 C 40.208 25.678,40.684 25.297,40.915 25.098 C 41.353 24.721,43.122 23.350,43.821 22.846 C 44.043 22.686,44.436 22.360,44.696 22.120 C 44.955 21.880,45.286 21.684,45.430 21.684 C 45.574 21.684,45.692 21.613,45.692 21.526 C 45.692 21.396,46.818 20.591,48.585 19.458 C 48.751 19.351,49.294 18.981,49.793 18.635 C 50.291 18.289,50.762 18.006,50.839 18.006 C 50.917 18.006,51.250 17.803,51.579 17.555 C 51.909 17.307,52.635 16.850,53.194 16.539 C 53.753 16.227,54.211 15.908,54.211 15.828 C 54.211 15.748,54.380 15.682,54.587 15.682 C 54.794 15.682,55.012 15.602,55.073 15.505 C 55.191 15.313,58.643 13.387,59.439 13.069 C 59.705 12.962,60.881 12.408,62.052 11.836 C 64.868 10.463,66.358 9.779,67.183 9.480 C 67.556 9.346,68.122 9.122,68.441 8.984 C 69.093 8.702,70.407 8.230,72.701 7.454 C 73.553 7.166,74.380 6.869,74.540 6.796 C 74.700 6.722,75.310 6.519,75.895 6.345 C 76.481 6.171,77.701 5.804,78.606 5.530 C 79.511 5.256,80.818 4.912,81.510 4.765 C 82.202 4.617,83.483 4.312,84.355 4.086 C 85.228 3.861,86.319 3.638,86.780 3.591 C 87.241 3.544,88.052 3.408,88.582 3.287 C 90.536 2.843,92.693 2.498,94.579 2.327 C 100.871 1.755,103.705 1.554,105.470 1.551 L 107.454 1.549 107.454 0.774 L 107.454 0.000 53.727 0.000 L 0.000 0.000 0.000 91.191 M249.810 55.273 C 246.976 56.505,248.884 60.159,252.470 60.367 C 254.222 60.468,254.921 60.192,255.571 59.141 C 257.080 56.698,252.934 53.914,249.810 55.273 M240.964 69.992 C 239.951 71.006,239.878 72.820,240.812 73.814 C 242.189 75.282,243.844 73.548,243.502 70.996 C 243.309 69.558,241.941 69.016,240.964 69.992 M263.196 83.203 C 262.210 84.031,262.060 86.302,262.929 87.228 C 264.529 88.930,266.756 85.659,265.386 83.620 C 264.858 82.834,263.862 82.644,263.196 83.203 M326.034 134.953 C 324.318 136.709,326.702 140.428,328.528 138.845 C 329.302 138.174,329.136 135.900,328.251 135.040 C 327.386 134.201,326.792 134.178,326.034 134.953 M351.069 140.505 C 349.722 142.563,352.416 146.012,353.899 144.127 C 354.611 143.221,354.362 141.168,353.425 140.232 C 352.937 139.744,351.455 139.916,351.069 140.505 M345.653 156.787 C 343.891 157.498,343.166 159.306,344.166 160.495 C 346.079 162.769,351.210 161.679,351.210 159.000 C 351.210 156.927,348.239 155.744,345.653 156.787 M172.798 181.449 C 171.729 182.050,169.854 183.741,168.993 184.879 C 168.461 185.582,166.921 187.102,165.571 188.258 C 126.181 221.984,98.011 264.322,80.708 315.804 L 78.755 321.617 79.363 322.463 C 84.312 329.355,81.464 339.559,73.755 342.557 C 72.950 342.870,72.848 342.996,72.164 344.516 C 68.839 351.905,71.097 358.983,78.150 363.279 C 81.100 365.076,89.891 370.410,90.803 370.957 C 91.283 371.245,93.940 372.856,96.709 374.539 C 99.477 376.222,102.135 377.834,102.614 378.121 C 103.093 378.408,105.750 380.020,108.519 381.703 C 111.288 383.386,113.945 384.998,114.424 385.285 C 114.903 385.572,117.778 387.315,120.813 389.158 C 123.848 391.000,126.723 392.743,127.202 393.031 C 127.682 393.318,130.330 394.923,133.087 396.597 C 136.894 398.908,138.141 399.579,138.268 399.385 C 138.360 399.244,138.577 398.650,138.750 398.064 C 140.973 390.555,146.931 381.636,153.533 375.932 C 178.857 354.053,217.405 361.920,232.330 392.014 L 233.619 394.613 234.231 393.870 C 237.318 390.127,237.414 390.005,238.563 388.383 C 238.902 387.904,239.294 387.442,239.435 387.357 C 239.575 387.272,239.690 387.108,239.690 386.994 C 239.690 386.879,239.973 386.456,240.319 386.055 C 240.666 385.654,241.167 385.006,241.433 384.615 C 241.699 384.225,242.243 383.477,242.643 382.955 C 243.042 382.433,243.369 381.927,243.369 381.830 C 243.369 381.733,243.511 381.536,243.686 381.392 C 243.860 381.247,244.203 380.822,244.449 380.448 C 244.695 380.074,245.208 379.332,245.590 378.800 C 246.804 377.105,248.876 374.041,249.198 373.464 C 249.370 373.157,249.740 372.604,250.021 372.235 C 250.302 371.867,250.532 371.508,250.532 371.439 C 250.532 371.369,250.780 370.949,251.083 370.506 C 251.387 370.063,251.968 369.177,252.376 368.538 C 252.784 367.899,253.364 367.014,253.664 366.570 C 253.965 366.127,254.211 365.685,254.211 365.589 C 254.211 365.492,254.470 365.070,254.786 364.652 C 255.103 364.234,255.364 363.831,255.367 363.756 C 255.370 363.682,255.634 363.233,255.954 362.760 C 256.273 362.287,256.534 361.820,256.534 361.723 C 256.534 361.626,256.759 361.247,257.034 360.880 C 257.308 360.513,257.755 359.777,258.027 359.245 C 258.299 358.712,258.582 358.233,258.656 358.180 C 258.730 358.127,258.923 357.822,259.083 357.502 C 259.244 357.183,259.667 356.399,260.024 355.760 C 260.682 354.580,260.869 354.237,262.818 350.629 C 263.422 349.511,264.046 348.379,264.205 348.112 C 264.363 347.846,264.751 347.106,265.067 346.467 C 265.383 345.828,265.785 345.044,265.961 344.724 C 266.136 344.405,266.387 343.925,266.519 343.659 C 266.651 343.393,266.889 342.914,267.047 342.594 C 267.205 342.275,267.522 341.665,267.752 341.239 C 267.981 340.813,268.308 340.160,268.478 339.787 C 268.649 339.414,269.290 338.064,269.904 336.786 C 270.517 335.508,271.256 333.940,271.545 333.301 C 271.834 332.662,272.358 331.530,272.710 330.784 C 273.928 328.204,274.734 326.413,274.734 326.283 C 274.734 326.211,274.989 325.627,275.301 324.983 C 275.892 323.766,276.571 322.184,277.631 319.555 C 277.974 318.703,278.378 317.759,278.527 317.458 C 278.677 317.156,278.800 316.792,278.800 316.648 C 278.800 316.504,279.575 314.441,280.523 312.063 C 282.457 307.209,284.788 301.000,286.469 296.225 C 287.088 294.468,287.663 293.001,287.747 292.965 C 287.831 292.930,287.899 292.799,287.898 292.675 C 287.897 292.551,288.151 291.796,288.463 290.997 C 288.774 290.198,289.162 289.109,289.324 288.577 C 289.485 288.045,289.790 287.152,290.000 286.592 C 290.211 286.033,290.353 285.576,290.316 285.576 C 290.280 285.576,290.514 284.857,290.837 283.979 C 291.160 283.100,291.466 282.134,291.516 281.831 C 291.566 281.529,291.758 280.919,291.942 280.476 C 292.263 279.706,292.379 279.340,293.001 277.154 C 293.152 276.621,293.410 275.794,293.573 275.315 C 293.736 274.835,294.059 273.805,294.289 273.025 C 294.519 272.245,295.052 270.879,295.473 269.989 C 297.649 265.387,297.094 259.340,294.131 255.373 C 293.427 254.431,291.258 252.275,291.014 252.275 C 290.931 252.275,290.611 252.057,290.301 251.791 C 289.992 251.525,289.666 251.307,289.578 251.307 C 289.489 251.307,288.923 250.989,288.319 250.601 C 287.716 250.213,286.766 249.604,286.208 249.246 C 285.651 248.889,285.119 248.596,285.027 248.596 C 284.935 248.596,284.520 248.356,284.105 248.062 C 283.689 247.768,283.023 247.356,282.623 247.146 C 282.224 246.937,281.897 246.705,281.897 246.631 C 281.897 246.557,281.592 246.396,281.220 246.273 C 280.847 246.150,280.542 245.983,280.542 245.902 C 280.542 245.821,280.311 245.649,280.028 245.520 C 279.746 245.391,279.070 244.999,278.528 244.648 C 277.985 244.298,277.117 243.758,276.599 243.448 C 276.081 243.138,275.515 242.798,275.341 242.691 C 275.167 242.585,274.501 242.199,273.863 241.833 C 273.224 241.468,272.431 240.967,272.102 240.720 C 271.772 240.473,271.444 240.271,271.373 240.271 C 271.301 240.271,270.787 239.985,270.229 239.635 C 269.132 238.947,268.889 238.799,267.570 238.020 C 267.091 237.736,266.389 237.299,266.011 237.049 C 265.632 236.798,265.219 236.592,265.091 236.592 C 264.964 236.592,264.860 236.516,264.860 236.422 C 264.860 236.329,264.598 236.144,264.279 236.012 C 263.959 235.879,263.698 235.694,263.698 235.601 C 263.698 235.507,263.588 235.431,263.453 235.431 C 263.319 235.431,262.756 235.126,262.203 234.753 C 261.649 234.380,261.122 234.076,261.032 234.076 C 260.941 234.076,260.688 233.909,260.470 233.706 C 260.252 233.503,259.735 233.154,259.321 232.930 C 257.339 231.859,253.930 229.775,253.856 229.590 C 253.821 229.501,253.707 229.429,253.605 229.429 C 253.502 229.429,252.941 229.124,252.359 228.751 C 251.776 228.379,251.245 228.074,251.178 228.074 C 251.061 228.074,249.434 227.055,248.382 226.324 C 247.482 225.698,247.339 225.770,246.259 227.382 C 240.934 235.332,230.612 239.208,221.200 236.792 C 206.573 233.036,199.265 216.754,206.184 203.335 C 207.243 201.281,207.245 201.309,206.002 200.642 C 205.629 200.441,204.956 200.041,204.505 199.752 C 204.055 199.462,203.616 199.226,203.530 199.226 C 203.444 199.226,203.072 198.968,202.703 198.653 C 202.335 198.337,201.944 198.076,201.835 198.072 C 201.726 198.067,201.174 197.759,200.608 197.386 C 200.042 197.014,199.515 196.709,199.437 196.709 C 199.359 196.709,198.952 196.450,198.534 196.133 C 198.116 195.817,197.695 195.555,197.598 195.552 C 197.502 195.549,197.137 195.329,196.789 195.063 C 196.440 194.797,195.952 194.494,195.705 194.389 C 195.459 194.285,194.647 193.809,193.901 193.332 C 193.156 192.855,191.992 192.134,191.315 191.731 C 190.638 191.327,189.941 190.908,189.766 190.799 C 188.879 190.246,188.453 190.034,188.183 190.013 C 188.020 190.000,186.844 189.354,185.570 188.578 C 184.295 187.801,182.425 186.668,181.413 186.060 C 180.402 185.451,178.199 184.113,176.519 183.086 C 173.213 181.066,173.362 181.132,172.798 181.449 M398.447 269.458 C 398.444 292.650,398.366 309.903,398.257 311.326 C 397.879 316.283,397.649 318.287,397.070 321.684 C 396.743 323.601,396.437 325.518,396.391 325.944 C 396.344 326.370,396.098 327.459,395.844 328.364 C 395.590 329.269,395.325 330.358,395.256 330.784 C 395.039 332.121,393.063 338.584,392.133 340.996 C 391.775 341.927,391.481 342.755,391.482 342.835 C 391.482 343.023,390.423 345.542,389.709 347.051 C 389.406 347.691,389.158 348.319,389.158 348.446 C 389.158 348.572,388.896 349.119,388.577 349.661 C 388.258 350.203,387.996 350.772,387.996 350.925 C 387.996 351.079,387.735 351.629,387.415 352.148 C 387.096 352.667,386.834 353.228,386.834 353.393 C 386.834 353.559,386.760 353.724,386.668 353.759 C 386.576 353.795,386.196 354.390,385.823 355.082 C 384.160 358.168,383.864 358.694,383.520 359.178 C 383.320 359.461,383.153 359.766,383.150 359.856 C 383.148 359.946,382.886 360.362,382.570 360.780 C 382.253 361.198,381.994 361.616,381.994 361.708 C 381.994 361.800,381.824 362.057,381.617 362.280 C 381.409 362.503,381.110 362.957,380.952 363.288 C 380.794 363.620,380.494 364.074,380.285 364.297 C 380.076 364.520,379.766 364.956,379.594 365.265 C 379.423 365.575,378.892 366.350,378.414 366.989 C 377.936 367.628,377.394 368.369,377.210 368.635 C 377.026 368.901,376.727 369.293,376.544 369.506 C 375.768 370.412,375.048 371.310,374.369 372.217 C 373.675 373.143,372.013 375.049,370.571 376.571 C 368.251 379.021,365.608 381.670,364.486 382.672 C 363.770 383.311,362.908 384.107,362.570 384.441 C 362.232 384.775,360.910 385.882,359.632 386.902 C 358.354 387.921,356.993 389.020,356.608 389.344 C 356.222 389.667,355.815 389.932,355.704 389.932 C 355.593 389.932,355.473 390.008,355.437 390.101 C 355.363 390.293,353.491 391.654,351.500 392.962 C 350.755 393.452,349.579 394.225,348.887 394.679 C 348.195 395.134,347.323 395.659,346.951 395.847 C 346.578 396.034,346.055 396.348,345.789 396.543 C 345.277 396.919,344.194 397.526,342.594 398.335 C 342.062 398.604,341.409 398.951,341.142 399.106 C 340.876 399.261,340.310 399.558,339.884 399.767 C 339.458 399.976,338.848 400.277,338.529 400.437 C 337.215 401.094,335.383 401.936,335.266 401.936 C 335.198 401.936,334.588 402.197,333.912 402.517 C 333.236 402.836,332.604 403.098,332.508 403.097 C 332.412 403.097,331.723 403.351,330.978 403.661 C 328.209 404.814,323.618 406.381,321.491 406.900 C 320.958 407.029,319.869 407.311,319.071 407.526 C 311.767 409.487,304.592 410.500,295.983 410.784 L 292.546 410.898 292.546 411.790 L 292.546 412.682 346.273 412.632 L 400.000 412.583 400.000 321.297 L 400.000 230.010 399.226 230.010 L 398.451 230.010 398.447 269.458 M182.381 365.267 C 179.126 365.656,178.093 365.825,175.895 366.326 C 164.491 368.930,154.218 375.629,147.418 384.898 C 145.855 387.030,145.642 387.347,144.654 389.028 C 132.577 409.559,136.783 435.791,154.608 451.111 C 186.557 478.569,235.768 456.071,235.701 414.037 C 235.663 389.742,218.537 369.783,194.159 365.623 C 192.420 365.326,184.013 365.072,182.381 365.267 M209.410 388.586 C 211.992 389.690,213.425 392.890,212.506 395.497 C 212.186 396.403,184.527 437.962,183.768 438.677 C 181.821 440.510,178.487 440.570,176.401 438.809 C 175.087 437.700,161.330 419.100,160.999 417.985 C 159.914 414.329,162.553 410.835,166.391 410.846 C 169.147 410.855,169.436 411.114,175.133 418.693 L 179.705 424.776 191.219 407.499 C 197.552 397.997,202.962 389.983,203.242 389.690 C 204.706 388.159,207.318 387.692,209.410 388.586 " stroke="none" fill="#f5f5f5" fill-rule="evenodd"></path><path id="path3" d="M252.983 65.262 C 251.231 66.333,251.827 69.894,253.758 69.894 C 255.072 69.894,256.042 66.818,255.124 65.561 C 254.822 65.148,253.476 64.960,252.983 65.262 M254.114 74.859 C 251.791 76.073,253.041 79.096,256.136 79.751 C 259.520 80.466,261.704 77.835,259.449 75.761 C 258.151 74.569,255.522 74.124,254.114 74.859 M105.167 91.323 C 104.874 93.489,104.339 95.233,103.515 96.709 L 102.866 97.870 98.195 97.967 L 93.523 98.064 91.754 99.313 C 84.202 104.645,81.999 110.649,83.827 120.910 C 84.337 123.772,84.611 124.355,86.523 126.646 C 90.352 131.233,95.958 134.661,101.521 135.818 L 102.075 135.933 102.005 140.278 C 101.950 143.738,101.987 144.643,102.190 144.720 C 102.330 144.774,103.811 144.691,105.482 144.536 C 108.015 144.301,114.013 143.853,114.630 143.853 C 114.730 143.853,114.786 142.069,114.760 139.672 L 114.714 135.491 116.457 134.863 C 131.534 129.428,138.672 112.254,131.875 97.770 L 131.104 96.128 131.089 97.017 L 131.075 97.907 128.993 98.883 C 119.439 103.366,112.815 103.478,108.494 99.228 L 107.115 97.870 106.997 96.376 C 106.856 94.589,106.275 91.839,105.766 90.548 L 105.398 89.616 105.167 91.323 M103.388 111.229 C 103.388 111.477,102.850 111.520,99.710 111.520 C 96.569 111.520,96.031 111.477,96.031 111.229 C 96.031 110.981,96.569 110.939,99.710 110.939 C 102.850 110.939,103.388 110.981,103.388 111.229 M121.394 111.229 C 121.394 111.477,120.856 111.520,117.715 111.520 C 114.575 111.520,114.037 111.477,114.037 111.229 C 114.037 110.981,114.575 110.939,117.715 110.939 C 120.856 110.939,121.394 110.981,121.394 111.229 M335.334 139.711 C 333.303 140.394,332.544 142.457,333.845 143.758 C 335.467 145.380,339.019 145.018,340.312 143.098 C 341.881 140.768,338.676 138.588,335.334 139.711 M341.660 148.314 C 340.647 149.111,340.742 151.022,341.848 152.096 C 342.735 152.957,343.441 152.978,344.126 152.163 C 345.725 150.263,343.532 146.842,341.660 148.314 M286.478 296.179 C 284.881 300.757,282.535 307.013,280.523 312.063 C 279.575 314.441,278.800 316.459,278.800 316.547 C 278.800 317.071,282.322 318.505,284.287 318.780 C 296.751 320.530,303.934 306.180,295.063 297.249 C 294.371 296.552,293.543 295.858,293.224 295.706 C 292.904 295.553,292.294 295.217,291.868 294.959 C 291.442 294.700,290.910 294.487,290.685 294.485 C 290.461 294.484,289.957 294.265,289.567 294.000 C 288.902 293.549,287.797 292.930,287.667 292.936 C 287.635 292.937,287.100 294.396,286.478 296.179 M62.128 300.246 C 60.935 301.518,56.893 305.871,54.899 308.031 C 54.160 308.832,52.899 310.164,52.097 310.991 C 49.777 313.384,49.779 313.696,52.143 316.189 C 52.508 316.574,53.163 317.402,53.599 318.029 C 54.035 318.655,55.047 320.082,55.849 321.200 C 57.471 323.464,57.445 323.394,56.952 324.203 C 53.379 330.062,56.323 339.079,62.827 342.195 C 76.365 348.681,88.515 331.307,77.804 320.779 C 76.442 319.440,75.169 317.776,71.551 312.603 L 67.007 306.108 68.052 303.344 C 68.627 301.824,69.124 300.456,69.156 300.303 C 69.202 300.088,68.692 299.950,66.893 299.689 C 65.615 299.503,64.255 299.303,63.871 299.242 C 63.217 299.140,63.105 299.204,62.128 300.246 " stroke="none" fill="#fbb4b3" fill-rule="evenodd"></path><path id="path4" d="M105.207 89.722 C 105.149 89.873,105.133 90.243,105.171 90.545 C 105.228 90.993,105.259 90.943,105.336 90.271 C 105.434 89.424,105.391 89.242,105.207 89.722 M130.939 96.999 C 130.939 97.585,130.975 97.824,131.020 97.531 C 131.064 97.239,131.064 96.759,131.020 96.467 C 130.975 96.174,130.939 96.413,130.939 96.999 M98.258 97.773 L 93.611 97.881 98.198 97.924 C 101.094 97.951,102.829 97.896,102.904 97.773 C 102.970 97.667,102.997 97.599,102.964 97.623 C 102.931 97.647,100.813 97.714,98.258 97.773 M134.437 109.293 C 134.437 110.358,134.470 110.769,134.509 110.206 C 134.548 109.644,134.548 108.773,134.508 108.270 C 134.468 107.768,134.436 108.228,134.437 109.293 M83.121 114.618 C 83.121 115.310,83.156 115.593,83.199 115.247 C 83.242 114.901,83.242 114.334,83.199 113.988 C 83.156 113.642,83.121 113.925,83.121 114.618 M101.888 136.592 C 101.890 137.018,101.930 137.170,101.976 136.929 C 102.023 136.688,102.021 136.340,101.972 136.155 C 101.924 135.969,101.886 136.167,101.888 136.592 M113.601 143.989 C 113.841 144.036,114.233 144.036,114.472 143.989 C 114.712 143.943,114.516 143.906,114.037 143.906 C 113.558 143.906,113.362 143.943,113.601 143.989 M110.794 144.188 C 111.193 144.229,111.847 144.229,112.246 144.188 C 112.645 144.146,112.318 144.112,111.520 144.112 C 110.721 144.112,110.394 144.146,110.794 144.188 M108.180 144.380 C 108.526 144.423,109.092 144.423,109.439 144.380 C 109.785 144.337,109.501 144.302,108.809 144.302 C 108.117 144.302,107.834 144.337,108.180 144.380 M160.213 178.109 C 157.029 178.921,153.890 181.068,152.239 183.563 C 151.964 183.978,150.204 185.645,148.328 187.266 C 119.242 212.400,96.453 241.975,79.661 276.379 C 76.211 283.449,73.754 288.971,70.834 296.224 C 70.084 298.088,69.415 299.699,69.348 299.806 C 69.281 299.913,69.212 300.100,69.193 300.221 C 69.175 300.343,68.675 301.717,68.083 303.275 L 67.007 306.108 71.562 312.638 C 75.707 318.580,78.277 321.729,78.751 321.447 C 78.792 321.422,79.690 318.830,80.748 315.685 C 98.032 264.293,126.215 221.954,165.571 188.258 C 166.921 187.102,168.461 185.582,168.993 184.879 C 169.922 183.650,171.835 181.958,172.938 181.390 L 173.465 181.118 171.776 180.117 C 167.831 177.779,164.069 177.126,160.213 178.109 M203.547 214.134 C 203.547 214.826,203.582 215.109,203.625 214.763 C 203.668 214.417,203.668 213.850,203.625 213.504 C 203.582 213.158,203.547 213.441,203.547 214.134 M206.486 225.557 C 206.651 225.876,206.830 226.137,206.883 226.137 C 206.936 226.137,206.845 225.876,206.680 225.557 C 206.514 225.237,206.336 224.976,206.282 224.976 C 206.229 224.976,206.321 225.237,206.486 225.557 M208.677 228.800 C 208.995 229.199,209.498 229.743,209.795 230.010 C 210.092 230.276,209.863 229.949,209.287 229.284 C 208.130 227.947,207.774 227.665,208.677 228.800 M243.369 230.687 C 242.899 231.167,242.557 231.559,242.611 231.559 C 242.664 231.559,243.092 231.167,243.562 230.687 C 244.033 230.208,244.374 229.816,244.321 229.816 C 244.267 229.816,243.839 230.208,243.369 230.687 M211.326 231.559 C 211.742 231.985,212.126 232.333,212.179 232.333 C 212.233 232.333,211.936 231.985,211.520 231.559 C 211.104 231.133,210.720 230.784,210.667 230.784 C 210.614 230.784,210.910 231.133,211.326 231.559 M241.239 232.550 C 240.564 233.142,240.564 233.143,241.185 232.730 C 241.528 232.502,241.860 232.232,241.922 232.130 C 242.109 231.828,241.954 231.923,241.239 232.550 M213.296 233.123 C 213.536 233.414,214.714 234.155,214.714 234.015 C 214.714 233.970,214.344 233.689,213.892 233.391 C 213.439 233.092,213.171 232.972,213.296 233.123 M237.561 234.850 C 237.188 235.054,236.953 235.225,237.038 235.229 C 237.243 235.240,238.335 234.672,238.335 234.555 C 238.335 234.428,238.324 234.432,237.561 234.850 M223.475 237.307 C 223.662 237.355,223.967 237.355,224.153 237.307 C 224.339 237.258,224.187 237.218,223.814 237.218 C 223.441 237.218,223.289 237.258,223.475 237.307 M229.770 237.310 C 230.011 237.357,230.359 237.355,230.544 237.306 C 230.729 237.258,230.532 237.220,230.106 237.222 C 229.681 237.224,229.529 237.264,229.770 237.310 M225.799 237.510 C 226.411 237.548,227.413 237.548,228.025 237.510 C 228.637 237.472,228.136 237.440,226.912 237.440 C 225.687 237.440,225.186 237.472,225.799 237.510 M60.213 302.130 C 59.743 302.609,59.401 303.001,59.455 303.001 C 59.508 303.001,59.936 302.609,60.407 302.130 C 60.877 301.651,61.218 301.258,61.165 301.258 C 61.112 301.258,60.683 301.651,60.213 302.130 M57.398 305.179 L 56.438 306.196 57.454 305.235 C 58.013 304.706,58.470 304.249,58.470 304.218 C 58.470 304.074,58.291 304.235,57.398 305.179 M54.883 307.890 L 53.727 309.100 54.937 307.944 C 55.603 307.309,56.147 306.764,56.147 306.734 C 56.147 306.591,55.956 306.766,54.883 307.890 M52.071 310.891 L 51.404 311.617 52.130 310.949 C 52.806 310.328,52.945 310.165,52.797 310.165 C 52.765 310.165,52.438 310.491,52.071 310.891 M56.848 339.486 C 56.554 340.663,56.021 342.236,55.663 342.982 C 53.099 348.321,54.050 354.577,58.074 358.833 C 59.318 360.149,60.088 360.691,64.569 363.409 C 66.379 364.507,70.692 367.121,74.153 369.218 C 77.614 371.315,83.103 374.643,86.350 376.613 C 89.598 378.583,94.956 381.833,98.258 383.835 C 101.559 385.837,105.436 388.189,106.873 389.061 C 114.764 393.849,121.959 398.212,125.557 400.390 C 127.793 401.744,131.206 403.816,133.141 404.994 L 136.659 407.137 136.892 405.746 C 137.111 404.438,138.058 400.365,138.340 399.516 C 138.430 399.244,138.414 399.205,138.285 399.385 C 138.143 399.583,136.967 398.952,133.087 396.597 C 130.330 394.923,127.682 393.318,127.202 393.031 C 126.723 392.743,123.848 391.000,120.813 389.158 C 117.778 387.315,114.903 385.572,114.424 385.285 C 113.945 384.998,111.288 383.386,108.519 381.703 C 105.750 380.020,103.093 378.408,102.614 378.121 C 102.135 377.834,99.477 376.222,96.709 374.539 C 93.940 372.856,91.283 371.245,90.803 370.957 C 89.891 370.410,81.100 365.076,78.150 363.279 C 71.161 359.022,68.787 351.687,72.122 344.656 C 72.978 342.852,72.987 342.891,71.781 343.215 C 67.125 344.467,61.219 342.412,58.265 338.511 L 57.383 337.346 56.848 339.486 M185.632 363.551 C 186.302 363.589,187.347 363.589,187.955 363.550 C 188.563 363.512,188.015 363.481,186.738 363.481 C 185.460 363.482,184.962 363.513,185.632 363.551 M182.143 363.741 C 182.491 363.785,183.014 363.784,183.305 363.740 C 183.595 363.695,183.311 363.660,182.672 363.661 C 182.033 363.662,181.795 363.698,182.143 363.741 M190.275 363.741 C 190.623 363.785,191.145 363.784,191.436 363.740 C 191.727 363.695,191.442 363.660,190.803 363.661 C 190.165 363.662,189.927 363.698,190.275 363.741 M180.300 363.928 C 180.486 363.977,180.791 363.977,180.978 363.928 C 181.164 363.880,181.012 363.840,180.639 363.840 C 180.266 363.840,180.114 363.880,180.300 363.928 M192.597 363.932 C 192.837 363.978,193.186 363.976,193.371 363.928 C 193.556 363.879,193.359 363.841,192.933 363.844 C 192.507 363.846,192.356 363.885,192.597 363.932 M185.343 365.101 C 186.173 365.137,187.480 365.137,188.247 365.100 C 189.014 365.063,188.335 365.034,186.738 365.034 C 185.140 365.034,184.513 365.064,185.343 365.101 M181.752 365.287 C 181.992 365.333,182.384 365.333,182.623 365.287 C 182.863 365.241,182.667 365.203,182.188 365.203 C 181.709 365.203,181.513 365.241,181.752 365.287 M190.852 365.287 C 191.091 365.333,191.484 365.333,191.723 365.287 C 191.963 365.241,191.767 365.203,191.288 365.203 C 190.808 365.203,190.612 365.241,190.852 365.287 M170.184 366.215 C 169.811 366.358,169.637 366.476,169.797 366.476 C 169.956 366.476,170.392 366.358,170.765 366.215 C 171.137 366.071,171.312 365.954,171.152 365.954 C 170.992 365.954,170.557 366.071,170.184 366.215 M208.519 368.538 C 208.785 368.690,209.090 368.815,209.197 368.815 C 209.303 368.815,209.172 368.690,208.906 368.538 C 208.640 368.386,208.335 368.262,208.228 368.262 C 208.122 368.262,208.253 368.386,208.519 368.538 M164.134 368.746 C 163.383 369.153,163.468 369.294,164.230 368.906 C 164.960 368.535,165.089 368.438,164.843 368.449 C 164.746 368.453,164.426 368.587,164.134 368.746 M210.261 369.303 C 210.261 369.356,210.523 369.535,210.842 369.700 C 211.162 369.865,211.423 369.957,211.423 369.903 C 211.423 369.850,211.162 369.671,210.842 369.506 C 210.523 369.341,210.261 369.249,210.261 369.303 M162.972 371.069 C 162.248 371.462,162.292 371.625,163.020 371.249 C 163.340 371.084,163.601 370.907,163.601 370.857 C 163.601 370.732,163.580 370.739,162.972 371.069 M209.874 370.852 C 209.874 370.905,210.136 371.084,210.455 371.249 C 210.774 371.414,211.036 371.506,211.036 371.452 C 211.036 371.399,210.774 371.220,210.455 371.055 C 210.136 370.890,209.874 370.798,209.874 370.852 M216.457 373.149 C 216.457 373.197,216.777 373.480,217.168 373.778 C 217.559 374.076,217.817 374.221,217.743 374.100 C 217.589 373.852,216.457 373.014,216.457 373.149 M222.839 378.800 C 226.000 382.113,226.194 382.302,225.025 380.929 C 224.481 380.290,223.226 378.984,222.237 378.025 C 220.767 376.601,220.877 376.743,222.839 378.800 M151.016 378.219 C 150.223 379.017,149.618 379.671,149.671 379.671 C 149.724 379.671,150.417 379.017,151.210 378.219 C 152.003 377.420,152.609 376.767,152.556 376.767 C 152.502 376.767,151.810 377.420,151.016 378.219 M221.394 379.477 C 222.348 380.436,223.172 381.220,223.225 381.220 C 223.278 381.220,222.542 380.436,221.588 379.477 C 220.634 378.519,219.810 377.735,219.756 377.735 C 219.703 377.735,220.440 378.519,221.394 379.477 M151.979 379.429 L 150.726 380.736 152.033 379.483 C 152.752 378.794,153.340 378.206,153.340 378.176 C 153.340 378.033,153.143 378.215,151.979 379.429 M223.427 381.668 C 223.427 381.701,223.710 381.984,224.056 382.297 L 224.685 382.865 224.117 382.236 C 223.587 381.650,223.427 381.518,223.427 381.668 M226.912 386.060 C 227.139 386.379,227.369 386.641,227.422 386.641 C 227.476 386.641,227.333 386.379,227.106 386.060 C 226.878 385.741,226.648 385.479,226.595 385.479 C 226.542 385.479,226.684 385.741,226.912 386.060 M230.687 389.158 C 230.853 389.477,231.031 389.739,231.084 389.739 C 231.138 389.739,231.046 389.477,230.881 389.158 C 230.716 388.838,230.537 388.577,230.484 388.577 C 230.431 388.577,230.522 388.838,230.687 389.158 M203.182 389.787 L 202.614 390.416 203.243 389.848 C 203.830 389.318,203.961 389.158,203.812 389.158 C 203.778 389.158,203.495 389.441,203.182 389.787 M211.036 389.835 C 211.397 390.208,211.736 390.513,211.789 390.513 C 211.843 390.513,211.591 390.208,211.229 389.835 C 210.868 389.463,210.529 389.158,210.476 389.158 C 210.423 389.158,210.675 389.463,211.036 389.835 M231.887 391.382 C 232.064 391.753,232.243 392.023,232.285 391.981 C 232.374 391.892,231.786 390.707,231.654 390.707 C 231.605 390.707,231.710 391.011,231.887 391.382 M141.367 391.586 C 141.043 392.298,141.105 392.450,141.456 391.803 C 141.619 391.501,141.717 391.217,141.673 391.173 C 141.629 391.128,141.491 391.315,141.367 391.586 M230.413 391.772 C 230.413 391.878,230.580 392.270,230.784 392.643 C 230.988 393.015,231.155 393.233,231.155 393.127 C 231.155 393.020,230.988 392.628,230.784 392.256 C 230.580 391.883,230.413 391.665,230.413 391.772 M212.648 393.708 C 212.649 394.453,212.684 394.734,212.726 394.333 C 212.768 393.931,212.767 393.321,212.724 392.977 C 212.682 392.634,212.647 392.962,212.648 393.708 M232.928 393.514 C 232.928 393.621,233.052 393.925,233.204 394.192 C 233.356 394.458,233.481 394.589,233.481 394.482 C 233.481 394.376,233.356 394.071,233.204 393.804 C 233.052 393.538,232.928 393.408,232.928 393.514 M235.476 408.519 C 235.476 408.892,235.516 409.044,235.564 408.858 C 235.613 408.671,235.613 408.366,235.564 408.180 C 235.516 407.994,235.476 408.146,235.476 408.519 M137.900 409.197 C 137.902 409.622,137.942 409.774,137.988 409.533 C 138.034 409.292,138.032 408.944,137.984 408.759 C 137.935 408.574,137.898 408.771,137.900 409.197 M235.673 410.745 C 235.675 411.171,235.715 411.323,235.761 411.082 C 235.808 410.841,235.806 410.493,235.757 410.308 C 235.709 410.122,235.671 410.319,235.673 410.745 M137.717 411.907 C 137.718 412.546,137.755 412.784,137.798 412.436 C 137.841 412.088,137.840 411.565,137.796 411.274 C 137.751 410.983,137.716 411.268,137.717 411.907 M319.506 412.730 C 334.281 412.757,358.458 412.757,373.233 412.730 C 388.008 412.703,375.920 412.680,346.370 412.680 C 316.820 412.680,304.731 412.703,319.506 412.730 M137.715 416.263 C 137.715 416.849,137.752 417.089,137.796 416.796 C 137.840 416.503,137.840 416.024,137.796 415.731 C 137.752 415.438,137.715 415.678,137.715 416.263 M160.752 416.360 C 160.754 416.893,160.791 417.087,160.836 416.793 C 160.880 416.499,160.879 416.063,160.833 415.825 C 160.787 415.587,160.751 415.828,160.752 416.360 M235.673 417.522 C 235.675 417.948,235.715 418.099,235.761 417.858 C 235.808 417.618,235.806 417.269,235.757 417.084 C 235.709 416.899,235.671 417.096,235.673 417.522 M137.900 419.071 C 137.902 419.497,137.942 419.648,137.988 419.407 C 138.034 419.166,138.032 418.818,137.984 418.633 C 137.935 418.448,137.898 418.645,137.900 419.071 M235.476 419.748 C 235.476 420.121,235.516 420.273,235.564 420.087 C 235.613 419.901,235.613 419.596,235.564 419.409 C 235.516 419.223,235.476 419.376,235.476 419.748 M149.274 445.946 C 149.274 445.980,149.557 446.263,149.903 446.576 L 150.532 447.144 149.964 446.515 C 149.434 445.928,149.274 445.797,149.274 445.946 M221.390 448.838 L 219.458 450.823 221.442 448.890 C 222.534 447.828,223.427 446.934,223.427 446.906 C 223.427 446.766,223.185 446.995,221.390 448.838 M151.985 448.887 C 152.563 449.472,153.080 449.952,153.133 449.952 C 153.186 449.952,152.757 449.472,152.178 448.887 C 151.600 448.301,151.083 447.822,151.030 447.822 C 150.976 447.822,151.406 448.301,151.985 448.887 M153.921 450.593 C 153.921 450.626,154.204 450.909,154.550 451.222 L 155.179 451.791 154.610 451.162 C 154.080 450.575,153.921 450.443,153.921 450.593 M218.478 451.549 L 217.909 452.178 218.538 451.609 C 219.125 451.079,219.256 450.920,219.107 450.920 C 219.074 450.920,218.790 451.203,218.478 451.549 M180.300 462.863 C 180.486 462.912,180.791 462.912,180.978 462.863 C 181.164 462.815,181.012 462.775,180.639 462.775 C 180.266 462.775,180.114 462.815,180.300 462.863 M192.691 462.863 C 192.878 462.912,193.182 462.912,193.369 462.863 C 193.555 462.815,193.403 462.775,193.030 462.775 C 192.657 462.775,192.505 462.815,192.691 462.863 M182.043 463.057 C 182.229 463.106,182.534 463.106,182.720 463.057 C 182.907 463.008,182.754 462.968,182.381 462.968 C 182.009 462.968,181.856 463.008,182.043 463.057 M190.755 463.057 C 190.941 463.106,191.246 463.106,191.433 463.057 C 191.619 463.008,191.467 462.968,191.094 462.968 C 190.721 462.968,190.569 463.008,190.755 463.057 M185.528 463.261 C 186.246 463.298,187.423 463.298,188.141 463.261 C 188.860 463.223,188.272 463.193,186.834 463.193 C 185.397 463.193,184.809 463.223,185.528 463.261 " stroke="none" fill="#c3c4c4" fill-rule="evenodd"></path></g></svg>