<?xml version="1.0" encoding="UTF-8"?>
<svg xmlns="http://www.w3.org/2000/svg" xmlns:xlink="http://www.w3.org/1999/xlink" width="1700px" height="1000px" viewBox="0 0 1700 1000" version="1.1">
<g id="surface1">
<path style=" stroke:none;fill-rule:nonzero;fill:rgb(0%,0%,0%);fill-opacity:1;" d="M 318.75 156.25 C 318.75 69.957031 437.675781 0 584.375 0 C 731.074219 0 850 69.957031 850 156.25 C 850 69.957031 968.925781 0 1115.625 0 C 1262.324219 0 1381.25 69.957031 1381.25 156.25 L 1381.25 156.625 C 1381.25 161 1381.25 173.5 1377.210938 187.5 L 1593.75 187.5 C 1652.429688 187.5 1700 215.480469 1700 250 L 1700 375 C 1700 409.519531 1652.429688 437.5 1593.75 437.5 L 1593.75 906.25 C 1593.75 958.027344 1522.394531 1000 1434.375 1000 L 265.625 1000 C 177.605469 1000 106.25 958.027344 106.25 906.25 L 106.25 437.5 C 47.570312 437.5 0 409.519531 0 375 L 0 250 C 0 215.480469 47.570312 187.5 106.25 187.5 L 322.789062 187.5 C 319.996094 177.292969 318.644531 166.964844 318.75 156.625 Z M 432.226562 187.5 L 743.75 187.5 L 743.75 156.25 C 743.75 104.472656 672.394531 62.5 584.375 62.5 C 496.355469 62.5 425 104.472656 425 156.25 C 425 161.5625 425.210938 173.375 429.78125 183.125 Z M 956.25 187.5 L 1267.773438 187.5 L 1270.21875 183.125 C 1274.789062 173.375 1275 161.5625 1275 156.25 C 1275 104.472656 1203.644531 62.5 1115.625 62.5 C 1027.605469 62.5 956.25 104.472656 956.25 156.25 Z M 106.25 250 L 106.25 375 L 743.75 375 L 743.75 250 Z M 956.25 250 L 956.25 375 L 1593.75 375 L 1593.75 250 Z M 1487.5 437.5 L 956.25 437.5 L 956.25 937.5 L 1434.375 937.5 C 1463.714844 937.5 1487.5 923.507812 1487.5 906.25 Z M 743.75 937.5 L 743.75 437.5 L 212.5 437.5 L 212.5 906.25 C 212.5 923.507812 236.285156 937.5 265.625 937.5 Z M 743.75 937.5 "/>
</g>
</svg>
