<?xml version="1.0" encoding="UTF-8"?>
<svg xmlns="http://www.w3.org/2000/svg" xmlns:xlink="http://www.w3.org/1999/xlink" width="1800px" height="1200px" viewBox="0 0 1800 1200" version="1.1">
<g id="surface1">
<path style=" stroke:none;fill-rule:nonzero;fill:rgb(0%,0%,0%);fill-opacity:1;" d="M 1775.824219 224.257812 C 1767.980469 219.28125 1757.488281 216.710938 1746.621094 217.027344 C 1620.25 221.191406 1483.230469 235.164062 1315.40625 260.996094 C 1304.71875 262.640625 1295.511719 267.1875 1290.058594 273.535156 C 1284.585938 279.882812 1283.300781 287.46875 1286.5625 294.464844 L 1290.789062 303.554688 C 1169.417969 277.289062 1015.464844 263.261719 876.765625 266.804688 C 818.578125 266.804688 754.167969 284.875 695.347656 311.863281 L 503.339844 311.863281 L 511.421875 294.464844 C 514.683594 287.46875 513.398438 279.898438 507.925781 273.535156 C 502.453125 267.1875 493.265625 262.640625 482.554688 260.996094 C 314.714844 235.179688 177.691406 221.203125 51.34375 217.027344 C 40.355469 216.75 29.964844 219.292969 22.140625 224.257812 C 14.335938 229.238281 9.890625 236.140625 9.890625 243.34375 L 9.890625 685.417969 C 9.890625 699.960938 27.59375 711.761719 49.40625 711.761719 L 288.414062 711.761719 C 303.945312 711.761719 317.441406 705.53125 323.839844 696.324219 C 516.34375 844.546875 711.054688 976.332031 869.53125 976.332031 C 898.082031 976.332031 925.449219 971.972656 951.429688 962.753906 C 973.28125 975.121094 1000.113281 981.679688 1027.238281 981.679688 C 1057.132812 981.679688 1087.027344 974.171875 1109.925781 959.089844 C 1121.601562 951.398438 1130.316406 942.441406 1136.144531 932.890625 C 1151.160156 937.488281 1167.578125 940.03125 1184.648438 940.097656 C 1184.90625 940.097656 1185.144531 940.097656 1185.402344 940.097656 C 1216.597656 940.097656 1245.9375 932.101562 1268.066406 917.519531 C 1287.507812 904.703125 1298.355469 888.4375 1301.558594 871.628906 C 1303.730469 871.695312 1305.902344 871.839844 1308.078125 871.839844 C 1338.050781 871.839844 1367.46875 864.898438 1388.828125 850.820312 C 1434.507812 820.746094 1435.4375 771.722656 1391.316406 740.871094 C 1389.480469 739.371094 1387.5625 737.933594 1385.707031 736.433594 L 1476.550781 699.578125 C 1483.683594 706.980469 1495.894531 711.789062 1509.566406 711.789062 L 1748.578125 711.789062 C 1770.390625 711.789062 1788.09375 699.988281 1788.09375 685.445312 L 1788.09375 243.34375 C 1788.09375 236.140625 1783.648438 229.238281 1775.824219 224.257812 Z M 88.921875 659.074219 L 88.921875 271.375 C 188.539062 276.328125 296.636719 287.5625 423.28125 306.109375 L 259.292969 659.074219 Z M 1333.269531 813.316406 C 1324.515625 819.085938 1312.046875 819.5625 1305.566406 819.246094 C 1293.496094 818.785156 1281.640625 815.359375 1273.875 810.128906 C 1273.421875 809.8125 1272.867188 809.605469 1272.394531 809.3125 C 1271.210938 808.429688 1270.339844 807.429688 1269.09375 806.574219 L 1057.648438 663.871094 C 1042.296875 653.515625 1017.28125 653.425781 1001.773438 663.632812 C 986.242188 673.855469 986.085938 690.53125 1001.417969 700.882812 L 1212.84375 843.585938 C 1227.820312 853.703125 1227.664062 870.035156 1212.507812 880.019531 C 1197.335938 890.019531 1172.816406 889.925781 1157.839844 879.796875 L 1110.933594 848.132812 L 899.523438 705.453125 C 884.210938 695.101562 859.179688 695.007812 843.628906 705.214844 C 828.101562 715.4375 827.960938 732.125 843.292969 742.464844 L 1054.742188 885.15625 C 1069.71875 895.273438 1069.5625 911.621094 1054.40625 921.605469 C 1039.234375 931.574219 1014.714844 931.496094 999.738281 921.367188 L 741.382812 747.011719 C 726.070312 736.65625 701.039062 736.550781 685.488281 746.773438 C 669.960938 756.996094 669.820312 773.683594 685.152344 784.023438 L 889.09375 921.65625 C 762.445312 938.121094 558.425781 798.027344 352.074219 637.433594 L 478.863281 364.550781 L 603.414062 364.550781 C 565.066406 391.621094 534.222656 421.097656 517.171875 448.71875 C 484.316406 501.855469 512.171875 531.464844 531.675781 544.386719 C 532.722656 545.074219 533.808594 545.730469 534.972656 546.335938 C 602.191406 581.847656 688.019531 605.980469 816.738281 520.113281 C 850.050781 520.625 880.359375 516.738281 907.054688 508.402344 C 1062.09375 581.597656 1204.625 671.21875 1331.015625 774.988281 C 1331.824219 775.660156 1332.675781 776.292969 1333.585938 776.898438 C 1340.777344 781.757812 1344.707031 788.238281 1344.648438 795.167969 C 1344.589844 802.09375 1340.558594 808.523438 1333.269531 813.316406 Z M 931.730469 455.597656 C 918.234375 449.390625 900.414062 449.390625 886.917969 455.570312 C 865.1875 465.515625 839.144531 469.085938 804.867188 466.859375 C 792.636719 466.015625 780.582031 469.085938 772.207031 475.039062 C 669.542969 547.867188 626.710938 527.542969 586.285156 506.230469 C 574.6875 497.035156 585.078125 477.117188 590.234375 468.792969 C 630.542969 403.605469 776.710938 319.503906 878.304688 319.476562 C 1029.511719 315.605469 1204.25 334.574219 1320.269531 367.003906 L 1450.945312 648.273438 L 1333.980469 695.734375 C 1212.113281 603.121094 1077.148438 522.46875 931.730469 455.597656 Z M 1709.0625 659.074219 L 1538.691406 659.074219 L 1374.699219 306.109375 C 1501.328125 287.574219 1609.460938 276.339844 1709.0625 271.375 Z M 1709.0625 659.074219 "/>
</g>
</svg>
