<svg id="svg" version="1.1" xmlns="http://www.w3.org/2000/svg" xmlns:xlink="http://www.w3.org/1999/xlink" width="400" height="266.6666666666667" viewBox="0, 0, 400,266.6666666666667"><g id="svgg"><path id="path0" d="M198.400 73.200 C 198.400 73.449,198.148 73.600,197.733 73.600 C 197.367 73.600,197.067 73.720,197.067 73.867 C 197.067 74.013,196.767 74.133,196.400 74.133 C 195.985 74.133,195.733 74.284,195.733 74.533 C 195.733 74.782,195.481 74.933,195.067 74.933 C 194.700 74.933,194.400 75.053,194.400 75.200 C 194.400 75.347,194.100 75.467,193.733 75.467 C 193.319 75.467,193.067 75.618,193.067 75.867 C 193.067 76.116,192.815 76.267,192.400 76.267 C 192.033 76.267,191.733 76.387,191.733 76.533 C 191.733 76.680,191.380 76.800,190.949 76.800 C 190.518 76.800,190.095 76.912,190.010 77.050 C 189.813 77.370,188.289 78.133,187.848 78.133 C 187.663 78.133,187.471 78.223,187.422 78.333 C 187.293 78.623,185.623 79.467,185.178 79.467 C 184.970 79.467,184.800 79.587,184.800 79.733 C 184.800 79.880,184.556 80.000,184.258 80.000 C 183.960 80.000,183.648 80.180,183.563 80.400 C 183.479 80.620,183.122 80.800,182.771 80.800 C 182.420 80.800,182.133 80.920,182.133 81.067 C 182.133 81.213,181.833 81.333,181.467 81.333 C 181.052 81.333,180.800 81.484,180.800 81.733 C 180.800 81.982,180.548 82.133,180.133 82.133 C 179.767 82.133,179.467 82.253,179.467 82.400 C 179.467 82.547,179.167 82.667,178.800 82.667 C 178.385 82.667,178.133 82.818,178.133 83.067 C 178.133 83.316,177.881 83.467,177.467 83.467 C 177.100 83.467,176.800 83.587,176.800 83.733 C 176.800 83.880,176.500 84.000,176.133 84.000 C 175.767 84.000,175.467 84.120,175.467 84.267 C 175.467 84.413,175.223 84.533,174.925 84.533 C 174.627 84.533,174.314 84.713,174.230 84.933 C 174.145 85.153,173.789 85.333,173.438 85.333 C 173.087 85.333,172.800 85.453,172.800 85.600 C 172.800 85.747,172.556 85.867,172.258 85.867 C 171.960 85.867,171.648 86.047,171.563 86.267 C 171.479 86.487,171.092 86.675,170.705 86.686 C 170.317 86.697,169.640 86.936,169.200 87.217 C 168.760 87.498,168.220 87.798,168.000 87.883 C 167.780 87.969,167.392 88.150,167.137 88.286 C 166.882 88.422,166.505 88.533,166.299 88.533 C 166.093 88.533,165.855 88.713,165.770 88.933 C 165.686 89.153,165.373 89.333,165.075 89.333 C 164.777 89.333,164.533 89.453,164.533 89.600 C 164.533 89.747,164.233 89.867,163.867 89.867 C 163.500 89.867,163.200 89.984,163.200 90.128 C 163.200 90.272,162.900 90.465,162.533 90.557 C 162.167 90.649,161.867 90.831,161.867 90.962 C 161.867 91.093,161.567 91.200,161.200 91.200 C 160.833 91.200,160.533 91.320,160.533 91.467 C 160.533 91.613,160.290 91.733,159.992 91.733 C 159.694 91.733,159.381 91.913,159.296 92.133 C 159.212 92.353,158.856 92.533,158.505 92.533 C 158.154 92.533,157.867 92.653,157.867 92.800 C 157.867 92.947,157.623 93.067,157.325 93.067 C 157.027 93.067,156.714 93.247,156.630 93.467 C 156.545 93.687,156.189 93.867,155.838 93.867 C 155.487 93.867,155.200 93.987,155.200 94.133 C 155.200 94.280,154.900 94.400,154.533 94.400 C 154.119 94.400,153.867 94.551,153.867 94.800 C 153.867 95.049,153.615 95.200,153.200 95.200 C 152.833 95.200,152.533 95.320,152.533 95.467 C 152.533 95.613,152.290 95.733,151.992 95.733 C 151.694 95.733,151.381 95.913,151.296 96.133 C 151.212 96.354,150.816 96.533,150.416 96.533 C 149.943 96.533,149.301 96.892,148.578 97.559 L 147.467 98.585 147.475 103.492 C 147.481 107.001,147.578 108.514,147.815 108.800 C 148.559 109.698,149.889 110.133,151.888 110.133 L 153.867 110.133 153.867 112.542 C 153.867 114.436,153.952 114.983,154.267 115.104 C 154.487 115.188,154.667 115.424,154.667 115.629 C 154.667 115.874,154.978 116.000,155.584 116.000 C 156.089 116.000,156.576 116.120,156.667 116.267 C 156.757 116.413,157.244 116.533,157.749 116.533 L 158.667 116.533 158.667 136.533 L 158.667 156.533 156.133 156.533 C 152.490 156.533,152.533 156.471,152.533 161.717 L 152.533 165.833 151.623 165.685 C 151.050 165.592,150.393 165.697,149.849 165.969 C 149.374 166.206,148.763 166.400,148.492 166.400 C 148.222 166.400,148.000 166.580,148.000 166.800 C 148.000 167.020,147.880 167.200,147.733 167.200 C 147.566 167.200,147.467 168.844,147.467 171.600 C 147.467 174.356,147.566 176.000,147.733 176.000 C 147.880 176.000,148.000 176.180,148.000 176.400 C 148.000 176.620,148.180 176.800,148.400 176.800 C 148.620 176.800,148.800 176.920,148.800 177.067 C 148.800 177.244,165.917 177.333,199.619 177.333 C 252.974 177.333,251.200 177.369,251.200 176.286 C 251.200 176.129,251.380 176.000,251.600 176.000 C 251.939 176.000,252.000 175.340,252.000 171.659 C 252.000 167.058,251.814 166.400,250.511 166.400 C 250.282 166.400,249.915 166.220,249.695 166.000 C 249.475 165.780,248.824 165.600,248.248 165.600 L 247.200 165.600 247.200 161.733 C 247.200 159.607,247.100 157.867,246.978 157.867 C 246.857 157.867,246.596 157.567,246.400 157.200 C 246.057 156.558,245.945 156.533,243.422 156.533 L 240.800 156.533 240.821 136.200 C 240.833 125.017,240.903 116.017,240.977 116.200 C 241.136 116.594,242.667 116.655,242.667 116.267 C 242.667 116.120,243.103 116.000,243.637 116.000 C 245.063 116.000,245.315 115.493,245.325 112.600 L 245.333 110.133 247.600 110.133 C 248.847 110.133,249.867 110.026,249.867 109.896 C 249.867 109.765,250.167 109.583,250.533 109.490 C 250.900 109.398,251.200 109.205,251.200 109.062 C 251.200 108.918,251.380 108.800,251.600 108.800 C 251.942 108.800,252.000 108.044,252.000 103.600 C 252.000 99.268,251.936 98.400,251.619 98.400 C 251.409 98.400,251.199 98.130,251.152 97.800 C 251.097 97.414,250.852 97.170,250.467 97.115 C 250.137 97.068,249.867 96.918,249.867 96.781 C 249.867 96.645,249.580 96.533,249.229 96.533 C 248.878 96.533,248.521 96.353,248.437 96.133 C 248.352 95.913,248.040 95.733,247.742 95.733 C 247.444 95.733,247.200 95.613,247.200 95.467 C 247.200 95.320,246.780 95.200,246.267 95.200 C 245.615 95.200,245.333 95.079,245.333 94.800 C 245.333 94.551,245.081 94.400,244.667 94.400 C 244.300 94.400,244.000 94.280,244.000 94.133 C 244.000 93.987,243.756 93.867,243.458 93.867 C 243.160 93.867,242.848 93.687,242.763 93.467 C 242.679 93.247,242.382 93.067,242.105 93.067 C 241.827 93.067,241.600 92.947,241.600 92.800 C 241.600 92.653,241.313 92.533,240.962 92.533 C 240.611 92.533,240.255 92.353,240.170 92.133 C 240.086 91.913,239.773 91.733,239.475 91.733 C 239.177 91.733,238.933 91.613,238.933 91.467 C 238.933 91.320,238.633 91.200,238.267 91.200 C 237.900 91.200,237.600 91.093,237.600 90.962 C 237.600 90.831,237.300 90.649,236.933 90.557 C 236.567 90.465,236.267 90.272,236.267 90.128 C 236.267 89.984,235.967 89.867,235.600 89.867 C 235.233 89.867,234.933 89.747,234.933 89.600 C 234.933 89.453,234.633 89.333,234.267 89.333 C 233.852 89.333,233.600 89.182,233.600 88.933 C 233.600 88.684,233.348 88.533,232.933 88.533 C 232.567 88.533,232.267 88.413,232.267 88.267 C 232.267 88.120,231.980 88.000,231.629 88.000 C 231.278 88.000,230.921 87.820,230.837 87.600 C 230.752 87.380,230.440 87.200,230.142 87.200 C 229.844 87.200,229.600 87.080,229.600 86.933 C 229.600 86.787,229.300 86.667,228.933 86.667 C 228.567 86.667,228.267 86.549,228.267 86.405 C 228.267 86.261,227.967 86.068,227.600 85.976 C 227.233 85.884,226.933 85.702,226.933 85.571 C 226.933 85.440,226.513 85.333,226.000 85.333 C 225.348 85.333,225.067 85.213,225.067 84.933 C 225.067 84.684,224.815 84.533,224.400 84.533 C 224.033 84.533,223.733 84.413,223.733 84.267 C 223.733 84.120,223.500 84.000,223.216 84.000 C 222.931 84.000,222.624 83.880,222.533 83.733 C 222.443 83.587,222.148 83.467,221.879 83.467 C 221.610 83.467,221.321 83.287,221.237 83.067 C 221.152 82.847,220.840 82.667,220.542 82.667 C 220.244 82.667,220.000 82.547,220.000 82.400 C 220.000 82.253,219.713 82.133,219.362 82.133 C 219.011 82.133,218.655 81.953,218.570 81.733 C 218.486 81.513,218.173 81.333,217.875 81.333 C 217.577 81.333,217.333 81.213,217.333 81.067 C 217.333 80.920,217.046 80.800,216.695 80.800 C 216.344 80.800,215.988 80.620,215.904 80.400 C 215.819 80.180,215.506 80.000,215.208 80.000 C 214.910 80.000,214.667 79.880,214.667 79.733 C 214.667 79.587,214.380 79.467,214.029 79.467 C 213.678 79.467,213.321 79.287,213.237 79.067 C 213.152 78.847,212.840 78.667,212.542 78.667 C 212.244 78.667,212.000 78.547,212.000 78.400 C 212.000 78.253,211.700 78.133,211.333 78.133 C 210.967 78.133,210.667 78.026,210.667 77.896 C 210.667 77.765,210.367 77.583,210.000 77.490 C 209.633 77.398,209.333 77.205,209.333 77.062 C 209.333 76.918,209.033 76.800,208.667 76.800 C 208.300 76.800,208.000 76.680,208.000 76.533 C 208.000 76.387,207.713 76.267,207.362 76.267 C 207.011 76.267,206.655 76.087,206.570 75.867 C 206.486 75.647,206.173 75.467,205.875 75.467 C 205.577 75.467,205.333 75.347,205.333 75.200 C 205.333 75.053,204.913 74.933,204.400 74.933 C 203.748 74.933,203.467 74.813,203.467 74.533 C 203.467 74.313,203.234 74.133,202.949 74.133 C 202.664 74.133,202.357 74.013,202.267 73.867 C 202.176 73.720,201.882 73.600,201.613 73.600 C 201.344 73.600,201.055 73.420,200.970 73.200 C 200.865 72.926,200.436 72.800,199.608 72.800 C 198.712 72.800,198.400 72.903,198.400 73.200 M200.267 78.400 C 200.267 78.547,200.554 78.667,200.905 78.667 C 201.256 78.667,201.612 78.847,201.696 79.067 C 201.781 79.287,202.094 79.467,202.392 79.467 C 202.690 79.467,202.933 79.587,202.933 79.733 C 202.933 79.880,203.233 80.000,203.600 80.000 C 203.967 80.000,204.267 80.118,204.267 80.262 C 204.267 80.405,204.567 80.598,204.933 80.690 C 205.300 80.783,205.600 80.965,205.600 81.096 C 205.600 81.226,205.892 81.333,206.248 81.333 C 206.717 81.333,206.920 81.499,206.981 81.933 C 207.054 82.445,207.252 82.545,208.333 82.615 C 209.030 82.659,209.600 82.809,209.600 82.948 C 209.600 83.087,209.887 83.200,210.238 83.200 C 210.589 83.200,210.945 83.380,211.030 83.600 C 211.119 83.834,211.519 84.000,211.992 84.000 C 212.436 84.000,212.800 84.120,212.800 84.267 C 212.800 84.413,212.967 84.533,213.171 84.533 C 213.376 84.533,213.612 84.713,213.696 84.933 C 213.786 85.167,214.186 85.333,214.658 85.333 C 215.103 85.333,215.467 85.453,215.467 85.600 C 215.467 85.747,215.767 85.867,216.133 85.867 C 216.548 85.867,216.800 86.018,216.800 86.267 C 216.800 86.495,217.040 86.667,217.358 86.667 C 217.683 86.667,217.972 86.879,218.049 87.173 C 218.144 87.536,218.517 87.730,219.357 87.856 C 220.004 87.953,220.533 88.145,220.533 88.283 C 220.533 88.421,220.833 88.533,221.200 88.533 C 221.567 88.533,221.867 88.651,221.867 88.795 C 221.867 88.939,222.167 89.132,222.533 89.224 C 222.900 89.316,223.200 89.498,223.200 89.629 C 223.200 89.760,223.500 89.867,223.867 89.867 C 224.233 89.867,224.533 89.987,224.533 90.133 C 224.533 90.280,224.820 90.400,225.171 90.400 C 225.522 90.400,225.879 90.580,225.963 90.800 C 226.048 91.020,226.360 91.200,226.658 91.200 C 226.956 91.200,227.200 91.320,227.200 91.467 C 227.200 91.613,227.472 91.733,227.803 91.733 C 228.136 91.733,228.632 92.033,228.907 92.400 C 229.242 92.846,229.667 93.067,230.190 93.067 C 230.620 93.067,231.151 93.247,231.371 93.467 C 231.591 93.687,232.063 93.867,232.419 93.867 C 232.775 93.867,233.067 93.987,233.067 94.133 C 233.067 94.280,233.367 94.400,233.733 94.400 C 234.148 94.400,234.400 94.551,234.400 94.800 C 234.400 95.049,234.652 95.200,235.067 95.200 C 235.433 95.200,235.733 95.320,235.733 95.467 C 235.733 95.613,236.033 95.733,236.400 95.733 C 236.767 95.733,237.067 95.839,237.067 95.969 C 237.067 96.098,237.316 96.270,237.620 96.349 C 237.924 96.429,238.238 96.743,238.318 97.047 C 238.435 97.498,238.673 97.600,239.603 97.600 C 240.370 97.600,240.793 97.731,240.896 98.000 C 240.981 98.220,241.294 98.400,241.592 98.400 C 241.890 98.400,242.133 98.520,242.133 98.667 C 242.133 98.813,242.420 98.933,242.771 98.933 C 243.122 98.933,243.479 99.113,243.563 99.333 C 243.648 99.553,243.960 99.733,244.258 99.733 C 244.556 99.733,244.800 99.853,244.800 100.000 C 244.800 100.147,245.049 100.267,245.352 100.267 C 246.354 100.267,246.667 100.897,246.667 102.914 L 246.667 104.800 199.600 104.800 L 152.533 104.800 152.533 103.067 C 152.533 101.277,153.057 100.267,153.984 100.267 C 154.196 100.267,154.443 100.147,154.533 100.000 C 154.624 99.853,154.918 99.733,155.187 99.733 C 155.456 99.733,155.745 99.553,155.830 99.333 C 155.914 99.113,156.227 98.933,156.525 98.933 C 156.823 98.933,157.067 98.813,157.067 98.667 C 157.067 98.520,157.367 98.400,157.733 98.400 C 158.148 98.400,158.400 98.249,158.400 98.000 C 158.400 97.751,158.652 97.600,159.067 97.600 C 159.433 97.600,159.733 97.480,159.733 97.333 C 159.733 97.187,160.033 97.067,160.400 97.067 C 160.767 97.067,161.067 96.949,161.067 96.805 C 161.067 96.661,161.367 96.468,161.733 96.376 C 162.100 96.284,162.400 96.102,162.400 95.971 C 162.400 95.840,162.660 95.733,162.977 95.733 C 163.679 95.733,165.600 94.915,165.600 94.615 C 165.600 94.497,165.740 94.400,165.910 94.400 C 166.408 94.400,168.267 93.518,168.267 93.282 C 168.267 93.164,168.567 93.067,168.933 93.067 C 169.300 93.067,169.600 92.947,169.600 92.800 C 169.600 92.653,169.844 92.533,170.142 92.533 C 170.440 92.533,170.752 92.353,170.837 92.133 C 170.921 91.913,171.278 91.733,171.629 91.733 C 171.980 91.733,172.267 91.613,172.267 91.467 C 172.267 91.320,172.510 91.200,172.808 91.200 C 173.106 91.200,173.419 91.020,173.504 90.800 C 173.588 90.580,173.877 90.400,174.146 90.400 C 174.415 90.400,174.709 90.280,174.800 90.133 C 174.891 89.987,175.198 89.867,175.482 89.867 C 175.767 89.867,176.000 89.760,176.000 89.629 C 176.000 89.498,176.300 89.316,176.667 89.224 C 177.033 89.132,177.333 88.939,177.333 88.795 C 177.333 88.651,177.633 88.533,178.000 88.533 C 178.367 88.533,178.667 88.413,178.667 88.267 C 178.667 88.120,178.967 88.000,179.333 88.000 C 179.748 88.000,180.000 87.849,180.000 87.600 C 180.000 87.351,180.252 87.200,180.667 87.200 C 181.033 87.200,181.333 87.080,181.333 86.933 C 181.333 86.787,181.633 86.667,182.000 86.667 C 182.415 86.667,182.667 86.516,182.667 86.267 C 182.667 85.987,182.948 85.867,183.600 85.867 C 184.113 85.867,184.533 85.760,184.533 85.629 C 184.533 85.498,184.833 85.316,185.200 85.224 C 185.567 85.132,185.867 84.939,185.867 84.795 C 185.867 84.651,186.100 84.533,186.384 84.533 C 186.669 84.533,186.976 84.413,187.067 84.267 C 187.157 84.120,187.468 84.000,187.757 84.000 C 188.047 84.000,188.352 83.820,188.437 83.600 C 188.521 83.380,188.878 83.200,189.229 83.200 C 189.580 83.200,189.867 83.080,189.867 82.933 C 189.867 82.787,190.006 82.667,190.177 82.667 C 190.675 82.667,192.533 81.785,192.533 81.549 C 192.533 81.430,192.766 81.333,193.051 81.333 C 193.336 81.333,193.643 81.213,193.733 81.067 C 193.824 80.920,194.118 80.800,194.387 80.800 C 194.656 80.800,194.945 80.620,195.030 80.400 C 195.114 80.180,195.427 80.000,195.725 80.000 C 196.023 80.000,196.267 79.880,196.267 79.733 C 196.267 79.587,196.567 79.467,196.933 79.467 C 197.382 79.467,197.607 79.314,197.621 79.000 C 197.634 78.721,197.696 78.668,197.777 78.867 C 198.002 79.426,198.933 79.265,198.933 78.667 C 198.933 78.276,199.111 78.133,199.600 78.133 C 199.967 78.133,200.267 78.253,200.267 78.400 M197.867 84.267 C 197.867 84.413,197.515 84.533,197.086 84.533 C 196.656 84.533,196.125 84.713,195.905 84.933 C 195.685 85.153,195.346 85.337,195.152 85.342 C 194.670 85.353,193.867 85.991,193.867 86.363 C 193.867 86.530,193.738 86.667,193.581 86.667 C 193.212 86.667,192.533 87.345,192.533 87.714 C 192.533 87.871,192.436 88.000,192.318 88.000 C 192.200 88.000,191.900 88.460,191.651 89.023 C 191.136 90.191,190.981 96.267,191.467 96.267 C 191.613 96.267,191.733 96.567,191.733 96.933 C 191.733 97.348,191.884 97.600,192.133 97.600 C 192.382 97.600,192.533 97.852,192.533 98.267 C 192.533 98.633,192.656 98.933,192.806 98.933 C 192.956 98.933,193.670 99.553,194.392 100.311 C 195.512 101.485,195.767 101.637,196.120 101.345 C 196.399 101.113,196.533 101.098,196.533 101.301 C 196.533 101.505,197.545 101.600,199.733 101.600 C 201.689 101.600,202.933 101.496,202.933 101.333 C 202.933 101.187,203.177 101.067,203.475 101.067 C 203.773 101.067,204.086 100.887,204.170 100.667 C 204.255 100.447,204.521 100.263,204.762 100.258 C 205.297 100.248,206.133 99.643,206.133 99.266 C 206.133 99.114,206.313 98.921,206.533 98.837 C 206.753 98.752,206.933 98.440,206.933 98.142 C 206.933 97.844,207.027 97.600,207.143 97.600 C 207.534 97.600,208.267 96.053,208.267 95.226 C 208.267 94.771,208.387 94.400,208.533 94.400 C 208.680 94.400,208.800 93.747,208.800 92.949 C 208.800 92.151,208.680 91.424,208.533 91.333 C 208.387 91.243,208.267 90.812,208.267 90.376 C 208.267 89.917,208.098 89.519,207.867 89.430 C 207.647 89.345,207.467 89.033,207.467 88.736 C 207.467 88.439,207.047 87.800,206.533 87.316 C 206.020 86.832,205.600 86.308,205.600 86.151 C 205.600 85.995,205.420 85.867,205.200 85.867 C 204.980 85.867,204.800 85.747,204.800 85.600 C 204.800 85.453,204.513 85.333,204.162 85.333 C 203.811 85.333,203.455 85.153,203.370 84.933 C 203.281 84.700,202.881 84.533,202.408 84.533 C 201.964 84.533,201.600 84.413,201.600 84.267 C 201.600 84.114,200.800 84.000,199.733 84.000 C 198.667 84.000,197.867 84.114,197.867 84.267 M201.556 89.642 C 201.604 89.766,201.763 89.867,201.908 89.867 C 202.053 89.867,202.343 90.038,202.552 90.248 C 202.762 90.457,202.933 90.747,202.933 90.892 C 202.933 91.037,203.061 91.198,203.217 91.250 C 203.737 91.424,203.843 93.527,203.368 94.252 C 203.129 94.616,202.933 95.099,202.933 95.324 C 202.933 95.549,202.813 95.733,202.667 95.733 C 202.520 95.733,202.400 95.913,202.400 96.133 C 202.400 96.382,202.148 96.533,201.733 96.533 C 201.367 96.533,201.067 96.653,201.067 96.800 C 201.067 96.947,200.467 97.067,199.733 97.067 C 199.000 97.067,198.400 96.947,198.400 96.800 C 198.400 96.653,198.289 96.533,198.154 96.533 C 197.834 96.533,196.267 94.966,196.267 94.646 C 196.267 94.511,196.147 94.400,196.000 94.400 C 195.853 94.400,195.733 93.800,195.733 93.067 C 195.733 92.333,195.853 91.733,196.000 91.733 C 196.147 91.733,196.267 91.536,196.267 91.296 C 196.267 90.741,197.791 89.261,198.005 89.608 C 198.244 89.995,199.091 89.920,199.457 89.478 C 199.794 89.072,201.379 89.197,201.556 89.642 M170.133 110.800 L 170.133 111.467 164.667 111.467 L 159.200 111.467 159.200 110.800 L 159.200 110.133 164.667 110.133 L 170.133 110.133 170.133 110.800 M224.533 112.530 C 224.533 115.320,224.885 116.000,226.326 116.000 C 226.807 116.000,227.200 116.120,227.200 116.267 C 227.200 116.413,227.620 116.533,228.133 116.533 L 229.067 116.533 229.067 136.533 L 229.067 156.533 226.667 156.533 C 223.188 156.533,223.200 156.516,223.200 161.600 L 223.200 165.600 200.000 165.600 L 176.800 165.600 176.800 162.015 C 176.800 158.853,176.734 158.319,176.240 157.482 L 175.681 156.533 172.907 156.533 L 170.133 156.533 170.154 136.200 C 170.166 125.017,170.236 116.017,170.310 116.200 C 170.470 116.596,171.897 116.649,172.133 116.267 C 172.224 116.120,172.651 116.000,173.082 116.000 C 174.532 116.000,174.933 115.247,174.933 112.533 L 174.933 110.133 199.733 110.133 L 224.533 110.133 224.533 112.530 M240.800 110.800 L 240.800 111.467 235.200 111.467 L 229.600 111.467 229.600 110.800 L 229.600 110.133 235.200 110.133 L 240.800 110.133 240.800 110.800 M235.733 136.267 L 235.733 156.533 235.067 156.533 L 234.400 156.533 234.400 136.533 C 234.400 116.711,234.405 116.533,234.933 116.533 C 235.227 116.533,235.467 116.413,235.467 116.267 C 235.467 116.120,235.527 116.000,235.600 116.000 C 235.673 116.000,235.733 125.120,235.733 136.267 M165.067 136.467 L 165.067 156.533 164.400 156.533 L 163.733 156.533 163.733 136.467 L 163.733 116.400 164.400 116.400 L 165.067 116.400 165.067 136.467 M179.800 126.266 C 179.617 126.474,179.467 126.756,179.467 126.894 C 179.467 127.031,179.287 127.212,179.067 127.296 C 178.836 127.385,178.667 127.784,178.667 128.239 C 178.667 128.673,178.847 129.209,179.067 129.429 C 179.287 129.649,179.467 129.957,179.467 130.114 C 179.467 130.271,179.767 130.400,180.133 130.400 C 180.500 130.400,180.800 130.520,180.800 130.667 C 180.800 130.813,181.100 130.933,181.467 130.933 L 182.133 130.933 182.133 136.533 L 182.133 142.133 180.800 142.133 C 180.030 142.133,179.467 142.254,179.467 142.419 C 179.467 142.576,179.287 142.885,179.067 143.105 C 178.847 143.325,178.667 143.860,178.667 144.294 C 178.667 144.750,178.836 145.148,179.067 145.237 C 179.287 145.321,179.467 145.506,179.467 145.648 C 179.467 146.482,180.258 146.667,183.848 146.667 C 186.083 146.667,187.467 146.769,187.467 146.933 C 187.467 147.405,188.403 147.218,188.800 146.667 C 189.011 146.373,189.338 146.133,189.526 146.133 C 189.761 146.133,189.867 145.681,189.867 144.670 C 189.867 142.878,189.340 142.133,188.074 142.133 L 187.200 142.133 187.200 136.533 C 187.200 131.711,187.256 130.933,187.604 130.933 C 187.826 130.933,188.216 130.822,188.470 130.686 C 188.725 130.550,189.143 130.374,189.400 130.295 C 190.126 130.070,190.071 126.960,189.330 126.326 C 188.602 125.703,180.342 125.650,179.800 126.266 M192.317 126.410 C 191.751 126.938,191.733 127.129,191.733 132.814 C 191.733 137.023,191.639 138.833,191.400 139.238 C 191.131 139.693,191.134 139.827,191.411 139.927 C 191.676 140.023,191.684 140.139,191.445 140.426 C 191.219 140.699,191.214 140.896,191.428 141.153 C 191.642 141.411,191.636 141.591,191.407 141.820 C 191.167 142.060,191.168 142.208,191.413 142.453 C 191.589 142.629,191.733 143.443,191.733 144.261 C 191.733 146.163,192.241 146.667,194.155 146.667 C 196.159 146.667,196.369 146.339,196.492 143.024 L 196.594 140.267 198.033 140.267 C 200.007 140.267,201.035 141.198,201.157 143.099 C 201.204 143.814,201.312 144.580,201.398 144.800 C 201.485 145.020,201.628 145.530,201.716 145.933 C 201.929 146.906,204.685 147.048,205.600 146.133 C 206.190 145.543,206.414 140.738,205.867 140.400 C 205.720 140.309,205.600 139.942,205.600 139.584 C 205.600 139.183,205.446 138.933,205.200 138.933 C 204.980 138.933,204.800 138.763,204.800 138.556 C 204.800 138.348,204.650 138.108,204.467 138.022 C 204.200 137.898,204.200 137.836,204.467 137.711 C 204.650 137.626,204.800 137.386,204.800 137.178 C 204.800 136.970,204.980 136.800,205.200 136.800 C 205.449 136.800,205.600 136.548,205.600 136.133 C 205.600 135.767,205.720 135.467,205.867 135.467 C 206.022 135.467,206.133 134.578,206.133 133.333 C 206.133 132.089,206.022 131.200,205.867 131.200 C 205.720 131.200,205.600 130.869,205.600 130.464 C 205.600 130.048,205.310 129.415,204.933 129.009 C 204.567 128.613,204.267 128.165,204.267 128.012 C 204.267 127.859,204.115 127.733,203.930 127.733 C 203.745 127.733,203.368 127.433,203.093 127.067 C 202.767 126.633,202.330 126.400,201.845 126.400 C 201.434 126.400,201.024 126.280,200.933 126.133 C 200.578 125.559,192.968 125.804,192.317 126.410 M212.133 126.133 C 212.043 126.280,211.748 126.400,211.479 126.400 C 211.210 126.400,210.921 126.580,210.837 126.800 C 210.752 127.020,210.489 127.200,210.251 127.200 C 209.773 127.200,208.823 128.210,208.809 128.733 C 208.804 128.917,208.680 129.067,208.533 129.067 C 208.387 129.067,208.267 129.315,208.267 129.619 C 208.267 129.923,208.087 130.351,207.867 130.571 C 207.320 131.118,207.326 133.296,207.875 133.507 C 208.233 133.644,208.229 133.702,207.841 133.986 C 207.440 134.279,207.464 134.373,208.100 135.009 C 208.485 135.394,208.800 135.835,208.800 135.988 C 208.800 136.141,208.929 136.267,209.086 136.267 C 209.455 136.267,210.133 136.945,210.133 137.314 C 210.133 137.471,210.313 137.600,210.533 137.600 C 210.753 137.600,210.933 137.720,210.933 137.867 C 210.933 138.013,211.220 138.133,211.571 138.133 C 211.922 138.133,212.279 138.313,212.363 138.533 C 212.465 138.799,212.884 138.933,213.611 138.933 C 214.956 138.933,215.467 139.405,215.467 140.648 C 215.467 141.486,215.387 141.600,214.800 141.600 C 214.433 141.600,214.133 141.716,214.133 141.858 C 214.133 142.003,212.882 142.148,211.270 142.191 C 208.648 142.260,208.398 142.312,208.307 142.800 C 208.252 143.093,208.041 143.429,207.837 143.547 C 207.342 143.832,207.363 145.044,207.867 145.237 C 208.087 145.321,208.267 145.506,208.267 145.648 C 208.267 146.489,209.054 146.667,212.781 146.667 C 215.105 146.667,216.533 146.565,216.533 146.400 C 216.533 146.253,216.833 146.133,217.200 146.133 C 217.615 146.133,217.867 145.982,217.867 145.733 C 217.867 145.513,217.995 145.333,218.152 145.333 C 218.522 145.333,219.200 144.655,219.200 144.286 C 219.200 144.129,219.380 144.000,219.600 144.000 C 219.849 144.000,220.000 143.748,220.000 143.333 C 220.000 142.967,220.120 142.667,220.267 142.667 C 220.422 142.667,220.533 141.783,220.533 140.549 C 220.533 139.384,220.413 138.357,220.267 138.267 C 220.120 138.176,220.000 137.869,220.000 137.584 C 220.000 137.300,219.820 137.067,219.600 137.067 C 219.379 137.067,219.200 136.830,219.200 136.536 C 219.200 135.844,218.409 134.933,217.807 134.933 C 217.547 134.933,217.333 134.813,217.333 134.667 C 217.333 134.520,217.085 134.400,216.781 134.400 C 216.477 134.400,216.049 134.220,215.829 134.000 C 215.609 133.780,215.009 133.600,214.495 133.600 C 213.433 133.600,212.800 133.102,212.800 132.267 C 212.800 131.184,213.394 130.933,215.965 130.933 C 217.287 130.933,218.443 130.813,218.533 130.667 C 218.624 130.520,218.991 130.400,219.349 130.400 C 219.750 130.400,220.000 130.246,220.000 130.000 C 220.000 129.780,220.120 129.600,220.267 129.600 C 220.938 129.600,220.561 126.684,219.867 126.510 C 219.500 126.417,219.200 126.235,219.200 126.104 C 219.200 125.772,212.339 125.800,212.133 126.133 M200.267 131.333 C 200.267 131.553,200.447 131.733,200.667 131.733 C 201.429 131.733,201.202 134.238,200.400 134.667 C 200.033 134.863,199.733 135.183,199.733 135.378 C 199.733 135.634,199.287 135.733,198.133 135.733 L 196.533 135.733 196.533 133.333 L 196.533 130.933 198.400 130.933 C 199.881 130.933,200.267 131.016,200.267 131.333 M171.467 163.400 L 171.466 165.733 164.266 165.733 L 157.067 165.733 157.067 163.400 L 157.067 161.067 164.267 161.067 L 171.467 161.067 171.467 163.400 M242.133 163.400 L 242.133 165.733 234.933 165.733 L 227.733 165.733 227.733 163.400 L 227.733 161.067 234.933 161.067 L 242.133 161.067 242.133 163.400 M155.311 171.133 C 155.594 171.417,158.933 171.443,158.933 171.161 C 158.933 171.033,159.177 171.080,159.475 171.264 C 159.923 171.542,160.060 171.531,160.271 171.200 C 160.440 170.934,160.527 170.912,160.529 171.133 C 160.531 171.317,160.773 171.467,161.067 171.467 C 161.360 171.467,161.609 171.317,161.621 171.133 C 161.638 170.867,161.669 170.867,161.777 171.133 C 161.851 171.317,162.141 171.467,162.422 171.467 C 162.703 171.467,162.943 171.317,162.954 171.133 C 162.971 170.867,163.002 170.867,163.110 171.133 C 163.184 171.317,163.474 171.467,163.756 171.467 C 164.037 171.467,164.276 171.317,164.288 171.133 C 164.305 170.867,164.336 170.867,164.443 171.133 C 164.517 171.317,164.808 171.467,165.089 171.467 C 165.370 171.467,165.602 171.317,165.604 171.133 C 165.607 170.912,165.694 170.934,165.863 171.200 C 166.073 171.531,166.211 171.542,166.659 171.264 C 166.956 171.080,167.200 171.028,167.200 171.150 C 167.200 171.271,168.280 171.371,169.600 171.371 C 170.920 171.371,172.000 171.271,172.000 171.150 C 172.000 171.028,172.256 171.080,172.568 171.264 C 173.022 171.533,173.161 171.533,173.257 171.267 C 173.353 171.003,178.843 170.933,199.493 170.933 C 219.920 170.933,225.724 171.006,226.145 171.267 C 226.588 171.541,226.728 171.530,226.937 171.200 C 227.106 170.934,227.193 170.912,227.196 171.133 C 227.198 171.317,227.440 171.467,227.733 171.467 C 228.027 171.467,228.276 171.317,228.288 171.133 C 228.305 170.867,228.336 170.867,228.443 171.133 C 228.517 171.317,228.808 171.467,229.089 171.467 C 229.370 171.467,229.609 171.317,229.621 171.133 C 229.638 170.867,229.669 170.867,229.777 171.133 C 229.851 171.317,230.141 171.467,230.422 171.467 C 230.703 171.467,230.943 171.317,230.954 171.133 C 230.971 170.867,231.002 170.867,231.110 171.133 C 231.184 171.317,231.474 171.467,231.756 171.467 C 232.037 171.467,232.269 171.317,232.271 171.133 C 232.273 170.912,232.360 170.934,232.529 171.200 C 232.740 171.531,232.877 171.542,233.325 171.264 C 233.623 171.080,233.867 171.028,233.867 171.150 C 233.867 171.271,234.947 171.371,236.267 171.371 C 237.587 171.371,238.667 171.271,238.667 171.150 C 238.667 171.028,238.910 171.080,239.208 171.264 C 239.656 171.542,239.794 171.531,240.004 171.200 C 240.173 170.934,240.260 170.912,240.263 171.133 C 240.265 171.317,240.507 171.467,240.800 171.467 C 241.093 171.467,241.343 171.317,241.354 171.133 C 241.371 170.867,241.402 170.867,241.510 171.133 C 241.584 171.317,241.874 171.467,242.156 171.467 C 242.437 171.467,242.676 171.317,242.688 171.133 C 242.705 170.867,242.736 170.867,242.843 171.133 C 243.003 171.528,244.000 171.586,244.000 171.200 C 244.000 171.053,244.600 170.933,245.333 170.933 C 246.578 170.933,246.667 170.978,246.667 171.600 L 246.667 172.267 199.600 172.267 L 152.533 172.267 152.533 171.600 C 152.533 170.925,154.734 170.556,155.311 171.133 " stroke="none" fill="#2aa197" fill-rule="evenodd"></path><path id="path1" d="" stroke="none" fill="#080404" fill-rule="evenodd"></path><path id="path2" d="" stroke="none" fill="#080404" fill-rule="evenodd"></path><path id="path3" d="" stroke="none" fill="#080404" fill-rule="evenodd"></path><path id="path4" d="" stroke="none" fill="#080404" fill-rule="evenodd"></path></g></svg>