<svg version="1.1" id="Layer_1" xmlns="http://www.w3.org/2000/svg" xmlns:xlink="http://www.w3.org/1999/xlink" x="0px" y="0px" viewBox="0 0 500 500" style="width: 214px;" xml:space="preserve" data-imageid="money-1-29" imageName="Money 1" class="illustrations_image">
<style type="text/css">
	.st0_money-1-29{fill:#0F476D;}
	.st1_money-1-29{opacity:0.91;fill:url(#SVGID_1_);enable-background:new    ;}
	.st2_money-1-29{opacity:0.91;fill:url(#SVGID_00000065756430584567005100000003010171625915147925_);enable-background:new    ;}
	.st3_money-1-29{opacity:0.91;fill:url(#SVGID_00000003064680080903946910000002627947260883634071_);enable-background:new    ;}
	.st4_money-1-29{opacity:0.91;fill:url(#SVGID_00000044896938946094600850000007519241816558279069_);enable-background:new    ;}
	.st5_money-1-29{fill:#68E1FD;}
	.st6_money-1-29{opacity:0.13;fill:#333333;enable-background:new    ;}
	.st7_money-1-29{fill:#C64F14;}
	.st8_money-1-29{fill:#4A9E18;}
	.st9_money-1-29{fill:#FF912E;}
	.st10_money-1-29{fill:#FFB92C;}
	.st11_money-1-29{fill:#EA8B24;}
	.st12_money-1-29{fill:#FFFFFF;}
</style>
<g>
	<g id="_0553_coins_money-1-29">
		<g id="background_money-1-29">
			<path class="st0_money-1-29" d="M243.2,390.7L15.3,256c-7.2-4-13.5-10.7-6.4-15.1l228.7-131.8c3.4-2.1,8.6-3.5,12.1-1.5L489,246.4&#10;&#9;&#9;&#9;&#9;c7.2,4.2,8.5,16,1.3,20.2l-217,123.9C264,395.9,252.6,396,243.2,390.7z"/>
			
				<linearGradient id="SVGID_1_-money-1-29" gradientUnits="userSpaceOnUse" x1="437.9294" y1="208.3923" x2="421.7694" y2="230.6022" gradientTransform="matrix(1 0 0 -1 0 502)">
				<stop offset="0" style="stop-color:#0F476D;stop-opacity:0"/>
				<stop offset="0.99" style="stop-color:#333333"/>
			</linearGradient>
			<path class="st1_money-1-29" d="M466.7,281.1l-27.9-17.2l-50.1,14l39.3,23C440,292.8,453.2,286.5,466.7,281.1z"/>
			
				<linearGradient id="SVGID_00000080920084614405012830000012415646525064069041_-money-1-29" gradientUnits="userSpaceOnUse" x1="-927.0011" y1="127.7113" x2="-884.9611" y2="162.8813" gradientTransform="matrix(-1 0 0 -1 -617.44 502)">
				<stop offset="0" style="stop-color:#0F476D;stop-opacity:0"/>
				<stop offset="0.99" style="stop-color:#333333"/>
			</linearGradient>
			
				<polyline style="opacity:0.91;fill:url(#SVGID_00000080920084614405012830000012415646525064069041_);enable-background:new    ;" points="&#10;&#9;&#9;&#9;&#9;221.6,357.2 276.9,389.6 345.5,347.9 316.8,329.2 &#9;&#9;&#9;"/>
			
				<linearGradient id="SVGID_00000000186875737496505480000012842084927549007280_-money-1-29" gradientUnits="userSpaceOnUse" x1="-951.0002" y1="192.5802" x2="-859.3002" y2="269.2902" gradientTransform="matrix(-1 0 0 -1 -617.44 502)">
				<stop offset="0" style="stop-color:#0F476D;stop-opacity:0"/>
				<stop offset="0.99" style="stop-color:#333333"/>
			</linearGradient>
			
				<polyline style="opacity:0.91;fill:url(#SVGID_00000000186875737496505480000012842084927549007280_);enable-background:new    ;" points="&#10;&#9;&#9;&#9;&#9;175.5,231.9 329.4,325.8 378.3,292.1 233.3,215.8 &#9;&#9;&#9;"/>
			
				<linearGradient id="SVGID_00000022539859469523970530000015053948845037570483_-money-1-29" gradientUnits="userSpaceOnUse" x1="-802.3433" y1="202.4539" x2="-743.4633" y2="251.7039" gradientTransform="matrix(-1 0 0 -1 -617.44 502)">
				<stop offset="0" style="stop-color:#0F476D;stop-opacity:0"/>
				<stop offset="0.99" style="stop-color:#333333"/>
			</linearGradient>
			
				<polyline style="opacity:0.91;fill:url(#SVGID_00000022539859469523970530000015053948845037570483_);enable-background:new    ;" points="&#10;&#9;&#9;&#9;&#9;80.6,253.1 178.8,310.7 216.4,285.1 138.5,237 &#9;&#9;&#9;"/>
		</g>
		<g id="bag_of_coins_2_money-1-29">
			<path class="st5_money-1-29 targetColor" d="M179.8,150.8c0,0,3.5-6.7,8.5-4.2s8,6.9,14.8,4.2s10.9-16.6,15.4-14.5s7.2,5.7,5.2,12.7s-1.1,8.6,1.8,9.5&#10;&#9;&#9;&#9;&#9;s-7.8,11.4-16.1,9.1S179.8,150.8,179.8,150.8z" style="fill: rgb(42, 161, 152);"/>
			<path class="st5_money-1-29 targetColor" d="M187.4,172.5c0,0-22,23.5-17.1,48.3s61.6,26.9,69.7,7.8s0.5-45.5-12-54.7c0,0,10.3-10.9,6-18.3&#10;&#9;&#9;&#9;&#9;s-11.1,6.2-14.8,4.3s8.1-24.2-4.8-25.1s-9.5,22.9-15,21.7s-15.3-12.3-19.7-5.7S190.4,165.2,187.4,172.5z" style="fill: rgb(42, 161, 152);"/>
			<path class="st6_money-1-29" d="M228.1,174c0,0,10.3-10.9,6-18.3c-1.1-1.9-2.3-2.4-3.6-2.1c3.2,5.6-2.8,11.6-6.9,15.8&#10;&#9;&#9;&#9;&#9;c-1.6,1.6-3.9,3.3-5.1,5.2c-3.5,5.7,0.2,10.2,3.8,14.6c3.9,4.6,6.7,10,8.2,15.8c4,16.5-4,30.6-16.8,36.4&#10;&#9;&#9;&#9;&#9;c12.3-0.8,23.2-5.1,26.4-12.7C248.2,209.5,240.5,183.2,228.1,174z"/>
			<path class="st7_money-1-29" d="M225.5,169.7c-12,2.5-24.4,1.6-35.9-2.7c-4.1-1.5-5.9,5.1-1.8,6.5c12.6,4.6,26.3,5.6,39.5,2.8&#10;&#9;&#9;&#9;&#9;C231.6,175.4,229.8,168.8,225.5,169.7z"/>
			<path class="st8_money-1-29" d="M222,208.8c-0.8-3.8-4.6-5.6-8.1-5.9c-0.6,0-1.1,0-1.7,0c0-3.6-0.1-7.3-0.1-10.9c0.9,0.1,1.7,0.3,2.6,0.5&#10;&#9;&#9;&#9;&#9;c1.6,0.5,2.4-1.9,0.9-2.4c-1.1-0.3-2.3-0.5-3.5-0.4c0-1.3,0-2.7,0-4c0-1.6-2.5-1.9-2.5-0.2c0,1.4,0,2.9,0,4.4&#10;&#9;&#9;&#9;&#9;c-0.8,0.1-1.6,0.2-2.5,0.4c0-1.3,0-2.6,0-3.9c0-1.6-2.6-1.9-2.5-0.2s0,3.2,0,4.7c-5.8,1.9-10.6,5.8-6.7,11.3&#10;&#9;&#9;&#9;&#9;c1.6,2.2,4.1,3.4,6.8,3.4c0,3.8,0,7.5,0,11.3c-1.8-0.1-3.6-0.4-5.2-0.6s-1.8,2.3-0.2,2.6c1.4,0.2,3.3,0.4,5.4,0.5&#10;&#9;&#9;&#9;&#9;c0,1.7,0,3.5,0,5.2s2.5,1.9,2.5,0.2c0-1.8,0-3.6,0-5.4c0.9,0,1.8,0,2.7-0.1c0.1,2.6,0.1,5.2,0.2,7.9c0,1.6,2.6,1.9,2.6,0.2&#10;&#9;&#9;&#9;&#9;c-0.1-2.8-0.1-5.6-0.2-8.3C218.4,218.1,223.4,215.5,222,208.8z M203.2,202.5c-3.9-0.5-4.1-3.2-0.6-8.1c0.6-0.4,1.3-0.7,2-1.1&#10;&#9;&#9;&#9;&#9;c0,3.2,0.1,6.4,0.1,9.6C204.1,202.9,203.6,202.8,203.2,202.5z M207.1,192.4c0.8-0.2,1.6-0.4,2.4-0.5c0,3.7,0,7.4,0.1,11.1&#10;&#9;&#9;&#9;&#9;c-0.8,0.1-1.6,0.2-2.4,0.2C207.2,199.7,207.1,196.1,207.1,192.4L207.1,192.4z M207.2,217c0-3.8,0-7.6,0-11.4&#10;&#9;&#9;&#9;&#9;c0.8,0,1.6-0.1,2.4-0.1c0,3.8,0.1,7.7,0.2,11.5C209,217,208.1,217,207.2,217L207.2,217z M212.4,216.6c-0.1-3.7-0.2-7.5-0.2-11.2&#10;&#9;&#9;&#9;&#9;c0.3,0,0.6,0,0.8,0c3.9,0.3,5.7,1,5.5,5.1S216.2,215.9,212.4,216.6L212.4,216.6z"/>
		</g>
		<g id="bag_of_coins_1_money-1-29">
			<path class="st5_money-1-29 targetColor" d="M237.1,131.9c0,0,5.9-11.1,14.2-7s13.3,11.4,24.5,7s18.1-27.4,25.5-24s12,9.4,8.6,21.1s-1.9,14.3,3,15.8&#10;&#9;&#9;&#9;&#9;s-12.8,18.8-26.7,15S237.1,131.9,237.1,131.9z" style="fill: rgb(42, 161, 152);"/>
			<path class="st5_money-1-29 targetColor" d="M249.7,167.9c0,0-36.4,38.9-28.4,80.1s102,44.6,115.6,12.9s0.8-75.4-19.8-90.6c0,0,17-18.1,10-30.3&#10;&#9;&#9;&#9;&#9;s-18.4,10.3-24.5,7.1s13.4-40.1-7.9-41.5s-15.7,37.9-24.8,35.9s-25.4-20.5-32.7-9.5S254.8,155.8,249.7,167.9z" style="fill: rgb(42, 161, 152);"/>
			<path class="st6_money-1-29" d="M317.1,170.5c0,0,17-18.1,10-30.3c-1.8-3.1-3.9-4-6-3.6c5.3,9.3-4.6,19.3-11.4,26.2&#10;&#9;&#9;&#9;&#9;c-2.6,2.7-6.5,5.4-8.5,8.7c-5.8,9.4,0.4,16.9,6.3,24.1c6.3,7.8,11.2,16.4,13.5,26.1c6.6,27.4-6.6,50.7-27.9,60.4&#10;&#9;&#9;&#9;&#9;c20.4-1.3,38.4-8.4,43.8-21C350.5,229.3,337.7,185.6,317.1,170.5z"/>
			<path class="st7_money-1-29" d="M312.9,163.3c-19.9,4.1-40.5,2.5-59.5-4.6c-6.8-2.5-9.8,8.4-3,10.9c21,7.6,43.6,9.2,65.5,4.6&#10;&#9;&#9;&#9;&#9;C323,172.7,320,161.9,312.9,163.3z"/>
			<path class="st8_money-1-29" d="M307.1,228.1c-1.3-6.4-7.6-9.2-13.5-9.8c-0.9-0.1-1.9-0.1-2.8-0.1c-0.1-6-0.1-12-0.1-18.1&#10;&#9;&#9;&#9;&#9;c1.5,0.1,2.9,0.4,4.3,0.9c2.6,0.9,4-3.1,1.5-4c-1.9-0.5-3.8-0.8-5.7-0.8c0-2.2,0-4.4,0-6.6c0-2.7-4.2-3.1-4.2-0.3&#10;&#9;&#9;&#9;&#9;c0,2.4,0,4.8,0,7.2c-1.3,0.2-2.7,0.4-4.1,0.7c0-2.1,0-4.3-0.1-6.4c0-2.7-4.2-3.1-4.2-0.3s0,5.2,0.1,7.9&#10;&#9;&#9;&#9;&#9;c-9.6,3.1-17.5,9.7-11.1,18.8c3,4.2,7,5.4,11.3,5.6c0,6.2,0,12.5,0,18.7c-2.9-0.2-5.9-0.6-8.7-1s-3,3.8-0.3,4.2&#10;&#9;&#9;&#9;&#9;c2.3,0.3,5.5,0.7,9,0.8c0,2.9,0,5.8,0,8.7c0,2.7,4.2,3.1,4.2,0.3c0-3,0-6,0-8.9c1.5,0,3-0.1,4.4-0.2c0.1,4.3,0.1,8.7,0.3,13&#10;&#9;&#9;&#9;&#9;c0.1,2.7,4.3,3.1,4.2,0.3c-0.1-4.6-0.2-9.2-0.3-13.8C301,243.6,309.4,239.2,307.1,228.1z M275.9,217.8c-6.4-0.8-6.8-5.3-1.1-13.4&#10;&#9;&#9;&#9;&#9;c1.1-0.7,2.2-1.2,3.4-1.7c0,5.3,0.1,10.7,0.1,16C277.5,218.4,276.6,218.1,275.9,217.8z M282.4,201c1.3-0.4,2.7-0.7,4.1-0.8&#10;&#9;&#9;&#9;&#9;c0,6.1,0,12.3,0.1,18.4c-1.3,0.1-2.7,0.3-4,0.3C282.5,213,282.4,207,282.4,201z M282.5,241.7c0-6.3,0-12.6,0-18.9l4-0.2&#10;&#9;&#9;&#9;&#9;c0.1,6.4,0.2,12.7,0.4,19.1C285.5,241.7,284,241.7,282.5,241.7z M291.1,241.1c-0.1-6.2-0.3-12.4-0.4-18.6c0.5,0,0.9,0,1.4,0&#10;&#9;&#9;&#9;&#9;c6.4,0.5,9.4,1.7,9.2,8.4S297.5,239.9,291.1,241.1z"/>
		</g>
		<g id="coins_money-1-29">
			<ellipse class="st9_money-1-29" cx="408.5" cy="265" rx="30" ry="17.5"/>
			<polygon class="st9_money-1-29" points="378.5,265 378.5,259.9 381.8,264 &#9;&#9;&#9;"/>
			<polygon class="st9_money-1-29" points="438.4,259.9 438.4,265 434.6,265 437.4,260.9 &#9;&#9;&#9;"/>
			<ellipse class="st10_money-1-29" cx="408.5" cy="259.9" rx="30" ry="17.5"/>
			<path class="st11_money-1-29" d="M423.6,257.6c0.2,0.4,0.3,0.9,0.2,1.3l-0.1,0.5l-5.5,0c0.1-0.2,0.1-0.3,0.1-0.5c0-0.4-0.1-0.7-0.3-1&#10;&#9;&#9;&#9;&#9;c-0.3-0.5-0.8-0.9-1.3-1.2c-0.8-0.4-1.7-0.6-2.6-0.7c-0.8-0.1-1.7,0.1-2.4,0.4c-0.8,0.3-1.1,0.8-0.9,1.3c0.3,0.6,0.7,1.2,1.2,1.7&#10;&#9;&#9;&#9;&#9;c0.6,0.6,1.1,1.2,1.7,1.9c0.5,0.6,0.6,1.4,0.3,2.1c-0.6,1-1.5,1.7-2.6,2.1c-1.8,0.8-3.8,1.2-5.8,1.2c-2.1,0.1-4.3-0.2-6.3-0.9&#10;&#9;&#9;&#9;&#9;l-3.1,1.4l-3.7-1.8l3.1-1.3c-0.5-0.4-1-0.8-1.5-1.3c-0.3-0.4-0.6-0.8-0.7-1.2c-0.1-0.3-0.2-0.7-0.2-1c0-0.2,0-0.5,0.1-0.7&#10;&#9;&#9;&#9;&#9;l0.1-0.3h5.5c0,0.1-0.1,0.3-0.1,0.6c0,0.4,0.2,0.9,0.4,1.2c0.4,0.7,1.1,1.2,1.8,1.5c1,0.5,2.1,0.8,3.2,0.8c1,0.1,2-0.1,2.9-0.5&#10;&#9;&#9;&#9;&#9;c0.8-0.3,1-0.8,0.9-1.3c-0.3-0.7-0.7-1.2-1.2-1.7c-0.6-0.6-1.2-1.2-1.7-1.9c-0.5-0.6-0.6-1.4-0.2-2.1c0.7-1,1.6-1.8,2.8-2.1&#10;&#9;&#9;&#9;&#9;c1.8-0.7,3.7-1.1,5.6-1.1c2-0.1,4,0.2,5.9,0.9l3.1-1.3l3.4,1.9l-3.1,1.4C422.9,256.3,423.4,256.9,423.6,257.6z"/>
			<path class="st9_money-1-29" d="M408.5,276c-14.5,0-26.3-7.1-26.3-15.9s11.8-15.9,26.3-15.9s26.3,7.1,26.3,15.9&#10;&#9;&#9;&#9;&#9;C434.8,268.9,423,276,408.5,276z M408.5,246.5c-13.2,0-24,6.1-24,13.6c0,7.5,10.8,13.6,24,13.6s24-6.1,24-13.6&#10;&#9;&#9;&#9;&#9;S421.8,246.5,408.5,246.5L408.5,246.5z"/>
			<ellipse class="st9_money-1-29" cx="408.5" cy="258.6" rx="30" ry="17.5"/>
			<polygon class="st9_money-1-29" points="378.5,258.6 378.5,253.5 381.8,257.6 &#9;&#9;&#9;"/>
			<polygon class="st9_money-1-29" points="438.4,253.5 438.4,258.6 434.6,258.6 437.4,254.5 &#9;&#9;&#9;"/>
			<ellipse class="st10_money-1-29" cx="408.5" cy="253.5" rx="30" ry="17.6"/>
			<path class="st11_money-1-29" d="M423.6,251.2c0.2,0.4,0.3,0.9,0.2,1.3l-0.1,0.5h-5.5c0.1-0.1,0.1-0.3,0.1-0.5c0-0.4-0.1-0.7-0.3-1&#10;&#9;&#9;&#9;&#9;c-0.3-0.5-0.8-1-1.3-1.2c-0.8-0.4-1.7-0.6-2.6-0.7c-0.8-0.1-1.7,0.1-2.4,0.4c-0.8,0.3-1.1,0.8-0.9,1.3c0.3,0.6,0.6,1.2,1.1,1.7&#10;&#9;&#9;&#9;&#9;c0.6,0.6,1.1,1.2,1.7,1.9c0.5,0.6,0.6,1.4,0.3,2.1c-0.6,1-1.5,1.7-2.6,2.1c-1.8,0.8-3.8,1.2-5.8,1.2c-2.1,0.1-4.3-0.2-6.3-0.9&#10;&#9;&#9;&#9;&#9;l-3.1,1.4l-3.7-1.8l3.1-1.3c-0.5-0.4-1-0.8-1.5-1.3c-0.3-0.4-0.6-0.8-0.7-1.2c-0.1-0.3-0.2-0.7-0.2-1c0-0.2,0-0.5,0.1-0.7&#10;&#9;&#9;&#9;&#9;l0.1-0.3h5.5c0,0.1-0.1,0.3-0.1,0.6c0,0.5,0.2,0.9,0.5,1.2c0.4,0.7,1.1,1.2,1.8,1.5c1,0.5,2.1,0.8,3.2,0.8c1,0.1,2-0.1,2.9-0.5&#10;&#9;&#9;&#9;&#9;c0.8-0.3,1-0.8,0.9-1.3c-0.3-0.7-0.7-1.2-1.2-1.7c-0.6-0.6-1.2-1.2-1.7-1.9c-0.5-0.6-0.6-1.4-0.2-2.1c0.7-1,1.6-1.8,2.8-2.1&#10;&#9;&#9;&#9;&#9;c1.8-0.7,3.7-1.1,5.6-1.1c2-0.1,4,0.2,5.9,0.9l3.1-1.4l3.4,1.9l-3.1,1.4C422.9,249.9,423.4,250.5,423.6,251.2z"/>
			<path class="st9_money-1-29" d="M408.5,269.6c-14.5,0-26.3-7.1-26.3-15.9s11.8-15.9,26.3-15.9s26.3,7.1,26.3,15.9&#10;&#9;&#9;&#9;&#9;C434.8,262.5,423,269.6,408.5,269.6z M408.5,240.1c-13.2,0-24,6.1-24,13.6c0,7.5,10.8,13.6,24,13.6s24-6.1,24-13.6&#10;&#9;&#9;&#9;&#9;S421.8,240.1,408.5,240.1z"/>
			<ellipse class="st9_money-1-29" cx="408.5" cy="252.5" rx="30" ry="17.6"/>
			<polygon class="st9_money-1-29" points="378.5,252.5 378.5,247.4 381.8,251.5 &#9;&#9;&#9;"/>
			<polygon class="st9_money-1-29" points="438.4,247.4 438.4,252.5 434.6,252.5 437.4,248.4 &#9;&#9;&#9;"/>
			<ellipse class="st10_money-1-29" cx="408.5" cy="247.4" rx="30" ry="17.5"/>
			<path class="st11_money-1-29" d="M423.6,245.1c0.2,0.4,0.3,0.9,0.2,1.3l-0.1,0.5l-5.5,0.1c0.2-0.5,0.1-1.1-0.2-1.5c-0.3-0.5-0.8-1-1.3-1.2&#10;&#9;&#9;&#9;&#9;c-0.8-0.4-1.7-0.6-2.6-0.7c-0.8-0.1-1.7,0.1-2.4,0.4c-0.8,0.3-1.1,0.8-0.9,1.3c0.2,0.7,0.6,1.3,1.1,1.8c0.6,0.6,1.1,1.2,1.7,1.9&#10;&#9;&#9;&#9;&#9;c0.5,0.6,0.6,1.4,0.3,2.1c-0.6,1-1.5,1.7-2.6,2.1c-1.8,0.8-3.8,1.2-5.8,1.2c-2.1,0.1-4.3-0.2-6.3-0.9l-3.1,1.4l-3.7-1.8l3.1-1.3&#10;&#9;&#9;&#9;&#9;c-0.5-0.4-1-0.8-1.4-1.3c-0.3-0.4-0.6-0.8-0.7-1.2c-0.1-0.3-0.2-0.7-0.2-1c0-0.2,0-0.5,0.1-0.7l0.1-0.3h5.5&#10;&#9;&#9;&#9;&#9;c0,0.1-0.1,0.3-0.1,0.6c0,0.4,0.2,0.9,0.4,1.2c0.4,0.7,1.1,1.2,1.8,1.5c1,0.5,2.1,0.8,3.2,0.8c1,0.1,2-0.1,2.9-0.5&#10;&#9;&#9;&#9;&#9;c0.8-0.3,1-0.8,0.9-1.3c-0.3-0.7-0.7-1.2-1.2-1.7c-0.6-0.6-1.2-1.2-1.7-1.9c-0.5-0.6-0.6-1.4-0.2-2.1c0.7-1,1.6-1.8,2.8-2.1&#10;&#9;&#9;&#9;&#9;c1.8-0.7,3.7-1.1,5.6-1.1c2-0.1,4,0.2,5.9,0.9l3.1-1.4l3.4,1.9l-3.1,1.4C422.9,243.9,423.4,244.4,423.6,245.1z"/>
			<path class="st9_money-1-29" d="M408.5,263.5c-14.5,0-26.3-7.1-26.3-15.9s11.8-15.9,26.3-15.9s26.3,7.1,26.3,15.9&#10;&#9;&#9;&#9;&#9;C434.8,256.4,423,263.5,408.5,263.5z M408.5,234c-13.2,0-24,6.1-24,13.6s10.8,13.6,24,13.6s24-6.1,24-13.6S421.8,234,408.5,234&#10;&#9;&#9;&#9;&#9;L408.5,234z"/>
			<ellipse class="st9_money-1-29" cx="408.5" cy="246.3" rx="30" ry="17.5"/>
			<polygon class="st9_money-1-29" points="378.5,246.3 378.5,241.2 381.8,245.3 &#9;&#9;&#9;"/>
			<polygon class="st9_money-1-29" points="438.4,241.2 438.4,246.3 434.6,246.3 437.4,242.2 &#9;&#9;&#9;"/>
			<ellipse class="st10_money-1-29" cx="408.5" cy="241.2" rx="30" ry="17.5"/>
			<path class="st11_money-1-29" d="M423.6,238.9c0.2,0.4,0.3,0.9,0.2,1.3l-0.1,0.5l-5.5,0.1c0.1-0.2,0.1-0.3,0.1-0.5c0-0.4-0.1-0.7-0.3-1&#10;&#9;&#9;&#9;&#9;c-0.3-0.5-0.8-0.9-1.3-1.2c-0.8-0.4-1.7-0.6-2.6-0.7c-0.8-0.1-1.7,0.1-2.4,0.4c-0.8,0.3-1.1,0.8-0.9,1.3c0.3,0.6,0.7,1.2,1.2,1.7&#10;&#9;&#9;&#9;&#9;c0.6,0.6,1.1,1.2,1.7,1.9c0.5,0.6,0.6,1.4,0.3,2.1c-0.6,1-1.5,1.7-2.6,2.1c-1.8,0.8-3.8,1.2-5.8,1.2c-2.1,0.1-4.3-0.2-6.3-0.9&#10;&#9;&#9;&#9;&#9;l-3.1,1.4l-3.7-1.8l3.1-1.3c-0.5-0.4-1-0.8-1.5-1.3c-0.3-0.4-0.6-0.8-0.7-1.2c-0.1-0.3-0.2-0.7-0.2-1c0-0.2,0-0.5,0.1-0.7&#10;&#9;&#9;&#9;&#9;l0.1-0.3h5.5c0,0.1-0.1,0.3-0.1,0.6c0,0.4,0.2,0.9,0.4,1.2c0.4,0.7,1.1,1.2,1.8,1.5c1,0.5,2.1,0.8,3.2,0.8c1,0.1,2-0.1,2.9-0.5&#10;&#9;&#9;&#9;&#9;c0.8-0.3,1-0.8,0.9-1.3c-0.3-0.7-0.7-1.2-1.2-1.7c-0.6-0.6-1.2-1.2-1.7-1.9c-0.5-0.6-0.6-1.4-0.2-2.1c0.7-1,1.6-1.8,2.8-2.1&#10;&#9;&#9;&#9;&#9;c1.8-0.7,3.7-1.1,5.6-1.1c2-0.1,4,0.2,5.9,0.9l3.1-1.3l3.4,1.9l-3.1,1.4C422.9,237.7,423.4,238.2,423.6,238.9z"/>
			<path class="st9_money-1-29" d="M408.5,257.3c-14.5,0-26.3-7.1-26.3-15.9s11.8-15.9,26.3-15.9s26.3,7.1,26.3,15.9S423,257.3,408.5,257.3z&#10;&#9;&#9;&#9;&#9; M408.5,227.9c-13.2,0-24,6.1-24,13.6s10.8,13.6,24,13.6s24-6.1,24-13.6S421.8,227.9,408.5,227.9z"/>
			<ellipse class="st9_money-1-29" cx="408.2" cy="238.7" rx="30" ry="17.5"/>
			<polygon class="st9_money-1-29" points="378.3,238.7 378.3,233.6 381.5,237.7 &#9;&#9;&#9;"/>
			<polygon class="st9_money-1-29" points="438.2,233.6 438.2,238.7 434.4,238.7 437.2,234.6 &#9;&#9;&#9;"/>
			<ellipse class="st10_money-1-29" cx="408.2" cy="233.6" rx="30" ry="17.6"/>
			<path class="st11_money-1-29" d="M423.4,231.3c0.2,0.4,0.3,0.9,0.2,1.3l-0.1,0.5l-5.5,0.1c0.1-0.2,0.1-0.3,0.1-0.5c0-0.4-0.1-0.7-0.3-1&#10;&#9;&#9;&#9;&#9;c-0.3-0.5-0.8-1-1.3-1.2c-0.8-0.4-1.7-0.6-2.6-0.7c-0.8-0.1-1.7,0.1-2.4,0.4c-0.8,0.3-1.1,0.8-0.9,1.3c0.3,0.6,0.7,1.2,1.2,1.7&#10;&#9;&#9;&#9;&#9;c0.6,0.6,1.1,1.2,1.7,1.9c0.5,0.6,0.6,1.4,0.3,2.1c-0.6,1-1.5,1.7-2.7,2.1c-1.8,0.8-3.8,1.2-5.8,1.2c-2.1,0.1-4.3-0.2-6.3-0.9&#10;&#9;&#9;&#9;&#9;l-3.1,1.4l-3.7-1.8l3-1.3c-0.5-0.4-1-0.8-1.5-1.3c-0.3-0.4-0.6-0.8-0.7-1.2c-0.1-0.3-0.2-0.7-0.2-1c0-0.2,0-0.5,0-0.7l0.1-0.3&#10;&#9;&#9;&#9;&#9;h5.5c-0.1,0.2-0.1,0.4-0.1,0.6c0,0.5,0.2,0.9,0.4,1.2c0.4,0.7,1.1,1.2,1.8,1.5c1,0.5,2.1,0.8,3.2,0.8c1,0.1,2-0.1,2.9-0.5&#10;&#9;&#9;&#9;&#9;c0.8-0.3,1-0.8,0.9-1.3c-0.3-0.7-0.7-1.2-1.2-1.7c-0.6-0.6-1.2-1.2-1.7-1.9c-0.5-0.6-0.6-1.4-0.2-2.1c0.6-1,1.6-1.8,2.8-2.1&#10;&#9;&#9;&#9;&#9;c1.8-0.7,3.7-1.1,5.6-1.1c2-0.1,4,0.2,5.9,0.9l3.1-1.3l3.4,1.9l-3.1,1.4C422.7,230.1,423.1,230.6,423.4,231.3z"/>
			<path class="st9_money-1-29" d="M408.3,249.7c-14.5,0-26.3-7.1-26.3-15.9s11.8-15.9,26.3-15.9s26.3,7.1,26.3,15.9S422.8,249.7,408.3,249.7z&#10;&#9;&#9;&#9;&#9; M408.3,220.2c-13.2,0-24,6.1-24,13.6s10.8,13.6,24,13.6s24-6.1,24-13.6S421.5,220.2,408.3,220.2z"/>
			<ellipse class="st9_money-1-29" cx="408.2" cy="232.3" rx="30" ry="17.6"/>
			<polygon class="st9_money-1-29" points="378.3,232.3 378.3,227.3 381.5,231.3 &#9;&#9;&#9;"/>
			<polygon class="st9_money-1-29" points="438.2,227.3 438.2,232.3 434.4,232.3 437.2,228.3 &#9;&#9;&#9;"/>
			<ellipse class="st10_money-1-29" cx="408.2" cy="227.3" rx="30" ry="17.6"/>
			<path class="st11_money-1-29" d="M423.4,224.9c0.2,0.4,0.3,0.9,0.2,1.3l-0.1,0.5h-5.5c0.1-0.1,0.1-0.3,0.1-0.5c0-0.4-0.1-0.7-0.3-1&#10;&#9;&#9;&#9;&#9;c-0.3-0.5-0.8-1-1.3-1.2c-0.8-0.4-1.7-0.6-2.6-0.7c-0.8-0.1-1.7,0.1-2.4,0.4c-0.8,0.3-1.1,0.8-0.9,1.3c0.3,0.6,0.7,1.2,1.2,1.7&#10;&#9;&#9;&#9;&#9;c0.6,0.6,1.1,1.2,1.7,1.9c0.5,0.6,0.6,1.4,0.3,2.1c-0.6,1-1.6,1.7-2.7,2.1c-1.8,0.8-3.8,1.2-5.8,1.2c-2.1,0.1-4.3-0.2-6.3-0.9&#10;&#9;&#9;&#9;&#9;l-3.1,1.4l-3.7-1.8l3-1.3c-0.5-0.4-1-0.8-1.5-1.3c-0.3-0.4-0.6-0.8-0.7-1.2c-0.1-0.3-0.2-0.7-0.2-1c0-0.2,0-0.5,0-0.7l0.1-0.2&#10;&#9;&#9;&#9;&#9;h5.5c-0.1,0.2-0.1,0.4-0.1,0.6c0,0.4,0.2,0.9,0.4,1.2c0.4,0.7,1.1,1.2,1.8,1.6c1,0.5,2.1,0.8,3.2,0.8c1,0.1,2-0.1,2.9-0.5&#10;&#9;&#9;&#9;&#9;c0.8-0.3,1-0.8,0.9-1.3c-0.3-0.7-0.7-1.2-1.2-1.7c-0.6-0.6-1.2-1.2-1.7-1.9c-0.5-0.6-0.6-1.4-0.2-2.1c0.6-1,1.6-1.8,2.8-2.1&#10;&#9;&#9;&#9;&#9;c1.8-0.7,3.7-1.1,5.6-1.1c2-0.1,4,0.2,5.9,0.9l3.1-1.4l3.4,1.9l-3.1,1.4C422.7,223.7,423.1,224.3,423.4,224.9z"/>
			<path class="st9_money-1-29" d="M408.3,243.3c-14.5,0-26.3-7.1-26.3-15.9s11.8-15.9,26.3-15.9s26.3,7.1,26.3,15.9S422.8,243.3,408.3,243.3z&#10;&#9;&#9;&#9;&#9; M408.3,213.9c-13.2,0-24,6.1-24,13.6s10.8,13.6,24,13.6s24-6.1,24-13.6S421.5,213.9,408.3,213.9L408.3,213.9z"/>
			<ellipse class="st9_money-1-29" cx="408.7" cy="226.2" rx="30" ry="17.6"/>
			<polygon class="st9_money-1-29" points="378.7,226.2 378.7,221.2 382,225.2 &#9;&#9;&#9;"/>
			<polygon class="st9_money-1-29" points="438.6,221.2 438.6,226.2 434.9,226.2 437.6,222.2 &#9;&#9;&#9;"/>
			<ellipse class="st10_money-1-29" cx="408.7" cy="221.2" rx="30" ry="17.6"/>
			<path class="st11_money-1-29" d="M423.9,218.8c0.2,0.4,0.3,0.9,0.2,1.3l-0.1,0.5l-5.5,0.1c0-0.2,0.1-0.3,0.1-0.5c0-0.4-0.1-0.7-0.3-1&#10;&#9;&#9;&#9;&#9;c-0.3-0.5-0.8-0.9-1.3-1.2c-0.8-0.4-1.7-0.6-2.6-0.7c-0.8-0.1-1.7,0.1-2.4,0.4c-0.8,0.3-1.1,0.8-0.9,1.3c0.3,0.6,0.7,1.2,1.2,1.7&#10;&#9;&#9;&#9;&#9;c0.6,0.6,1.1,1.2,1.7,1.9c0.5,0.6,0.6,1.4,0.3,2.1c-0.6,1-1.5,1.7-2.7,2.1c-1.8,0.8-3.8,1.2-5.8,1.2c-2.1,0.1-4.3-0.2-6.3-0.9&#10;&#9;&#9;&#9;&#9;l-3.1,1.4l-3.7-1.8l3-1.3c-0.5-0.4-1-0.8-1.5-1.3c-0.3-0.4-0.6-0.8-0.7-1.2c-0.1-0.3-0.2-0.7-0.2-1c0-0.2,0-0.5,0-0.7l0.1-0.3&#10;&#9;&#9;&#9;&#9;h5.5c-0.1,0.2-0.1,0.4-0.1,0.6c0,0.4,0.2,0.9,0.4,1.2c0.4,0.7,1.1,1.2,1.8,1.5c1,0.5,2.1,0.8,3.2,0.8c1,0.1,2-0.1,2.9-0.5&#10;&#9;&#9;&#9;&#9;c0.8-0.3,1-0.8,0.9-1.3c-0.3-0.7-0.7-1.2-1.2-1.7c-0.6-0.6-1.2-1.2-1.7-1.9c-0.5-0.6-0.6-1.4-0.2-2.1c0.6-1,1.6-1.8,2.8-2.1&#10;&#9;&#9;&#9;&#9;c1.8-0.7,3.7-1.1,5.6-1.1c2-0.1,4,0.2,5.9,0.9l3.1-1.3l3.4,1.9l-3.1,1.4C423.1,217.6,423.6,218.2,423.9,218.8z"/>
			<path class="st9_money-1-29" d="M408.7,237.2c-14.5,0-26.3-7.1-26.3-15.9s11.8-15.9,26.3-15.9s26.3,7.1,26.3,15.9S423.2,237.2,408.7,237.2z&#10;&#9;&#9;&#9;&#9; M408.7,207.8c-13.2,0-24,6.1-24,13.6s10.8,13.6,24,13.6s24-6.1,24-13.6S422,207.8,408.7,207.8z"/>
			<ellipse class="st9_money-1-29" cx="408.7" cy="220.1" rx="30" ry="17.6"/>
			<polygon class="st9_money-1-29" points="378.7,220.1 378.7,215 382,219 &#9;&#9;&#9;"/>
			<polygon class="st9_money-1-29" points="438.6,215 438.6,220.1 434.9,220.1 437.6,216 &#9;&#9;&#9;"/>
			<ellipse class="st10_money-1-29" cx="408.7" cy="215" rx="30" ry="17.6"/>
			<path class="st11_money-1-29" d="M423.9,212.6c0.2,0.4,0.3,0.9,0.2,1.3l-0.1,0.5l-5.5,0.1c0-0.2,0.1-0.3,0.1-0.5c0-0.4-0.1-0.7-0.3-1&#10;&#9;&#9;&#9;&#9;c-0.3-0.5-0.8-1-1.3-1.2c-0.8-0.4-1.7-0.6-2.6-0.7c-0.8-0.1-1.7,0.1-2.4,0.4c-0.8,0.3-1.1,0.8-0.9,1.3c0.3,0.6,0.7,1.2,1.2,1.7&#10;&#9;&#9;&#9;&#9;c0.6,0.6,1.1,1.2,1.7,1.9c0.5,0.6,0.6,1.4,0.3,2.1c-0.6,1-1.5,1.7-2.7,2.1c-1.8,0.8-3.8,1.2-5.8,1.2c-2.1,0.1-4.3-0.2-6.3-0.9&#10;&#9;&#9;&#9;&#9;l-3.1,1.4l-3.7-1.8l3-1.3c-0.5-0.4-1-0.8-1.5-1.3c-0.3-0.4-0.6-0.8-0.7-1.2c-0.1-0.3-0.2-0.7-0.2-1c0-0.2,0-0.5,0-0.7l0.1-0.3&#10;&#9;&#9;&#9;&#9;h5.5c-0.1,0.2-0.1,0.4-0.1,0.6c0,0.5,0.2,0.9,0.4,1.2c0.4,0.7,1.1,1.2,1.8,1.5c1,0.5,2.1,0.8,3.2,0.8c1,0.1,2-0.1,2.9-0.5&#10;&#9;&#9;&#9;&#9;c0.8-0.3,1-0.8,0.9-1.3c-0.3-0.7-0.7-1.2-1.2-1.7c-0.6-0.6-1.2-1.2-1.7-1.9c-0.5-0.6-0.6-1.4-0.2-2.1c0.6-1,1.6-1.8,2.8-2.1&#10;&#9;&#9;&#9;&#9;c1.8-0.7,3.7-1.1,5.6-1.1c2-0.1,4,0.2,5.9,0.9l3.1-1.3l3.4,1.9l-3.1,1.4C423.1,211.4,423.6,212,423.9,212.6z"/>
			<path class="st9_money-1-29" d="M408.7,231.1c-14.5,0-26.3-7.1-26.3-15.9s11.8-15.9,26.3-15.9s26.3,7.1,26.3,15.9S423.2,231.1,408.7,231.1z&#10;&#9;&#9;&#9;&#9; M408.7,201.6c-13.2,0-24,6.1-24,13.6s10.8,13.6,24,13.6s24-6.1,24-13.6S422,201.6,408.7,201.6z"/>
			<ellipse class="st9_money-1-29" cx="105.7" cy="240" rx="33.6" ry="19.7"/>
			<polygon class="st9_money-1-29" points="72.1,240 72.1,234.3 75.8,238.9 &#9;&#9;&#9;"/>
			<polygon class="st9_money-1-29" points="139.2,234.3 139.2,240 135,240 138.1,235.4 &#9;&#9;&#9;"/>
			<ellipse class="st10_money-1-29" cx="105.7" cy="234.3" rx="33.6" ry="19.7"/>
			<path class="st11_money-1-29" d="M122.7,231.7c0.2,0.5,0.3,1,0.3,1.5l-0.1,0.5l-6.1,0.1c0.1-0.2,0.1-0.3,0.1-0.5c0-0.4-0.1-0.8-0.4-1.1&#10;&#9;&#9;&#9;&#9;c-0.3-0.6-0.9-1.1-1.5-1.4c-0.9-0.5-1.9-0.7-2.9-0.8c-0.9-0.1-1.9,0.1-2.7,0.4c-0.9,0.4-1.2,0.9-1,1.4c0.3,0.7,0.7,1.4,1.3,1.9&#10;&#9;&#9;&#9;&#9;c0.7,0.7,1.3,1.4,1.8,2.1c0.6,0.7,0.7,1.6,0.3,2.4c-0.3,0.8-1.3,1.6-3,2.3c-2.1,0.9-4.3,1.3-6.5,1.4c-2.4,0.1-4.8-0.3-7.1-1&#10;&#9;&#9;&#9;&#9;l-3.5,1.5l-4.1-2l3.5-1.5c-0.6-0.4-1.2-0.9-1.6-1.5c-0.4-0.4-0.6-0.9-0.8-1.4c-0.1-0.4-0.2-0.8-0.2-1.2c0-0.3,0-0.5,0.1-0.8&#10;&#9;&#9;&#9;&#9;l0.1-0.3h6.1c-0.1,0.2-0.1,0.4-0.2,0.6c0,0.5,0.2,1,0.5,1.4c0.5,0.8,1.2,1.4,2,1.7c1.1,0.6,2.3,0.9,3.6,0.9&#10;&#9;&#9;&#9;&#9;c1.1,0.1,2.2-0.1,3.3-0.5c0.8-0.4,1.2-0.9,1-1.4c-0.3-0.7-0.8-1.4-1.3-1.9c-0.7-0.7-1.3-1.4-1.9-2.1c-0.5-0.7-0.6-1.6-0.3-2.4&#10;&#9;&#9;&#9;&#9;c0.4-0.9,1.4-1.6,3.1-2.4c2-0.8,4.1-1.2,6.2-1.2c2.3-0.1,4.5,0.3,6.7,1l3.5-1.5l3.8,2.1l-3.5,1.5&#10;&#9;&#9;&#9;&#9;C121.9,230.3,122.4,230.9,122.7,231.7z"/>
			<path class="st9_money-1-29" d="M105.7,252.2c-16.2,0-29.3-7.9-29.3-17.6s13.1-17.6,29.3-17.6s29.3,7.9,29.3,17.6S121.9,252.2,105.7,252.2z&#10;&#9;&#9;&#9;&#9; M105.7,219.2c-14.9,0-27.1,6.9-27.1,15.4s12.1,15.4,27.1,15.4s27-6.9,27-15.4S120.6,219.2,105.7,219.2L105.7,219.2z"/>
			<ellipse class="st9_money-1-29" cx="105.7" cy="232.8" rx="33.6" ry="19.7"/>
			<polygon class="st9_money-1-29" points="72.1,232.8 72.1,227.1 75.8,231.7 &#9;&#9;&#9;"/>
			<polygon class="st9_money-1-29" points="139.2,227.1 139.2,232.8 135,232.8 138.1,228.3 &#9;&#9;&#9;"/>
			<ellipse class="st10_money-1-29" cx="105.7" cy="227.1" rx="33.6" ry="19.7"/>
			<path class="st11_money-1-29" d="M122.7,224.5c0.2,0.5,0.4,1,0.3,1.5l-0.1,0.5l-6.1,0.1c0.1-0.2,0.1-0.3,0.1-0.5c0-0.4-0.1-0.8-0.4-1.1&#10;&#9;&#9;&#9;&#9;c-0.3-0.6-0.9-1.1-1.5-1.4c-0.9-0.5-1.9-0.7-2.9-0.8c-0.9-0.1-1.9,0.1-2.7,0.4c-0.9,0.4-1.2,0.9-1,1.4c0.3,0.7,0.7,1.4,1.3,1.9&#10;&#9;&#9;&#9;&#9;c0.7,0.7,1.3,1.4,1.8,2.1c0.6,0.7,0.7,1.6,0.3,2.4c-0.3,0.8-1.3,1.6-3,2.3c-2.1,0.9-4.3,1.3-6.5,1.4c-2.4,0.1-4.8-0.3-7.1-1&#10;&#9;&#9;&#9;&#9;l-3.5,1.5l-4.1-2l3.4-1.5c-0.6-0.4-1.2-0.9-1.6-1.5c-0.4-0.4-0.6-0.9-0.8-1.4c-0.1-0.4-0.2-0.7-0.2-1.1c0-0.3,0-0.5,0.1-0.8&#10;&#9;&#9;&#9;&#9;l0.1-0.3h6.1c-0.1,0.2-0.1,0.4-0.2,0.6c0,0.5,0.2,1,0.5,1.4c0.5,0.8,1.2,1.4,2,1.7c1.1,0.6,2.3,0.9,3.6,0.9&#10;&#9;&#9;&#9;&#9;c1.1,0.1,2.2-0.1,3.3-0.5c0.8-0.4,1.2-0.8,1-1.4c-0.3-0.7-0.8-1.4-1.3-1.9c-0.7-0.7-1.3-1.4-1.9-2.1c-0.5-0.7-0.6-1.6-0.3-2.4&#10;&#9;&#9;&#9;&#9;c0.4-0.9,1.4-1.6,3.1-2.4c2-0.8,4.1-1.2,6.2-1.2c2.3-0.1,4.5,0.3,6.7,1l3.5-1.5l3.8,2.1l-3.5,1.5&#10;&#9;&#9;&#9;&#9;C121.9,223.1,122.4,223.8,122.7,224.5z"/>
			<path class="st9_money-1-29" d="M105.7,245c-16.2,0-29.3-7.9-29.3-17.6s13.1-17.6,29.3-17.6s29.3,7.9,29.3,17.6S121.9,245,105.7,245z&#10;&#9;&#9;&#9;&#9; M105.7,212c-14.9,0-27.1,6.9-27.1,15.4s12.1,15.4,27.1,15.4s27-6.9,27-15.4S120.6,212,105.7,212z"/>
			<ellipse class="st9_money-1-29" cx="105.7" cy="226" rx="33.6" ry="19.7"/>
			<polygon class="st9_money-1-29" points="72.1,226 72.1,220.3 75.8,224.9 &#9;&#9;&#9;"/>
			<polygon class="st9_money-1-29" points="139.2,220.3 139.2,226 135,226 138.1,221.5 &#9;&#9;&#9;"/>
			<ellipse class="st10_money-1-29" cx="105.7" cy="220.3" rx="33.6" ry="19.7"/>
			<path class="st11_money-1-29" d="M122.7,217.7c0.2,0.5,0.3,1,0.3,1.5l-0.1,0.5l-6.1,0.1c0.1-0.2,0.1-0.3,0.1-0.5c0-0.4-0.1-0.8-0.4-1.1&#10;&#9;&#9;&#9;&#9;c-0.3-0.6-0.9-1.1-1.5-1.4c-0.9-0.5-1.9-0.7-2.9-0.8c-0.9-0.1-1.9,0.1-2.7,0.4c-0.9,0.4-1.2,0.9-1,1.4c0.3,0.7,0.7,1.4,1.3,1.9&#10;&#9;&#9;&#9;&#9;c0.7,0.7,1.3,1.4,1.8,2.1c0.6,0.7,0.7,1.6,0.3,2.4c-0.3,0.8-1.3,1.6-3,2.3c-2.1,0.9-4.3,1.3-6.5,1.4c-2.4,0.1-4.8-0.3-7.1-1&#10;&#9;&#9;&#9;&#9;l-3.5,1.5l-4.1-2l3.5-1.5c-0.6-0.4-1.2-0.9-1.6-1.5c-0.4-0.4-0.6-0.9-0.8-1.4c-0.1-0.4-0.2-0.7-0.2-1.1c0-0.3,0-0.5,0.1-0.8&#10;&#9;&#9;&#9;&#9;l0.1-0.3h6.1c-0.1,0.2-0.1,0.4-0.2,0.6c0,0.5,0.2,1,0.5,1.4c0.5,0.8,1.2,1.4,2,1.7c1.1,0.6,2.3,0.9,3.6,0.9&#10;&#9;&#9;&#9;&#9;c1.1,0.1,2.2-0.1,3.3-0.5c0.8-0.4,1.2-0.9,1-1.4c-0.3-0.7-0.8-1.4-1.3-1.9c-0.7-0.7-1.3-1.4-1.9-2.1c-0.5-0.7-0.6-1.6-0.3-2.4&#10;&#9;&#9;&#9;&#9;c0.4-0.9,1.4-1.6,3.1-2.4c2-0.8,4.1-1.2,6.2-1.2c2.3-0.1,4.5,0.3,6.7,1l3.5-1.5l3.8,2.1l-3.5,1.5&#10;&#9;&#9;&#9;&#9;C121.9,216.3,122.4,217,122.7,217.7z"/>
			<path class="st9_money-1-29" d="M105.7,238.2c-16.2,0-29.3-7.9-29.3-17.6S89.6,203,105.7,203s29.3,7.9,29.3,17.6S121.9,238.2,105.7,238.2z&#10;&#9;&#9;&#9;&#9; M105.7,205.2c-14.9,0-27.1,6.9-27.1,15.4S90.8,236,105.7,236s27-6.9,27-15.4S120.6,205.2,105.7,205.2L105.7,205.2z"/>
			<ellipse class="st9_money-1-29" cx="105.7" cy="219.1" rx="33.6" ry="19.7"/>
			<polygon class="st9_money-1-29" points="72.1,219.1 72.1,213.4 75.8,217.9 &#9;&#9;&#9;"/>
			<polygon class="st9_money-1-29" points="139.2,213.4 139.2,219.1 135,219.1 138.1,214.5 &#9;&#9;&#9;"/>
			<ellipse class="st10_money-1-29" cx="105.7" cy="213.4" rx="33.6" ry="19.7"/>
			<path class="st11_money-1-29" d="M122.7,210.8c0.2,0.5,0.3,1,0.3,1.5l-0.1,0.5l-6.1,0.1c0.1-0.2,0.1-0.4,0.1-0.5c0-0.4-0.1-0.8-0.4-1.1&#10;&#9;&#9;&#9;&#9;c-0.3-0.6-0.9-1.1-1.5-1.4c-0.9-0.5-1.9-0.7-2.9-0.8c-0.9-0.1-1.9,0.1-2.7,0.4c-0.9,0.4-1.2,0.9-1,1.4c0.3,0.7,0.7,1.4,1.3,1.9&#10;&#9;&#9;&#9;&#9;c0.7,0.7,1.3,1.4,1.8,2.1c0.6,0.7,0.7,1.6,0.3,2.4c-0.3,0.8-1.3,1.6-3,2.3c-2.1,0.9-4.3,1.3-6.5,1.4c-2.4,0.1-4.8-0.3-7.1-1&#10;&#9;&#9;&#9;&#9;l-3.5,1.5l-4.1-2l3.4-1.5c-0.6-0.4-1.2-0.9-1.6-1.5c-0.4-0.4-0.6-0.9-0.8-1.4c-0.1-0.4-0.2-0.7-0.2-1.1c0-0.3,0-0.5,0.1-0.8&#10;&#9;&#9;&#9;&#9;l0.1-0.3h6.1c-0.1,0.2-0.1,0.4-0.2,0.6c0,0.5,0.2,1,0.5,1.4c0.5,0.8,1.2,1.4,2,1.7c1.1,0.6,2.3,0.9,3.6,0.9&#10;&#9;&#9;&#9;&#9;c1.1,0.1,2.2-0.1,3.3-0.5c0.8-0.4,1.2-0.8,1-1.4c-0.3-0.7-0.8-1.4-1.3-1.9c-0.7-0.7-1.3-1.4-1.9-2.1c-0.5-0.7-0.6-1.6-0.3-2.4&#10;&#9;&#9;&#9;&#9;c0.4-0.8,1.4-1.6,3.1-2.4c2-0.8,4.1-1.2,6.2-1.2c2.3-0.1,4.5,0.3,6.7,1l3.5-1.5l3.8,2.1l-3.5,1.5&#10;&#9;&#9;&#9;&#9;C121.9,209.4,122.4,210,122.7,210.8z"/>
			<path class="st9_money-1-29" d="M105.7,231.3c-16.2,0-29.3-7.9-29.3-17.6S89.6,196,105.7,196s29.3,7.9,29.3,17.6S121.9,231.3,105.7,231.3z&#10;&#9;&#9;&#9;&#9; M105.7,198.3c-14.9,0-27.1,6.9-27.1,15.4S90.8,229,105.7,229s27-6.9,27-15.4S120.6,198.3,105.7,198.3L105.7,198.3z"/>
			<ellipse class="st9_money-1-29" cx="105.4" cy="210.6" rx="33.6" ry="19.7"/>
			<polygon class="st9_money-1-29" points="71.8,210.6 71.8,204.9 75.5,209.4 &#9;&#9;&#9;"/>
			<polygon class="st9_money-1-29" points="139,204.9 139,210.6 134.7,210.6 137.8,206 &#9;&#9;&#9;"/>
			<ellipse class="st10_money-1-29" cx="105.4" cy="204.9" rx="33.6" ry="19.7"/>
			<path class="st11_money-1-29" d="M122.4,202.3c0.2,0.5,0.3,1,0.3,1.5l-0.1,0.5h-6.1c0-0.2,0.1-0.3,0.1-0.5c0-0.4-0.1-0.8-0.4-1.1&#10;&#9;&#9;&#9;&#9;c-0.3-0.6-0.9-1.1-1.5-1.4c-0.9-0.5-1.9-0.7-2.9-0.8c-0.9-0.1-1.9,0.1-2.7,0.4c-0.9,0.4-1.2,0.9-1,1.4c0.3,0.7,0.7,1.4,1.3,1.9&#10;&#9;&#9;&#9;&#9;c0.7,0.7,1.3,1.4,1.9,2.1c0.6,0.7,0.7,1.6,0.3,2.4c-0.3,0.8-1.3,1.6-3,2.3c-2.1,0.9-4.3,1.3-6.5,1.4c-2.4,0.1-4.8-0.3-7.1-1&#10;&#9;&#9;&#9;&#9;l-3.5,1.5l-4.1-2l3.4-1.5c-0.6-0.4-1.2-0.9-1.6-1.5c-0.4-0.4-0.6-0.9-0.8-1.4c-0.1-0.4-0.2-0.7-0.2-1.1c0-0.3,0-0.5,0.1-0.8&#10;&#9;&#9;&#9;&#9;l0.1-0.3h6.1c-0.1,0.2-0.1,0.4-0.1,0.6c0,0.5,0.2,1,0.5,1.4c0.5,0.8,1.2,1.4,2,1.7c1.1,0.6,2.3,0.9,3.6,0.9&#10;&#9;&#9;&#9;&#9;c1.1,0.1,2.2-0.1,3.3-0.5c0.9-0.4,1.2-0.8,1-1.4c-0.3-0.7-0.8-1.4-1.4-1.9c-0.7-0.7-1.3-1.4-1.9-2.1c-0.5-0.7-0.6-1.6-0.3-2.4&#10;&#9;&#9;&#9;&#9;c0.4-0.9,1.4-1.6,3.1-2.4c2-0.8,4.1-1.2,6.2-1.2c2.3-0.1,4.5,0.3,6.6,1l3.5-1.5l3.8,2.1l-3.5,1.6&#10;&#9;&#9;&#9;&#9;C121.6,200.9,122.1,201.5,122.4,202.3z"/>
			<path class="st9_money-1-29" d="M105.5,222.8c-16.2,0-29.3-7.9-29.3-17.6s13.1-17.6,29.3-17.6s29.3,7.9,29.3,17.6S121.6,222.8,105.5,222.8z&#10;&#9;&#9;&#9;&#9; M105.5,189.8c-14.9,0-27,6.9-27,15.4s12.1,15.4,27,15.4s27.1-6.9,27.1-15.4S120.4,189.7,105.5,189.8L105.5,189.8z"/>
			<ellipse class="st9_money-1-29" cx="105.4" cy="203.4" rx="33.6" ry="19.7"/>
			<polygon class="st9_money-1-29" points="71.8,203.4 71.8,197.7 75.5,202.3 &#9;&#9;&#9;"/>
			<polygon class="st9_money-1-29" points="139,197.7 139,203.4 134.7,203.4 137.8,198.8 &#9;&#9;&#9;"/>
			<ellipse class="st10_money-1-29" cx="105.4" cy="197.7" rx="33.6" ry="19.7"/>
			<path class="st11_money-1-29" d="M122.4,195.1c0.2,0.5,0.3,1,0.3,1.5l-0.1,0.5h-6.1c0-0.2,0.1-0.3,0.1-0.5c0-0.4-0.1-0.8-0.4-1.1&#10;&#9;&#9;&#9;&#9;c-0.3-0.6-0.9-1.1-1.5-1.4c-0.9-0.5-1.9-0.7-2.9-0.8c-0.9-0.1-1.9,0.1-2.7,0.4c-0.9,0.4-1.2,0.9-1,1.4c0.3,0.7,0.7,1.4,1.3,1.9&#10;&#9;&#9;&#9;&#9;c0.7,0.7,1.3,1.4,1.9,2.1c0.6,0.7,0.7,1.6,0.3,2.4c-0.3,0.8-1.3,1.6-3,2.3c-2.1,0.9-4.3,1.3-6.5,1.4c-2.4,0.1-4.8-0.3-7.1-1&#10;&#9;&#9;&#9;&#9;l-3.5,1.5l-4.1-2l3.4-1.5c-0.6-0.4-1.2-0.9-1.6-1.5c-0.4-0.4-0.6-0.9-0.8-1.4c-0.1-0.4-0.2-0.7-0.2-1.1c0-0.3,0-0.5,0.1-0.8&#10;&#9;&#9;&#9;&#9;l0.1-0.3h6.1c-0.1,0.2-0.1,0.4-0.1,0.6c0,0.5,0.2,1,0.5,1.4c0.5,0.8,1.2,1.4,2,1.7c1.1,0.6,2.3,0.9,3.6,0.9&#10;&#9;&#9;&#9;&#9;c1.1,0.1,2.2-0.1,3.3-0.5c0.8-0.4,1.2-0.8,1-1.4c-0.3-0.7-0.8-1.4-1.4-1.9c-0.7-0.7-1.3-1.4-1.9-2.1c-0.5-0.7-0.6-1.6-0.3-2.4&#10;&#9;&#9;&#9;&#9;c0.4-0.9,1.4-1.6,3.1-2.4c2-0.8,4.1-1.2,6.2-1.2c2.3-0.1,4.5,0.3,6.6,1l3.5-1.5l3.8,2.1l-3.5,1.6&#10;&#9;&#9;&#9;&#9;C121.6,193.7,122.1,194.4,122.4,195.1z"/>
			<path class="st9_money-1-29" d="M105.5,215.6c-16.2,0-29.3-7.9-29.3-17.6s13.1-17.6,29.3-17.6s29.3,7.9,29.3,17.6S121.6,215.6,105.5,215.6z&#10;&#9;&#9;&#9;&#9; M105.5,182.6c-14.9,0-27,6.9-27,15.4s12.1,15.4,27,15.4s27.1-6.9,27.1-15.4S120.4,182.6,105.5,182.6L105.5,182.6z"/>
			<ellipse class="st9_money-1-29" cx="105.9" cy="196.6" rx="33.6" ry="19.7"/>
			<polygon class="st9_money-1-29" points="72.4,196.6 72.4,190.9 76,195.5 &#9;&#9;&#9;"/>
			<polygon class="st9_money-1-29" points="139.5,190.9 139.5,196.6 135.2,196.6 138.4,192 &#9;&#9;&#9;"/>
			<ellipse class="st10_money-1-29" cx="105.9" cy="190.9" rx="33.6" ry="19.7"/>
			<path class="st11_money-1-29" d="M123,188.3c0.2,0.5,0.3,1,0.3,1.5l-0.1,0.5H117c0.1-0.2,0.1-0.3,0.1-0.5c0-0.4-0.2-0.8-0.4-1.1&#10;&#9;&#9;&#9;&#9;c-0.3-0.6-0.9-1.1-1.5-1.4c-0.9-0.5-1.9-0.7-2.9-0.8c-0.9-0.1-1.9,0.1-2.7,0.4c-0.9,0.4-1.2,0.9-1,1.4c0.3,0.7,0.7,1.4,1.3,1.9&#10;&#9;&#9;&#9;&#9;c0.7,0.7,1.3,1.4,1.9,2.1c0.6,0.7,0.7,1.6,0.3,2.4c-0.3,0.8-1.3,1.6-3,2.3c-2.1,0.9-4.3,1.3-6.5,1.4c-2.4,0.1-4.8-0.3-7.1-1&#10;&#9;&#9;&#9;&#9;l-3.6,1.6l-4.1-2l3.4-1.5c-0.6-0.4-1.2-0.9-1.6-1.5c-0.3-0.4-0.6-0.9-0.8-1.4c-0.1-0.4-0.2-0.7-0.2-1.1c0-0.3,0-0.5,0.1-0.8&#10;&#9;&#9;&#9;&#9;l0.1-0.3H95c-0.1,0.2-0.1,0.4-0.2,0.6c0,0.5,0.2,1,0.5,1.4c0.5,0.8,1.2,1.4,2,1.7c1.1,0.6,2.3,0.9,3.6,0.9&#10;&#9;&#9;&#9;&#9;c1.1,0.1,2.2-0.1,3.3-0.5c0.8-0.4,1.2-0.9,1-1.4c-0.3-0.7-0.8-1.4-1.3-1.9c-0.7-0.7-1.3-1.4-1.9-2.1c-0.6-0.7-0.7-1.6-0.3-2.4&#10;&#9;&#9;&#9;&#9;c0.4-0.9,1.4-1.6,3.1-2.4c2-0.8,4.1-1.2,6.2-1.2c2.3-0.1,4.5,0.3,6.6,1l3.5-1.5l3.8,2.1l-3.5,1.5&#10;&#9;&#9;&#9;&#9;C122.2,186.9,122.7,187.5,123,188.3z"/>
			<path class="st9_money-1-29" d="M106,208.8c-16.2,0-29.3-7.9-29.3-17.6s13.1-17.6,29.3-17.6s29.3,7.9,29.3,17.6S122.1,208.8,106,208.8z&#10;&#9;&#9;&#9;&#9; M106,175.8c-14.9,0-27.1,6.9-27.1,15.4s12.1,15.4,27.1,15.4s27-6.9,27-15.4S120.9,175.8,106,175.8L106,175.8z"/>
			<ellipse class="st9_money-1-29" cx="116" cy="188.1" rx="33.6" ry="19.7"/>
			<polygon class="st9_money-1-29" points="82.5,188.1 82.5,182.4 86.1,186.9 &#9;&#9;&#9;"/>
			<polygon class="st9_money-1-29" points="149.6,182.4 149.6,188.1 145.3,188.1 148.5,183.5 &#9;&#9;&#9;"/>
			<ellipse class="st10_money-1-29" cx="116" cy="182.4" rx="33.6" ry="19.7"/>
			<path class="st11_money-1-29" d="M133.1,179.8c0.2,0.5,0.3,1,0.3,1.5l-0.1,0.5h-6.1c0.1-0.2,0.1-0.3,0.1-0.5c0-0.4-0.2-0.8-0.4-1.1&#10;&#9;&#9;&#9;&#9;c-0.3-0.6-0.9-1.1-1.5-1.4c-0.9-0.5-1.9-0.7-2.9-0.8c-0.9-0.1-1.9,0.1-2.7,0.4c-0.9,0.4-1.2,0.9-1,1.4c0.3,0.7,0.7,1.4,1.3,1.9&#10;&#9;&#9;&#9;&#9;c0.7,0.7,1.3,1.4,1.9,2.2c0.6,0.7,0.7,1.6,0.3,2.4c-0.3,0.8-1.3,1.6-3,2.3c-2.1,0.9-4.3,1.3-6.5,1.4c-2.4,0.1-4.8-0.3-7.1-1&#10;&#9;&#9;&#9;&#9;l-3.5,1.5l-4.1-2l3.4-1.5c-0.6-0.4-1.2-0.9-1.6-1.5c-0.3-0.4-0.6-0.9-0.8-1.4c-0.1-0.4-0.2-0.7-0.2-1.1c0-0.3,0-0.5,0.1-0.8&#10;&#9;&#9;&#9;&#9;L99,182h6.1c-0.1,0.2-0.1,0.4-0.2,0.6c0,0.5,0.2,1,0.5,1.4c0.5,0.8,1.2,1.4,2,1.7c1.1,0.6,2.3,0.9,3.6,0.9&#10;&#9;&#9;&#9;&#9;c1.1,0.1,2.2-0.1,3.3-0.5c0.8-0.4,1.2-0.8,1-1.4c-0.3-0.7-0.8-1.4-1.4-1.9c-0.7-0.7-1.3-1.4-1.9-2.1c-0.5-0.7-0.7-1.6-0.3-2.4&#10;&#9;&#9;&#9;&#9;c0.4-0.9,1.4-1.6,3.1-2.4c2-0.8,4.1-1.2,6.2-1.2c2.3-0.1,4.5,0.3,6.6,1l3.5-1.5l3.8,2.1l-3.5,1.5&#10;&#9;&#9;&#9;&#9;C132.3,178.3,132.8,179,133.1,179.8z"/>
			<path class="st9_money-1-29" d="M116.1,200.2c-16.2,0-29.3-7.9-29.3-17.6S100,165,116.1,165s29.3,7.9,29.3,17.6S132.2,200.2,116.1,200.2z&#10;&#9;&#9;&#9;&#9; M116.1,167.2c-14.9,0-27,6.9-27,15.4s12.1,15.4,27,15.4s27-6.9,27-15.4S131,167.2,116.1,167.2L116.1,167.2z"/>
			<ellipse class="st9_money-1-29" cx="243.8" cy="345.3" rx="30" ry="17.5"/>
			<polygon class="st9_money-1-29" points="213.8,345.3 213.8,340.3 217.1,344.3 &#9;&#9;&#9;"/>
			<polygon class="st9_money-1-29" points="273.7,340.3 273.7,345.3 269.9,345.3 272.7,341.3 &#9;&#9;&#9;"/>
			<ellipse class="st10_money-1-29" cx="243.8" cy="340.3" rx="30" ry="17.5"/>
			<path class="st11_money-1-29" d="M259,337.9c0.2,0.4,0.3,0.9,0.2,1.3l-0.1,0.5h-5.5c0-0.1,0.1-0.3,0.1-0.5c0-0.4-0.1-0.7-0.3-1&#10;&#9;&#9;&#9;&#9;c-0.3-0.5-0.8-1-1.3-1.2c-0.8-0.4-1.7-0.6-2.6-0.7c-0.8-0.1-1.7,0.1-2.4,0.4c-0.8,0.3-1.1,0.8-0.9,1.3c0.3,0.6,0.7,1.2,1.2,1.7&#10;&#9;&#9;&#9;&#9;c0.6,0.6,1.1,1.3,1.6,2c0.5,0.6,0.6,1.4,0.3,2.1c-0.6,1-1.6,1.7-2.7,2.1c-1.8,0.8-3.8,1.2-5.8,1.2c-2.1,0.1-4.3-0.2-6.3-0.9&#10;&#9;&#9;&#9;&#9;l-3.1,1.4l-3.7-1.8l3.1-1.3c-0.6-0.4-1-0.8-1.5-1.3c-0.3-0.4-0.6-0.8-0.7-1.2c-0.1-0.3-0.2-0.7-0.2-1c0-0.2,0-0.5,0.1-0.7&#10;&#9;&#9;&#9;&#9;l0.1-0.3h5.5c-0.1,0.2-0.1,0.4-0.1,0.5c0,0.4,0.2,0.9,0.4,1.2c0.4,0.7,1.1,1.2,1.8,1.5c1,0.5,2.1,0.8,3.2,0.8&#10;&#9;&#9;&#9;&#9;c1,0.1,2-0.1,2.9-0.5c0.8-0.3,1-0.8,0.9-1.3c-0.3-0.7-0.7-1.2-1.2-1.7c-0.6-0.6-1.2-1.2-1.7-1.9c-0.5-0.6-0.6-1.4-0.2-2.1&#10;&#9;&#9;&#9;&#9;c0.7-1,1.6-1.8,2.8-2.1c1.8-0.7,3.7-1.1,5.6-1.1c2-0.1,4,0.2,5.9,0.9l3.1-1.4l3.4,1.9l-3.1,1.4&#10;&#9;&#9;&#9;&#9;C258.2,336.7,258.7,337.3,259,337.9z"/>
			<path class="st9_money-1-29" d="M243.8,356.3c-14.5,0-26.3-7.1-26.3-15.9s11.8-15.9,26.3-15.9s26.3,7.1,26.3,15.9S258.3,356.3,243.8,356.3z&#10;&#9;&#9;&#9;&#9; M243.8,326.9c-13.2,0-24,6.1-24,13.6s10.8,13.6,24,13.6c13.2,0,24-6.1,24-13.6S257.1,326.9,243.8,326.9z"/>
			<ellipse class="st9_money-1-29" cx="264.3" cy="324.2" rx="30" ry="17.5"/>
			<polygon class="st9_money-1-29" points="234.4,324.2 234.4,319.1 237.6,323.2 &#9;&#9;&#9;"/>
			<polygon class="st9_money-1-29" points="294.3,319.1 294.3,324.2 290.5,324.2 293.3,320.1 &#9;&#9;&#9;"/>
			<ellipse class="st10_money-1-29" cx="264.3" cy="319.1" rx="30" ry="17.5"/>
			<path class="st11_money-1-29" d="M279.5,316.8c0.2,0.4,0.3,0.9,0.2,1.3l-0.1,0.5h-5.5c0.1-0.1,0.1-0.3,0.1-0.5c0-0.4-0.1-0.7-0.3-1&#10;&#9;&#9;&#9;&#9;c-0.3-0.5-0.8-1-1.3-1.2c-0.8-0.4-1.7-0.6-2.6-0.7c-0.8-0.1-1.7,0.1-2.5,0.4c-0.8,0.3-1.1,0.8-0.9,1.3c0.3,0.6,0.7,1.2,1.2,1.7&#10;&#9;&#9;&#9;&#9;c0.6,0.6,1.1,1.2,1.7,1.9c0.5,0.6,0.6,1.4,0.3,2.1c-0.6,1-1.6,1.7-2.7,2.1c-1.8,0.8-3.8,1.2-5.8,1.2c-2.1,0.1-4.3-0.2-6.3-0.9&#10;&#9;&#9;&#9;&#9;l-3.1,1.4l-3.7-1.8l3.1-1.3c-0.6-0.4-1-0.8-1.5-1.3c-0.3-0.4-0.6-0.8-0.7-1.2c-0.1-0.3-0.2-0.7-0.2-1c0-0.2,0-0.5,0.1-0.7&#10;&#9;&#9;&#9;&#9;l0.1-0.3h5.5c-0.1,0.2-0.1,0.4-0.1,0.5c0,0.4,0.2,0.9,0.4,1.2c0.4,0.7,1.1,1.2,1.8,1.5c1,0.5,2.1,0.8,3.2,0.8&#10;&#9;&#9;&#9;&#9;c1,0.1,2-0.1,2.9-0.5c0.8-0.3,1-0.8,0.9-1.3c-0.3-0.7-0.7-1.2-1.2-1.7c-0.6-0.6-1.2-1.2-1.7-1.9c-0.5-0.6-0.6-1.4-0.2-2.1&#10;&#9;&#9;&#9;&#9;c0.7-1,1.6-1.8,2.8-2.1c1.8-0.7,3.7-1.1,5.6-1.1c2-0.1,4,0.2,5.9,0.9l3.1-1.4l3.4,1.9l-3.1,1.4&#10;&#9;&#9;&#9;&#9;C278.8,315.5,279.2,316.1,279.5,316.8z"/>
			<path class="st9_money-1-29" d="M264.4,335.2c-14.5,0-26.3-7.1-26.3-15.9s11.8-15.9,26.3-15.9c14.5,0,26.3,7.1,26.3,15.9&#10;&#9;&#9;&#9;&#9;S278.9,335.2,264.4,335.2z M264.4,305.7c-13.2,0-24,6.1-24,13.6s10.8,13.6,24,13.6s24-6.1,24-13.6S277.6,305.7,264.4,305.7z"/>
			<ellipse class="st9_money-1-29" cx="229.1" cy="326.5" rx="30" ry="17.5"/>
			<polygon class="st9_money-1-29" points="199.2,326.5 199.2,321.4 202.4,325.5 &#9;&#9;&#9;"/>
			<polygon class="st9_money-1-29" points="259.1,321.4 259.1,326.5 255.3,326.5 258.1,322.4 &#9;&#9;&#9;"/>
			<ellipse class="st10_money-1-29" cx="229.1" cy="321.4" rx="30" ry="17.5"/>
			<path class="st11_money-1-29" d="M244.3,319.1c0.2,0.4,0.3,0.9,0.2,1.3l-0.1,0.5H239c0-0.2,0.1-0.3,0.1-0.5c0-0.4-0.1-0.7-0.3-1&#10;&#9;&#9;&#9;&#9;c-0.3-0.5-0.8-1-1.3-1.2c-0.8-0.4-1.7-0.6-2.6-0.7c-0.8-0.1-1.7,0.1-2.4,0.4c-0.8,0.3-1.1,0.8-0.9,1.3c0.3,0.6,0.7,1.2,1.2,1.7&#10;&#9;&#9;&#9;&#9;c0.6,0.6,1.1,1.2,1.7,1.9c0.5,0.6,0.6,1.4,0.3,2.1c-0.6,1-1.5,1.7-2.6,2.1c-1.8,0.8-3.8,1.2-5.8,1.2c-2.1,0.1-4.3-0.2-6.3-0.9&#10;&#9;&#9;&#9;&#9;l-3.1,1.4l-3.7-1.8l3.1-1.3c-0.5-0.4-1-0.8-1.5-1.3c-0.3-0.4-0.6-0.8-0.7-1.2c-0.1-0.3-0.2-0.7-0.2-1c0-0.2,0-0.5,0-0.7l0.1-0.3&#10;&#9;&#9;&#9;&#9;h5.5c-0.1,0.2-0.1,0.4-0.1,0.5c0,0.4,0.2,0.9,0.4,1.2c0.4,0.7,1.1,1.2,1.8,1.5c1,0.5,2.1,0.8,3.2,0.8c1,0.1,2-0.1,2.9-0.5&#10;&#9;&#9;&#9;&#9;c0.8-0.3,1-0.8,0.9-1.3c-0.3-0.7-0.7-1.2-1.2-1.7c-0.6-0.6-1.2-1.2-1.7-1.9c-0.5-0.6-0.6-1.4-0.2-2.1c0.7-1,1.6-1.8,2.8-2.1&#10;&#9;&#9;&#9;&#9;c1.8-0.7,3.7-1.1,5.6-1.1c2-0.1,4,0.2,5.9,0.9l3.1-1.4l3.4,1.9l-3.1,1.4C243.6,317.8,244,318.4,244.3,319.1z"/>
			<path class="st9_money-1-29" d="M229.2,337.5c-14.5,0-26.3-7.1-26.3-15.9s11.8-15.9,26.3-15.9s26.3,7.1,26.3,15.9S243.7,337.5,229.2,337.5z&#10;&#9;&#9;&#9;&#9; M229.2,308c-13.2,0-24,6.1-24,13.6s10.8,13.6,24,13.6s24-6.1,24-13.6S242.4,308,229.2,308L229.2,308z"/>
			<ellipse class="st9_money-1-29" cx="289.5" cy="341.5" rx="30" ry="17.5"/>
			<polygon class="st9_money-1-29" points="259.6,341.5 259.6,336.5 262.8,340.5 &#9;&#9;&#9;"/>
			<polygon class="st9_money-1-29" points="319.5,336.5 319.5,341.5 315.7,341.5 318.5,337.5 &#9;&#9;&#9;"/>
			<ellipse class="st10_money-1-29" cx="289.5" cy="336.5" rx="30" ry="17.5"/>
			<path class="st11_money-1-29" d="M304.7,334.1c0.2,0.4,0.3,0.9,0.2,1.3l-0.1,0.5h-5.5c0.1-0.2,0.1-0.3,0.1-0.5c0-0.4-0.1-0.7-0.3-1&#10;&#9;&#9;&#9;&#9;c-0.3-0.5-0.8-1-1.3-1.2c-0.8-0.4-1.7-0.6-2.6-0.7c-0.8-0.1-1.7,0.1-2.4,0.4c-0.8,0.3-1.1,0.8-0.9,1.3c0.2,0.7,0.6,1.3,1.2,1.8&#10;&#9;&#9;&#9;&#9;c0.6,0.6,1.1,1.2,1.6,1.9c0.5,0.6,0.6,1.4,0.3,2.1c-0.6,1-1.5,1.7-2.7,2.1c-1.8,0.8-3.8,1.2-5.8,1.2c-2.1,0.1-4.3-0.2-6.3-0.9&#10;&#9;&#9;&#9;&#9;l-3.1,1.4l-3.7-1.8l3.1-1.3c-0.5-0.4-1-0.8-1.5-1.3c-0.3-0.4-0.6-0.8-0.7-1.2c-0.1-0.3-0.2-0.7-0.2-1c0-0.2,0-0.5,0.1-0.7&#10;&#9;&#9;&#9;&#9;l0.1-0.3h5.5c-0.1,0.2-0.1,0.4-0.1,0.6c0,0.4,0.2,0.9,0.4,1.2c0.4,0.7,1.1,1.2,1.8,1.5c1,0.5,2.1,0.8,3.2,0.8&#10;&#9;&#9;&#9;&#9;c1,0.1,2-0.1,2.9-0.5c0.8-0.3,1-0.8,0.9-1.3c-0.3-0.7-0.7-1.2-1.2-1.7c-0.6-0.6-1.2-1.2-1.7-1.9c-0.5-0.6-0.6-1.4-0.2-2.1&#10;&#9;&#9;&#9;&#9;c0.7-1,1.6-1.8,2.8-2.1c1.8-0.7,3.7-1.1,5.6-1.1c2-0.1,4,0.2,5.9,0.9l3.1-1.4l3.4,1.9l-3.1,1.4&#10;&#9;&#9;&#9;&#9;C304,332.9,304.4,333.5,304.7,334.1z"/>
			<path class="st9_money-1-29" d="M289.6,352.5c-14.5,0-26.3-7.1-26.3-15.9s11.8-15.9,26.3-15.9s26.3,7.1,26.3,15.9S304.1,352.5,289.6,352.5z&#10;&#9;&#9;&#9;&#9; M289.6,323c-13.2,0-24,6.1-24,13.6s10.8,13.6,24,13.6s24-6.1,24-13.6S302.8,323,289.6,323z"/>
			<ellipse class="st9_money-1-29" cx="273.7" cy="330.3" rx="30" ry="17.5"/>
			<polygon class="st9_money-1-29" points="243.8,330.3 243.8,325.2 247,329.3 &#9;&#9;&#9;"/>
			<polygon class="st9_money-1-29" points="303.7,325.2 303.7,330.3 299.9,330.3 302.7,326.2 &#9;&#9;&#9;"/>
			<ellipse class="st10_money-1-29" cx="273.7" cy="325.2" rx="30" ry="17.5"/>
			<path class="st11_money-1-29" d="M288.9,322.9c0.2,0.4,0.3,0.9,0.2,1.3l-0.1,0.5l-5.5,0c0.1-0.2,0.1-0.3,0.1-0.5c0-0.4-0.1-0.7-0.3-1&#10;&#9;&#9;&#9;&#9;c-0.3-0.5-0.8-1-1.3-1.2c-0.8-0.4-1.7-0.6-2.6-0.7c-0.8-0.1-1.7,0.1-2.4,0.4c-0.8,0.3-1.1,0.8-0.9,1.3c0.3,0.6,0.7,1.2,1.2,1.7&#10;&#9;&#9;&#9;&#9;c0.6,0.6,1.1,1.2,1.7,1.9c0.5,0.6,0.6,1.4,0.3,2.1c-0.6,1-1.5,1.7-2.7,2.1c-1.8,0.8-3.8,1.2-5.8,1.2c-2.1,0.1-4.3-0.2-6.3-0.9&#10;&#9;&#9;&#9;&#9;l-3.1,1.4l-3.7-1.8l3.1-1.3c-0.5-0.4-1-0.8-1.5-1.3c-0.3-0.4-0.6-0.8-0.7-1.2c-0.1-0.3-0.2-0.7-0.2-1c0-0.2,0-0.5,0-0.7l0.1-0.3&#10;&#9;&#9;&#9;&#9;h5.5c-0.1,0.2-0.1,0.4-0.1,0.5c0,0.5,0.2,0.9,0.4,1.2c0.4,0.7,1.1,1.2,1.8,1.5c1,0.5,2.1,0.8,3.2,0.8c1,0.1,2-0.1,2.9-0.5&#10;&#9;&#9;&#9;&#9;c0.8-0.3,1-0.8,0.9-1.3c-0.3-0.7-0.7-1.2-1.2-1.7c-0.6-0.6-1.2-1.2-1.7-1.9c-0.5-0.6-0.6-1.4-0.2-2.1c0.6-1,1.6-1.8,2.8-2.1&#10;&#9;&#9;&#9;&#9;c1.8-0.7,3.7-1.1,5.6-1.1c2-0.1,4,0.2,5.9,0.9l3.1-1.3l3.4,1.9l-3.1,1.4C288.2,321.7,288.7,322.3,288.9,322.9z"/>
			<path class="st9_money-1-29" d="M273.8,341.3c-14.5,0-26.3-7.1-26.3-15.9s11.8-15.9,26.3-15.9s26.3,7.1,26.3,15.9S288.3,341.3,273.8,341.3z&#10;&#9;&#9;&#9;&#9; M273.8,311.9c-13.2,0-24,6.1-24,13.6s10.8,13.6,24,13.6s24-6.1,24-13.6S287,311.9,273.8,311.9z"/>
			<path class="st12_money-1-29" d="M206.1,301.6c0,0,0.6,9.6-6.9,10.2c0,0,6.4,2.6,7.4,7.7c0,0,0.8-7,7.2-7.8&#10;&#9;&#9;&#9;&#9;C209.1,310.7,205.8,306.5,206.1,301.6z"/>
			<path class="st12_money-1-29" d="M141.8,163.4c0,0,0.8,11.7-8.3,12.4c0,0,7.7,3.2,8.9,9.3c0,0,1-8.5,8.8-9.4&#10;&#9;&#9;&#9;&#9;C145.4,174.4,141.5,169.2,141.8,163.4z"/>
			<path class="st12_money-1-29" d="M382.6,228.2c0,0,0.8,11.7-8.3,12.4c0,0,7.7,3.2,9,9.3c0,0,1-8.5,8.8-9.4&#10;&#9;&#9;&#9;&#9;C386.3,239.2,382.3,234,382.6,228.2z"/>
		</g>
	</g>
</g>
</svg>