<?xml version="1.0" encoding="UTF-8"?>
<svg xmlns="http://www.w3.org/2000/svg" xmlns:xlink="http://www.w3.org/1999/xlink" width="1700px" height="1000px" viewBox="0 0 1700 1000" version="1.1">
<g id="surface1">
<path style=" stroke:none;fill-rule:nonzero;fill:rgb(0%,0%,0%);fill-opacity:1;" d="M 1593.75 875 C 1593.75 875 1700 875 1700 812.5 C 1700 750 1593.75 562.5 1168.75 562.5 C 743.75 562.5 637.5 750 637.5 812.5 C 637.5 875 743.75 875 743.75 875 Z M 746.085938 812.5 L 743.75 812.25 C 743.855469 795.75 761.492188 747.875 824.5 704.75 C 883.148438 664.3125 986.210938 625 1168.75 625 C 1351.179688 625 1454.242188 664.375 1513 704.75 C 1576.007812 747.875 1593.539062 795.8125 1593.75 812.25 L 1592.898438 812.375 L 1591.414062 812.5 Z M 1168.75 437.5 C 1286.109375 437.5 1381.25 381.535156 1381.25 312.5 C 1381.25 243.464844 1286.109375 187.5 1168.75 187.5 C 1051.390625 187.5 956.25 243.464844 956.25 312.5 C 956.25 381.535156 1051.390625 437.5 1168.75 437.5 M 1487.5 312.5 C 1487.5 416.054688 1344.789062 500 1168.75 500 C 992.710938 500 850 416.054688 850 312.5 C 850 208.945312 992.710938 125 1168.75 125 C 1344.789062 125 1487.5 208.945312 1487.5 312.5 M 736.949219 580 C 694.425781 572.183594 650.621094 567.007812 606.261719 564.5625 C 581.332031 563.132812 556.296875 562.445312 531.25 562.5 C 106.25 562.5 0 750 0 812.5 C 0 854.167969 35.417969 875 106.25 875 L 554.199219 875 C 538.457031 855.488281 530.601562 834.097656 531.25 812.5 C 531.25 749.375 571.304688 684.875 647.0625 631 C 672.882812 612.625 702.949219 595.4375 736.949219 580 M 522.75 625 C 459.90625 680.589844 425.941406 745.742188 425 812.5 L 106.25 812.5 C 106.25 796.25 123.675781 748.125 187 704.75 C 244.90625 665 345.523438 626.25 522.75 625.0625 Z M 159.375 343.75 C 159.375 240.195312 302.085938 156.25 478.125 156.25 C 654.164062 156.25 796.875 240.195312 796.875 343.75 C 796.875 447.304688 654.164062 531.25 478.125 531.25 C 302.085938 531.25 159.375 447.304688 159.375 343.75 M 478.125 218.75 C 360.765625 218.75 265.625 274.714844 265.625 343.75 C 265.625 412.785156 360.765625 468.75 478.125 468.75 C 595.484375 468.75 690.625 412.785156 690.625 343.75 C 690.625 274.714844 595.484375 218.75 478.125 218.75 "/>
</g>
</svg>
