<svg id="svg" version="1.1" xmlns="http://www.w3.org/2000/svg" xmlns:xlink="http://www.w3.org/1999/xlink" width="400" height="322.48865845755023" viewBox="0, 0, 400,322.48865845755023"><g id="svgg"><path id="path0" d="M187.667 50.094 C 187.438 50.132,186.463 50.281,185.500 50.424 C 182.932 50.806,180.445 51.439,178.891 52.107 C 178.603 52.232,178.318 52.333,178.258 52.333 C 178.094 52.333,174.152 54.306,173.583 54.673 C 173.308 54.851,172.840 55.123,172.542 55.279 C 172.244 55.434,172.000 55.623,172.000 55.698 C 172.000 55.772,171.894 55.833,171.764 55.833 C 171.634 55.833,171.503 55.891,171.472 55.961 C 171.442 56.032,171.023 56.375,170.542 56.725 C 170.060 57.075,169.667 57.430,169.667 57.514 C 169.667 57.598,169.583 57.667,169.481 57.667 C 169.244 57.667,165.667 61.252,165.667 61.490 C 165.667 61.587,165.600 61.667,165.520 61.667 C 165.333 61.667,163.591 64.102,162.768 65.513 C 162.424 66.102,162.075 66.696,161.991 66.833 C 161.821 67.114,161.219 68.365,160.703 69.510 C 158.573 74.243,157.626 81.614,158.499 86.667 C 159.113 90.219,159.933 93.106,160.402 93.368 C 161.701 94.096,162.346 95.240,162.394 96.907 C 162.427 98.047,163.147 99.730,163.705 99.972 C 163.776 100.003,163.833 100.099,163.833 100.185 C 163.833 100.684,168.190 105.530,169.583 106.581 C 169.767 106.719,170.483 107.264,171.175 107.791 C 172.492 108.795,172.865 109.053,173.417 109.342 C 173.600 109.438,174.050 109.694,174.417 109.911 C 176.095 110.901,178.821 112.086,180.500 112.555 C 184.682 113.723,186.537 114.000,190.167 114.000 C 194.838 114.000,198.665 113.222,202.917 111.408 C 203.823 111.021,206.246 109.799,206.476 109.613 C 206.719 109.416,207.262 109.088,207.667 108.893 C 207.804 108.826,208.419 108.373,209.033 107.886 C 209.647 107.399,210.188 107.000,210.236 107.000 C 210.284 107.000,210.745 106.606,211.261 106.125 C 211.777 105.644,212.293 105.196,212.408 105.130 C 212.627 105.005,214.969 102.317,215.789 101.250 C 216.526 100.290,216.833 99.827,216.833 99.678 C 216.833 99.580,216.894 99.500,216.969 99.500 C 217.044 99.500,217.233 99.256,217.389 98.958 C 217.546 98.660,217.852 98.117,218.070 97.750 C 218.435 97.135,218.607 96.796,219.507 94.917 C 222.589 88.479,222.980 78.433,220.414 71.583 C 220.174 70.942,219.915 70.217,219.838 69.973 C 218.878 66.920,214.634 60.858,211.730 58.390 C 211.208 57.946,210.663 57.452,210.520 57.292 C 210.377 57.131,210.163 57.000,210.046 57.000 C 209.929 57.000,209.833 56.935,209.833 56.857 C 209.833 56.689,207.900 55.333,207.661 55.333 C 207.573 55.333,207.500 55.267,207.500 55.186 C 207.500 55.104,207.256 54.913,206.958 54.760 C 206.660 54.607,206.117 54.306,205.750 54.092 C 204.918 53.604,204.016 53.165,202.833 52.671 C 202.329 52.460,201.692 52.193,201.417 52.078 C 198.171 50.714,190.522 49.611,187.667 50.094 M192.537 65.373 L 192.583 67.579 193.491 67.710 C 195.807 68.042,200.333 70.108,200.333 70.833 C 200.333 71.021,198.668 74.500,198.578 74.500 C 198.533 74.500,198.066 74.209,197.540 73.854 C 195.984 72.802,193.673 71.833,192.721 71.833 L 192.333 71.833 192.333 76.089 C 192.333 79.348,192.382 80.358,192.542 80.406 C 192.656 80.440,193.425 80.670,194.250 80.916 C 198.752 82.259,200.673 84.295,200.804 87.863 C 200.963 92.171,198.133 95.413,193.375 96.370 L 192.500 96.546 192.500 98.773 L 192.500 101.000 190.500 101.000 L 188.500 101.000 188.500 98.774 L 188.500 96.548 187.375 96.442 C 185.010 96.220,181.401 94.880,180.017 93.711 L 179.452 93.232 180.257 91.491 C 181.280 89.279,181.157 89.375,182.105 90.050 C 183.666 91.161,185.816 92.027,187.708 92.308 L 188.667 92.450 188.667 88.315 L 188.667 84.180 187.999 84.000 C 182.990 82.651,180.885 81.010,180.065 77.816 C 178.941 73.430,182.358 68.749,187.375 67.803 L 188.500 67.591 188.500 65.379 L 188.500 63.167 190.495 63.167 L 192.490 63.167 192.537 65.373 M108.167 70.519 C 107.662 70.699,107.063 70.914,106.833 70.996 C 106.604 71.077,105.892 71.341,105.250 71.581 C 104.608 71.822,103.842 72.092,103.548 72.182 C 103.253 72.272,102.978 72.402,102.935 72.470 C 102.893 72.538,105.384 75.967,108.471 80.089 L 114.083 87.583 115.583 87.707 C 118.721 87.964,121.667 88.080,121.667 87.946 C 121.667 87.818,120.826 86.161,116.559 77.882 C 115.699 76.213,115.012 74.788,115.033 74.716 C 115.090 74.515,113.956 72.167,113.801 72.167 C 113.727 72.167,113.667 72.082,113.667 71.977 C 113.667 71.755,112.888 71.000,112.658 71.000 C 112.571 71.000,112.500 70.932,112.500 70.849 C 112.500 70.224,109.603 70.004,108.167 70.519 M187.583 72.145 C 184.887 73.374,184.248 76.587,186.378 78.208 C 186.986 78.671,188.231 79.333,188.493 79.333 C 188.608 79.333,188.667 78.068,188.667 75.583 C 188.667 71.452,188.721 71.626,187.583 72.145 M192.333 88.675 C 192.333 92.689,192.268 92.562,193.841 91.625 C 196.695 89.925,196.137 86.510,192.817 85.352 L 192.333 85.184 192.333 88.675 M131.000 110.074 C 131.000 110.209,137.164 118.500,137.265 118.500 C 137.302 118.500,136.480 116.794,135.438 114.708 C 134.395 112.623,133.490 110.748,133.427 110.542 C 133.333 110.239,133.189 110.167,132.676 110.167 C 132.327 110.167,131.807 110.120,131.521 110.063 C 131.234 110.005,131.000 110.010,131.000 110.074 M188.250 129.839 C 175.689 130.259,172.665 130.664,171.305 132.110 C 170.858 132.585,170.484 133.833,170.789 133.833 C 170.877 133.833,172.066 133.980,173.433 134.160 C 183.737 135.516,206.021 135.493,215.917 134.117 L 217.417 133.908 217.468 133.020 C 217.534 131.858,217.040 131.060,216.169 130.925 C 210.913 130.107,196.730 129.556,188.250 129.839 M171.631 135.804 C 173.621 137.668,175.260 137.985,180.952 137.607 C 186.845 137.217,194.313 136.974,204.667 136.837 C 213.102 136.726,213.983 136.688,214.667 136.408 C 215.340 136.132,216.700 135.333,216.496 135.333 C 216.451 135.333,215.443 135.447,214.256 135.586 C 202.950 136.908,182.810 136.743,171.667 135.236 L 170.917 135.134 171.631 135.804 M121.000 161.756 C 119.671 161.973,117.871 162.263,117.000 162.402 C 116.129 162.540,114.179 162.851,112.667 163.092 C 109.187 163.647,108.572 163.558,107.285 162.318 C 106.818 161.868,106.423 161.500,106.408 161.500 C 106.392 161.500,106.334 161.829,106.279 162.230 C 106.224 162.632,105.840 163.588,105.426 164.355 C 104.131 166.756,102.603 169.941,101.839 171.833 C 101.636 172.338,101.334 173.050,101.169 173.417 C 101.004 173.783,100.597 174.796,100.264 175.667 C 99.932 176.537,99.549 177.496,99.413 177.797 C 99.278 178.098,99.167 178.445,99.167 178.567 C 99.167 178.689,99.027 179.155,98.857 179.603 C 98.338 180.970,98.140 181.558,97.995 182.167 C 97.918 182.487,97.746 183.088,97.611 183.500 C 96.901 185.679,96.095 189.251,95.356 193.500 C 93.300 205.308,93.757 220.508,96.497 231.500 C 96.668 232.188,96.929 233.237,97.075 233.833 C 97.606 235.989,99.453 241.671,100.081 243.083 C 100.204 243.358,100.505 244.108,100.752 244.750 C 100.999 245.392,101.268 245.988,101.350 246.075 C 101.433 246.162,101.500 246.335,101.500 246.460 C 101.500 246.897,104.008 252.030,105.508 254.666 C 106.109 255.721,106.652 256.696,106.715 256.833 C 106.779 256.971,107.172 257.608,107.590 258.250 C 108.007 258.892,108.391 259.548,108.444 259.708 C 108.496 259.869,108.588 260.000,108.648 260.000 C 108.708 260.000,108.899 260.262,109.072 260.583 C 109.244 260.904,109.449 261.167,109.526 261.167 C 109.603 261.167,109.667 261.242,109.667 261.335 C 109.667 261.688,113.964 267.573,114.608 268.102 C 114.732 268.203,114.833 268.369,114.833 268.468 C 114.833 268.568,114.944 268.712,115.080 268.788 C 115.216 268.864,115.500 269.162,115.713 269.450 C 117.192 271.455,122.570 276.851,125.333 279.103 C 125.654 279.364,125.954 279.617,126.000 279.664 C 126.046 279.711,126.458 280.050,126.917 280.416 C 127.925 281.223,128.473 281.681,128.760 281.958 C 128.879 282.073,129.053 282.167,129.146 282.167 C 129.240 282.167,129.377 282.261,129.450 282.376 C 129.523 282.491,130.183 283.029,130.917 283.571 C 133.355 285.374,133.690 285.954,134.386 289.583 C 134.526 290.317,134.797 291.667,134.987 292.585 C 135.178 293.503,135.333 294.438,135.333 294.665 C 135.333 294.891,135.441 295.640,135.574 296.330 C 135.845 297.745,136.360 300.892,136.747 303.500 C 136.889 304.462,137.157 306.075,137.340 307.083 C 137.524 308.092,137.673 309.087,137.671 309.296 C 137.649 311.377,140.042 314.219,142.855 315.454 C 149.375 318.317,155.843 312.508,154.665 304.847 C 154.167 301.611,153.948 300.244,153.663 298.583 C 153.490 297.575,153.309 296.450,153.262 296.083 C 153.214 295.717,153.127 295.173,153.067 294.875 L 152.958 294.333 165.021 294.335 C 171.655 294.336,184.689 294.252,193.985 294.148 C 214.896 293.915,213.203 293.672,214.504 297.093 C 214.661 297.507,214.721 297.530,215.400 297.428 L 216.127 297.319 216.212 300.618 C 216.274 303.005,216.371 304.143,216.565 304.734 C 216.713 305.184,216.876 306.347,216.928 307.318 C 217.182 312.049,218.217 314.520,220.750 316.436 C 225.647 320.140,233.215 317.177,234.492 311.055 C 234.843 309.371,234.185 301.724,233.397 298.333 C 233.259 297.737,233.029 296.725,232.886 296.083 C 232.743 295.442,232.485 294.550,232.313 294.103 C 232.141 293.655,232.000 293.189,232.000 293.067 C 232.000 292.945,231.894 292.598,231.765 292.297 C 231.636 291.996,231.246 291.075,230.899 290.250 C 230.553 289.425,230.216 288.675,230.152 288.583 C 230.088 288.492,229.830 288.042,229.580 287.583 C 227.380 283.550,224.266 280.434,220.750 278.749 C 220.017 278.398,219.229 278.019,219.000 277.907 C 218.216 277.524,215.750 277.027,213.182 276.733 C 210.338 276.408,150.284 276.837,149.357 277.189 C 148.878 277.371,148.852 277.349,148.255 276.250 C 147.247 274.397,145.179 271.977,143.333 270.490 C 142.829 270.084,142.331 269.676,142.226 269.584 C 141.977 269.366,141.415 268.936,139.567 267.552 C 136.251 265.069,131.820 260.733,128.101 256.333 C 127.044 255.083,125.333 252.820,125.333 252.671 C 125.333 252.577,125.275 252.500,125.205 252.500 C 125.134 252.500,124.934 252.237,124.762 251.917 C 124.589 251.596,124.384 251.333,124.307 251.333 C 124.230 251.333,124.167 251.258,124.167 251.165 C 124.167 251.072,123.904 250.623,123.583 250.167 C 123.263 249.710,123.000 249.292,123.000 249.238 C 123.000 249.184,122.747 248.752,122.437 248.278 C 122.128 247.804,121.666 247.042,121.412 246.583 C 121.158 246.125,120.698 245.300,120.391 244.750 C 119.630 243.389,117.824 239.668,116.994 237.750 C 116.603 236.847,115.824 234.670,115.026 232.250 C 114.034 229.242,112.843 224.244,112.265 220.667 C 111.114 213.533,111.381 201.986,112.847 195.500 C 113.023 194.721,113.167 193.940,113.167 193.765 C 113.167 193.589,113.274 193.064,113.404 192.598 C 113.535 192.132,113.804 191.150,114.002 190.417 C 114.892 187.128,115.882 183.958,116.357 182.877 C 116.527 182.488,116.667 182.061,116.667 181.928 C 116.667 181.795,116.733 181.645,116.815 181.595 C 116.896 181.544,117.012 181.296,117.073 181.043 C 117.133 180.790,118.219 178.483,119.486 175.917 C 122.333 170.149,122.372 170.058,123.326 166.794 C 123.761 165.307,123.998 161.326,123.650 161.348 C 123.522 161.356,122.329 161.540,121.000 161.756 " stroke="none" fill="#e3e3e3" fill-rule="evenodd"></path><path id="path1" d="M79.000 16.248 C 75.481 16.702,71.489 18.067,68.750 19.753 C 68.383 19.978,67.930 20.231,67.743 20.314 C 67.556 20.397,67.303 20.586,67.181 20.733 C 67.059 20.880,66.856 21.000,66.730 21.000 C 66.603 21.000,66.500 21.058,66.500 21.128 C 66.500 21.198,66.321 21.367,66.102 21.503 C 65.681 21.765,64.107 23.069,63.674 23.516 C 62.333 24.900,61.314 26.028,60.908 26.583 C 60.639 26.950,60.378 27.287,60.329 27.333 C 60.114 27.532,58.876 29.494,58.436 30.333 C 57.664 31.806,57.167 32.824,57.167 32.932 C 57.167 32.988,57.061 33.269,56.931 33.558 C 56.802 33.847,56.547 34.571,56.365 35.167 C 55.388 38.367,54.860 42.054,55.265 42.853 C 55.895 44.098,58.263 45.709,61.662 47.209 C 65.296 48.812,65.616 48.969,66.833 49.750 C 71.287 52.608,72.967 57.772,70.425 60.793 C 69.363 62.056,68.076 60.919,69.079 59.604 C 70.809 57.335,69.172 53.212,65.703 51.106 C 65.151 50.770,63.209 49.837,61.388 49.032 C 58.304 47.669,57.084 46.994,55.691 45.878 L 55.132 45.430 55.247 46.757 C 56.032 55.798,62.213 64.528,70.667 68.538 C 74.889 70.540,79.891 71.584,83.815 71.281 L 85.086 71.183 85.437 71.800 C 85.630 72.139,86.204 73.204,86.712 74.167 C 87.221 75.129,87.832 76.254,88.070 76.667 C 88.308 77.079,88.549 77.548,88.604 77.708 C 88.707 78.005,89.245 78.111,89.397 77.865 C 89.443 77.791,90.328 77.408,91.365 77.014 C 92.402 76.620,93.863 76.043,94.612 75.732 C 95.361 75.421,96.094 75.167,96.239 75.167 C 96.545 75.167,97.966 74.524,98.084 74.331 C 98.163 74.205,95.614 69.072,95.317 68.758 C 95.050 68.477,95.152 68.358,96.042 67.913 C 99.384 66.239,103.447 62.556,105.598 59.250 C 105.956 58.700,106.293 58.212,106.346 58.167 C 106.399 58.121,106.557 57.858,106.696 57.583 C 106.835 57.308,107.298 56.395,107.724 55.553 C 108.151 54.711,108.500 53.945,108.500 53.850 C 108.500 53.755,108.605 53.432,108.734 53.131 C 110.950 47.950,110.869 39.824,108.539 33.667 C 108.071 32.431,107.974 32.271,108.038 32.839 C 108.081 33.219,108.013 33.250,106.750 33.440 C 106.017 33.550,104.779 33.740,104.000 33.862 C 102.168 34.148,102.281 34.168,102.152 33.539 C 102.017 32.875,101.972 32.903,103.503 32.679 C 106.443 32.247,107.684 32.039,107.758 31.964 C 107.861 31.861,106.509 29.267,106.315 29.194 C 106.233 29.164,106.167 29.073,106.167 28.994 C 106.167 28.411,101.935 23.333,101.450 23.333 C 101.372 23.333,100.863 23.676,100.318 24.095 C 98.973 25.130,97.371 25.824,95.671 26.108 C 94.152 26.362,93.803 26.344,89.917 25.809 C 86.528 25.342,85.065 25.507,83.641 26.519 C 82.475 27.347,81.425 26.193,82.458 25.219 C 83.863 23.894,87.259 23.513,91.333 24.223 C 94.834 24.833,97.313 24.315,99.481 22.522 L 100.046 22.055 99.065 21.301 C 97.543 20.132,95.117 18.795,92.750 17.819 C 89.036 16.288,83.546 15.661,79.000 16.248 M96.914 38.163 L 97.037 43.492 97.386 43.305 C 97.578 43.202,98.237 43.113,98.851 43.108 C 102.852 43.071,103.108 48.489,99.199 50.483 C 98.392 50.895,95.460 51.674,95.295 51.520 C 94.769 51.030,94.976 50.367,95.691 50.256 C 98.908 49.758,100.667 48.319,100.667 46.185 C 100.667 44.175,98.580 43.690,96.449 45.204 C 95.747 45.703,95.754 45.763,95.690 39.069 L 95.631 32.833 96.211 32.833 L 96.791 32.833 96.914 38.163 M89.833 35.153 C 89.833 35.329,89.875 35.581,89.926 35.714 C 89.994 35.892,89.831 35.984,89.301 36.070 C 87.647 36.335,84.283 36.833,84.147 36.833 C 84.066 36.833,84.000 36.577,84.000 36.263 C 84.000 35.589,83.618 35.701,88.500 34.943 C 89.544 34.781,89.833 34.827,89.833 35.153 M188.500 65.406 L 188.500 67.646 187.708 67.761 C 179.653 68.930,177.041 78.942,183.876 82.451 C 184.710 82.879,186.454 83.504,188.458 84.095 C 188.618 84.142,188.667 85.134,188.667 88.325 L 188.667 92.494 187.875 92.394 C 186.421 92.211,184.012 91.309,182.585 90.413 L 181.205 89.547 180.417 91.232 C 179.983 92.158,179.597 92.996,179.559 93.093 C 179.255 93.861,183.964 95.915,187.042 96.357 L 188.500 96.567 188.500 98.700 L 188.500 100.833 190.495 100.833 L 192.490 100.833 192.537 98.633 L 192.583 96.433 193.583 96.239 C 198.141 95.353,201.005 91.989,200.796 87.768 C 200.622 84.256,198.705 82.300,194.083 80.917 C 193.258 80.670,192.488 80.440,192.372 80.405 C 192.207 80.356,192.171 79.399,192.206 76.046 L 192.250 71.750 192.750 71.801 C 194.033 71.932,196.496 72.985,197.740 73.935 C 198.171 74.264,198.554 74.502,198.591 74.464 C 198.629 74.427,199.032 73.613,199.486 72.656 L 200.314 70.917 199.698 70.359 C 198.517 69.287,195.977 68.211,193.583 67.767 L 192.583 67.581 192.537 65.374 L 192.490 63.167 190.495 63.167 L 188.500 63.167 188.500 65.406 M153.917 64.600 C 149.477 65.973,148.440 66.281,147.833 66.409 C 147.040 66.576,146.971 66.711,147.313 67.427 C 148.057 68.985,151.500 79.774,151.500 80.547 C 151.500 81.368,151.595 81.472,152.032 81.125 C 152.221 80.975,152.322 80.482,152.396 79.356 C 152.689 74.906,153.826 70.511,155.807 66.171 L 156.797 64.000 156.274 64.017 C 155.986 64.026,154.925 64.289,153.917 64.600 M188.667 75.664 L 188.667 79.495 188.042 79.210 C 184.351 77.531,183.978 73.987,187.310 72.252 C 188.741 71.506,188.667 71.320,188.667 75.664 M193.583 85.624 C 196.627 87.137,196.320 90.955,193.064 92.064 C 192.121 92.385,192.167 92.553,192.167 88.750 C 192.167 84.779,192.115 84.894,193.583 85.624 M146.115 94.771 C 146.057 96.226,145.935 98.354,145.843 99.500 C 145.421 104.784,145.321 107.223,145.522 107.347 C 145.631 107.414,146.665 107.513,147.819 107.567 C 148.973 107.621,151.492 107.778,153.417 107.917 C 159.901 108.386,160.805 108.182,161.521 106.083 C 161.646 105.717,161.810 105.372,161.886 105.316 C 161.961 105.261,162.061 104.399,162.107 103.400 C 162.153 102.401,162.245 100.833,162.312 99.917 C 162.745 93.979,161.643 92.843,155.417 92.808 C 154.592 92.804,153.842 92.742,153.750 92.672 C 153.658 92.602,152.383 92.497,150.917 92.439 C 149.450 92.381,147.793 92.286,147.235 92.229 L 146.221 92.125 146.115 94.771 " stroke="none" fill="#2ca49c" fill-rule="evenodd"></path><path id="path2" d="M82.833 0.348 C 80.840 0.801,79.817 1.118,78.000 1.842 C 75.298 2.920,74.667 3.206,74.667 3.356 C 74.667 3.435,74.557 3.500,74.424 3.500 C 73.736 3.500,68.196 7.176,64.750 9.920 C 62.917 11.380,62.419 11.805,61.042 13.083 C 60.450 13.633,59.900 14.108,59.821 14.137 C 59.577 14.228,55.781 18.562,55.258 19.346 C 54.988 19.751,54.643 20.233,54.491 20.417 C 54.339 20.600,54.074 21.012,53.901 21.333 C 53.728 21.654,53.501 22.029,53.395 22.167 C 53.290 22.304,53.002 22.829,52.755 23.333 C 52.508 23.837,52.237 24.380,52.153 24.540 C 50.158 28.314,49.722 34.686,51.154 39.135 C 51.732 40.932,53.166 43.667,53.530 43.667 C 53.605 43.667,53.667 43.737,53.667 43.823 C 53.667 44.032,55.032 45.524,55.132 45.424 C 55.175 45.380,55.493 45.586,55.839 45.881 C 56.883 46.772,58.686 47.765,61.369 48.925 C 66.254 51.039,68.124 52.421,69.253 54.750 C 70.001 56.294,69.981 58.477,69.208 59.574 C 68.573 60.476,68.561 60.561,69.000 61.000 C 70.058 62.058,71.406 59.956,71.413 57.237 C 71.422 53.232,68.821 50.419,62.631 47.741 C 57.891 45.690,54.833 43.527,54.833 42.225 C 54.833 42.162,54.727 41.991,54.598 41.846 C 51.555 38.447,51.514 28.458,54.525 24.141 C 54.694 23.898,54.833 23.644,54.833 23.577 C 54.833 23.395,56.854 20.425,57.022 20.361 C 57.101 20.331,57.167 20.207,57.167 20.087 C 57.167 19.967,57.279 19.826,57.417 19.773 C 57.554 19.720,57.667 19.609,57.667 19.526 C 57.667 18.689,64.771 12.147,68.750 9.320 C 70.889 7.799,71.342 7.500,71.498 7.500 C 71.591 7.500,71.667 7.439,71.667 7.364 C 71.667 7.290,71.910 7.102,72.208 6.949 C 72.506 6.795,72.862 6.594,73.000 6.502 C 79.558 2.139,87.832 0.643,93.783 2.745 C 95.395 3.315,98.667 5.281,98.667 5.681 C 98.667 5.765,98.760 5.837,98.875 5.841 C 98.990 5.845,99.233 6.035,99.417 6.263 C 99.600 6.491,99.962 6.919,100.221 7.214 C 100.481 7.509,100.816 7.956,100.966 8.208 C 101.116 8.460,101.297 8.667,101.369 8.667 C 101.441 8.667,101.500 8.756,101.500 8.865 C 101.500 8.974,101.756 9.593,102.069 10.240 C 103.946 14.124,103.393 17.964,100.458 21.421 C 100.206 21.718,100.000 22.026,99.999 22.105 C 99.998 22.350,98.245 23.532,97.279 23.939 C 95.495 24.692,94.455 24.744,90.848 24.264 C 85.905 23.606,82.803 24.083,82.224 25.591 C 81.859 26.542,82.731 27.065,83.636 26.438 C 85.122 25.410,86.667 25.277,90.667 25.833 C 95.360 26.486,97.860 25.992,100.424 23.904 C 100.921 23.498,101.394 23.167,101.473 23.167 C 101.964 23.167,103.882 20.031,104.582 18.083 C 105.075 16.714,105.133 13.045,104.684 11.714 C 104.491 11.144,104.333 10.595,104.333 10.495 C 104.333 9.099,100.885 4.569,98.788 3.210 C 98.400 2.959,98.046 2.706,98.000 2.649 C 97.833 2.439,95.255 1.167,94.998 1.167 C 94.852 1.167,94.662 1.095,94.574 1.007 C 93.637 0.070,85.950 -0.361,82.833 0.348 M107.815 32.074 C 107.774 32.115,106.655 32.306,105.329 32.499 C 102.308 32.939,102.166 32.976,102.169 33.310 C 102.177 34.092,102.151 34.093,107.458 33.239 C 107.948 33.160,108.000 33.096,108.000 32.576 C 108.000 32.014,107.966 31.923,107.815 32.074 M95.724 35.860 C 95.784 37.525,95.833 40.369,95.833 42.181 L 95.833 45.476 96.770 44.912 C 98.863 43.651,100.833 44.245,100.833 46.138 C 100.833 48.392,99.434 49.507,95.487 50.395 C 94.698 50.573,95.013 51.564,95.813 51.421 C 99.989 50.671,101.989 48.827,101.802 45.898 C 101.661 43.685,99.791 42.680,97.208 43.430 L 96.833 43.539 96.833 38.959 C 96.833 33.178,96.793 32.833,96.118 32.833 L 95.614 32.833 95.724 35.860 M86.750 35.291 C 85.283 35.519,84.057 35.730,84.026 35.758 C 83.877 35.891,84.212 36.806,84.386 36.745 C 84.495 36.707,85.708 36.518,87.083 36.325 C 88.458 36.132,89.649 35.910,89.729 35.832 C 89.894 35.674,89.728 34.822,89.538 34.854 C 89.471 34.865,88.217 35.062,86.750 35.291 M184.667 44.500 C 181.864 44.972,179.261 45.610,177.500 46.256 C 175.272 47.073,171.227 49.003,170.258 49.711 C 170.162 49.782,169.746 50.066,169.333 50.342 C 167.168 51.793,166.693 52.154,165.283 53.416 C 163.459 55.049,160.333 58.310,160.333 58.581 C 160.333 58.641,160.240 58.795,160.125 58.923 C 159.509 59.610,158.667 60.803,158.667 60.989 C 158.667 61.087,158.600 61.167,158.519 61.167 C 158.438 61.167,158.246 61.410,158.094 61.708 C 157.941 62.006,157.601 62.587,157.338 63.000 C 157.075 63.413,156.854 63.877,156.846 64.032 C 156.839 64.188,156.578 64.825,156.267 65.449 C 154.177 69.634,152.811 74.670,152.556 79.124 C 152.495 80.194,152.377 81.000,152.282 81.000 C 151.870 81.000,152.350 86.355,153.111 90.250 C 153.583 92.664,153.585 92.667,154.430 92.667 C 155.258 92.667,155.265 92.653,154.911 91.651 C 154.621 90.830,154.069 88.169,153.928 86.917 C 153.615 84.142,153.487 81.925,153.576 80.833 C 153.876 77.160,154.219 74.873,154.777 72.833 C 154.914 72.329,155.058 71.700,155.096 71.434 C 155.135 71.169,155.230 70.869,155.307 70.768 C 155.385 70.666,155.571 70.201,155.720 69.733 C 155.869 69.266,156.156 68.516,156.359 68.067 C 156.562 67.617,156.742 67.106,156.759 66.930 C 156.776 66.754,156.911 66.522,157.059 66.414 C 157.207 66.305,157.278 66.167,157.218 66.106 C 157.157 66.046,157.270 65.775,157.470 65.505 C 157.670 65.235,157.833 64.974,157.833 64.927 C 157.833 64.795,160.359 60.826,160.700 60.422 C 160.780 60.327,161.026 59.997,161.248 59.687 C 162.568 57.841,166.025 54.409,167.816 53.167 C 168.146 52.938,168.492 52.664,168.583 52.560 C 168.769 52.348,169.860 51.625,170.902 51.023 C 171.277 50.807,171.771 50.510,172.000 50.364 C 179.287 45.715,191.276 44.197,199.917 46.828 C 202.481 47.609,203.118 47.825,203.583 48.069 C 203.858 48.213,204.165 48.332,204.266 48.332 C 204.473 48.333,207.945 50.089,208.833 50.642 C 209.154 50.841,209.548 51.050,209.708 51.105 C 209.869 51.160,210.000 51.260,210.000 51.327 C 210.000 51.393,210.262 51.589,210.583 51.762 C 210.904 51.934,211.167 52.134,211.167 52.205 C 211.167 52.275,211.273 52.333,211.403 52.333 C 211.533 52.333,211.664 52.390,211.694 52.458 C 211.725 52.527,212.200 52.916,212.750 53.323 C 214.707 54.770,219.833 60.188,219.833 60.810 C 219.833 60.915,219.906 61.000,219.996 61.000 C 220.085 61.000,220.275 61.206,220.417 61.458 C 220.560 61.710,220.806 62.116,220.963 62.359 C 221.768 63.601,223.115 66.118,223.669 67.417 C 223.864 67.875,224.131 68.486,224.262 68.775 C 224.393 69.064,224.500 69.380,224.500 69.478 C 224.500 69.575,224.603 69.902,224.729 70.203 C 227.563 76.973,227.305 88.036,224.137 95.583 C 223.220 97.770,223.327 97.555,221.520 100.840 C 219.344 104.796,214.592 109.735,210.271 112.528 C 209.893 112.773,209.507 113.040,209.415 113.123 C 209.051 113.446,206.566 114.754,204.917 115.491 C 199.143 118.071,192.040 119.141,185.833 118.364 C 182.833 117.989,178.625 116.902,176.945 116.068 C 176.685 115.939,176.395 115.833,176.300 115.833 C 176.136 115.833,172.469 114.046,171.750 113.616 C 171.567 113.506,171.060 113.173,170.625 112.875 C 170.189 112.577,169.793 112.333,169.744 112.333 C 169.233 112.333,163.543 107.250,162.336 105.715 C 162.148 105.477,161.975 105.313,161.951 105.350 C 161.927 105.386,161.776 105.704,161.616 106.055 L 161.326 106.693 161.813 107.305 C 162.683 108.397,166.210 111.667,166.519 111.667 C 166.606 111.667,166.720 111.777,166.771 111.912 C 166.823 112.047,167.215 112.384,167.641 112.660 C 168.068 112.937,168.563 113.257,168.741 113.373 C 168.919 113.489,169.144 113.641,169.241 113.711 C 170.643 114.726,176.038 117.500,176.612 117.500 C 176.729 117.500,177.145 117.640,177.537 117.811 C 178.471 118.219,179.888 118.667,180.245 118.667 C 180.401 118.667,181.066 118.812,181.723 118.989 C 187.202 120.468,195.786 120.120,201.833 118.173 C 204.698 117.251,209.202 115.101,210.781 113.903 C 211.072 113.681,211.360 113.500,211.419 113.500 C 211.479 113.500,211.848 113.238,212.239 112.917 C 212.631 112.596,213.037 112.333,213.142 112.333 C 213.247 112.333,213.333 112.271,213.333 112.195 C 213.333 112.119,213.683 111.806,214.110 111.499 C 215.052 110.822,218.515 107.403,219.425 106.250 C 219.787 105.792,220.140 105.392,220.208 105.361 C 220.277 105.331,220.333 105.203,220.333 105.078 C 220.333 104.952,220.434 104.790,220.558 104.717 C 220.682 104.643,221.000 104.246,221.265 103.833 C 221.530 103.421,221.791 103.046,221.846 103.000 C 221.901 102.954,222.248 102.392,222.619 101.750 C 225.244 97.203,226.567 93.664,227.605 88.417 C 228.061 86.108,228.093 78.384,227.655 76.083 C 227.006 72.670,225.953 68.900,225.258 67.500 C 225.144 67.271,224.937 66.821,224.798 66.500 C 224.413 65.611,223.683 64.160,223.246 63.417 C 223.031 63.050,222.660 62.413,222.421 62.000 C 221.520 60.443,218.464 56.500,218.158 56.500 C 218.071 56.500,218.000 56.419,218.000 56.320 C 218.000 56.096,216.087 54.167,215.864 54.167 C 215.775 54.167,215.664 54.066,215.616 53.943 C 215.511 53.668,212.668 51.382,211.750 50.833 C 211.383 50.614,211.046 50.391,211.000 50.337 C 210.640 49.918,206.919 47.930,204.750 46.998 C 202.607 46.077,199.433 45.186,196.083 44.564 C 193.688 44.119,187.145 44.083,184.667 44.500 M141.667 65.853 C 140.887 66.120,135.150 68.021,128.917 70.078 C 122.683 72.135,117.246 73.941,116.833 74.092 C 116.421 74.242,115.877 74.404,115.625 74.451 C 115.114 74.548,115.067 74.722,115.386 75.333 C 117.930 80.210,121.840 88.049,121.765 88.123 C 121.666 88.223,116.041 87.904,114.698 87.723 L 113.979 87.626 110.602 83.104 C 108.744 80.618,106.232 77.252,105.019 75.625 C 102.676 72.481,102.622 72.438,101.609 72.912 C 101.320 73.047,100.472 73.374,99.726 73.639 C 98.979 73.904,98.167 74.307,97.922 74.535 C 97.677 74.762,97.100 75.035,96.642 75.141 C 96.183 75.247,95.195 75.585,94.446 75.894 C 93.696 76.202,92.633 76.618,92.083 76.820 C 91.533 77.021,90.606 77.410,90.022 77.685 C 89.438 77.959,88.922 78.144,88.875 78.097 C 88.751 77.973,86.111 79.536,85.667 79.998 C 85.621 80.045,85.058 80.509,84.417 81.028 C 83.182 82.026,82.130 83.124,81.288 84.292 C 81.007 84.681,80.715 85.000,80.638 85.000 C 80.562 85.000,80.500 85.074,80.500 85.165 C 80.500 85.255,80.373 85.478,80.217 85.660 C 79.646 86.327,77.815 89.823,77.289 91.250 C 75.328 96.571,75.187 102.929,76.918 108.000 C 77.724 110.362,77.804 110.586,78.160 111.500 C 78.356 112.004,78.633 112.754,78.775 113.167 C 78.917 113.579,79.100 113.988,79.183 114.075 C 79.266 114.162,79.333 114.401,79.333 114.607 C 79.333 114.812,79.400 115.022,79.482 115.072 C 79.563 115.122,79.680 115.370,79.741 115.623 C 79.835 116.013,80.285 117.249,80.817 118.583 C 80.890 118.767,81.043 119.179,81.157 119.500 C 81.271 119.821,81.510 120.458,81.689 120.917 C 82.079 121.917,82.639 123.425,82.834 124.000 C 82.912 124.229,83.136 124.829,83.332 125.333 C 83.709 126.303,84.504 128.432,85.416 130.917 C 85.719 131.742,86.130 132.829,86.330 133.333 C 86.530 133.837,86.770 134.512,86.864 134.833 C 86.958 135.154,87.090 135.492,87.158 135.583 C 87.227 135.675,87.527 136.462,87.826 137.333 C 88.125 138.204,88.437 138.988,88.518 139.075 C 88.600 139.162,88.667 139.401,88.667 139.607 C 88.667 139.812,88.736 140.023,88.821 140.075 C 88.905 140.128,89.028 140.413,89.093 140.710 C 89.158 141.007,89.344 141.550,89.506 141.917 C 89.669 142.283,89.912 142.883,90.046 143.250 C 90.754 145.177,91.048 145.972,91.248 146.500 C 91.370 146.821,91.633 147.533,91.833 148.083 C 92.033 148.633,92.298 149.346,92.421 149.667 C 92.544 149.987,92.841 150.775,93.081 151.417 C 93.321 152.058,93.577 152.733,93.651 152.917 C 93.724 153.100,93.877 153.512,93.991 153.833 C 94.104 154.154,94.348 154.792,94.532 155.250 C 94.716 155.708,94.907 156.271,94.956 156.500 C 95.005 156.729,95.102 156.992,95.171 157.083 C 95.240 157.175,95.415 157.587,95.560 158.000 C 96.212 159.862,96.359 160.213,96.730 160.796 C 97.454 161.934,98.552 162.670,99.875 162.904 C 100.219 162.965,100.498 163.068,100.496 163.133 C 100.493 163.234,99.244 165.263,98.879 165.758 C 98.727 165.964,98.453 166.436,97.875 167.487 C 97.643 167.907,97.176 168.737,96.836 169.333 C 96.017 170.771,94.211 174.509,93.334 176.583 C 92.946 177.500,92.525 178.486,92.398 178.775 C 92.271 179.064,92.167 179.416,92.167 179.557 C 92.167 179.698,92.093 179.859,92.002 179.915 C 91.912 179.971,91.716 180.444,91.567 180.967 C 91.418 181.489,91.230 181.988,91.148 182.075 C 91.067 182.162,91.000 182.347,91.000 182.486 C 91.000 182.929,90.463 184.164,90.311 184.070 C 90.231 184.020,89.659 183.917,89.041 183.842 C 87.002 183.591,85.390 183.198,81.750 182.062 C 79.718 181.427,79.447 181.327,77.152 180.351 C 75.672 179.721,72.899 178.347,71.481 177.541 C 70.341 176.892,70.100 176.750,69.925 176.623 C 69.302 176.169,68.461 175.667,68.326 175.667 C 68.238 175.667,68.167 175.608,68.167 175.536 C 68.167 175.464,67.923 175.262,67.625 175.086 C 67.327 174.911,66.897 174.594,66.668 174.384 C 66.440 174.173,66.159 174.000,66.043 174.000 C 65.928 174.000,65.833 173.943,65.833 173.873 C 65.833 173.804,65.308 173.346,64.667 172.857 C 64.025 172.367,63.500 171.900,63.500 171.817 C 63.500 171.734,63.418 171.667,63.318 171.667 C 63.043 171.667,58.347 166.895,57.494 165.750 C 57.085 165.200,56.694 164.725,56.625 164.694 C 56.556 164.664,56.500 164.565,56.500 164.475 C 56.500 164.385,56.314 164.067,56.087 163.770 C 55.860 163.472,55.422 162.746,55.115 162.156 C 54.807 161.566,54.473 160.933,54.372 160.750 C 54.149 160.346,53.919 159.648,53.466 158.000 C 52.511 154.531,53.584 149.619,55.897 146.865 C 56.993 145.560,57.304 145.247,58.152 144.597 C 61.756 141.834,67.976 140.937,71.250 142.708 C 72.802 143.548,73.270 143.859,73.881 144.458 C 76.100 146.631,76.797 149.284,75.557 150.833 C 75.447 150.971,75.163 151.321,74.926 151.611 C 74.231 152.460,71.905 153.493,69.716 153.924 C 67.079 154.444,65.096 154.080,64.200 152.912 C 63.265 151.695,63.947 150.403,65.074 151.255 C 66.511 152.343,68.073 150.674,67.002 149.195 C 65.502 147.125,61.572 148.307,61.000 151.000 C 59.860 156.370,67.318 158.730,74.617 155.309 C 78.952 153.278,80.227 148.266,77.451 144.168 C 76.161 142.263,73.022 140.060,71.029 139.662 C 70.692 139.594,69.970 139.418,69.423 139.270 C 68.067 138.902,64.438 138.901,63.077 139.268 C 62.530 139.415,61.802 139.603,61.458 139.686 C 60.825 139.837,58.557 140.796,58.250 141.042 C 58.158 141.115,57.708 141.415,57.250 141.708 C 51.152 145.603,48.408 155.352,51.645 161.621 C 51.729 161.784,51.877 162.104,51.975 162.333 C 52.073 162.563,52.456 163.275,52.828 163.917 C 53.199 164.558,53.589 165.252,53.695 165.458 C 53.800 165.665,53.950 165.833,54.027 165.833 C 54.104 165.833,54.167 165.946,54.167 166.083 C 54.167 166.221,54.223 166.335,54.292 166.337 C 54.360 166.339,54.711 166.751,55.071 167.254 C 55.431 167.756,55.787 168.167,55.862 168.167 C 55.938 168.167,56.000 168.231,56.000 168.310 C 56.000 168.649,59.452 172.237,61.154 173.667 C 61.645 174.079,62.168 174.536,62.315 174.682 C 62.463 174.828,63.033 175.272,63.583 175.670 C 64.133 176.068,64.621 176.436,64.667 176.488 C 64.712 176.541,65.125 176.842,65.583 177.158 C 66.042 177.474,66.454 177.774,66.500 177.825 C 66.546 177.875,66.733 178.007,66.917 178.116 C 67.100 178.226,67.775 178.637,68.417 179.029 C 69.058 179.422,69.921 179.924,70.333 180.145 C 70.746 180.366,71.121 180.597,71.167 180.658 C 71.281 180.809,74.470 182.347,76.000 182.989 C 76.688 183.277,77.380 183.585,77.539 183.673 C 77.699 183.761,77.928 183.833,78.050 183.833 C 78.171 183.833,78.581 183.983,78.961 184.167 C 79.340 184.350,79.745 184.500,79.861 184.500 C 79.977 184.500,80.375 184.605,80.744 184.733 C 81.418 184.966,82.934 185.418,84.681 185.906 C 85.194 186.050,85.755 186.167,85.930 186.167 C 86.173 186.167,89.443 186.831,89.620 186.917 C 89.640 186.927,89.551 187.306,89.421 187.759 C 89.187 188.575,88.991 189.316,88.413 191.583 C 88.250 192.225,88.064 193.088,88.000 193.500 C 87.936 193.912,87.800 194.700,87.698 195.250 C 87.194 197.960,86.951 199.556,86.824 201.000 C 86.747 201.871,86.606 203.258,86.510 204.083 C 86.236 206.446,86.286 215.972,86.587 219.000 C 87.144 224.582,88.286 230.769,89.494 234.750 C 89.661 235.300,89.930 236.237,90.092 236.833 C 90.254 237.429,90.514 238.254,90.670 238.667 C 90.825 239.079,91.047 239.717,91.162 240.083 C 91.497 241.154,92.384 243.463,93.029 244.949 C 93.197 245.334,93.333 245.692,93.333 245.744 C 93.333 245.863,94.422 248.187,95.522 250.417 C 96.554 252.509,97.820 254.843,98.504 255.917 C 98.680 256.192,98.947 256.642,99.099 256.917 C 99.405 257.471,102.181 261.702,102.326 261.833 C 102.376 261.879,102.642 262.254,102.917 262.667 C 103.191 263.079,103.510 263.477,103.625 263.550 C 103.739 263.623,103.833 263.792,103.833 263.925 C 103.833 264.058,103.890 264.167,103.958 264.168 C 104.027 264.168,104.271 264.446,104.500 264.785 C 104.729 265.123,105.067 265.568,105.250 265.772 C 105.433 265.977,105.808 266.424,106.083 266.766 C 108.182 269.378,108.775 270.024,112.250 273.483 C 115.747 276.964,116.753 277.894,118.164 278.947 C 118.624 279.290,119.000 279.630,119.000 279.702 C 119.000 279.774,119.112 279.833,119.250 279.833 C 119.388 279.833,119.500 279.897,119.500 279.975 C 119.500 280.053,120.063 280.519,120.750 281.011 C 121.438 281.503,122.000 281.964,122.000 282.036 C 122.000 282.108,122.081 282.167,122.180 282.167 C 122.279 282.167,122.681 282.429,123.072 282.750 C 123.464 283.071,123.839 283.333,123.906 283.333 C 123.973 283.333,124.348 283.596,124.739 283.917 C 125.131 284.237,125.500 284.500,125.561 284.500 C 125.621 284.500,126.044 284.763,126.500 285.083 C 126.956 285.404,127.369 285.667,127.417 285.667 C 127.464 285.667,127.877 285.929,128.333 286.250 C 128.790 286.571,129.195 286.833,129.234 286.833 C 129.272 286.833,129.831 287.137,130.476 287.509 L 131.648 288.185 131.708 299.467 C 131.766 310.382,131.779 310.785,132.117 311.833 C 132.896 314.247,133.826 315.825,135.619 317.770 C 136.295 318.504,138.149 319.811,139.363 320.409 L 140.563 321.000 70.323 321.041 L 0.083 321.083 0.032 321.708 L -0.020 322.333 200.000 322.333 L 400.020 322.333 399.968 321.708 L 399.917 321.083 317.333 321.000 L 234.750 320.917 235.563 320.458 C 236.010 320.206,236.403 320.000,236.436 320.000 C 236.758 320.000,239.347 317.453,240.079 316.417 C 242.425 313.094,242.491 312.664,242.497 300.750 L 242.501 290.750 244.209 289.917 C 245.148 289.458,245.954 289.037,246.000 288.981 C 246.046 288.925,246.571 288.629,247.167 288.324 C 247.762 288.019,248.550 287.580,248.917 287.349 C 249.283 287.117,249.846 286.786,250.167 286.614 C 250.648 286.355,252.575 285.126,254.280 283.992 C 254.480 283.859,255.492 283.139,256.530 282.391 C 258.220 281.174,258.697 280.810,259.473 280.149 C 259.596 280.044,260.234 279.532,260.891 279.010 C 262.769 277.517,263.685 276.660,267.306 273.005 C 271.480 268.792,271.667 268.593,271.667 268.357 C 271.667 268.252,271.732 268.167,271.812 268.167 C 271.893 268.167,272.357 267.642,272.845 267.000 C 273.333 266.358,273.792 265.833,273.866 265.833 C 273.940 265.833,274.000 265.727,274.000 265.597 C 274.000 265.467,274.058 265.336,274.129 265.306 C 274.362 265.205,278.667 259.302,278.667 259.083 C 278.667 259.043,279.011 258.478,279.432 257.827 C 280.165 256.694,280.703 255.783,281.940 253.583 C 282.498 252.591,284.722 248.120,285.214 247.000 C 285.355 246.679,285.675 245.929,285.923 245.333 C 286.172 244.737,286.479 244.014,286.605 243.725 C 286.730 243.436,286.833 243.095,286.833 242.966 C 286.833 242.838,286.899 242.662,286.980 242.575 C 287.139 242.402,287.781 240.716,287.992 239.917 C 288.065 239.642,288.250 239.108,288.404 238.732 L 288.684 238.046 289.967 237.956 C 292.838 237.753,297.139 236.775,299.250 235.844 C 300.660 235.222,302.178 234.396,302.618 234.010 C 302.729 233.913,302.863 233.833,302.917 233.833 C 303.231 233.833,306.667 230.388,306.667 230.074 C 306.667 230.041,306.862 229.730,307.100 229.382 C 309.523 225.849,310.042 219.216,308.125 216.290 C 307.965 216.045,307.833 215.768,307.833 215.673 C 307.833 215.433,305.431 213.000,305.194 213.000 C 305.087 213.000,305.000 212.944,305.000 212.875 C 305.000 212.394,301.745 211.243,299.750 211.019 C 298.149 210.839,295.038 211.054,293.684 211.438 C 293.327 211.540,293.294 211.509,293.379 211.151 C 293.432 210.930,293.552 210.188,293.647 209.500 C 293.742 208.813,293.968 207.200,294.150 205.917 C 294.331 204.633,294.599 202.683,294.745 201.583 C 294.891 200.483,295.155 198.571,295.331 197.333 C 295.508 196.096,295.768 194.183,295.910 193.083 C 296.051 191.983,296.312 190.071,296.489 188.833 C 296.667 187.596,296.931 185.683,297.077 184.583 C 297.223 183.483,297.492 181.608,297.675 180.417 C 297.858 179.225,298.006 178.011,298.004 177.719 C 298.002 177.427,298.114 176.645,298.254 175.981 C 298.544 174.602,298.492 174.507,297.436 174.503 C 297.080 174.501,296.305 174.411,295.715 174.302 C 294.297 174.041,294.506 173.452,293.580 180.333 C 293.184 183.278,292.659 187.000,292.404 188.667 C 292.270 189.537,292.158 190.512,292.154 190.833 C 292.151 191.154,291.976 192.354,291.767 193.500 L 291.386 195.583 291.196 194.583 C 290.885 192.951,290.312 190.470,290.064 189.679 C 289.937 189.273,289.833 188.793,289.833 188.612 C 289.833 188.432,289.693 187.864,289.521 187.350 C 289.349 186.837,289.078 185.967,288.918 185.417 C 288.650 184.498,288.391 183.713,287.844 182.167 C 287.730 181.846,287.579 181.358,287.508 181.083 C 287.437 180.808,287.263 180.321,287.123 180.000 C 286.982 179.679,286.738 179.079,286.580 178.667 C 286.422 178.254,286.145 177.579,285.963 177.167 C 285.782 176.754,285.521 176.154,285.384 175.833 C 284.830 174.542,283.007 170.801,282.325 169.556 C 281.932 168.838,281.382 167.857,280.751 166.750 C 280.437 166.200,280.051 165.506,279.893 165.208 C 279.734 164.910,279.544 164.667,279.469 164.667 C 279.394 164.667,279.333 164.582,279.333 164.478 C 279.333 164.375,279.071 163.924,278.750 163.478 C 278.429 163.031,278.167 162.603,278.167 162.525 C 278.167 162.448,278.017 162.249,277.833 162.083 C 277.650 161.917,277.500 161.715,277.500 161.634 C 277.500 161.462,276.145 159.611,275.958 159.528 C 275.890 159.497,275.833 159.401,275.833 159.315 C 275.833 159.188,273.666 156.308,273.339 156.000 C 273.290 155.954,272.953 155.542,272.590 155.083 C 272.228 154.625,271.759 154.085,271.549 153.883 C 271.339 153.681,271.167 153.476,271.167 153.427 C 271.167 153.155,264.077 146.000,263.807 146.000 C 263.730 146.000,263.667 137.431,263.667 126.957 C 263.667 105.792,263.733 106.934,262.464 106.123 C 261.212 105.322,260.662 105.587,257.750 108.401 L 255.750 110.334 255.661 108.458 C 255.543 105.984,255.361 105.616,254.036 105.178 C 252.555 104.690,252.783 104.504,243.056 114.145 C 238.213 118.945,233.341 123.771,232.231 124.870 L 230.212 126.866 229.064 126.613 C 227.228 126.208,223.937 125.699,221.417 125.430 C 216.057 124.857,212.203 124.497,211.500 124.502 C 211.088 124.505,209.175 124.394,207.250 124.255 C 202.371 123.904,195.087 123.500,191.917 123.405 C 190.450 123.361,187.225 123.248,184.750 123.154 C 179.324 122.949,172.539 122.916,170.228 123.084 L 168.540 123.207 168.288 122.395 C 168.149 121.949,167.870 120.946,167.668 120.167 C 167.465 119.388,167.194 118.418,167.066 118.012 C 166.938 117.606,166.833 117.161,166.833 117.023 C 166.833 116.616,166.128 115.273,165.758 114.976 C 165.570 114.825,165.244 114.550,165.033 114.365 C 164.288 113.713,162.257 113.700,160.250 114.336 C 159.700 114.510,158.575 114.814,157.751 115.012 C 156.926 115.211,156.064 115.444,155.834 115.532 C 155.604 115.620,155.117 115.752,154.750 115.826 C 154.383 115.900,153.333 116.164,152.417 116.412 C 151.500 116.661,150.068 117.037,149.234 117.249 C 148.400 117.461,147.312 117.749,146.817 117.889 C 146.322 118.030,145.467 118.259,144.917 118.400 C 143.398 118.787,141.338 119.344,140.500 119.595 C 140.087 119.719,139.463 119.842,139.112 119.868 L 138.475 119.917 137.727 118.500 C 137.315 117.721,136.753 116.644,136.478 116.108 C 136.203 115.572,135.946 115.165,135.906 115.205 C 135.867 115.244,136.284 116.165,136.833 117.250 C 137.383 118.335,137.807 119.248,137.776 119.279 C 137.719 119.336,130.967 110.402,130.856 110.123 C 130.796 109.971,131.259 109.993,135.000 110.322 C 142.428 110.974,143.391 110.851,144.744 109.077 C 145.204 108.473,145.207 108.455,145.415 104.500 C 145.471 103.446,145.625 101.046,145.759 99.167 C 146.455 89.360,146.521 89.441,137.417 89.029 L 134.917 88.916 136.667 88.362 C 137.629 88.057,138.679 87.707,139.000 87.584 C 139.321 87.462,140.108 87.196,140.750 86.994 C 141.392 86.791,142.179 86.533,142.500 86.420 C 144.153 85.835,144.795 85.619,145.250 85.497 C 145.813 85.346,146.535 85.097,147.731 84.643 C 148.178 84.473,148.643 84.333,148.763 84.333 C 150.088 84.333,151.548 82.382,151.441 80.756 C 151.374 79.730,147.848 68.638,147.203 67.423 C 147.056 67.144,146.917 66.815,146.896 66.691 C 146.693 65.501,143.967 65.064,141.667 65.853 M254.000 106.663 C 254.206 106.793,254.259 107.412,254.301 110.160 C 254.330 111.997,254.413 113.500,254.487 113.500 C 254.561 113.500,255.888 112.223,257.436 110.662 C 260.835 107.234,261.122 107.023,261.830 107.441 L 262.333 107.739 262.333 127.110 L 262.333 146.481 263.281 147.366 C 265.350 149.297,268.137 152.127,269.466 153.648 C 270.236 154.529,270.934 155.275,271.017 155.306 C 271.099 155.336,271.167 155.430,271.167 155.514 C 271.167 155.598,271.298 155.798,271.458 155.960 C 271.873 156.376,275.496 161.103,276.088 162.000 C 276.361 162.412,276.643 162.825,276.716 162.917 C 277.068 163.358,279.096 166.611,279.850 167.945 C 281.059 170.080,281.500 170.921,282.677 173.333 C 284.276 176.608,284.385 176.841,284.809 177.917 C 284.989 178.375,285.433 179.500,285.795 180.417 C 287.431 184.559,289.351 191.422,290.061 195.667 C 290.919 200.790,290.882 200.354,290.604 202.117 C 290.462 203.015,290.226 204.688,290.079 205.833 C 289.933 206.979,289.664 208.967,289.482 210.250 C 288.275 218.778,288.253 218.112,289.719 217.433 C 291.317 216.694,291.398 216.694,291.278 217.446 C 291.221 217.803,291.129 218.768,291.073 219.590 C 290.935 221.626,290.048 227.227,289.503 229.500 C 289.339 230.188,289.037 231.471,288.833 232.353 L 288.463 233.955 287.356 234.060 C 286.748 234.117,285.837 234.166,285.333 234.167 C 284.829 234.169,284.135 234.217,283.792 234.274 L 283.167 234.377 283.167 236.092 C 283.167 238.462,283.010 238.304,285.253 238.205 L 287.155 238.121 286.971 238.685 C 286.633 239.719,285.699 242.261,285.417 242.917 C 285.298 243.192,285.033 243.829,284.828 244.333 C 284.169 245.950,284.052 246.209,282.856 248.667 C 281.534 251.384,280.262 253.758,279.238 255.417 C 279.011 255.783,278.775 256.196,278.713 256.333 C 278.651 256.471,278.541 256.658,278.469 256.750 C 278.397 256.842,277.619 257.995,276.739 259.313 C 275.860 260.631,275.068 261.794,274.980 261.896 C 274.893 261.999,274.106 263.021,273.232 264.167 C 272.358 265.313,271.536 266.333,271.405 266.435 C 271.274 266.537,271.167 266.699,271.167 266.796 C 271.167 266.893,271.099 266.997,271.017 267.028 C 270.934 267.058,270.211 267.833,269.410 268.750 C 267.595 270.828,264.415 274.013,262.333 275.838 C 261.462 276.602,260.659 277.307,260.547 277.405 C 259.962 277.920,259.599 278.208,257.756 279.616 C 256.653 280.459,255.619 281.265,255.458 281.407 C 255.298 281.550,255.092 281.667,255.000 281.667 C 254.908 281.667,254.833 281.730,254.833 281.807 C 254.833 281.884,254.571 282.089,254.250 282.262 C 253.929 282.434,253.667 282.634,253.667 282.705 C 253.667 282.775,253.592 282.833,253.500 282.833 C 253.409 282.833,252.969 283.096,252.522 283.417 C 252.076 283.737,251.660 284.000,251.598 284.000 C 251.536 284.000,251.395 284.078,251.285 284.173 C 250.915 284.490,249.016 285.667,248.874 285.667 C 248.797 285.667,248.644 285.756,248.536 285.864 C 248.260 286.140,246.495 287.112,243.708 288.524 L 241.333 289.726 241.333 299.420 C 241.333 310.245,241.257 311.130,240.127 313.500 C 238.836 316.205,236.327 318.722,233.973 319.670 C 233.484 319.867,232.834 320.136,232.529 320.268 C 230.357 321.205,226.161 320.922,223.417 319.655 C 221.960 318.982,218.667 316.268,218.667 315.740 C 218.667 315.668,218.563 315.491,218.436 315.346 C 218.078 314.939,217.033 312.843,216.725 311.917 C 216.516 311.290,216.412 310.050,216.306 306.917 C 216.228 304.625,216.122 301.560,216.070 300.106 L 215.977 297.461 215.335 297.564 C 214.983 297.620,214.669 297.597,214.639 297.512 C 214.605 297.418,214.159 297.415,213.500 297.505 C 209.820 298.007,179.140 298.125,172.083 297.664 C 170.708 297.574,168.158 297.427,166.417 297.337 C 164.675 297.247,162.537 297.068,161.667 296.938 C 160.796 296.809,159.615 296.654,159.042 296.593 L 158.000 296.483 157.998 302.950 C 157.996 311.164,157.726 312.463,155.391 315.525 C 151.836 320.187,143.957 321.992,139.833 319.090 C 139.696 318.993,139.319 318.780,138.995 318.617 C 137.516 317.871,135.321 315.469,134.323 313.505 C 133.035 310.972,133.105 311.751,133.006 298.835 L 132.917 287.253 132.250 286.880 C 131.883 286.675,131.471 286.456,131.333 286.395 C 131.196 286.333,130.971 286.193,130.833 286.083 C 130.696 285.973,130.246 285.703,129.833 285.483 C 129.421 285.263,128.728 284.840,128.293 284.542 C 127.859 284.244,127.428 284.000,127.335 284.000 C 127.242 284.000,127.167 283.939,127.167 283.864 C 127.167 283.790,126.923 283.603,126.625 283.450 C 126.327 283.297,125.546 282.777,124.889 282.294 C 124.231 281.812,123.100 280.992,122.374 280.474 C 121.648 279.955,120.948 279.429,120.819 279.305 C 120.689 279.180,120.246 278.818,119.833 278.500 C 119.421 278.182,119.001 277.845,118.900 277.752 C 118.798 277.659,118.164 277.096,117.489 276.500 C 113.133 272.652,110.209 269.630,107.090 265.750 C 106.574 265.108,106.017 264.433,105.853 264.250 C 105.688 264.067,105.344 263.598,105.088 263.208 C 104.832 262.819,104.557 262.500,104.478 262.500 C 104.398 262.500,104.333 262.429,104.333 262.343 C 104.333 262.205,102.124 258.919,101.670 258.382 C 101.577 258.271,101.500 258.139,101.500 258.089 C 101.500 258.038,101.256 257.638,100.958 257.199 C 100.356 256.312,100.167 255.996,99.448 254.667 C 99.175 254.162,98.888 253.667,98.809 253.566 C 98.376 253.008,95.576 247.387,94.791 245.500 C 94.657 245.179,94.395 244.579,94.208 244.167 C 94.021 243.754,93.593 242.667,93.257 241.750 C 92.922 240.833,92.539 239.837,92.407 239.536 C 92.275 239.235,92.167 238.889,92.167 238.767 C 92.167 238.644,92.027 238.178,91.856 237.731 C 91.685 237.283,91.418 236.467,91.264 235.917 C 91.109 235.367,90.842 234.429,90.670 233.833 C 89.366 229.305,88.218 222.625,87.804 217.167 C 87.168 208.760,88.042 198.463,90.034 190.917 C 90.131 190.550,90.307 189.838,90.425 189.333 C 90.543 188.829,90.800 187.892,90.997 187.250 C 91.193 186.608,91.420 185.821,91.500 185.500 C 91.658 184.864,92.743 181.797,93.326 180.333 C 93.527 179.829,93.754 179.229,93.830 179.000 C 94.036 178.380,95.959 174.049,96.384 173.250 C 96.548 172.940,97.952 170.236,98.484 169.204 C 98.613 168.954,98.777 168.711,98.849 168.663 C 98.920 168.616,99.060 168.391,99.158 168.163 C 99.256 167.936,99.525 167.450,99.755 167.083 C 99.985 166.717,100.225 166.304,100.287 166.167 C 100.349 166.029,100.461 165.842,100.536 165.750 C 100.876 165.332,101.500 164.303,101.500 164.159 C 101.500 164.072,101.558 164.000,101.629 164.000 C 101.700 164.000,101.895 163.744,102.064 163.431 C 102.232 163.119,102.493 162.823,102.643 162.776 C 102.794 162.728,103.217 162.576,103.583 162.438 C 103.950 162.301,104.756 162.002,105.375 161.776 L 106.500 161.363 106.978 161.943 C 108.048 163.241,109.166 163.504,111.848 163.092 C 112.711 162.960,114.429 162.694,115.667 162.502 C 116.904 162.310,118.597 162.049,119.429 161.922 C 120.261 161.796,121.386 161.617,121.929 161.525 C 122.472 161.434,123.629 161.310,124.500 161.250 C 125.371 161.191,126.421 161.065,126.833 160.972 C 127.246 160.878,128.296 160.699,129.167 160.574 C 130.037 160.449,131.275 160.263,131.917 160.160 C 132.558 160.057,133.758 159.869,134.583 159.742 C 135.408 159.615,137.058 159.355,138.250 159.164 C 139.442 158.974,141.129 158.711,142.000 158.580 C 142.871 158.449,144.558 158.186,145.750 157.996 C 146.942 157.805,148.592 157.546,149.417 157.419 C 150.242 157.292,151.892 157.031,153.083 156.840 C 154.275 156.648,156.000 156.378,156.917 156.239 C 157.833 156.101,159.483 155.843,160.583 155.667 C 161.683 155.490,163.371 155.226,164.333 155.080 C 165.296 154.933,166.946 154.673,168.000 154.501 C 169.054 154.330,170.779 154.064,171.833 153.910 C 177.614 153.068,178.372 152.743,179.199 150.760 C 179.553 149.912,179.561 149.468,179.256 147.681 C 179.032 146.373,178.847 145.194,178.313 141.673 C 177.962 139.356,177.132 138.241,175.377 137.731 C 174.419 137.453,174.638 137.435,170.083 138.166 C 168.983 138.343,167.296 138.607,166.333 138.754 C 165.371 138.900,163.721 139.161,162.667 139.332 C 161.612 139.504,159.887 139.770,158.833 139.923 C 157.779 140.077,156.156 140.345,155.226 140.518 C 154.296 140.691,153.321 140.833,153.059 140.833 C 152.797 140.833,152.058 140.945,151.417 141.080 C 149.638 141.457,149.334 141.427,149.332 140.875 C 149.332 140.623,149.232 140.229,149.111 140.000 C 148.991 139.771,148.438 138.721,147.884 137.667 C 145.905 133.905,145.285 132.732,144.572 131.394 L 143.849 130.038 145.049 129.613 C 148.431 128.418,152.651 127.171,155.250 126.598 C 159.293 125.707,161.732 125.255,163.333 125.100 C 163.746 125.060,165.021 124.892,166.167 124.727 C 168.937 124.328,185.175 124.333,191.917 124.736 C 194.300 124.878,197.338 125.034,198.667 125.082 C 201.751 125.194,208.197 125.605,212.167 125.941 C 213.862 126.085,215.700 126.230,216.250 126.264 C 220.859 126.545,228.792 127.749,230.347 128.403 C 230.594 128.507,237.825 121.472,249.556 109.715 C 252.875 106.388,253.205 106.161,254.000 106.663 M135.177 113.960 C 135.475 114.534,135.745 114.977,135.777 114.945 C 135.850 114.872,135.033 113.310,134.804 113.083 C 134.711 112.992,134.879 113.386,135.177 113.960 M185.833 128.671 C 178.790 128.852,172.879 129.422,168.583 130.334 C 165.674 130.952,164.289 132.290,165.458 133.355 C 166.214 134.043,168.989 134.969,170.417 135.010 C 170.875 135.023,172.412 135.172,173.833 135.343 C 184.203 136.585,207.557 136.577,215.141 135.328 C 215.723 135.233,216.346 135.201,216.526 135.258 C 216.705 135.315,217.205 135.283,217.635 135.188 C 218.065 135.092,218.679 134.983,219.000 134.946 C 220.533 134.770,222.777 133.928,223.375 133.306 C 224.179 132.468,223.520 131.276,222.027 130.865 C 221.691 130.773,221.192 130.620,220.917 130.526 C 220.113 130.251,218.035 129.853,216.417 129.663 C 215.592 129.567,214.775 129.445,214.602 129.392 C 214.428 129.339,213.528 129.274,212.602 129.248 C 211.675 129.221,210.279 129.114,209.500 129.010 C 206.481 128.606,194.846 128.439,185.833 128.671 M204.250 129.832 C 209.749 130.041,215.096 130.563,217.119 131.089 C 217.990 131.315,218.895 131.500,219.129 131.500 C 219.533 131.500,220.982 131.871,221.792 132.182 C 222.646 132.510,222.139 132.789,219.565 133.408 C 218.567 133.648,217.600 133.914,217.417 133.999 C 214.167 135.504,185.843 135.838,174.870 134.501 C 171.538 134.094,170.667 133.960,170.667 133.850 C 170.667 133.755,169.246 133.373,168.341 133.226 C 165.498 132.762,166.471 132.151,171.750 131.083 C 177.676 129.885,191.575 129.350,204.250 129.832 M252.667 179.833 L 252.667 181.833 262.917 181.833 L 273.167 181.833 273.167 179.833 L 273.167 177.833 262.917 177.833 L 252.667 177.833 252.667 179.833 M300.333 215.238 C 301.867 215.617,303.815 216.757,303.828 217.283 C 303.831 217.393,303.927 217.543,304.042 217.617 C 304.661 218.013,305.329 219.980,305.332 221.417 C 305.338 224.776,303.159 228.844,300.417 230.594 C 298.417 231.869,295.686 232.951,293.500 233.333 C 289.603 234.015,289.696 234.027,290.045 232.886 C 290.912 230.051,291.979 223.882,292.438 219.061 L 292.725 216.038 293.738 215.738 C 296.180 215.014,298.662 214.825,300.333 215.238 M161.583 298.314 C 171.397 299.458,199.866 299.782,213.375 298.903 L 214.833 298.808 214.836 303.946 C 214.840 310.645,215.092 312.324,216.473 314.870 C 217.429 316.632,219.210 318.833,219.680 318.833 C 219.764 318.833,219.833 318.901,219.833 318.984 C 219.833 319.160,221.486 320.291,222.333 320.695 C 222.880 320.956,220.648 320.974,186.667 320.985 L 150.417 320.998 151.696 320.361 C 152.937 319.744,153.962 319.068,154.524 318.497 C 154.674 318.344,154.986 318.071,155.216 317.890 C 155.911 317.343,157.351 315.323,157.938 314.070 C 159.217 311.343,159.203 311.444,159.289 304.361 L 159.366 297.972 159.725 298.055 C 159.922 298.101,160.758 298.217,161.583 298.314 " stroke="none" fill="#303048" fill-rule="evenodd"></path><path id="path3" d="M192.278 71.778 C 192.124 71.932,192.137 80.295,192.292 80.391 C 192.360 80.433,192.417 78.488,192.417 76.067 C 192.417 73.647,192.410 71.667,192.403 71.667 C 192.395 71.667,192.339 71.717,192.278 71.778 M179.887 76.167 C 179.887 76.762,179.917 77.006,179.954 76.708 C 179.991 76.410,179.991 75.923,179.954 75.625 C 179.917 75.327,179.887 75.571,179.887 76.167 M185.042 75.750 C 185.044 76.117,185.078 76.247,185.118 76.040 C 185.158 75.832,185.156 75.532,185.115 75.373 C 185.073 75.214,185.040 75.383,185.042 75.750 M192.200 88.698 C 192.182 90.595,192.223 92.182,192.292 92.225 C 192.360 92.267,192.397 91.240,192.374 89.943 C 192.295 85.648,192.233 85.205,192.200 88.698 M115.375 87.782 C 115.535 87.823,115.798 87.823,115.958 87.782 C 116.119 87.740,115.987 87.705,115.667 87.705 C 115.346 87.705,115.215 87.740,115.375 87.782 M117.708 87.948 C 117.869 87.990,118.131 87.990,118.292 87.948 C 118.452 87.906,118.321 87.872,118.000 87.872 C 117.679 87.872,117.548 87.906,117.708 87.948 M120.128 88.121 C 120.428 88.158,120.878 88.157,121.128 88.119 C 121.378 88.081,121.133 88.051,120.583 88.052 C 120.033 88.053,119.828 88.084,120.128 88.121 M189.458 100.957 C 190.031 100.989,190.969 100.989,191.542 100.957 C 192.115 100.924,191.646 100.898,190.500 100.898 C 189.354 100.898,188.885 100.924,189.458 100.957 M131.875 110.115 C 132.035 110.157,132.298 110.157,132.458 110.115 C 132.619 110.073,132.487 110.039,132.167 110.039 C 131.846 110.039,131.715 110.073,131.875 110.115 M189.292 129.790 C 189.865 129.823,190.802 129.823,191.375 129.790 C 191.948 129.758,191.479 129.731,190.333 129.731 C 189.188 129.731,188.719 129.758,189.292 129.790 M197.458 129.790 C 198.031 129.823,198.969 129.823,199.542 129.790 C 200.115 129.758,199.646 129.731,198.500 129.731 C 197.354 129.731,196.885 129.758,197.458 129.790 M183.875 129.956 C 184.310 129.990,185.023 129.990,185.458 129.956 C 185.894 129.922,185.537 129.893,184.667 129.893 C 183.796 129.893,183.440 129.922,183.875 129.956 M203.375 129.956 C 203.810 129.990,204.523 129.990,204.958 129.956 C 205.394 129.922,205.037 129.893,204.167 129.893 C 203.296 129.893,202.940 129.922,203.375 129.956 M180.629 130.122 C 181.021 130.157,181.621 130.157,181.963 130.121 C 182.304 130.085,181.983 130.057,181.250 130.057 C 180.517 130.058,180.237 130.087,180.629 130.122 M206.963 130.122 C 207.355 130.157,207.955 130.157,208.296 130.121 C 208.637 130.085,208.317 130.057,207.583 130.057 C 206.850 130.058,206.571 130.087,206.963 130.122 M178.375 130.282 C 178.535 130.323,178.798 130.323,178.958 130.282 C 179.119 130.240,178.987 130.205,178.667 130.205 C 178.346 130.205,178.215 130.240,178.375 130.282 M209.875 130.282 C 210.035 130.323,210.298 130.323,210.458 130.282 C 210.619 130.240,210.487 130.205,210.167 130.205 C 209.846 130.205,209.715 130.240,209.875 130.282 M176.542 130.448 C 176.702 130.490,176.965 130.490,177.125 130.448 C 177.285 130.406,177.154 130.372,176.833 130.372 C 176.512 130.372,176.381 130.406,176.542 130.448 M211.708 130.448 C 211.869 130.490,212.131 130.490,212.292 130.448 C 212.452 130.406,212.321 130.372,212.000 130.372 C 211.679 130.372,211.548 130.406,211.708 130.448 M174.792 130.618 C 174.998 130.657,175.335 130.657,175.542 130.618 C 175.748 130.578,175.579 130.545,175.167 130.545 C 174.754 130.545,174.585 130.578,174.792 130.618 M213.292 130.618 C 213.498 130.657,213.835 130.657,214.042 130.618 C 214.248 130.578,214.079 130.545,213.667 130.545 C 213.254 130.545,213.085 130.578,213.292 130.618 M214.875 130.782 C 215.035 130.823,215.298 130.823,215.458 130.782 C 215.619 130.740,215.487 130.705,215.167 130.705 C 214.846 130.705,214.715 130.740,214.875 130.782 M172.042 134.115 C 172.202 134.157,172.465 134.157,172.625 134.115 C 172.785 134.073,172.654 134.039,172.333 134.039 C 172.012 134.039,171.881 134.073,172.042 134.115 M216.208 134.115 C 216.369 134.157,216.631 134.157,216.792 134.115 C 216.952 134.073,216.821 134.039,216.500 134.039 C 216.179 134.039,216.048 134.073,216.208 134.115 M176.211 134.620 C 176.464 134.658,176.839 134.657,177.044 134.617 C 177.249 134.578,177.042 134.546,176.583 134.548 C 176.125 134.549,175.957 134.581,176.211 134.620 M211.877 134.620 C 212.131 134.658,212.506 134.657,212.711 134.617 C 212.916 134.578,212.708 134.546,212.250 134.548 C 211.792 134.549,211.624 134.581,211.877 134.620 M178.042 134.786 C 178.294 134.824,178.706 134.824,178.958 134.786 C 179.210 134.748,179.004 134.717,178.500 134.717 C 177.996 134.717,177.790 134.748,178.042 134.786 M209.875 134.786 C 210.127 134.824,210.540 134.824,210.792 134.786 C 211.044 134.748,210.838 134.717,210.333 134.717 C 209.829 134.717,209.623 134.748,209.875 134.786 M180.544 134.953 C 180.797 134.991,181.172 134.990,181.377 134.951 C 181.582 134.911,181.375 134.880,180.917 134.881 C 180.458 134.882,180.291 134.915,180.544 134.953 M207.625 134.951 C 207.831 134.991,208.169 134.991,208.375 134.951 C 208.581 134.911,208.412 134.879,208.000 134.879 C 207.588 134.879,207.419 134.911,207.625 134.951 M183.292 135.121 C 183.590 135.158,184.077 135.158,184.375 135.121 C 184.673 135.084,184.429 135.053,183.833 135.053 C 183.237 135.053,182.994 135.084,183.292 135.121 M204.458 135.121 C 204.756 135.158,205.244 135.158,205.542 135.121 C 205.840 135.084,205.596 135.053,205.000 135.053 C 204.404 135.053,204.160 135.084,204.458 135.121 M172.042 135.282 C 172.202 135.323,172.465 135.323,172.625 135.282 C 172.785 135.240,172.654 135.205,172.333 135.205 C 172.012 135.205,171.881 135.240,172.042 135.282 M190.137 135.292 C 192.549 135.318,196.449 135.318,198.803 135.292 C 201.157 135.265,199.183 135.244,194.417 135.244 C 189.650 135.244,187.724 135.266,190.137 135.292 M173.294 135.451 C 173.501 135.491,173.801 135.490,173.960 135.448 C 174.120 135.406,173.950 135.374,173.583 135.375 C 173.217 135.377,173.086 135.411,173.294 135.451 M214.960 135.451 C 215.168 135.491,215.468 135.490,215.627 135.448 C 215.786 135.406,215.617 135.374,215.250 135.375 C 214.883 135.377,214.753 135.411,214.960 135.451 M176.377 135.786 C 176.631 135.825,177.006 135.824,177.211 135.784 C 177.416 135.744,177.208 135.713,176.750 135.714 C 176.292 135.716,176.124 135.748,176.377 135.786 M211.711 135.786 C 211.964 135.825,212.339 135.824,212.544 135.784 C 212.749 135.744,212.542 135.713,212.083 135.714 C 211.625 135.716,211.457 135.748,211.711 135.786 M178.288 135.954 C 178.584 135.990,179.109 135.991,179.455 135.955 C 179.800 135.919,179.558 135.889,178.917 135.888 C 178.275 135.887,177.992 135.917,178.288 135.954 M209.288 135.954 C 209.584 135.990,210.109 135.991,210.455 135.955 C 210.800 135.919,210.558 135.889,209.917 135.888 C 209.275 135.887,208.992 135.917,209.288 135.954 M181.292 136.118 C 181.498 136.157,181.835 136.157,182.042 136.118 C 182.248 136.078,182.079 136.045,181.667 136.045 C 181.254 136.045,181.085 136.078,181.292 136.118 M206.792 136.118 C 206.998 136.157,207.335 136.157,207.542 136.118 C 207.748 136.078,207.579 136.045,207.167 136.045 C 206.754 136.045,206.585 136.078,206.792 136.118 M184.208 136.288 C 184.552 136.324,185.115 136.324,185.458 136.288 C 185.802 136.252,185.521 136.223,184.833 136.223 C 184.146 136.223,183.865 136.252,184.208 136.288 M203.375 136.288 C 203.719 136.324,204.281 136.324,204.625 136.288 C 204.969 136.252,204.688 136.223,204.000 136.223 C 203.313 136.223,203.031 136.252,203.375 136.288 M191.114 136.458 C 192.872 136.485,195.797 136.485,197.614 136.458 C 199.430 136.431,197.992 136.409,194.417 136.409 C 190.842 136.409,189.355 136.431,191.114 136.458 M109.627 163.451 C 109.834 163.491,110.134 163.490,110.294 163.448 C 110.453 163.406,110.283 163.374,109.917 163.375 C 109.550 163.377,109.420 163.411,109.627 163.451 M215.704 297.447 C 215.956 297.514,215.997 297.820,216.042 299.970 L 216.093 302.417 216.130 299.875 C 216.167 297.334,216.167 297.333,215.792 297.353 C 215.516 297.367,215.493 297.392,215.704 297.447 " stroke="none" fill="#848494" fill-rule="evenodd"></path><path id="path4" d="M93.711 24.620 C 93.964 24.658,94.339 24.657,94.544 24.617 C 94.749 24.578,94.542 24.546,94.083 24.548 C 93.625 24.549,93.457 24.581,93.711 24.620 M93.625 26.284 C 93.831 26.324,94.169 26.324,94.375 26.284 C 94.581 26.245,94.412 26.212,94.000 26.212 C 93.587 26.212,93.419 26.245,93.625 26.284 M106.375 32.282 C 106.535 32.323,106.798 32.323,106.958 32.282 C 107.119 32.240,106.987 32.205,106.667 32.205 C 106.346 32.205,106.215 32.240,106.375 32.282 M96.705 33.333 C 96.705 33.654,96.740 33.785,96.782 33.625 C 96.823 33.465,96.823 33.202,96.782 33.042 C 96.740 32.881,96.705 33.012,96.705 33.333 M95.737 40.250 C 95.737 42.175,95.762 42.940,95.791 41.949 C 95.821 40.959,95.821 39.384,95.791 38.449 C 95.761 37.515,95.737 38.325,95.737 40.250 M96.901 40.917 C 96.901 42.383,96.927 42.961,96.957 42.200 C 96.988 41.440,96.988 40.240,96.957 39.534 C 96.926 38.828,96.901 39.450,96.901 40.917 M99.833 43.286 C 99.971 43.337,100.233 43.447,100.417 43.532 C 100.745 43.683,100.745 43.681,100.426 43.426 C 100.249 43.283,99.986 43.173,99.843 43.180 C 99.619 43.191,99.617 43.206,99.833 43.286 M55.500 43.385 C 55.500 43.414,55.744 43.658,56.042 43.927 L 56.583 44.417 56.094 43.875 C 55.638 43.370,55.500 43.257,55.500 43.385 M98.542 44.282 C 98.702 44.323,98.965 44.323,99.125 44.282 C 99.285 44.240,99.154 44.205,98.833 44.205 C 98.513 44.205,98.381 44.240,98.542 44.282 M56.893 44.629 C 57.025 44.842,58.000 45.564,58.000 45.448 C 58.000 45.407,57.725 45.163,57.388 44.906 C 57.052 44.650,56.829 44.525,56.893 44.629 M100.714 46.250 C 100.716 46.708,100.748 46.876,100.786 46.623 C 100.825 46.369,100.824 45.994,100.784 45.789 C 100.744 45.584,100.713 45.792,100.714 46.250 M101.883 46.333 C 101.883 46.837,101.915 47.044,101.953 46.792 C 101.991 46.540,101.991 46.127,101.953 45.875 C 101.915 45.623,101.883 45.829,101.883 46.333 M57.667 47.241 C 57.667 47.287,57.892 47.441,58.167 47.583 C 58.442 47.726,58.667 47.804,58.667 47.759 C 58.667 47.713,58.442 47.559,58.167 47.417 C 57.892 47.274,57.667 47.196,57.667 47.241 M100.677 49.216 C 99.976 50.037,99.970 50.052,100.566 49.500 C 101.093 49.011,101.633 48.314,101.464 48.341 C 101.438 48.345,101.084 48.739,100.677 49.216 M71.548 57.250 C 71.549 57.708,71.581 57.876,71.620 57.623 C 71.658 57.369,71.657 56.994,71.617 56.789 C 71.578 56.584,71.546 56.792,71.548 57.250 M156.449 64.752 C 156.297 65.072,156.206 65.333,156.248 65.333 C 156.362 65.333,156.868 64.313,156.792 64.237 C 156.756 64.200,156.602 64.432,156.449 64.752 M153.595 72.095 C 153.534 72.339,153.516 72.571,153.555 72.611 C 153.594 72.650,153.677 72.482,153.738 72.238 C 153.799 71.994,153.817 71.762,153.778 71.723 C 153.739 71.683,153.657 71.851,153.595 72.095 M152.542 77.917 C 152.544 78.283,152.578 78.414,152.618 78.206 C 152.658 77.999,152.656 77.699,152.615 77.540 C 152.573 77.380,152.540 77.550,152.542 77.917 M152.388 79.917 C 152.389 80.558,152.419 80.800,152.455 80.455 C 152.491 80.109,152.490 79.584,152.454 79.288 C 152.417 78.992,152.387 79.275,152.388 79.917 M154.125 92.784 C 154.331 92.824,154.669 92.824,154.875 92.784 C 155.081 92.745,154.912 92.712,154.500 92.712 C 154.087 92.712,153.919 92.745,154.125 92.784 M146.053 94.833 C 146.053 95.429,146.084 95.673,146.121 95.375 C 146.158 95.077,146.158 94.590,146.121 94.292 C 146.084 93.994,146.053 94.237,146.053 94.833 M145.881 97.583 C 145.882 98.042,145.915 98.209,145.953 97.956 C 145.991 97.703,145.990 97.328,145.951 97.123 C 145.911 96.918,145.880 97.125,145.881 97.583 M145.705 99.833 C 145.705 100.154,145.740 100.285,145.782 100.125 C 145.823 99.965,145.823 99.702,145.782 99.542 C 145.740 99.381,145.705 99.513,145.705 99.833 M145.553 102.500 C 145.553 103.096,145.584 103.340,145.621 103.042 C 145.658 102.744,145.658 102.256,145.621 101.958 C 145.584 101.660,145.553 101.904,145.553 102.500 M145.383 105.167 C 145.383 105.671,145.415 105.877,145.453 105.625 C 145.491 105.373,145.491 104.960,145.453 104.708 C 145.415 104.456,145.383 104.662,145.383 105.167 M187.460 129.785 C 187.668 129.824,187.968 129.823,188.127 129.781 C 188.286 129.739,188.117 129.707,187.750 129.709 C 187.383 129.711,187.253 129.745,187.460 129.785 M200.794 129.785 C 201.001 129.824,201.301 129.823,201.460 129.781 C 201.620 129.739,201.450 129.707,201.083 129.709 C 200.717 129.711,200.586 129.745,200.794 129.785 M182.294 129.951 C 182.501 129.991,182.801 129.990,182.960 129.948 C 183.120 129.906,182.950 129.874,182.583 129.875 C 182.217 129.877,182.086 129.911,182.294 129.951 M205.960 129.951 C 206.168 129.991,206.468 129.990,206.627 129.948 C 206.786 129.906,206.617 129.874,206.250 129.875 C 205.883 129.877,205.753 129.911,205.960 129.951 M192.717 135.458 C 193.708 135.487,195.283 135.487,196.217 135.458 C 197.152 135.428,196.342 135.404,194.417 135.404 C 192.492 135.404,191.727 135.428,192.717 135.458 M186.458 136.287 C 186.756 136.324,187.244 136.324,187.542 136.287 C 187.840 136.250,187.596 136.220,187.000 136.220 C 186.404 136.220,186.160 136.250,186.458 136.287 M201.292 136.287 C 201.590 136.324,202.077 136.324,202.375 136.287 C 202.673 136.250,202.429 136.220,201.833 136.220 C 201.237 136.220,200.994 136.250,201.292 136.287 " stroke="none" fill="#307275" fill-rule="evenodd"></path></g></svg>