<?xml version="1.0" encoding="UTF-8"?>
<svg xmlns="http://www.w3.org/2000/svg" xmlns:xlink="http://www.w3.org/1999/xlink" width="1700px" height="1000px" viewBox="0 0 1700 1000" version="1.1">
<g id="surface1">
<path style=" stroke:none;fill-rule:nonzero;fill:rgb(0%,0%,0%);fill-opacity:1;" d="M 1247.585938 646.5 C 1460.972656 475.214844 1414.105469 236.160156 1140.039062 97.945312 C 865.972656 -40.269531 457.183594 -31.003906 202.007812 119.207031 C -53.164062 269.417969 -68.621094 509.886719 166.535156 671.003906 C 401.695312 832.121094 808.128906 859.519531 1099.15625 733.875 L 1099.050781 733.875 C 1102.167969 736.375 1105.636719 738.769531 1109.460938 741.0625 L 1518.523438 981.6875 C 1560.011719 1006.109375 1627.300781 1006.121094 1668.816406 981.71875 C 1710.332031 957.316406 1710.355469 917.734375 1668.867188 893.3125 L 1259.804688 652.6875 C 1256.007812 650.425781 1251.925781 648.335938 1247.585938 646.4375 Z M 1275 406.25 C 1275 596.097656 1013.367188 750 690.625 750 C 367.882812 750 106.25 596.097656 106.25 406.25 C 106.25 216.402344 367.882812 62.5 690.625 62.5 C 1013.367188 62.5 1275 216.402344 1275 406.25 "/>
</g>
</svg>
