<svg id="svg" version="1.1" xmlns="http://www.w3.org/2000/svg" xmlns:xlink="http://www.w3.org/1999/xlink" width="400" height="290.78498293515355" viewBox="0, 0, 400,290.78498293515355"><g id="svgg"><path id="path0" d="M148.848 139.248 C 148.436 139.661,148.629 158.162,149.049 158.511 C 149.339 158.751,162.845 158.818,199.885 158.764 L 250.327 158.691 250.404 148.873 L 250.480 139.055 199.761 139.055 C 171.866 139.055,148.955 139.142,148.848 139.248 M156.784 145.236 C 157.271 145.756,157.671 146.280,157.671 146.400 C 157.675 146.960,158.480 146.507,159.420 145.415 C 161.440 143.070,162.580 144.660,160.727 147.239 C 160.167 148.018,159.709 148.736,159.709 148.834 C 159.709 148.933,160.167 149.637,160.727 150.400 C 162.635 152.999,161.425 154.499,159.345 152.112 L 158.233 150.836 157.153 152.077 C 156.049 153.345,155.168 153.652,154.869 152.872 C 154.628 152.245,154.944 151.211,155.586 150.521 C 156.392 149.656,156.898 148.608,156.610 148.399 C 155.373 147.502,154.373 145.305,154.942 144.736 C 155.569 144.109,155.782 144.167,156.784 145.236 M166.382 145.527 L 167.571 146.764 168.610 145.527 C 169.759 144.159,170.152 144.036,170.865 144.824 C 171.318 145.325,171.278 145.454,170.192 147.005 C 168.917 148.825,168.921 149.109,170.247 150.647 C 171.167 151.714,171.215 152.629,170.376 153.134 C 169.925 153.406,169.670 153.255,168.701 152.145 L 167.557 150.836 166.375 152.073 C 165.148 153.356,165.007 153.426,164.242 153.133 C 163.525 152.857,163.698 152.112,164.803 150.723 C 166.071 149.128,166.070 148.659,164.800 146.995 C 163.700 145.554,163.593 145.178,164.131 144.640 C 164.708 144.063,165.135 144.231,166.382 145.527 M175.384 145.219 C 175.883 145.729,176.291 146.253,176.291 146.382 C 176.291 146.956,177.160 146.533,177.856 145.620 C 178.731 144.473,179.729 144.030,180.105 144.623 C 180.554 145.333,180.380 145.934,179.348 147.232 C 178.383 148.446,178.069 149.364,178.545 149.576 C 179.036 149.794,180.364 151.856,180.364 152.400 C 180.364 153.755,178.800 153.517,177.781 152.007 C 176.904 150.708,176.626 150.727,175.617 152.152 C 174.786 153.326,174.072 153.592,173.440 152.960 C 172.900 152.420,173.010 152.038,174.106 150.659 C 175.371 149.068,175.371 148.767,174.109 147.114 C 172.301 144.746,173.369 143.158,175.384 145.219 M189.126 145.455 C 190.289 146.902,190.433 146.899,191.714 145.412 C 193.644 143.171,194.772 144.609,193.018 147.075 C 191.905 148.640,191.772 149.267,192.433 149.815 C 193.273 150.513,194.082 152.125,193.892 152.723 C 193.596 153.655,192.652 153.411,191.428 152.084 L 190.297 150.860 189.175 152.124 C 188.245 153.171,187.937 153.351,187.378 153.174 C 186.511 152.899,186.699 151.631,187.779 150.467 C 188.941 149.215,188.944 148.783,187.803 147.229 C 186.695 145.719,186.556 145.197,187.113 144.640 C 187.697 144.056,188.149 144.239,189.126 145.455 M198.435 145.455 C 199.578 146.877,199.923 146.902,200.718 145.615 C 201.419 144.481,202.297 144.074,202.923 144.593 C 203.565 145.126,203.434 145.787,202.465 146.909 C 201.123 148.463,201.109 148.956,202.355 150.690 C 204.123 153.151,202.765 154.339,200.729 152.112 L 199.592 150.867 198.974 151.653 C 197.666 153.315,197.412 153.470,196.533 153.133 C 195.789 152.847,196.006 151.800,197.094 150.432 C 198.336 148.869,198.336 148.971,197.091 147.239 C 196.003 145.725,195.867 145.195,196.422 144.640 C 197.006 144.056,197.458 144.239,198.435 145.455 M212.563 145.448 C 213.281 146.463,214.400 147.036,214.400 146.389 C 214.400 145.668,216.060 144.225,216.667 144.417 C 217.571 144.704,217.487 145.704,216.436 147.154 C 215.326 148.686,215.339 148.922,216.633 150.723 C 218.398 153.180,216.909 154.387,214.928 152.105 L 213.826 150.836 212.780 152.073 C 210.700 154.531,209.327 153.081,211.258 150.467 L 212.398 148.924 211.795 147.949 C 211.464 147.413,210.998 146.813,210.760 146.615 C 210.235 146.179,210.186 144.687,210.691 144.484 C 211.464 144.171,211.772 144.330,212.563 145.448 M221.931 145.455 C 222.908 146.524,223.709 146.946,223.709 146.392 C 223.709 145.759,225.422 144.337,226.003 144.489 C 227.049 144.762,226.916 145.716,225.608 147.327 C 224.533 148.652,224.569 149.078,225.909 150.834 C 227.584 153.030,226.051 154.192,224.233 152.105 L 223.127 150.836 222.022 152.105 C 219.971 154.459,218.754 152.989,220.634 150.429 C 221.893 148.712,221.892 148.946,220.655 147.326 C 218.659 144.712,219.767 143.088,221.931 145.455 M231.297 145.527 L 232.461 146.764 233.548 145.527 C 235.566 143.230,237.006 144.434,235.218 146.923 C 233.922 148.727,233.926 149.103,235.257 150.812 C 237.086 153.159,235.481 154.365,233.533 152.107 L 232.436 150.836 231.340 152.107 C 229.362 154.399,227.854 153.184,229.622 150.723 C 230.939 148.890,230.942 148.658,229.673 146.995 C 228.572 145.554,228.466 145.178,229.004 144.640 C 229.593 144.051,230.085 144.241,231.297 145.527 M240.617 145.455 C 241.456 146.499,242.325 146.979,242.329 146.400 C 242.331 146.084,244.055 144.291,244.358 144.291 C 245.676 144.291,245.591 145.628,244.159 147.411 C 243.093 148.739,243.126 149.139,244.414 150.521 C 245.056 151.211,245.372 152.245,245.131 152.872 C 244.831 153.656,243.852 153.335,242.909 152.145 C 241.784 150.725,241.632 150.715,240.803 151.999 C 240.094 153.095,239.487 153.429,238.732 153.139 C 237.981 152.851,238.168 151.905,239.273 150.400 C 239.833 149.637,240.291 148.933,240.291 148.834 C 240.291 148.736,239.833 148.018,239.273 147.239 C 237.920 145.356,237.939 144.405,239.332 144.314 C 239.524 144.301,240.102 144.815,240.617 145.455 M185.068 147.972 C 185.718 148.561,185.730 148.774,185.143 149.361 C 184.217 150.287,181.527 149.765,181.527 148.659 C 181.527 147.529,184.040 147.042,185.068 147.972 M208.436 148.073 C 208.944 148.634,208.944 148.675,208.436 149.236 C 207.491 150.281,204.800 149.853,204.800 148.659 C 204.800 147.453,207.484 147.021,208.436 148.073 " stroke="none" fill="#2aa197" fill-rule="evenodd"></path><path id="path1" d="M153.309 96.291 C 153.309 96.451,153.043 96.582,152.718 96.582 C 152.393 96.582,152.052 96.778,151.960 97.018 C 151.868 97.258,151.577 97.455,151.314 97.455 C 150.744 97.455,149.236 98.693,149.236 99.161 C 149.236 99.343,149.096 99.491,148.925 99.491 C 148.411 99.491,147.782 100.281,147.782 100.925 C 147.782 101.256,147.651 101.527,147.491 101.527 C 147.331 101.527,147.200 101.775,147.200 102.078 C 147.200 102.381,147.004 102.704,146.764 102.796 C 146.511 102.893,146.327 103.328,146.327 103.828 C 146.327 104.304,146.196 104.774,146.036 104.873 C 145.846 104.991,145.745 115.106,145.745 134.272 C 145.745 153.557,145.844 163.491,146.036 163.491 C 146.196 163.491,146.327 163.949,146.327 164.509 C 146.327 165.220,146.459 165.527,146.764 165.527 C 147.035 165.527,147.200 165.802,147.200 166.255 C 147.200 166.655,147.331 166.982,147.491 166.982 C 147.651 166.982,147.782 167.211,147.783 167.491 C 147.784 168.074,150.178 170.473,150.759 170.473 C 150.971 170.473,151.333 170.735,151.564 171.055 C 151.831 171.426,152.317 171.636,152.906 171.636 C 153.458 171.636,153.896 171.812,153.996 172.073 C 154.144 172.458,159.488 172.509,199.669 172.509 C 239.850 172.509,245.194 172.458,245.342 172.073 C 245.439 171.818,245.875 171.636,246.391 171.636 C 246.876 171.636,247.273 171.505,247.273 171.345 C 247.273 171.185,247.469 171.055,247.709 171.055 C 247.949 171.055,248.145 170.924,248.145 170.764 C 248.145 170.604,248.338 170.473,248.574 170.473 C 248.810 170.473,249.595 169.880,250.320 169.156 C 251.044 168.432,251.636 167.646,251.636 167.411 C 251.636 167.175,251.767 166.982,251.927 166.982 C 252.087 166.982,252.218 166.655,252.218 166.255 C 252.218 165.855,252.349 165.527,252.509 165.527 C 252.669 165.527,252.800 165.083,252.800 164.540 C 252.800 163.931,252.967 163.489,253.236 163.386 C 253.899 163.131,253.899 105.087,253.236 104.832 C 252.967 104.729,252.800 104.287,252.800 103.678 C 252.800 103.135,252.669 102.691,252.509 102.691 C 252.349 102.691,252.218 102.429,252.218 102.109 C 252.218 101.789,252.087 101.527,251.927 101.527 C 251.767 101.527,251.636 101.284,251.636 100.986 C 251.636 100.689,251.309 100.199,250.909 99.899 C 250.509 99.599,250.182 99.210,250.182 99.035 C 250.182 98.860,249.855 98.541,249.455 98.327 C 249.055 98.113,248.727 97.829,248.727 97.696 C 248.727 97.563,248.461 97.455,248.136 97.455 C 247.811 97.455,247.470 97.258,247.378 97.018 C 247.275 96.749,246.832 96.582,246.223 96.582 C 245.681 96.582,245.236 96.451,245.236 96.291 C 245.236 96.098,229.721 96.000,199.273 96.000 C 168.824 96.000,153.309 96.098,153.309 96.291 M245.659 98.896 C 247.533 99.825,249.468 101.753,250.270 103.490 C 250.904 104.861,250.909 105.007,250.909 121.018 L 250.909 137.164 199.885 137.237 C 162.414 137.291,148.757 137.224,148.467 136.983 C 147.937 136.543,147.882 106.958,148.408 105.330 C 149.643 101.507,151.992 99.178,155.491 98.308 C 155.971 98.189,176.131 98.112,200.291 98.137 L 244.218 98.182 245.659 98.896 M178.072 107.912 C 171.781 109.500,173.497 118.691,180.085 118.691 C 184.783 118.691,186.473 119.911,186.473 123.303 C 186.473 126.544,185.066 127.709,181.155 127.709 C 177.735 127.709,176.455 127.007,175.725 124.731 C 175.097 122.776,173.992 123.034,174.524 125.011 C 175.285 127.837,177.067 128.873,181.168 128.873 C 185.827 128.873,187.636 127.311,187.636 123.286 C 187.636 119.181,185.545 117.527,180.349 117.527 C 177.360 117.527,176.389 116.900,175.729 114.543 C 174.695 110.852,177.353 108.459,181.964 108.927 C 182.444 108.976,183.206 109.033,183.659 109.053 C 184.758 109.104,186.054 110.446,186.460 111.954 C 186.870 113.477,187.636 113.612,187.636 112.162 C 187.636 108.785,182.919 106.688,178.072 107.912 M196.218 108.055 C 193.122 109.189,191.894 113.690,193.868 116.672 C 194.881 118.202,196.028 118.691,198.607 118.691 C 203.244 118.691,204.869 119.796,205.024 123.055 C 205.193 126.600,203.884 127.709,199.533 127.709 L 196.679 127.709 195.503 126.590 C 194.733 125.858,194.327 125.218,194.327 124.735 C 194.327 123.742,193.659 123.185,193.172 123.772 C 192.776 124.249,193.082 125.498,193.904 126.752 C 195.902 129.801,203.493 129.754,205.508 126.680 C 208.518 122.086,205.179 117.527,198.804 117.527 C 193.185 117.527,191.982 110.074,197.437 109.051 C 201.672 108.257,205.083 109.734,205.089 112.364 C 205.090 112.986,205.229 113.164,205.712 113.164 C 207.216 113.164,205.770 109.544,203.782 108.333 C 202.604 107.616,197.892 107.442,196.218 108.055 M211.200 118.237 C 211.200 128.317,211.327 129.768,212.101 128.546 C 212.240 128.326,212.357 124.513,212.359 120.073 C 212.363 112.578,212.400 112.000,212.873 112.005 C 213.300 112.009,215.355 114.925,215.825 116.195 C 215.889 116.368,216.032 116.575,216.142 116.655 C 216.251 116.735,216.715 117.455,217.171 118.255 C 217.628 119.055,218.762 120.915,219.692 122.390 C 220.621 123.864,221.382 125.147,221.382 125.242 C 221.382 125.724,223.802 128.890,224.095 128.793 C 224.732 128.580,224.567 108.106,223.927 107.983 C 223.452 107.891,223.418 108.429,223.418 116.034 C 223.418 125.636,223.056 126.383,220.671 121.693 C 220.360 121.082,219.828 120.189,219.488 119.709 C 218.971 118.980,216.463 114.904,215.418 113.097 C 211.066 105.566,211.200 105.403,211.200 118.237 M250.871 139.418 C 251.311 141.058,251.067 158.201,250.597 158.670 C 249.993 159.274,149.316 159.381,148.713 158.778 C 148.343 158.409,148.182 140.157,148.540 139.224 C 148.700 138.807,153.479 138.764,199.706 138.764 L 250.696 138.764 250.871 139.418 M155.135 144.908 C 154.706 145.338,154.938 145.924,156.118 147.394 C 157.307 148.876,157.310 148.715,156.073 150.400 C 155.513 151.163,155.055 152.064,155.055 152.403 C 155.055 153.473,156.054 153.110,157.094 151.661 L 158.068 150.304 159.286 151.708 C 161.299 154.028,162.314 152.985,160.436 150.526 C 159.876 149.792,159.418 149.056,159.418 148.889 C 159.418 148.723,159.876 147.963,160.436 147.200 C 161.454 145.813,161.688 145.051,161.190 144.743 C 160.739 144.465,160.174 144.840,159.453 145.895 C 158.558 147.207,157.983 147.174,156.835 145.745 C 155.831 144.497,155.641 144.403,155.135 144.908 M164.436 144.774 C 163.842 145.014,164.016 145.520,165.213 147.032 C 166.501 148.656,166.479 148.948,164.908 151.135 C 163.436 153.186,164.552 153.835,166.144 151.855 C 166.658 151.215,167.247 150.691,167.453 150.691 C 167.659 150.691,168.248 151.215,168.762 151.855 C 170.133 153.560,171.527 153.126,170.287 151.379 C 168.397 148.721,168.414 148.858,169.765 147.088 C 171.472 144.853,170.510 143.816,168.672 145.909 C 167.554 147.182,167.285 147.165,166.144 145.745 C 165.200 144.570,165.093 144.510,164.436 144.774 M173.576 144.776 C 173.199 145.153,173.393 145.677,174.400 146.995 C 175.670 148.658,175.667 148.965,174.371 150.730 C 173.342 152.132,173.229 153.018,174.079 153.018 C 174.553 153.018,175.232 152.410,175.908 151.377 C 176.534 150.423,176.864 150.503,178.065 151.898 C 179.924 154.059,180.872 152.782,179.055 150.564 C 178.495 149.881,178.036 149.157,178.036 148.954 C 178.036 148.752,178.495 147.963,179.055 147.200 C 180.166 145.685,180.318 145.029,179.618 144.760 C 179.189 144.596,177.455 146.137,177.455 146.683 C 177.455 147.330,176.224 146.763,175.418 145.745 C 174.538 144.635,174.000 144.351,173.576 144.776 M187.248 144.776 C 186.854 145.171,187.081 145.814,188.073 147.114 C 189.335 148.767,189.335 149.068,188.070 150.659 C 186.295 152.892,187.218 154.043,189.063 151.898 C 190.351 150.401,190.555 150.397,191.709 151.855 C 192.216 152.495,192.820 153.018,193.052 153.018 C 193.917 153.018,193.799 152.114,192.761 150.782 C 191.455 149.106,191.451 148.648,192.727 146.909 C 193.926 145.277,193.991 144.873,193.056 144.873 C 192.594 144.873,192.137 145.208,191.674 145.889 C 190.762 147.228,190.024 147.185,189.021 145.734 C 188.269 144.647,187.690 144.334,187.248 144.776 M196.558 144.776 C 196.172 145.161,196.382 145.770,197.382 147.161 C 197.942 147.941,198.400 148.725,198.400 148.905 C 198.400 149.084,197.942 149.832,197.382 150.565 C 195.512 153.015,196.526 154.020,198.533 151.707 L 199.751 150.303 200.601 151.442 C 201.565 152.734,201.879 153.007,202.409 153.014 C 203.229 153.024,203.086 152.086,202.070 150.782 C 200.764 149.106,200.761 148.666,202.036 146.995 C 203.201 145.470,203.225 145.376,202.580 144.841 C 202.165 144.496,201.972 144.601,201.045 145.678 C 199.742 147.190,199.629 147.193,198.290 145.745 C 197.210 144.578,196.918 144.415,196.558 144.776 M210.812 144.776 C 210.394 145.194,210.662 146.010,211.636 147.286 C 212.196 148.020,212.655 148.740,212.655 148.886 C 212.655 149.033,212.196 149.753,211.636 150.486 C 209.784 152.912,210.751 154.041,212.714 151.744 L 213.877 150.385 215.036 151.701 C 217.062 154.004,217.835 152.992,216.000 150.439 C 214.757 148.709,214.757 148.799,216.003 147.232 C 217.750 145.034,217.082 143.607,215.284 145.695 C 214.094 147.077,213.498 147.206,212.853 146.223 C 211.947 144.839,211.246 144.342,210.812 144.776 M220.121 144.776 C 219.724 145.173,219.955 145.850,220.945 147.200 C 221.505 147.963,221.964 148.723,221.964 148.889 C 221.964 149.056,221.505 149.792,220.945 150.526 C 220.385 151.259,219.927 152.120,219.927 152.439 C 219.927 153.399,220.875 153.100,221.801 151.848 C 222.854 150.424,223.432 150.393,224.326 151.710 C 225.027 152.742,225.801 153.198,226.312 152.882 C 226.690 152.648,226.409 151.917,225.469 150.691 C 224.178 149.007,224.178 148.768,225.469 146.965 C 227.077 144.719,226.339 143.697,224.582 145.736 C 223.681 146.782,222.545 147.310,222.545 146.683 C 222.545 145.926,220.545 144.352,220.121 144.776 M229.430 144.776 C 229.012 145.194,229.280 146.010,230.255 147.286 C 230.815 148.020,231.273 148.708,231.273 148.816 C 231.273 148.924,230.815 149.637,230.255 150.400 C 228.462 152.841,229.290 153.993,231.272 151.815 L 232.426 150.545 233.575 151.821 C 235.541 154.004,236.433 152.863,234.618 150.486 C 233.368 148.849,233.368 148.808,234.621 147.232 C 235.619 145.976,235.894 145.066,235.372 144.743 C 234.918 144.463,234.353 144.846,233.670 145.897 C 232.816 147.212,232.165 147.174,231.017 145.745 C 230.084 144.584,229.797 144.409,229.430 144.776 M238.739 144.776 C 238.343 145.173,238.573 145.850,239.564 147.200 C 240.124 147.963,240.582 148.714,240.582 148.870 C 240.582 149.025,240.124 149.753,239.564 150.486 C 237.785 152.815,238.674 154.083,240.554 151.898 C 241.842 150.400,242.044 150.397,243.055 151.855 C 243.941 153.133,244.945 153.425,244.945 152.403 C 244.945 152.064,244.487 151.163,243.927 150.400 C 242.681 148.703,242.682 148.766,243.912 147.342 C 245.117 145.948,245.325 145.308,244.731 144.816 C 244.356 144.504,244.122 144.638,243.226 145.678 C 242.022 147.076,241.427 147.209,240.781 146.223 C 239.874 144.839,239.173 144.342,238.739 144.776 M181.956 148.376 C 181.611 148.934,182.454 149.527,183.589 149.527 C 184.662 149.527,185.594 148.746,185.105 148.256 C 184.799 147.950,182.157 148.051,181.956 148.376 M205.191 148.522 C 204.933 149.195,205.607 149.547,206.982 149.458 C 207.926 149.396,208.145 149.272,208.145 148.800 C 208.145 148.004,205.486 147.754,205.191 148.522 M250.728 160.685 C 251.735 161.898,250.036 166.025,247.712 168.010 C 244.973 170.350,248.918 170.173,199.473 170.178 L 155.309 170.182 153.731 169.435 C 151.114 168.197,149.219 165.956,148.459 163.200 C 147.985 161.479,147.990 161.288,148.530 160.748 C 149.174 160.104,250.194 160.041,250.728 160.685 " stroke="none" fill="#000000" fill-rule="evenodd"></path><path id="path2" d="M155.491 98.308 C 151.992 99.178,149.643 101.507,148.408 105.330 C 147.882 106.958,147.937 136.543,148.467 136.983 C 148.757 137.224,162.414 137.291,199.885 137.237 L 250.909 137.164 250.909 121.018 C 250.909 105.007,250.904 104.861,250.270 103.490 C 249.468 101.753,247.533 99.825,245.659 98.896 L 244.218 98.182 200.291 98.137 C 176.131 98.112,155.971 98.189,155.491 98.308 M245.463 99.167 C 247.135 99.922,249.313 102.104,250.121 103.832 C 250.613 104.886,251.077 134.566,250.629 136.351 L 250.461 137.020 199.631 136.946 L 148.800 136.873 148.800 120.727 C 148.800 104.649,148.803 104.577,149.439 103.418 C 150.244 101.950,151.913 100.209,153.113 99.584 C 155.523 98.328,154.264 98.359,200.145 98.417 L 243.927 98.473 245.463 99.167 M177.600 107.696 C 176.099 108.219,174.238 110.327,174.263 111.476 C 174.267 111.684,174.571 111.265,174.939 110.545 C 177.419 105.683,187.636 106.984,187.636 112.162 C 187.636 113.612,186.870 113.477,186.460 111.954 C 186.065 110.484,184.748 109.091,183.755 109.091 C 183.356 109.091,182.790 109.013,182.497 108.918 C 182.053 108.774,182.037 108.798,182.400 109.059 C 182.640 109.232,183.148 109.375,183.529 109.377 C 184.344 109.383,186.182 111.197,186.182 111.997 C 186.182 113.300,187.253 114.020,187.822 113.099 C 188.738 111.616,186.778 108.449,184.466 107.676 C 183.248 107.269,178.787 107.282,177.600 107.696 M196.115 107.657 C 192.208 109.221,191.263 114.961,194.451 117.760 C 195.734 118.887,197.090 119.269,199.811 119.271 C 203.576 119.274,205.005 120.574,204.742 123.753 C 204.491 126.778,202.158 127.961,197.746 127.299 C 196.257 127.076,194.618 125.701,194.618 124.676 C 194.618 123.020,192.877 122.552,192.638 124.144 C 191.861 129.335,203.206 131.389,205.926 126.550 C 207.923 122.997,205.638 117.456,202.214 117.548 C 201.645 117.563,201.797 117.673,202.818 117.987 C 207.039 119.286,207.725 125.598,203.919 128.116 C 202.232 129.233,197.242 129.251,195.492 128.146 C 193.701 127.015,192.445 124.648,193.172 123.772 C 193.659 123.185,194.327 123.742,194.327 124.735 C 194.327 125.218,194.733 125.858,195.503 126.590 L 196.679 127.709 199.533 127.709 C 203.884 127.709,205.193 126.600,205.024 123.055 C 204.869 119.796,203.244 118.691,198.607 118.691 C 193.747 118.691,191.169 114.025,193.817 110.023 C 195.872 106.918,202.919 106.709,205.311 109.681 C 206.283 110.889,206.545 113.164,205.712 113.164 C 205.235 113.164,205.091 112.986,205.091 112.398 C 205.091 110.694,203.659 109.294,201.600 108.985 C 200.527 108.824,200.960 109.074,202.609 109.567 C 203.591 109.861,204.800 111.463,204.800 112.469 C 204.800 113.530,205.835 113.922,206.392 113.072 C 207.230 111.793,205.729 108.995,203.631 107.925 C 202.384 107.288,197.472 107.113,196.115 107.657 M211.086 107.806 C 210.773 108.622,210.884 128.823,211.203 129.020 C 212.540 129.846,212.654 129.244,212.659 121.362 C 212.664 111.010,212.559 111.203,215.501 116.148 C 221.648 126.475,223.335 129.018,224.041 129.018 L 224.727 129.018 224.804 118.511 C 224.870 109.425,224.820 107.955,224.440 107.639 C 223.262 106.662,223.127 107.516,223.127 115.963 C 223.127 120.343,223.029 123.925,222.909 123.923 C 222.359 123.912,222.047 123.455,218.036 116.774 C 217.716 116.241,216.635 114.458,215.633 112.811 C 214.631 111.165,213.584 109.427,213.306 108.949 C 212.420 107.427,211.427 106.916,211.086 107.806 M213.722 110.260 C 214.495 111.543,215.258 112.820,215.418 113.097 C 216.463 114.904,218.971 118.980,219.488 119.709 C 219.828 120.189,220.360 121.082,220.671 121.693 C 223.056 126.383,223.418 125.636,223.418 116.034 C 223.418 108.429,223.452 107.891,223.927 107.983 C 224.567 108.106,224.732 128.580,224.095 128.793 C 223.802 128.890,221.382 125.724,221.382 125.242 C 221.382 125.147,220.621 123.864,219.692 122.390 C 218.762 120.915,217.628 119.055,217.171 118.255 C 216.715 117.455,216.251 116.735,216.142 116.655 C 216.032 116.575,215.889 116.368,215.825 116.195 C 215.355 114.925,213.300 112.009,212.873 112.005 C 212.400 112.000,212.363 112.578,212.359 120.073 C 212.357 124.513,212.240 128.326,212.101 128.546 C 211.327 129.768,211.200 128.317,211.200 118.237 C 211.200 106.139,211.213 106.097,213.722 110.260 M180.003 109.006 C 180.365 109.075,180.889 109.073,181.167 109.000 C 181.445 108.927,181.149 108.870,180.509 108.873 C 179.869 108.877,179.642 108.936,180.003 109.006 M197.157 109.080 C 193.066 109.873,193.225 117.630,197.330 117.497 L 198.255 117.468 197.241 117.229 C 192.928 116.215,193.734 110.022,198.284 109.213 C 199.480 109.000,199.879 108.858,199.273 108.861 C 198.713 108.864,197.761 108.963,197.157 109.080 M176.955 109.891 C 174.440 112.139,175.701 117.595,178.713 117.497 L 179.636 117.468 178.654 117.236 C 175.152 116.409,174.975 110.409,178.424 109.410 C 179.280 109.162,179.292 109.142,178.598 109.117 C 178.165 109.102,177.474 109.427,176.955 109.891 M174.006 113.320 C 173.899 117.006,176.167 118.997,180.711 119.208 C 185.257 119.418,186.365 120.332,186.123 123.672 C 185.926 126.396,184.526 127.423,181.028 127.412 C 178.435 127.403,176.821 126.696,176.315 125.346 C 175.532 123.257,175.418 123.055,175.024 123.055 C 173.850 123.055,173.803 124.977,174.935 126.714 C 177.418 130.523,185.553 130.096,187.531 126.052 C 189.194 122.653,186.969 117.511,183.855 117.557 C 183.263 117.566,183.342 117.647,184.278 117.990 C 188.402 119.500,189.069 125.678,185.362 128.029 C 181.638 130.391,175.513 128.685,174.524 125.011 C 173.992 123.034,175.097 122.776,175.725 124.731 C 176.455 127.007,177.735 127.709,181.155 127.709 C 185.066 127.709,186.473 126.544,186.473 123.303 C 186.473 119.911,184.783 118.691,180.085 118.691 C 176.379 118.691,174.662 117.154,174.234 113.455 L 174.049 111.855 174.006 113.320 M148.540 139.224 C 148.182 140.157,148.343 158.409,148.713 158.778 C 149.316 159.381,249.993 159.274,250.597 158.670 C 251.067 158.201,251.311 141.058,250.871 139.418 L 250.696 138.764 199.706 138.764 C 153.479 138.764,148.700 138.807,148.540 139.224 M250.404 148.873 L 250.327 158.691 199.885 158.764 C 162.845 158.818,149.339 158.751,149.049 158.511 C 148.629 158.162,148.436 139.661,148.848 139.248 C 148.955 139.142,171.866 139.055,199.761 139.055 L 250.480 139.055 250.404 148.873 M154.942 144.736 C 154.373 145.305,155.373 147.502,156.610 148.399 C 156.898 148.608,156.392 149.656,155.586 150.521 C 154.944 151.211,154.628 152.245,154.869 152.872 C 155.168 153.652,156.049 153.345,157.153 152.077 L 158.233 150.836 159.345 152.112 C 161.425 154.499,162.635 152.999,160.727 150.400 C 160.167 149.637,159.709 148.933,159.709 148.834 C 159.709 148.736,160.167 148.018,160.727 147.239 C 162.580 144.660,161.440 143.070,159.420 145.415 C 158.480 146.507,157.675 146.960,157.671 146.400 C 157.665 145.364,155.583 144.095,154.942 144.736 M164.131 144.640 C 163.593 145.178,163.700 145.554,164.800 146.995 C 166.070 148.659,166.071 149.128,164.803 150.723 C 163.698 152.112,163.525 152.857,164.242 153.133 C 165.007 153.426,165.148 153.356,166.375 152.073 L 167.557 150.836 168.701 152.145 C 169.670 153.255,169.925 153.406,170.376 153.134 C 171.215 152.629,171.167 151.714,170.247 150.647 C 168.921 149.109,168.917 148.825,170.192 147.005 C 171.278 145.454,171.318 145.325,170.865 144.824 C 170.152 144.036,169.759 144.159,168.610 145.527 L 167.571 146.764 166.382 145.527 C 165.135 144.231,164.708 144.063,164.131 144.640 M173.440 144.640 C 172.887 145.193,173.020 145.688,174.109 147.114 C 175.371 148.767,175.371 149.068,174.106 150.659 C 173.010 152.038,172.900 152.420,173.440 152.960 C 174.072 153.592,174.786 153.326,175.617 152.152 C 176.626 150.727,176.904 150.708,177.781 152.007 C 178.800 153.517,180.364 153.755,180.364 152.400 C 180.364 151.856,179.036 149.794,178.545 149.576 C 178.069 149.364,178.383 148.446,179.348 147.232 C 180.380 145.934,180.554 145.333,180.105 144.623 C 179.729 144.030,178.731 144.473,177.856 145.620 C 177.160 146.533,176.291 146.956,176.291 146.382 C 176.291 145.398,174.051 144.029,173.440 144.640 M187.113 144.640 C 186.556 145.197,186.695 145.719,187.803 147.229 C 188.944 148.783,188.941 149.215,187.779 150.467 C 186.699 151.631,186.511 152.899,187.378 153.174 C 187.937 153.351,188.245 153.171,189.175 152.124 L 190.297 150.860 191.428 152.084 C 192.652 153.411,193.596 153.655,193.892 152.723 C 194.082 152.125,193.273 150.513,192.433 149.815 C 191.772 149.267,191.905 148.640,193.018 147.075 C 194.772 144.609,193.644 143.171,191.714 145.412 C 190.433 146.899,190.289 146.902,189.126 145.455 C 188.149 144.239,187.697 144.056,187.113 144.640 M196.422 144.640 C 195.867 145.195,196.003 145.725,197.091 147.239 C 198.336 148.971,198.336 148.869,197.094 150.432 C 196.006 151.800,195.789 152.847,196.533 153.133 C 197.412 153.470,197.666 153.315,198.974 151.653 L 199.592 150.867 200.729 152.112 C 202.765 154.339,204.123 153.151,202.355 150.690 C 201.109 148.956,201.123 148.463,202.465 146.909 C 203.434 145.787,203.565 145.126,202.923 144.593 C 202.297 144.074,201.419 144.481,200.718 145.615 C 199.923 146.902,199.578 146.877,198.435 145.455 C 197.458 144.239,197.006 144.056,196.422 144.640 M210.691 144.484 C 210.186 144.687,210.235 146.179,210.760 146.615 C 210.998 146.813,211.464 147.413,211.795 147.949 L 212.398 148.924 211.258 150.467 C 209.327 153.081,210.700 154.531,212.780 152.073 L 213.826 150.836 214.928 152.105 C 216.909 154.387,218.398 153.180,216.633 150.723 C 215.339 148.922,215.326 148.686,216.436 147.154 C 217.487 145.704,217.571 144.704,216.667 144.417 C 216.060 144.225,214.400 145.668,214.400 146.389 C 214.400 147.036,213.281 146.463,212.563 145.448 C 211.772 144.330,211.464 144.171,210.691 144.484 M219.830 144.485 C 219.375 144.941,219.706 146.083,220.655 147.326 C 221.892 148.946,221.893 148.712,220.634 150.429 C 218.754 152.989,219.971 154.459,222.022 152.105 L 223.127 150.836 224.218 152.077 C 225.299 153.307,226.100 153.621,226.501 152.973 C 226.630 152.764,226.580 152.716,226.370 152.847 C 225.803 153.197,225.054 152.780,224.326 151.710 C 223.432 150.393,222.854 150.424,221.801 151.848 C 220.875 153.100,219.927 153.399,219.927 152.439 C 219.927 152.120,220.385 151.259,220.945 150.526 C 221.505 149.792,221.964 149.056,221.964 148.889 C 221.964 148.723,221.505 147.963,220.945 147.200 C 219.915 145.796,219.694 145.051,220.212 144.731 C 220.642 144.465,221.458 145.018,222.109 146.016 C 222.883 147.202,223.366 147.147,224.582 145.736 C 226.339 143.697,227.077 144.719,225.469 146.965 C 224.234 148.690,224.195 149.142,225.188 150.255 C 225.473 150.575,225.911 151.229,226.161 151.709 C 226.410 152.189,226.615 152.398,226.616 152.173 C 226.617 151.948,226.289 151.332,225.887 150.805 C 224.571 149.080,224.536 148.647,225.608 147.327 C 226.916 145.716,227.049 144.762,226.003 144.489 C 225.422 144.337,223.709 145.759,223.709 146.392 C 223.709 146.946,222.908 146.524,221.931 145.455 C 220.924 144.353,220.266 144.049,219.830 144.485 M229.004 144.640 C 228.466 145.178,228.572 145.554,229.673 146.995 C 230.942 148.658,230.939 148.890,229.622 150.723 C 227.854 153.184,229.362 154.399,231.340 152.107 L 232.436 150.836 233.533 152.107 C 235.481 154.365,237.086 153.159,235.257 150.812 C 233.926 149.103,233.922 148.727,235.218 146.923 C 237.006 144.434,235.566 143.230,233.548 145.527 L 232.461 146.764 231.297 145.527 C 230.085 144.241,229.593 144.051,229.004 144.640 M238.618 144.484 C 237.979 144.742,238.226 145.781,239.273 147.239 C 239.833 148.018,240.291 148.736,240.291 148.834 C 240.291 148.933,239.833 149.637,239.273 150.400 C 238.168 151.905,237.981 152.851,238.732 153.139 C 239.487 153.429,240.094 153.095,240.803 151.999 C 241.632 150.715,241.784 150.725,242.909 152.145 C 243.852 153.335,244.831 153.656,245.131 152.872 C 245.372 152.245,245.056 151.211,244.414 150.521 C 243.126 149.139,243.093 148.739,244.159 147.411 C 245.591 145.628,245.676 144.291,244.358 144.291 C 244.055 144.291,242.331 146.084,242.329 146.400 C 242.325 146.979,241.456 146.499,240.617 145.455 C 239.712 144.329,239.390 144.172,238.618 144.484 M156.835 145.745 C 157.983 147.174,158.558 147.207,159.453 145.895 C 160.174 144.840,160.739 144.465,161.190 144.743 C 161.688 145.051,161.454 145.813,160.436 147.200 C 159.876 147.963,159.418 148.723,159.418 148.889 C 159.418 149.056,159.876 149.792,160.436 150.526 C 162.314 152.985,161.299 154.028,159.286 151.708 L 158.068 150.304 157.094 151.661 C 156.054 153.110,155.055 153.473,155.055 152.403 C 155.055 152.064,155.513 151.163,156.073 150.400 C 157.310 148.715,157.307 148.876,156.118 147.394 C 154.938 145.924,154.706 145.338,155.135 144.908 C 155.641 144.403,155.831 144.497,156.835 145.745 M166.144 145.745 C 167.285 147.165,167.554 147.182,168.672 145.909 C 170.510 143.816,171.472 144.853,169.765 147.088 C 168.414 148.858,168.397 148.721,170.287 151.379 C 171.527 153.126,170.133 153.560,168.762 151.855 C 168.248 151.215,167.659 150.691,167.453 150.691 C 167.247 150.691,166.658 151.215,166.144 151.855 C 164.552 153.835,163.436 153.186,164.908 151.135 C 166.479 148.948,166.501 148.656,165.213 147.032 C 164.016 145.520,163.842 145.014,164.436 144.774 C 165.093 144.510,165.200 144.570,166.144 145.745 M175.418 145.745 C 176.224 146.763,177.455 147.330,177.455 146.683 C 177.455 146.137,179.189 144.596,179.618 144.760 C 180.318 145.029,180.166 145.685,179.055 147.200 C 178.495 147.963,178.036 148.752,178.036 148.954 C 178.036 149.157,178.495 149.881,179.055 150.564 C 180.872 152.782,179.924 154.059,178.065 151.898 C 176.864 150.503,176.534 150.423,175.908 151.377 C 175.232 152.410,174.553 153.018,174.079 153.018 C 173.229 153.018,173.342 152.132,174.371 150.730 C 175.667 148.965,175.670 148.658,174.400 146.995 C 173.393 145.677,173.199 145.153,173.576 144.776 C 174.000 144.351,174.538 144.635,175.418 145.745 M189.021 145.734 C 190.024 147.185,190.762 147.228,191.674 145.889 C 192.137 145.208,192.594 144.873,193.056 144.873 C 193.991 144.873,193.926 145.277,192.727 146.909 C 191.451 148.648,191.455 149.106,192.761 150.782 C 193.799 152.114,193.917 153.018,193.052 153.018 C 192.820 153.018,192.216 152.495,191.709 151.855 C 190.555 150.397,190.351 150.401,189.063 151.898 C 187.218 154.043,186.295 152.892,188.070 150.659 C 189.335 149.068,189.335 148.767,188.073 147.114 C 187.081 145.814,186.854 145.171,187.248 144.776 C 187.690 144.334,188.269 144.647,189.021 145.734 M198.290 145.745 C 199.629 147.193,199.742 147.190,201.045 145.678 C 201.972 144.601,202.165 144.496,202.580 144.841 C 203.225 145.376,203.201 145.470,202.036 146.995 C 200.761 148.666,200.764 149.106,202.070 150.782 C 203.086 152.086,203.229 153.024,202.409 153.014 C 201.879 153.007,201.565 152.734,200.601 151.442 L 199.751 150.303 198.533 151.707 C 196.526 154.020,195.512 153.015,197.382 150.565 C 197.942 149.832,198.400 149.084,198.400 148.905 C 198.400 148.725,197.942 147.941,197.382 147.161 C 196.382 145.770,196.172 145.161,196.558 144.776 C 196.918 144.415,197.210 144.578,198.290 145.745 M211.927 145.059 C 212.189 145.321,212.606 145.845,212.853 146.223 C 213.498 147.206,214.094 147.077,215.284 145.695 C 217.082 143.607,217.750 145.034,216.003 147.232 C 214.757 148.799,214.757 148.709,216.000 150.439 C 217.835 152.992,217.062 154.004,215.036 151.701 L 213.877 150.385 212.714 151.744 C 210.751 154.041,209.784 152.912,211.636 150.486 C 212.196 149.753,212.655 149.033,212.655 148.886 C 212.655 148.740,212.196 148.020,211.636 147.286 C 210.173 145.369,210.410 143.543,211.927 145.059 M231.017 145.745 C 232.165 147.174,232.816 147.212,233.670 145.897 C 234.353 144.846,234.918 144.463,235.372 144.743 C 235.894 145.066,235.619 145.976,234.621 147.232 C 233.368 148.808,233.368 148.849,234.618 150.486 C 236.433 152.863,235.541 154.004,233.575 151.821 L 232.426 150.545 231.272 151.815 C 229.290 153.993,228.462 152.841,230.255 150.400 C 230.815 149.637,231.273 148.924,231.273 148.816 C 231.273 148.708,230.815 148.020,230.255 147.286 C 229.280 146.010,229.012 145.194,229.430 144.776 C 229.797 144.409,230.084 144.584,231.017 145.745 M239.854 145.059 C 240.116 145.321,240.533 145.845,240.781 146.223 C 241.427 147.209,242.022 147.076,243.226 145.678 C 244.122 144.638,244.356 144.504,244.731 144.816 C 245.325 145.308,245.117 145.948,243.912 147.342 C 242.682 148.766,242.681 148.703,243.927 150.400 C 244.487 151.163,244.945 152.064,244.945 152.403 C 244.945 153.425,243.941 153.133,243.055 151.855 C 242.044 150.397,241.842 150.400,240.554 151.898 C 238.674 154.083,237.785 152.815,239.564 150.486 C 240.124 149.753,240.582 149.025,240.582 148.870 C 240.582 148.714,240.124 147.963,239.564 147.200 C 238.573 145.850,238.343 145.173,238.739 144.776 C 239.045 144.470,239.340 144.545,239.854 145.059 M182.036 147.805 C 181.359 148.200,181.389 149.142,182.090 149.517 C 183.326 150.178,185.600 149.635,185.600 148.679 C 185.600 147.728,183.186 147.136,182.036 147.805 M205.309 147.805 C 204.632 148.200,204.661 149.142,205.363 149.517 C 207.071 150.431,209.526 149.277,208.436 148.073 C 207.860 147.436,206.188 147.293,205.309 147.805 M185.105 148.256 C 185.594 148.746,184.662 149.527,183.589 149.527 C 182.454 149.527,181.611 148.934,181.956 148.376 C 182.157 148.051,184.799 147.950,185.105 148.256 M208.145 148.800 C 208.145 149.272,207.926 149.396,206.982 149.458 C 205.607 149.547,204.933 149.195,205.191 148.522 C 205.486 147.754,208.145 148.004,208.145 148.800 M148.530 160.748 C 147.990 161.288,147.985 161.479,148.459 163.200 C 149.219 165.956,151.114 168.197,153.731 169.435 L 155.309 170.182 199.473 170.178 C 248.918 170.173,244.973 170.350,247.712 168.010 C 250.036 166.025,251.735 161.898,250.728 160.685 C 250.194 160.041,149.174 160.104,148.530 160.748 M250.436 160.975 C 251.733 162.536,248.724 167.525,245.539 169.095 L 244.218 169.745 200.436 169.834 C 167.245 169.901,156.291 169.839,155.151 169.575 C 151.444 168.718,147.889 164.033,148.791 161.192 L 148.985 160.582 199.548 160.582 C 241.638 160.582,250.165 160.648,250.436 160.975 " stroke="none" fill="#000000" fill-rule="evenodd"></path><path id="path3" d="M155.200 98.732 C 152.194 99.689,148.981 102.779,148.967 104.727 C 148.965 104.967,149.276 104.527,149.657 103.749 C 150.944 101.121,152.917 99.604,155.927 98.927 C 157.865 98.491,241.507 98.511,243.543 98.947 C 244.940 99.247,246.934 100.259,247.713 101.064 C 248.613 101.993,249.593 103.568,249.993 104.727 C 250.256 105.488,250.451 105.777,250.459 105.417 C 250.501 103.529,247.892 100.264,245.463 99.167 L 243.927 98.473 200.145 98.417 C 165.374 98.373,156.124 98.438,155.200 98.732 M148.796 121.018 L 148.800 136.873 199.631 136.946 L 250.461 137.020 250.620 136.364 C 250.708 136.004,250.742 129.098,250.696 121.018 L 250.613 106.327 250.543 121.382 L 250.473 136.436 199.712 136.436 L 148.951 136.436 148.871 120.800 L 148.792 105.164 148.796 121.018 M177.018 107.538 C 175.251 108.469,173.948 110.182,173.976 111.536 C 173.985 111.924,174.135 111.736,174.391 111.018 C 176.382 105.432,187.540 106.163,187.978 111.908 C 188.057 112.949,187.760 113.455,187.069 113.455 C 186.512 113.455,186.182 112.912,186.182 111.997 C 186.182 111.185,184.343 109.380,183.529 109.393 C 182.926 109.403,182.965 109.460,183.826 109.834 C 184.990 110.339,185.501 110.949,185.764 112.145 C 186.139 113.854,187.158 114.465,188.028 113.504 C 189.128 112.288,187.983 109.497,185.769 108.000 C 184.102 106.873,178.809 106.594,177.018 107.538 M195.723 107.451 C 189.156 110.366,191.909 119.532,199.360 119.555 C 203.154 119.568,204.509 120.558,204.509 123.317 C 204.509 126.152,203.473 126.884,199.496 126.861 C 196.091 126.841,195.799 126.683,194.949 124.396 C 194.367 122.831,193.568 122.357,192.711 123.068 C 191.297 124.241,194.054 129.164,196.126 129.164 C 196.319 129.164,195.885 128.788,195.161 128.329 C 193.043 126.986,191.938 124.031,193.253 123.230 C 193.881 122.848,194.618 123.629,194.618 124.676 C 194.618 125.701,196.257 127.076,197.746 127.299 C 202.158 127.961,204.491 126.778,204.742 123.753 C 205.005 120.574,203.576 119.274,199.811 119.271 C 193.924 119.267,190.926 115.226,193.207 110.372 C 194.976 106.608,202.917 106.012,205.470 109.452 C 206.601 110.975,206.927 112.255,206.392 113.072 C 205.857 113.887,204.800 113.546,204.800 112.557 C 204.800 111.226,203.273 109.372,202.190 109.389 C 201.945 109.392,202.209 109.664,202.775 109.993 C 203.781 110.576,204.270 111.350,204.625 112.926 C 204.844 113.897,205.847 114.278,206.490 113.634 C 207.654 112.471,206.438 109.362,204.253 107.914 C 202.810 106.959,197.484 106.669,195.723 107.451 M210.967 107.404 C 210.573 107.798,210.446 128.732,210.836 128.973 C 210.956 129.048,211.022 124.375,210.982 118.591 C 210.940 112.439,211.023 107.897,211.182 107.650 C 211.514 107.131,212.798 107.696,213.050 108.472 C 213.135 108.733,214.194 110.516,215.404 112.436 C 216.614 114.356,217.692 116.115,217.799 116.344 C 218.101 116.989,221.909 123.154,222.258 123.564 C 223.036 124.475,223.127 123.678,223.127 115.963 C 223.127 107.516,223.262 106.662,224.440 107.639 C 224.820 107.955,224.870 109.425,224.804 118.511 L 224.727 129.018 224.041 129.018 C 223.335 129.018,221.648 126.475,215.501 116.148 C 212.559 111.204,212.664 111.013,212.659 121.337 C 212.655 128.765,212.653 128.785,212.000 129.118 C 211.428 129.410,211.418 129.443,211.920 129.378 C 213.079 129.228,213.226 128.241,213.255 120.436 C 213.270 116.356,213.359 113.215,213.452 113.455 C 213.545 113.695,214.296 114.938,215.120 116.218 C 215.944 117.498,217.188 119.527,217.884 120.727 C 218.581 121.927,219.228 122.975,219.323 123.055 C 219.419 123.135,219.739 123.658,220.035 124.218 C 221.345 126.696,223.297 129.313,223.899 129.398 C 225.364 129.607,225.455 128.971,225.455 118.500 C 225.455 108.793,225.335 107.505,224.401 107.146 C 223.079 106.639,222.991 107.094,222.836 115.207 C 222.727 120.966,222.601 122.891,222.327 122.982 C 222.127 123.049,221.964 122.969,221.964 122.804 C 221.964 122.640,221.252 121.352,220.382 119.944 C 219.512 118.535,218.170 116.347,217.400 115.082 C 216.630 113.817,215.703 112.311,215.341 111.736 C 214.978 111.161,214.603 110.462,214.507 110.182 C 214.411 109.902,214.217 109.673,214.075 109.673 C 213.934 109.673,213.818 109.521,213.818 109.337 C 213.818 108.054,211.732 106.639,210.967 107.404 M180.000 109.301 C 180.520 109.366,181.371 109.366,181.891 109.301 C 182.411 109.237,181.985 109.184,180.945 109.184 C 179.905 109.184,179.480 109.237,180.000 109.301 M198.914 109.302 C 199.437 109.366,200.223 109.365,200.660 109.299 C 201.097 109.232,200.669 109.179,199.709 109.181 C 198.749 109.183,198.391 109.237,198.914 109.302 M176.989 110.371 C 176.055 111.305,176.003 111.463,176.054 113.207 L 176.108 115.055 176.205 113.455 C 176.328 111.423,176.740 110.632,178.026 109.951 C 178.715 109.587,178.877 109.403,178.516 109.395 C 178.220 109.388,177.533 109.827,176.989 110.371 M195.607 110.371 C 195.063 110.915,194.624 111.602,194.631 111.898 C 194.639 112.248,194.846 112.053,195.221 111.343 C 195.562 110.697,196.182 110.082,196.736 109.839 C 197.362 109.565,197.494 109.421,197.135 109.406 C 196.839 109.392,196.151 109.827,195.607 110.371 M173.740 113.164 C 173.740 113.724,173.800 113.953,173.873 113.673 C 173.946 113.393,173.946 112.935,173.873 112.655 C 173.800 112.375,173.740 112.604,173.740 113.164 M194.662 114.395 C 194.553 116.387,196.740 117.508,200.759 117.520 C 204.777 117.533,207.152 120.158,206.682 124.067 C 206.240 127.737,204.306 129.152,199.679 129.189 C 197.271 129.208,196.719 129.278,197.382 129.483 C 199.835 130.241,204.162 129.273,205.527 127.661 C 209.150 123.383,206.456 117.236,200.957 117.236 C 197.134 117.236,195.124 116.288,194.821 114.342 L 194.705 113.600 194.662 114.395 M173.964 115.267 C 173.964 117.722,177.031 119.564,181.120 119.564 C 184.552 119.564,185.506 120.193,185.790 122.646 C 186.166 125.900,185.095 126.824,180.891 126.870 C 177.581 126.907,177.699 127.363,181.028 127.398 C 184.513 127.434,185.926 126.401,186.123 123.672 C 186.365 120.332,185.257 119.418,180.711 119.208 C 177.165 119.043,175.750 118.317,174.618 116.080 C 174.258 115.368,173.964 115.002,173.964 115.267 M176.291 115.386 C 176.291 116.632,178.718 117.505,182.255 117.530 C 187.004 117.564,189.618 121.787,187.531 126.052 C 185.137 130.946,175.520 130.251,174.216 125.091 C 174.051 124.437,174.029 124.460,173.998 125.323 C 173.908 127.829,177.676 129.867,181.964 129.632 C 190.761 129.148,190.982 117.236,182.194 117.236 C 179.419 117.236,178.186 116.907,177.113 115.879 C 176.661 115.445,176.291 115.224,176.291 115.386 M174.158 122.958 C 173.766 123.349,173.978 123.696,174.396 123.349 C 175.071 122.788,175.649 123.207,176.000 124.509 C 176.177 125.166,176.587 125.969,176.912 126.294 C 177.790 127.172,177.898 126.740,177.034 125.808 C 176.625 125.367,176.291 124.659,176.291 124.234 C 176.291 123.052,174.897 122.218,174.158 122.958 M148.791 161.192 C 147.889 164.033,151.444 168.718,155.151 169.575 C 156.291 169.839,167.245 169.901,200.436 169.834 L 244.218 169.745 245.539 169.095 C 248.005 167.879,250.505 164.698,250.455 162.840 C 250.444 162.447,250.244 162.769,249.959 163.636 C 249.697 164.436,249.378 165.135,249.250 165.188 C 249.123 165.241,249.018 165.459,249.018 165.672 C 249.018 166.185,246.668 168.237,245.302 168.916 C 243.844 169.641,156.383 169.769,154.343 169.050 C 151.849 168.169,148.945 164.393,148.945 162.028 L 148.945 161.164 199.549 161.164 C 247.436 161.164,250.169 161.191,250.449 161.673 C 250.694 162.092,250.748 162.102,250.755 161.731 C 250.778 160.554,252.019 160.582,199.525 160.582 L 148.985 160.582 148.791 161.192 " stroke="none" fill="#000000" fill-rule="evenodd"></path><path id="path4" d="M155.782 98.945 C 152.869 99.617,150.623 101.443,149.507 104.047 C 148.976 105.287,148.945 106.191,148.945 120.897 L 148.945 136.436 199.719 136.436 L 250.492 136.436 250.410 120.800 C 250.328 105.215,250.325 105.159,249.669 103.855 C 248.346 101.226,246.219 99.521,243.543 98.947 C 241.619 98.535,157.571 98.532,155.782 98.945 M185.769 108.000 C 187.983 109.497,189.128 112.288,188.028 113.504 C 187.294 114.315,185.891 113.757,185.891 112.653 C 185.891 110.686,183.911 109.382,180.925 109.382 C 177.702 109.382,176.307 110.571,176.297 113.327 C 176.287 116.220,177.819 117.236,182.194 117.236 C 190.982 117.236,190.761 129.148,181.964 129.632 C 177.096 129.899,173.852 127.836,174.022 124.581 C 174.142 122.283,176.291 121.923,176.291 124.201 C 176.291 124.657,176.646 125.384,177.139 125.935 L 177.986 126.885 180.939 126.861 C 185.088 126.827,186.165 125.891,185.790 122.646 C 185.506 120.193,184.552 119.564,181.120 119.564 C 176.054 119.564,173.925 117.772,173.859 113.455 C 173.788 108.782,175.719 107.086,181.131 107.066 C 184.314 107.055,184.395 107.071,185.769 108.000 M204.253 107.914 C 206.438 109.362,207.654 112.471,206.490 113.634 C 205.847 114.278,204.844 113.897,204.625 112.926 C 204.040 110.334,202.738 109.382,199.778 109.382 C 196.213 109.382,194.353 111.049,194.775 113.866 C 195.143 116.322,196.820 117.236,200.957 117.236 C 205.621 117.236,208.652 122.077,206.537 126.149 C 203.578 131.849,192.291 130.374,192.291 124.287 C 192.291 122.170,194.149 122.247,194.949 124.396 C 195.799 126.683,196.091 126.841,199.496 126.861 C 203.473 126.884,204.509 126.152,204.509 123.317 C 204.509 120.558,203.154 119.568,199.360 119.555 C 192.771 119.534,189.596 112.786,194.168 108.518 C 196.083 106.729,201.935 106.379,204.253 107.914 M213.076 108.027 C 213.484 108.563,213.818 109.152,213.818 109.337 C 213.818 109.521,213.934 109.673,214.075 109.673 C 214.217 109.673,214.411 109.902,214.507 110.182 C 214.603 110.462,214.978 111.161,215.341 111.736 C 215.703 112.311,216.630 113.817,217.400 115.082 C 218.170 116.347,219.512 118.535,220.382 119.944 C 221.252 121.352,221.964 122.640,221.964 122.804 C 221.964 122.969,222.127 123.049,222.327 122.982 C 222.601 122.891,222.727 120.966,222.836 115.207 C 222.991 107.094,223.079 106.639,224.401 107.146 C 225.335 107.505,225.455 108.793,225.455 118.500 C 225.455 131.685,224.510 132.681,220.035 124.218 C 219.739 123.658,219.419 123.135,219.323 123.055 C 219.228 122.975,218.581 121.927,217.884 120.727 C 217.188 119.527,215.923 117.467,215.073 116.148 C 214.223 114.830,213.500 113.586,213.466 113.384 C 213.432 113.183,213.334 116.516,213.248 120.790 C 213.073 129.428,212.956 129.950,211.356 129.221 L 210.618 128.885 210.618 118.319 C 210.618 110.489,210.709 107.662,210.967 107.404 C 211.570 106.801,212.307 107.019,213.076 108.027 M148.945 162.028 C 148.945 164.393,151.849 168.169,154.343 169.050 C 156.383 169.769,243.844 169.641,245.302 168.916 C 246.697 168.222,249.018 166.181,249.018 165.648 C 249.018 165.422,249.120 165.236,249.245 165.236 C 249.564 165.236,250.546 161.808,250.327 161.455 C 250.208 161.262,232.985 161.164,199.546 161.164 L 148.945 161.164 148.945 162.028 " stroke="none" fill="#fcfcfc" fill-rule="evenodd"></path></g></svg>