<svg id="svg" version="1.1" xmlns="http://www.w3.org/2000/svg" xmlns:xlink="http://www.w3.org/1999/xlink" width="400" height="403.1065088757396" viewBox="0, 0, 400,403.1065088757396"><g id="svgg"><path id="path0" d="M81.982 0.113 C 79.348 0.381,77.300 1.671,77.085 3.198 C 77.029 3.594,76.962 3.616,75.511 3.708 C 74.027 3.802,73.360 4.022,71.735 4.952 C 70.023 5.931,68.490 8.418,67.850 11.256 C 66.881 15.547,67.750 25.477,69.238 27.123 C 69.318 27.211,69.383 27.419,69.383 27.586 C 69.383 28.048,70.975 30.734,71.727 31.541 C 72.730 32.617,74.135 32.581,74.732 31.465 C 75.013 30.939,74.991 30.649,74.689 30.899 C 74.102 31.386,73.285 29.629,73.588 28.532 C 73.918 27.336,74.705 26.688,76.102 26.459 C 77.482 26.234,78.872 25.051,79.307 23.734 C 79.512 23.113,79.436 19.943,79.198 19.168 C 79.078 18.779,79.098 18.768,79.730 18.866 C 84.508 19.611,92.687 19.380,97.522 18.365 C 98.631 18.132,99.727 17.924,99.958 17.902 C 101.316 17.772,104.516 15.223,105.327 13.625 C 105.849 12.597,105.502 11.256,104.714 11.256 C 104.532 11.256,104.522 11.181,104.667 10.910 C 105.140 10.026,104.209 8.797,103.192 8.962 C 102.688 9.044,102.646 9.015,102.646 8.595 C 102.646 7.676,102.250 7.392,100.969 7.392 C 99.665 7.392,99.118 6.987,99.118 6.020 C 99.118 3.910,95.828 1.290,91.870 0.249 C 90.984 0.016,83.899 -0.081,81.982 0.113 M91.726 25.955 C 91.726 26.168,92.118 26.207,94.246 26.207 C 96.374 26.207,96.766 26.168,96.766 25.955 C 96.766 25.743,96.374 25.703,94.246 25.703 C 92.118 25.703,91.726 25.743,91.726 25.955 M82.990 26.123 C 82.990 26.336,83.373 26.375,85.426 26.375 C 87.480 26.375,87.862 26.336,87.862 26.123 C 87.862 25.911,87.480 25.871,85.426 25.871 C 83.373 25.871,82.990 25.911,82.990 26.123 M86.553 26.164 C 85.879 26.196,84.821 26.196,84.201 26.164 C 83.581 26.132,84.133 26.106,85.426 26.106 C 86.720 26.106,87.227 26.132,86.553 26.164 M77.248 40.881 C 76.965 41.096,75.598 44.464,75.598 44.946 C 75.598 45.855,74.496 47.207,73.755 47.207 C 72.819 47.207,67.334 49.881,66.698 50.646 C 66.581 50.788,66.391 50.903,66.275 50.903 C 65.776 50.903,60.647 56.336,60.647 56.864 C 60.647 56.989,60.590 57.116,60.521 57.147 C 60.338 57.228,59.471 58.592,59.471 58.798 C 59.471 58.894,59.248 59.368,58.975 59.851 C 58.494 60.705,57.739 62.794,57.232 64.679 C 56.927 65.812,56.548 70.319,56.684 71.186 C 56.739 71.534,56.858 73.709,56.949 76.018 C 57.039 78.328,57.345 83.620,57.628 87.778 C 58.376 98.781,58.370 100.696,57.577 103.957 C 57.232 105.371,56.950 106.731,56.950 106.981 C 56.949 107.230,56.723 108.597,56.447 110.018 C 56.171 111.440,55.868 113.405,55.775 114.386 C 55.682 115.367,55.531 116.812,55.439 117.598 C 55.227 119.422,55.237 121.337,55.462 122.302 C 55.993 124.570,55.855 125.020,54.101 126.748 C 53.140 127.694,53.011 128.276,53.633 128.858 C 54.122 129.315,54.117 131.200,53.622 133.021 L 53.288 134.249 54.322 134.733 C 54.890 134.999,55.714 135.354,56.152 135.521 C 57.075 135.873,57.121 135.981,56.488 136.308 C 55.425 136.857,55.538 135.087,55.022 159.380 L 54.551 181.591 55.161 192.056 C 56.515 215.294,56.607 218.447,55.969 219.689 C 55.884 219.855,55.488 220.672,55.090 221.504 C 54.693 222.335,54.215 223.318,54.030 223.688 C 53.355 225.032,53.263 225.222,52.645 226.543 C 52.299 227.283,51.827 228.265,51.595 228.727 C 49.918 232.071,49.581 232.943,48.963 235.531 C 48.256 238.492,48.131 238.722,46.037 240.935 C 44.164 242.915,43.530 244.213,44.292 244.505 C 44.537 244.599,44.558 244.880,44.476 246.942 C 44.383 249.299,44.449 249.643,44.994 249.643 C 45.381 249.643,54.312 254.520,54.711 254.950 C 55.034 255.298,55.891 255.665,56.000 255.501 C 56.518 254.718,56.951 253.995,56.951 253.911 C 56.951 253.852,57.197 253.454,57.497 253.025 C 57.797 252.597,58.118 252.124,58.211 251.974 C 58.654 251.256,59.850 249.615,60.123 249.351 C 60.291 249.188,60.504 248.916,60.595 248.746 C 60.687 248.576,61.001 248.160,61.294 247.822 C 61.587 247.484,62.514 246.375,63.354 245.359 C 64.195 244.343,65.020 243.360,65.188 243.175 C 65.737 242.571,66.656 241.513,67.449 240.571 C 67.877 240.063,68.402 239.448,68.616 239.205 C 69.888 237.756,74.255 231.730,74.255 231.422 C 74.255 231.355,74.425 231.065,74.633 230.779 C 75.322 229.830,76.403 227.773,78.843 222.764 C 79.316 221.793,79.849 220.796,80.027 220.547 C 80.331 220.123,80.361 219.610,80.494 212.567 C 80.672 203.157,81.569 176.249,81.710 176.109 C 81.767 176.051,81.814 176.241,81.814 176.529 C 81.814 176.817,82.079 178.151,82.402 179.493 C 82.726 180.834,82.990 182.086,82.990 182.274 C 82.990 182.463,83.187 183.429,83.427 184.421 C 83.668 185.413,84.005 186.980,84.178 187.904 C 84.350 188.828,84.647 190.227,84.838 191.012 C 85.028 191.798,85.264 192.894,85.363 193.448 C 85.461 194.003,85.799 195.571,86.114 196.934 C 86.429 198.296,86.686 199.564,86.686 199.752 C 86.686 199.939,86.942 201.168,87.255 202.482 C 87.569 203.797,87.875 205.250,87.937 205.712 C 87.998 206.174,88.113 206.779,88.191 207.056 C 88.440 207.930,89.178 211.351,89.534 213.272 C 89.882 215.154,90.392 241.662,90.385 257.513 L 90.382 262.779 91.264 262.660 C 91.749 262.594,94.475 262.514,97.321 262.481 C 102.199 262.424,102.524 262.401,102.975 262.080 C 103.238 261.892,103.487 261.739,103.527 261.739 C 103.623 261.739,106.062 260.262,106.972 259.652 C 107.831 259.077,107.835 259.026,107.126 257.585 C 106.819 256.959,106.374 256.028,106.138 255.516 L 105.708 254.586 106.102 251.484 C 106.319 249.779,106.496 248.043,106.496 247.627 C 106.497 247.211,106.762 244.565,107.087 241.747 C 107.412 238.929,107.830 235.206,108.018 233.473 C 108.390 230.029,108.747 226.756,109.616 218.816 C 110.585 209.970,110.604 209.627,110.390 204.916 C 110.001 196.398,109.860 194.403,109.452 191.684 C 109.223 190.160,108.865 187.719,108.657 186.261 L 108.277 183.610 106.295 181.137 C 97.504 170.169,91.688 157.495,89.278 144.057 C 89.030 142.671,88.667 141.159,88.473 140.697 C 88.159 139.951,88.124 139.573,88.158 137.316 C 88.202 134.375,88.143 134.023,87.136 131.205 C 86.723 130.050,85.841 127.556,85.175 125.661 C 84.510 123.767,83.627 121.273,83.213 120.118 C 82.798 118.963,82.281 117.488,82.064 116.842 C 81.846 116.195,81.330 114.721,80.918 113.566 C 80.505 112.411,79.623 109.916,78.958 108.022 C 78.294 106.128,77.411 103.633,76.997 102.478 C 76.582 101.323,76.066 99.849,75.849 99.202 C 75.632 98.555,74.958 96.636,74.351 94.938 C 73.221 91.777,73.117 91.208,73.354 89.480 L 73.461 88.698 74.404 88.430 C 74.922 88.283,75.989 87.950,76.774 87.691 C 77.560 87.432,79.223 86.903,80.470 86.516 C 81.718 86.128,83.254 85.638,83.884 85.428 L 85.029 85.045 85.166 85.403 C 85.241 85.601,85.584 86.669,85.929 87.778 C 86.274 88.887,86.804 90.588,87.106 91.558 C 87.409 92.528,87.889 94.305,88.174 95.506 C 88.809 98.181,90.129 103.821,90.494 105.418 C 90.901 107.196,90.949 107.187,91.540 105.218 C 94.730 94.586,100.709 83.841,108.250 75.188 L 109.413 73.853 109.320 71.576 C 109.269 70.323,109.174 69.166,109.110 69.004 C 109.016 68.766,109.170 68.630,109.893 68.309 C 110.971 67.830,115.796 65.547,119.026 63.987 C 119.672 63.674,120.277 63.419,120.370 63.419 C 120.462 63.419,120.613 63.363,120.706 63.294 C 120.798 63.226,122.260 62.246,123.956 61.118 L 127.038 59.067 126.930 58.392 C 126.870 58.021,126.761 57.677,126.686 57.628 C 126.611 57.579,126.352 56.632,126.110 55.523 C 124.713 49.125,123.949 45.325,123.883 44.435 C 123.704 42.037,123.891 42.166,121.434 42.743 C 120.479 42.967,119.055 43.241,118.270 43.352 C 117.484 43.463,115.395 43.808,113.626 44.120 C 111.857 44.432,110.118 44.690,109.762 44.694 C 109.405 44.698,108.282 44.928,107.266 45.206 C 106.249 45.484,105.115 45.779,104.746 45.862 C 103.969 46.036,101.965 46.828,101.730 47.054 C 101.643 47.138,101.429 47.207,101.255 47.207 C 101.081 47.207,100.501 47.463,99.967 47.777 C 99.432 48.090,98.815 48.403,98.595 48.473 C 98.374 48.542,97.959 48.778,97.673 48.996 L 97.151 49.393 96.516 48.888 C 96.166 48.610,95.824 48.383,95.757 48.383 C 95.689 48.383,95.580 48.024,95.515 47.585 C 95.311 46.206,95.257 46.001,94.919 45.294 C 94.000 43.366,93.244 42.516,91.908 41.904 C 90.892 41.439,88.257 41.073,87.921 41.350 C 87.736 41.502,83.128 41.194,80.134 40.829 C 78.381 40.616,77.577 40.630,77.248 40.881 M272.288 101.683 C 271.799 102.169,270.973 103.133,270.452 103.825 C 269.931 104.516,269.301 105.309,269.051 105.586 C 268.802 105.863,268.427 106.279,268.219 106.510 C 267.605 107.192,267.451 107.610,267.451 108.591 C 267.451 110.689,268.343 111.208,272.827 111.720 C 275.773 112.057,276.102 112.656,276.102 117.682 C 276.102 121.073,276.118 121.241,276.508 122.026 C 277.187 123.395,278.655 124.196,279.365 123.585 C 280.626 122.500,282.989 122.861,284.354 124.348 C 285.908 126.041,286.194 128.271,285.366 132.248 C 284.366 137.056,284.618 137.308,290.508 137.391 C 292.721 137.422,294.330 137.510,294.330 137.601 C 294.330 137.693,295.792 137.757,297.868 137.757 C 300.143 137.757,301.369 137.698,301.304 137.592 C 301.219 137.454,302.120 135.511,302.396 135.238 C 302.566 135.069,303.402 133.730,303.402 133.625 C 303.402 133.567,303.667 133.158,303.990 132.717 C 304.313 132.277,304.578 131.871,304.578 131.816 C 304.578 131.761,304.858 131.280,305.199 130.747 C 306.264 129.086,306.757 128.158,307.899 125.661 C 309.549 122.055,309.814 117.895,308.591 114.771 C 307.435 111.818,304.529 109.458,301.776 109.237 L 300.714 109.152 300.714 108.214 C 300.714 107.292,300.349 105.996,299.949 105.502 C 299.837 105.363,299.698 105.099,299.640 104.914 C 299.524 104.547,298.185 103.132,297.355 102.500 C 295.397 101.009,290.774 100.426,287.274 101.229 C 286.674 101.367,285.653 101.580,285.006 101.704 C 284.360 101.827,283.507 102.026,283.112 102.147 C 282.300 102.394,280.865 102.187,277.124 101.282 C 274.032 100.535,273.389 100.588,272.288 101.683 M219.320 104.460 C 218.233 105.154,217.724 106.240,217.724 107.858 C 217.724 108.797,217.703 108.841,217.111 109.190 C 216.436 109.588,216.488 109.730,217.418 110.027 C 218.240 110.289,219.851 111.357,220.574 112.120 C 221.684 113.289,226.067 114.314,227.471 113.732 C 229.156 113.034,229.046 110.680,227.209 108.105 L 226.456 107.051 227.266 106.532 C 229.325 105.210,229.176 104.840,226.715 105.165 L 225.137 105.374 223.824 104.822 C 222.132 104.111,220.119 103.949,219.320 104.460 M205.562 115.262 C 205.316 115.455,204.972 115.890,204.798 116.228 C 204.511 116.784,204.210 116.966,201.607 118.168 C 200.026 118.898,198.758 119.519,198.788 119.549 C 198.818 119.579,200.237 119.305,201.941 118.940 C 203.645 118.575,205.198 118.275,205.392 118.273 C 205.702 118.270,205.766 118.114,205.935 116.968 C 206.040 116.252,206.174 115.496,206.233 115.288 C 206.366 114.815,206.140 114.807,205.562 115.262 M170.129 121.042 C 163.741 122.798,161.591 130.711,166.239 135.359 C 170.521 139.640,177.781 138.424,180.360 132.993 C 183.492 126.397,177.235 119.088,170.129 121.042 M261.234 243.805 C 261.234 245.859,261.367 247.351,261.906 251.323 C 263.005 259.430,263.743 265.112,263.849 266.275 C 263.903 266.875,264.206 269.068,264.521 271.147 C 264.836 273.226,265.093 275.191,265.093 275.514 C 265.092 275.838,265.353 277.955,265.671 280.218 C 267.013 289.752,267.334 292.137,267.458 293.490 C 267.530 294.276,267.860 296.657,268.192 298.782 C 268.523 300.907,268.794 302.889,268.794 303.187 C 268.795 303.484,269.025 305.185,269.308 306.967 C 269.590 308.748,269.857 310.622,269.903 311.130 C 270.007 312.312,271.071 319.821,273.091 333.641 C 273.408 335.813,273.935 339.290,274.262 341.369 C 274.588 343.448,274.928 345.746,275.016 346.476 C 275.104 347.206,275.404 349.038,275.682 350.547 C 275.959 352.056,276.184 353.462,276.181 353.672 C 276.178 353.881,276.446 355.565,276.776 357.413 C 277.107 359.261,277.452 361.226,277.544 361.781 C 277.635 362.335,277.927 363.809,278.192 365.057 C 278.457 366.304,278.758 367.788,278.860 368.353 C 278.963 368.919,279.292 370.129,279.591 371.041 L 280.135 372.701 281.815 372.785 C 282.739 372.831,286.178 372.867,289.458 372.866 L 295.422 372.863 296.425 372.446 C 297.768 371.888,297.871 371.649,297.772 369.341 C 297.728 368.324,297.579 358.534,297.441 347.585 C 297.302 336.636,297.106 321.303,297.004 313.511 C 296.829 300.122,296.844 298.056,297.101 299.985 C 297.207 300.779,298.109 304.325,298.974 307.350 C 299.212 308.181,299.502 309.281,299.618 309.793 C 300.025 311.597,302.912 320.823,303.952 323.646 C 304.224 324.385,304.597 325.481,304.782 326.081 C 304.966 326.682,305.174 327.249,305.243 327.341 C 305.312 327.434,305.502 327.925,305.666 328.433 C 305.830 328.942,306.214 329.962,306.520 330.701 C 306.825 331.441,307.129 332.234,307.194 332.465 C 307.260 332.696,307.567 333.408,307.878 334.047 C 308.188 334.686,308.442 335.308,308.442 335.429 C 308.442 335.550,308.695 336.161,309.005 336.787 C 309.315 337.413,309.895 338.643,310.294 339.521 C 310.693 340.399,311.398 341.835,311.860 342.713 C 312.323 343.591,312.897 344.687,313.137 345.149 C 313.377 345.611,313.779 346.309,314.031 346.700 C 314.283 347.091,314.490 347.475,314.490 347.554 C 314.490 347.634,314.792 348.121,315.162 348.637 C 315.531 349.153,315.834 349.629,315.834 349.694 C 315.834 349.759,316.098 350.181,316.422 350.631 C 316.745 351.081,317.010 351.506,317.010 351.575 C 317.010 351.644,317.194 351.915,317.419 352.176 C 317.643 352.437,318.144 353.137,318.530 353.730 C 318.917 354.323,319.300 354.809,319.381 354.809 C 319.463 354.809,319.530 354.922,319.530 355.060 C 319.530 355.199,319.775 355.596,320.076 355.942 C 320.376 356.289,320.697 356.696,320.790 356.847 C 320.882 356.998,321.410 357.678,321.963 358.359 C 322.516 359.040,323.083 359.742,323.223 359.919 C 324.429 361.445,326.265 363.448,328.517 365.693 C 329.349 366.522,330.256 367.429,330.533 367.710 C 331.348 368.533,332.164 368.849,332.797 368.587 C 333.299 368.379,334.985 366.659,334.985 366.355 C 334.985 366.275,335.317 365.742,335.723 365.171 C 336.691 363.809,338.571 360.693,339.694 358.589 C 340.188 357.665,340.757 356.682,340.959 356.405 C 341.977 355.010,342.186 353.339,341.453 352.457 C 341.338 352.318,340.883 351.525,340.442 350.693 C 338.835 347.662,338.647 347.313,338.004 346.157 C 337.645 345.510,337.171 344.641,336.952 344.225 C 335.653 341.755,334.903 340.392,334.627 339.999 C 334.454 339.754,334.313 339.467,334.313 339.362 C 334.313 339.258,334.164 338.967,333.982 338.716 C 333.656 338.267,333.137 336.562,333.137 335.937 C 333.137 335.760,332.902 334.822,332.614 333.853 C 332.326 332.884,331.996 331.666,331.882 331.145 C 331.767 330.624,331.429 329.404,331.130 328.433 C 330.831 327.463,330.320 325.800,329.993 324.738 C 329.667 323.675,329.139 322.087,328.821 321.210 C 328.502 320.332,328.169 319.320,328.080 318.962 C 327.924 318.334,327.420 317.071,327.084 316.466 C 326.994 316.306,326.921 316.055,326.921 315.909 C 326.921 315.763,326.657 315.071,326.333 314.371 C 326.010 313.671,325.745 313.026,325.745 312.938 C 325.745 312.606,323.439 307.897,322.571 306.456 C 320.877 303.646,320.348 302.932,318.816 301.390 L 318.018 300.588 318.022 297.669 C 318.028 293.165,317.635 253.262,317.584 253.197 C 317.559 253.166,316.607 253.517,315.468 253.978 C 308.001 256.999,300.203 258.420,291.138 258.409 C 279.314 258.395,277.049 257.407,270.056 249.217 C 266.512 245.067,262.334 241.243,261.342 241.243 C 261.283 241.243,261.235 242.396,261.234 243.805 M36.688 266.408 C 36.308 267.212,35.500 268.891,34.892 270.139 C 33.704 272.577,33.095 273.944,33.095 274.175 C 33.095 274.255,33.681 274.598,34.397 274.938 C 35.113 275.277,36.002 275.712,36.371 275.904 C 37.404 276.440,37.777 276.622,39.227 277.299 C 40.453 277.871,41.156 278.215,42.335 278.820 C 42.566 278.939,43.965 279.611,45.443 280.315 C 46.921 281.019,49.266 282.155,50.653 282.839 L 53.174 284.082 54.885 284.082 C 56.888 284.082,56.759 284.206,56.991 282.067 C 57.473 277.632,55.490 273.455,52.144 271.860 C 51.755 271.674,51.449 271.286,51.005 270.410 C 50.671 269.753,50.222 268.874,50.006 268.459 C 49.791 268.043,49.477 267.419,49.309 267.073 C 49.029 266.498,48.941 266.442,48.315 266.440 C 42.968 266.418,39.534 266.075,38.506 265.461 C 37.363 264.779,37.488 264.714,36.688 266.408 M101.905 271.591 C 101.544 271.721,101.166 271.929,101.065 272.053 C 100.964 272.176,100.391 272.469,99.790 272.702 C 99.189 272.936,97.640 273.557,96.346 274.084 C 94.145 274.980,93.921 275.038,92.860 274.979 L 91.726 274.916 91.726 279.499 L 91.726 284.082 104.509 284.082 L 117.291 284.082 117.174 283.368 C 116.950 282.005,116.077 279.772,115.496 279.077 C 114.540 277.935,113.428 276.795,113.146 276.668 C 112.961 276.585,112.441 276.288,111.990 276.008 C 111.174 275.501,108.897 274.847,107.938 274.843 C 107.568 274.842,106.947 274.472,105.606 273.456 C 103.460 271.829,102.761 271.330,102.646 271.344 C 102.600 271.349,102.266 271.460,101.905 271.591 M352.012 371.371 C 351.115 372.155,344.278 374.592,343.511 374.401 C 343.349 374.361,343.217 374.387,343.217 374.459 C 343.217 374.531,342.918 374.637,342.551 374.696 C 341.955 374.791,341.869 374.868,341.721 375.431 C 341.631 375.777,341.326 376.942,341.043 378.019 C 340.760 379.097,340.529 380.165,340.529 380.393 C 340.529 380.670,340.334 380.958,339.941 381.257 C 339.618 381.504,339.353 381.769,339.353 381.847 C 339.353 381.925,339.138 382.219,338.876 382.500 C 337.531 383.939,336.835 386.161,336.834 389.017 C 336.833 391.409,336.947 391.929,337.871 393.740 C 339.041 396.037,339.425 396.231,340.613 395.129 C 341.145 394.637,343.634 392.550,345.663 390.898 C 346.077 390.560,346.897 389.865,347.939 388.967 C 348.457 388.521,349.165 387.929,349.512 387.652 C 349.859 387.375,350.343 386.973,350.586 386.759 C 350.830 386.545,351.464 386.024,351.995 385.600 C 352.526 385.177,352.961 384.766,352.961 384.688 C 352.961 384.609,353.047 384.544,353.152 384.544 C 353.340 384.544,354.309 383.736,355.486 382.598 C 355.812 382.282,356.144 382.024,356.223 382.024 C 356.302 382.024,356.531 381.854,356.733 381.646 C 356.935 381.438,357.530 380.928,358.055 380.512 C 358.860 379.875,359.002 379.684,358.955 379.294 C 358.895 378.799,359.017 378.735,359.514 379.001 C 359.726 379.115,359.863 379.113,359.936 378.996 C 360.035 378.834,359.793 378.496,358.496 376.984 C 357.353 375.653,354.660 372.393,354.097 371.660 C 353.149 370.424,353.103 370.418,352.012 371.371 M283.158 388.132 C 282.881 388.333,282.057 388.951,281.327 389.503 C 279.023 391.247,278.719 391.432,278.148 391.432 C 277.847 391.432,277.150 391.554,276.600 391.702 C 276.049 391.851,275.343 392.034,275.031 392.109 C 274.718 392.185,274.151 392.468,273.771 392.739 C 273.390 393.010,272.993 393.261,272.889 393.298 C 272.122 393.566,270.218 395.847,269.472 397.390 C 268.962 398.445,268.378 401.368,268.639 401.562 C 268.679 401.592,274.702 401.584,282.024 401.545 L 295.338 401.475 295.338 396.453 L 295.338 391.432 294.000 391.432 C 292.685 391.432,286.530 389.261,285.581 388.463 C 285.435 388.341,285.236 388.240,285.138 388.240 C 285.041 388.240,284.744 388.127,284.480 387.989 C 283.873 387.673,283.774 387.683,283.158 388.132 " stroke="none" fill="#2f2f47" fill-rule="evenodd"></path><path id="path1" d="M203.612 104.095 C 201.662 105.712,199.284 107.673,193.448 112.476 C 187.509 117.364,186.900 117.866,184.796 119.599 C 183.641 120.551,181.962 121.928,181.064 122.659 L 179.432 123.988 179.931 124.775 C 180.496 125.666,181.100 127.180,181.100 127.706 C 181.100 128.161,180.370 128.271,191.506 126.147 C 195.681 125.351,198.675 124.790,204.368 123.739 C 205.661 123.501,206.888 123.268,207.092 123.222 L 207.465 123.138 206.975 122.307 C 206.434 121.390,205.964 119.973,205.964 119.261 C 205.964 118.065,206.010 118.069,201.941 118.940 C 200.237 119.305,198.818 119.579,198.788 119.549 C 198.758 119.519,200.026 118.898,201.607 118.168 C 204.210 116.966,204.511 116.784,204.798 116.228 C 205.120 115.604,205.856 114.910,206.197 114.910 C 206.300 114.909,206.606 114.513,206.877 114.028 C 207.525 112.869,209.024 111.307,210.031 110.742 C 210.473 110.493,210.836 110.232,210.836 110.161 C 210.836 109.511,206.077 102.458,205.655 102.485 C 205.594 102.489,204.675 103.213,203.612 104.095 M236.218 130.155 C 236.020 131.241,235.654 133.226,235.406 134.565 L 234.954 137.001 232.869 139.773 C 231.722 141.298,230.716 142.631,230.633 142.736 C 230.430 142.993,239.376 152.529,241.450 154.265 C 243.389 155.888,244.603 157.149,244.603 157.539 C 244.603 158.011,245.209 159.032,246.671 161.025 C 247.417 162.041,248.248 163.402,248.518 164.049 C 249.000 165.206,249.693 166.149,250.062 166.149 C 250.165 166.149,250.585 166.362,250.996 166.622 C 251.407 166.882,252.612 167.555,253.675 168.116 C 257.245 170.003,257.888 170.353,258.552 170.772 C 258.915 171.001,259.312 171.189,259.434 171.189 C 259.556 171.189,259.743 171.276,259.850 171.383 C 259.957 171.490,260.710 171.928,261.522 172.356 C 262.334 172.783,262.991 173.168,262.982 173.211 C 262.775 174.163,262.323 181.850,262.054 188.996 C 261.823 195.118,261.960 210.636,262.274 213.860 C 262.705 218.288,262.566 227.571,262.022 230.743 C 261.768 232.222,261.452 234.066,261.319 234.842 C 261.186 235.618,260.846 236.998,260.563 237.908 C 259.783 240.418,259.800 240.722,260.731 241.047 C 263.015 241.843,265.972 244.434,270.056 249.217 C 277.049 257.407,279.314 258.395,291.138 258.409 C 300.159 258.419,307.871 257.022,315.414 254.011 C 316.522 253.568,317.832 253.077,318.324 252.919 C 319.484 252.547,319.461 252.670,319.045 248.921 C 318.609 244.989,318.186 240.027,318.186 238.835 C 318.186 238.352,318.084 237.565,317.960 237.088 C 317.772 236.361,317.772 236.205,317.960 236.132 C 318.822 235.802,317.583 230.276,315.507 225.188 C 315.270 224.608,314.172 222.962,313.773 222.589 C 313.445 222.282,313.431 222.219,313.663 222.089 C 314.120 221.831,314.662 220.182,315.283 217.155 L 315.417 216.503 315.641 216.987 C 316.734 219.352,318.184 221.756,318.517 221.756 C 318.644 221.756,320.220 219.825,320.370 219.486 C 320.416 219.381,321.320 218.266,322.378 217.007 L 324.303 214.718 326.662 213.705 C 327.960 213.147,329.532 212.535,330.155 212.345 C 331.446 211.951,331.428 211.996,330.968 210.275 C 330.791 209.613,330.575 208.694,330.488 208.232 C 330.329 207.387,329.954 205.859,328.749 201.146 C 328.391 199.744,328.097 198.447,328.097 198.264 C 328.097 198.081,327.877 197.439,327.607 196.838 C 326.740 194.905,326.215 192.670,326.418 191.768 C 326.548 191.184,326.523 190.427,326.313 188.693 C 326.161 187.428,326.049 185.976,326.065 185.468 C 326.081 184.960,326.105 184.158,326.118 183.685 C 326.142 182.748,325.827 181.934,324.881 180.493 C 324.256 179.541,323.840 178.862,323.254 177.837 C 323.038 177.461,322.679 176.912,322.456 176.618 C 322.232 176.324,322.049 176.021,322.049 175.946 C 322.049 175.870,321.765 175.378,321.419 174.852 C 321.073 174.326,320.567 173.532,320.296 173.088 C 320.024 172.644,319.501 171.789,319.134 171.189 C 318.767 170.588,318.404 170.071,318.326 170.041 C 318.249 170.010,318.186 169.886,318.186 169.765 C 318.186 169.645,317.921 169.162,317.598 168.692 C 317.274 168.221,317.010 167.792,317.010 167.737 C 317.010 167.682,316.791 167.319,316.524 166.931 C 316.257 166.543,315.928 165.962,315.794 165.641 C 315.660 165.320,315.174 164.641,314.714 164.133 C 313.936 163.273,313.858 163.104,313.584 161.697 C 313.271 160.092,312.540 157.810,312.288 157.654 C 312.206 157.603,312.138 157.438,312.138 157.289 C 312.138 156.494,309.719 153.501,308.106 152.299 C 305.924 150.673,304.493 150.189,301.862 150.189 L 299.735 150.189 299.301 149.413 C 298.435 147.863,298.115 145.757,298.527 144.319 C 298.618 144.002,298.669 143.720,298.640 143.691 C 298.438 143.489,293.621 143.278,289.584 143.294 C 286.039 143.309,284.754 143.263,284.754 143.121 C 284.754 142.658,280.872 143.724,279.576 144.542 C 277.228 146.025,275.859 148.448,276.046 150.792 C 276.095 151.412,276.067 151.481,275.820 151.348 C 275.384 151.115,275.347 151.152,275.338 151.827 C 275.325 152.701,274.921 154.881,274.738 155.065 C 274.648 155.155,272.562 153.184,269.596 150.207 L 264.607 145.198 263.551 144.992 C 262.204 144.730,261.437 144.375,260.059 143.379 C 258.910 142.549,256.175 140.781,256.038 140.781 C 255.961 140.781,254.341 139.704,252.437 138.387 C 242.149 131.273,237.392 128.181,236.733 128.181 C 236.648 128.181,236.416 129.070,236.218 130.155 " stroke="none" fill="#2ca39b" fill-rule="evenodd"></path><path id="path2" d="M166.149 46.372 C 155.009 47.232,143.623 50.358,134.313 55.114 C 133.482 55.539,132.008 56.286,131.037 56.775 C 130.067 57.263,129.160 57.731,129.021 57.814 C 128.883 57.898,128.532 58.075,128.242 58.209 C 127.952 58.343,127.488 58.678,127.211 58.955 C 126.774 59.392,124.187 61.166,121.011 63.206 C 119.574 64.129,116.238 66.907,114.553 68.585 C 114.019 69.116,113.537 69.551,113.481 69.551 C 113.383 69.551,112.661 70.276,110.416 72.627 C 109.838 73.232,109.366 73.816,109.366 73.923 C 109.366 74.031,108.686 74.910,107.855 75.877 C 100.860 84.013,95.528 93.538,92.067 104.078 C 90.913 107.595,90.919 107.503,91.636 110.546 C 91.973 111.976,92.550 114.431,92.918 116.002 C 93.286 117.572,93.844 119.954,94.159 121.294 C 94.474 122.633,95.041 125.052,95.418 126.669 C 97.060 133.711,96.904 133.226,97.768 134.003 C 100.267 136.252,100.359 140.026,97.975 142.431 C 95.744 144.681,91.743 144.614,89.644 142.291 C 88.871 141.435,88.870 141.430,89.721 145.590 C 92.468 159.024,97.891 170.445,106.808 181.575 C 107.524 182.469,108.216 183.407,108.345 183.661 C 108.767 184.486,114.931 190.599,117.514 192.754 C 117.791 192.985,118.408 193.500,118.886 193.899 C 119.813 194.673,121.138 195.677,122.638 196.741 C 123.146 197.102,123.648 197.467,123.753 197.554 C 124.050 197.797,126.301 199.280,127.083 199.748 C 127.469 199.979,128.158 200.387,128.613 200.655 C 129.069 200.923,129.630 201.263,129.861 201.411 C 130.727 201.966,133.232 203.238,137.531 205.305 C 138.284 205.668,138.977 205.964,139.071 205.964 C 139.165 205.964,139.607 206.144,140.053 206.364 C 140.500 206.585,141.168 206.860,141.537 206.976 C 141.907 207.092,142.360 207.251,142.545 207.330 C 143.503 207.738,145.304 208.377,145.821 208.493 C 146.144 208.565,147.083 208.858,147.906 209.142 C 148.729 209.427,149.514 209.660,149.651 209.660 C 149.787 209.660,150.852 209.915,152.018 210.227 C 153.183 210.539,154.666 210.879,155.313 210.983 C 155.960 211.086,157.472 211.353,158.673 211.575 C 159.874 211.798,161.462 212.027,162.201 212.085 C 162.940 212.143,164.452 212.280,165.561 212.391 C 168.216 212.655,176.535 212.653,179.504 212.387 C 180.798 212.272,182.348 212.137,182.948 212.088 C 184.036 211.999,188.637 211.204,188.863 211.065 C 188.929 211.025,189.458 210.931,190.039 210.856 C 192.104 210.588,198.366 208.856,201.092 207.799 C 201.785 207.530,202.692 207.204,203.108 207.074 C 205.389 206.364,214.638 201.893,215.398 201.133 C 215.513 201.018,215.714 200.924,215.845 200.924 C 215.976 200.924,216.443 200.659,216.884 200.336 C 217.324 200.013,217.730 199.748,217.787 199.748 C 217.881 199.748,219.931 198.414,220.340 198.086 C 220.439 198.007,221.063 197.581,221.726 197.140 C 222.389 196.700,222.932 196.274,222.932 196.195 C 222.932 196.117,223.026 196.052,223.142 196.052 C 223.257 196.052,223.692 195.749,224.108 195.380 C 224.523 195.011,224.952 194.708,225.059 194.708 C 225.167 194.708,225.281 194.641,225.311 194.559 C 225.365 194.417,225.953 193.907,227.633 192.546 C 228.048 192.211,228.588 191.728,228.834 191.474 C 229.081 191.220,229.340 191.012,229.410 191.012 C 229.592 191.012,232.321 188.329,234.943 185.572 C 236.152 184.301,237.138 183.154,238.570 181.352 C 239.158 180.613,239.682 179.971,239.735 179.924 C 239.788 179.878,240.015 179.576,240.239 179.252 C 240.462 178.929,240.818 178.476,241.028 178.246 C 241.239 178.016,241.411 177.739,241.411 177.630 C 241.411 177.521,241.468 177.407,241.537 177.376 C 241.744 177.285,242.755 175.926,242.755 175.740 C 242.755 175.646,242.982 175.310,243.259 174.994 C 243.536 174.678,243.764 174.355,243.764 174.274 C 243.765 174.194,244.104 173.637,244.519 173.037 C 244.934 172.436,245.274 171.875,245.274 171.790 C 245.275 171.705,245.379 171.516,245.507 171.370 C 245.634 171.224,246.023 170.575,246.371 169.929 C 246.719 169.282,247.077 168.659,247.166 168.545 C 247.255 168.431,247.680 167.620,248.111 166.744 L 248.893 165.151 248.500 164.096 C 248.284 163.515,247.718 162.512,247.242 161.865 C 245.618 159.657,244.603 158.064,244.603 157.723 C 244.603 157.230,243.331 155.816,241.755 154.557 C 240.660 153.682,231.929 144.645,230.798 143.215 C 230.526 142.873,230.547 142.820,231.344 141.790 C 231.799 141.202,232.171 140.708,232.171 140.692 C 232.171 140.676,230.344 139.196,228.110 137.404 C 225.876 135.612,222.379 132.805,220.340 131.166 C 218.300 129.528,216.586 128.186,216.531 128.184 C 216.475 128.183,216.384 129.410,216.330 130.911 C 216.149 135.849,215.115 140.788,213.341 145.179 C 212.882 146.318,212.489 147.316,212.469 147.398 C 212.423 147.583,214.850 148.726,225.871 153.709 C 227.350 154.378,229.278 155.250,230.155 155.649 C 231.033 156.047,232.092 156.526,232.507 156.712 C 236.023 158.288,235.899 158.215,235.696 158.595 C 235.591 158.791,235.417 158.914,235.308 158.869 C 235.200 158.824,233.977 158.262,232.591 157.619 C 231.205 156.976,228.900 155.919,227.467 155.269 C 221.229 152.438,219.194 151.512,217.220 150.602 C 212.713 148.527,211.844 148.190,211.844 148.522 C 211.844 149.120,208.336 154.474,206.458 156.744 C 203.490 160.329,198.254 164.811,195.128 166.440 C 194.851 166.585,194.341 166.882,193.994 167.100 L 193.365 167.497 194.109 168.881 C 205.870 190.760,205.664 190.349,204.872 190.331 C 204.780 190.329,202.058 185.371,198.824 179.313 C 191.881 166.306,192.720 167.680,191.992 168.130 C 189.619 169.597,183.536 171.442,178.262 172.294 C 176.163 172.634,168.701 172.639,166.653 172.302 C 164.969 172.026,165.031 172.004,164.896 172.911 C 164.784 173.664,163.991 178.314,163.042 183.788 C 162.729 185.590,162.426 187.404,162.369 187.820 C 162.311 188.236,162.046 189.748,161.779 191.180 C 161.513 192.612,161.211 194.427,161.109 195.212 C 160.868 197.076,160.815 197.228,160.404 197.228 C 159.964 197.228,160.067 196.382,161.440 188.744 C 161.706 187.266,161.970 185.716,162.026 185.300 C 162.143 184.439,163.072 179.021,163.821 174.827 C 164.099 173.271,164.296 171.968,164.258 171.930 C 164.220 171.892,163.440 171.707,162.523 171.519 C 155.633 170.103,148.033 166.111,142.490 160.995 L 140.923 159.549 139.970 160.465 C 138.726 161.661,136.956 163.311,135.489 164.642 C 134.843 165.230,134.158 165.866,133.967 166.055 C 133.225 166.796,123.144 176.113,122.531 176.626 C 121.491 177.495,121.370 176.707,122.396 175.749 C 123.356 174.854,129.558 169.112,132.291 166.589 C 133.304 165.654,134.400 164.636,134.727 164.327 C 135.054 164.018,136.471 162.702,137.876 161.402 L 140.430 159.040 139.674 158.184 C 134.601 152.440,131.203 145.921,129.612 138.877 C 129.302 137.506,129.011 136.347,128.964 136.300 C 128.859 136.195,126.503 136.436,120.454 137.171 C 117.913 137.480,115.267 137.782,114.574 137.843 C 113.881 137.904,111.327 138.212,108.898 138.528 C 103.816 139.188,103.396 139.210,103.248 138.825 C 103.190 138.673,103.163 138.530,103.188 138.506 C 103.260 138.438,109.811 137.620,111.214 137.503 C 111.907 137.446,113.835 137.215,115.498 136.992 C 117.161 136.768,119.693 136.468,121.126 136.326 C 123.739 136.066,128.707 135.440,128.787 135.360 C 128.810 135.337,128.753 134.222,128.659 132.883 C 128.099 124.868,129.596 116.984,132.914 110.480 C 133.514 109.305,133.778 109.586,130.281 107.679 C 127.305 106.056,125.235 104.919,115.078 99.327 C 114.662 99.098,113.793 98.625,113.146 98.276 C 111.138 97.193,110.880 97.025,110.879 96.803 C 110.877 96.344,111.419 96.422,112.512 97.037 C 113.138 97.389,113.877 97.800,114.154 97.950 C 115.343 98.595,117.000 99.502,119.278 100.755 C 120.617 101.493,122.810 102.698,124.150 103.434 C 125.489 104.170,127.001 105.003,127.509 105.285 C 128.018 105.568,128.849 106.024,129.357 106.299 C 129.866 106.574,131.071 107.237,132.037 107.772 C 133.064 108.341,133.818 108.667,133.855 108.558 C 133.889 108.455,134.687 107.211,135.628 105.794 C 138.680 101.198,142.589 97.176,147.197 93.890 L 147.578 93.618 146.910 92.650 C 146.074 91.439,145.965 91.284,144.729 89.568 C 144.175 88.797,143.570 87.955,143.385 87.695 C 143.200 87.436,142.466 86.403,141.752 85.401 C 141.039 84.398,139.836 82.709,139.079 81.646 C 138.321 80.584,137.506 79.439,137.267 79.101 C 137.029 78.764,136.191 77.601,135.405 76.516 C 132.559 72.584,132.654 72.742,132.994 72.494 C 133.313 72.260,133.274 72.217,135.162 74.866 C 137.397 78.002,138.432 79.451,139.524 80.974 C 140.219 81.945,141.372 83.558,142.087 84.561 C 142.801 85.563,143.671 86.773,144.020 87.249 C 144.369 87.725,144.785 88.304,144.944 88.536 C 146.149 90.295,148.054 92.913,148.190 92.997 C 148.282 93.053,148.863 92.800,149.483 92.435 C 154.219 89.642,162.104 86.686,164.820 86.686 C 165.535 86.686,165.547 86.523,165.070 83.385 C 164.667 80.729,164.166 77.235,163.545 72.743 C 163.398 71.680,163.022 69.034,162.708 66.863 C 161.902 61.275,161.907 61.324,162.210 61.208 C 162.648 61.040,162.706 61.358,164.202 71.987 C 164.527 74.297,165.063 78.039,165.393 80.302 C 165.723 82.566,166.049 84.872,166.117 85.426 C 166.231 86.364,166.269 86.432,166.656 86.408 C 166.885 86.394,168.093 86.289,169.341 86.176 C 175.731 85.592,184.259 87.030,190.048 89.669 C 191.221 90.203,191.061 90.354,192.411 87.428 C 193.012 86.127,193.819 84.426,194.204 83.648 C 194.590 82.871,195.739 80.458,196.757 78.286 C 197.776 76.115,198.713 74.150,198.839 73.919 C 199.140 73.368,201.380 68.663,201.779 67.745 C 202.097 67.011,202.197 66.938,202.566 67.172 C 202.781 67.308,202.433 68.285,201.601 69.887 C 201.432 70.210,200.522 72.138,199.577 74.171 C 198.632 76.203,197.802 77.942,197.733 78.034 C 197.664 78.127,196.811 79.903,195.838 81.982 C 194.864 84.061,193.883 86.140,193.658 86.602 C 193.433 87.064,192.935 88.083,192.552 88.866 C 191.754 90.501,191.718 90.397,193.378 91.269 C 193.986 91.588,194.704 91.986,194.974 92.154 C 198.457 94.315,201.476 96.678,203.948 99.178 C 206.026 101.279,205.722 101.201,207.136 100.000 C 207.762 99.469,209.390 98.127,210.753 97.018 C 212.116 95.909,213.815 94.511,214.529 93.910 C 215.242 93.310,216.571 92.213,217.482 91.474 C 218.393 90.735,220.277 89.185,221.668 88.030 C 226.000 84.436,225.695 84.652,225.921 85.013 C 226.134 85.354,226.233 85.259,222.324 88.470 C 221.411 89.220,219.494 90.807,218.064 91.998 C 216.634 93.188,215.263 94.313,215.016 94.498 C 214.770 94.683,213.111 96.044,211.332 97.522 C 209.552 99.000,207.689 100.534,207.192 100.931 L 206.289 101.651 207.271 102.947 C 209.241 105.547,209.649 106.157,210.897 108.368 C 211.801 109.970,211.686 109.871,212.434 109.693 C 212.802 109.606,213.828 109.543,214.713 109.554 C 216.859 109.581,217.550 109.205,217.554 108.010 C 217.564 104.273,220.285 103.033,224.375 104.900 C 225.192 105.273,225.283 105.281,226.391 105.067 C 229.191 104.525,229.617 105.208,227.367 106.632 L 226.667 107.075 227.317 108.028 C 230.648 112.908,228.108 115.535,222.279 113.237 C 221.800 113.048,221.378 112.894,221.342 112.894 C 221.306 112.894,221.531 113.316,221.842 113.833 C 222.153 114.349,222.520 115.275,222.658 115.891 C 222.894 116.940,222.980 117.076,224.054 118.074 C 225.960 119.845,225.815 119.798,228.019 119.359 C 229.055 119.152,231.415 118.701,233.263 118.355 C 235.111 118.009,237.561 117.546,238.708 117.326 C 241.223 116.843,241.183 116.844,241.290 117.256 C 241.391 117.641,241.288 117.683,239.647 117.932 C 239.000 118.030,237.148 118.367,235.531 118.681 C 233.914 118.995,231.344 119.495,229.819 119.791 C 228.295 120.086,226.991 120.361,226.922 120.400 C 226.792 120.475,236.192 128.843,236.413 128.850 C 236.483 128.852,236.539 128.702,236.539 128.517 C 236.539 127.771,239.145 129.255,245.695 133.733 C 251.086 137.419,254.639 139.862,255.254 140.307 C 256.287 141.054,256.265 141.101,256.623 137.379 C 257.516 128.105,256.729 117.345,254.575 109.366 C 254.338 108.488,254.045 107.332,253.924 106.797 C 253.647 105.575,252.821 103.069,251.973 100.882 C 251.615 99.958,251.322 99.130,251.322 99.041 C 251.323 98.852,250.377 96.701,249.508 94.918 C 249.171 94.225,248.901 93.620,248.908 93.574 C 248.927 93.458,247.966 91.679,247.779 91.483 C 247.696 91.395,247.627 91.221,247.627 91.097 C 247.627 90.972,247.362 90.456,247.039 89.951 C 246.716 89.445,246.451 88.960,246.451 88.873 C 246.451 88.785,246.154 88.239,245.790 87.658 C 243.789 84.459,242.446 82.395,241.999 81.826 C 241.722 81.474,241.193 80.749,240.823 80.214 C 240.454 79.679,239.868 78.923,239.521 78.535 C 239.175 78.147,238.891 77.776,238.891 77.712 C 238.891 77.546,235.409 73.595,233.846 71.987 C 231.050 69.111,227.612 66.002,225.113 64.091 C 224.630 63.721,223.833 63.097,223.342 62.705 C 222.852 62.312,222.401 61.991,222.341 61.991 C 222.281 61.991,221.909 61.726,221.515 61.403 C 221.120 61.079,220.756 60.815,220.706 60.815 C 220.656 60.815,219.773 60.248,218.743 59.555 C 217.713 58.862,216.834 58.295,216.789 58.295 C 216.745 58.295,216.389 58.087,215.998 57.834 C 215.607 57.580,214.985 57.215,214.616 57.022 C 214.246 56.829,213.204 56.280,212.300 55.801 C 211.395 55.322,210.526 54.868,210.368 54.792 C 210.209 54.716,209.508 54.377,208.810 54.039 C 208.111 53.700,207.491 53.423,207.431 53.423 C 207.371 53.423,206.695 53.121,205.929 52.752 C 205.163 52.384,204.448 52.081,204.341 52.080 C 204.233 52.080,203.528 51.814,202.772 51.491 C 202.016 51.168,201.306 50.903,201.193 50.903 C 201.080 50.903,200.501 50.711,199.906 50.477 C 199.311 50.242,198.295 49.908,197.648 49.735 C 197.001 49.561,195.640 49.192,194.624 48.913 C 192.541 48.343,189.580 47.657,188.072 47.395 C 185.602 46.965,181.918 46.484,180.764 46.439 C 176.796 46.286,167.802 46.245,166.149 46.372 M167.955 87.002 C 166.215 87.164,166.275 86.969,166.829 90.634 C 167.291 93.686,168.133 99.549,168.831 104.578 C 169.609 110.177,169.897 112.191,170.443 115.834 C 170.761 117.959,171.022 119.906,171.021 120.160 L 171.021 120.622 172.323 120.624 C 173.039 120.626,174.078 120.743,174.633 120.886 C 175.187 121.028,175.798 121.185,175.992 121.234 C 176.283 121.307,176.402 121.183,176.692 120.510 C 176.997 119.802,178.252 117.153,180.182 113.146 C 180.493 112.499,181.158 111.100,181.659 110.038 C 183.013 107.164,184.044 105.000,185.219 102.562 C 185.799 101.361,186.819 99.206,187.486 97.774 C 188.153 96.342,189.144 94.265,189.688 93.158 C 190.901 90.688,190.919 90.911,189.458 90.257 C 183.617 87.642,175.046 86.345,167.955 87.002 M163.041 87.809 C 158.361 88.886,153.187 90.975,149.743 93.178 C 148.674 93.862,148.670 93.888,149.475 94.927 C 149.822 95.374,150.357 96.103,150.664 96.547 C 150.971 96.991,151.712 98.034,152.311 98.866 C 152.909 99.698,153.579 100.643,153.800 100.966 C 154.022 101.289,154.642 102.159,155.178 102.898 C 155.714 103.638,156.284 104.432,156.443 104.662 C 156.603 104.893,157.303 105.876,157.998 106.846 C 158.694 107.816,159.822 109.404,160.506 110.374 C 161.190 111.344,162.154 112.685,162.647 113.353 C 163.997 115.182,165.766 117.671,167.364 119.990 C 168.344 121.412,168.531 121.541,169.149 121.222 C 169.430 121.076,169.779 120.958,169.926 120.958 C 170.362 120.958,170.376 120.617,170.025 118.428 C 169.840 117.278,169.609 115.619,169.511 114.742 C 169.412 113.864,169.114 111.747,168.847 110.038 C 168.580 108.328,168.313 106.438,168.253 105.838 C 168.193 105.237,167.927 103.385,167.661 101.722 C 167.395 100.059,167.097 97.961,166.999 97.059 C 166.900 96.158,166.593 94.021,166.316 92.309 C 166.039 90.598,165.812 88.954,165.810 88.656 C 165.804 87.191,165.770 87.181,163.041 87.809 M190.514 93.196 C 190.014 94.282,189.159 96.077,188.613 97.186 C 188.067 98.295,186.826 100.903,185.855 102.982 C 184.884 105.061,183.987 106.951,183.862 107.182 C 183.571 107.721,180.932 113.237,180.932 113.308 C 180.932 113.367,178.754 117.946,177.729 120.040 C 176.916 121.701,176.917 121.762,177.774 122.386 C 178.155 122.663,178.555 122.956,178.663 123.038 C 178.889 123.211,179.550 122.744,182.201 120.538 C 184.426 118.686,187.172 116.418,188.061 115.697 C 188.425 115.403,188.992 114.931,189.321 114.648 C 189.651 114.365,190.931 113.307,192.166 112.296 C 193.402 111.285,194.920 110.042,195.540 109.534 C 196.160 109.026,197.417 107.995,198.333 107.244 C 199.250 106.493,200.166 105.737,200.369 105.564 C 200.572 105.391,201.436 104.683,202.289 103.990 C 203.142 103.297,204.131 102.465,204.485 102.142 L 205.130 101.554 204.245 100.561 C 202.611 98.726,199.225 95.844,196.742 94.174 C 194.992 92.997,191.867 91.222,191.545 91.222 C 191.477 91.222,191.013 92.110,190.514 93.196 M146.493 95.354 C 143.946 97.241,139.931 101.068,138.950 102.544 C 138.820 102.739,138.507 103.125,138.253 103.402 C 137.651 104.060,135.392 107.397,134.915 108.331 C 134.462 109.218,134.289 109.050,137.412 110.744 C 138.655 111.418,140.167 112.241,140.772 112.573 C 141.927 113.206,146.768 115.867,147.921 116.503 C 148.291 116.706,149.803 117.538,151.281 118.351 C 152.759 119.163,154.271 119.995,154.641 120.199 C 155.010 120.402,156.522 121.233,158.001 122.045 C 160.982 123.683,161.930 124.207,163.293 124.970 C 164.455 125.621,164.338 125.643,164.975 124.651 C 165.272 124.187,166.008 123.356,166.611 122.804 L 167.707 121.800 167.234 121.085 C 166.975 120.691,166.318 119.765,165.776 119.026 C 164.813 117.712,162.691 114.751,160.179 111.214 C 159.490 110.244,158.356 108.656,157.659 107.686 C 156.962 106.716,156.263 105.731,156.104 105.497 C 155.946 105.263,155.061 104.026,154.137 102.748 C 153.213 101.469,152.344 100.257,152.205 100.054 C 152.066 99.851,151.235 98.684,150.357 97.460 C 149.479 96.237,148.648 95.051,148.509 94.826 C 148.151 94.241,147.910 94.304,146.493 95.354 M204.288 103.326 C 203.639 103.885,203.108 104.380,203.108 104.427 C 203.108 104.504,203.480 104.206,205.208 102.746 C 205.485 102.512,205.657 102.318,205.590 102.315 C 205.523 102.312,204.937 102.767,204.288 103.326 M202.080 105.180 C 201.573 105.651,201.501 105.762,201.848 105.534 C 202.351 105.203,203.071 104.494,202.904 104.494 C 202.855 104.494,202.484 104.802,202.080 105.180 M200.084 106.780 C 198.481 108.131,198.283 108.409,199.783 107.204 C 200.888 106.317,201.434 105.804,201.228 105.849 C 201.199 105.855,200.685 106.274,200.084 106.780 M196.220 109.969 C 194.186 111.692,193.428 112.381,194.119 111.878 C 194.738 111.428,198.404 108.334,198.404 108.261 C 198.404 108.125,198.308 108.200,196.220 109.969 M133.497 111.004 C 130.037 117.910,128.293 128.614,129.622 134.784 L 129.724 135.255 130.927 135.154 C 131.588 135.098,134.284 134.796,136.917 134.481 C 139.551 134.167,144.351 133.602,147.585 133.225 C 152.526 132.650,162.667 131.432,163.433 131.322 C 163.602 131.297,163.668 130.815,163.701 129.357 C 163.726 128.295,163.803 127.153,163.873 126.820 L 164.001 126.215 162.513 125.405 C 161.694 124.959,160.722 124.427,160.353 124.223 C 158.039 122.943,154.189 120.825,151.365 119.278 C 149.563 118.291,146.464 116.590,144.477 115.499 C 142.491 114.407,140.563 113.348,140.193 113.146 C 139.824 112.943,138.330 112.124,136.874 111.324 C 133.722 109.593,134.183 109.636,133.497 111.004 M191.737 113.620 C 190.704 114.468,189.854 115.219,189.847 115.290 C 189.835 115.426,193.470 112.459,193.627 112.204 C 193.785 111.948,193.670 112.035,191.737 113.620 M188.060 116.691 C 187.235 117.393,186.485 118.051,186.392 118.153 C 186.089 118.486,186.875 117.882,188.072 116.862 C 189.595 115.563,189.758 115.414,189.650 115.414 C 189.600 115.414,188.885 115.988,188.060 116.691 M184.460 119.635 C 183.583 120.373,182.606 121.180,182.291 121.429 C 181.241 122.257,179.420 123.842,179.420 123.928 C 179.420 123.975,179.806 123.684,180.276 123.283 C 180.747 122.882,181.374 122.365,181.668 122.134 C 182.816 121.233,186.140 118.418,186.140 118.346 C 186.140 118.223,186.127 118.233,184.460 119.635 M206.972 124.092 C 206.575 124.153,203.328 124.766,196.472 126.074 C 194.809 126.391,191.974 126.925,190.172 127.259 C 188.370 127.594,185.674 128.103,184.179 128.391 L 181.462 128.915 181.348 129.934 C 181.286 130.495,181.091 131.386,180.915 131.914 C 180.740 132.442,180.596 132.938,180.596 133.015 C 180.596 133.155,182.203 133.919,187.568 136.329 C 189.139 137.035,190.802 137.786,191.264 137.999 C 192.333 138.491,197.053 140.636,203.948 143.763 C 205.380 144.413,207.637 145.444,208.964 146.055 C 211.861 147.388,211.554 147.374,212.099 146.199 C 214.187 141.691,215.338 136.561,215.491 131.076 L 215.591 127.502 215.200 127.086 C 214.910 126.777,214.635 126.669,214.135 126.669 C 213.267 126.669,211.440 126.215,210.598 125.790 C 209.801 125.388,208.316 124.297,208.316 124.114 C 208.316 123.981,207.753 123.972,206.972 124.092 M160.185 132.473 C 155.389 133.085,148.508 133.904,145.401 134.233 C 143.830 134.400,140.958 134.730,139.017 134.967 C 137.077 135.205,134.256 135.543,132.750 135.720 C 129.489 136.102,129.795 135.873,130.112 137.692 C 130.855 141.955,133.315 148.049,135.867 151.951 C 137.370 154.248,140.505 158.204,140.969 158.390 C 141.042 158.420,142.301 157.324,143.766 155.954 C 145.230 154.585,147.288 152.671,148.339 151.701 C 150.350 149.843,151.840 148.458,154.213 146.241 C 155.004 145.502,157.200 143.466,159.094 141.716 C 160.988 139.967,163.303 137.820,164.238 136.945 L 165.940 135.355 165.389 134.633 C 165.086 134.237,164.633 133.492,164.382 132.979 C 164.030 132.259,163.843 132.050,163.567 132.067 C 163.370 132.078,161.848 132.261,160.185 132.473 M179.289 134.891 C 178.806 135.440,178.110 136.101,177.743 136.361 C 177.376 136.621,177.074 136.897,177.072 136.975 C 177.069 137.097,180.716 143.935,190.638 162.411 C 191.890 164.744,192.980 166.653,193.058 166.653 C 194.401 166.653,201.974 160.723,204.854 157.416 C 207.667 154.187,211.172 148.988,211.172 148.044 C 211.172 147.894,210.129 147.386,205.796 145.428 C 204.271 144.739,201.814 143.629,200.336 142.961 C 198.858 142.293,196.363 141.159,194.792 140.440 C 193.221 139.722,191.142 138.779,190.172 138.346 C 189.202 137.913,188.030 137.384,187.568 137.171 C 186.812 136.822,185.067 136.026,181.940 134.604 C 180.149 133.789,180.270 133.776,179.289 134.891 M88.279 134.712 C 88.327 135.024,88.372 135.516,88.379 135.804 C 88.393 136.326,88.394 136.327,88.550 135.901 C 88.663 135.596,88.634 135.282,88.450 134.809 C 88.193 134.149,88.192 134.148,88.279 134.712 M166.054 136.290 C 165.863 136.497,164.843 137.459,163.786 138.428 C 162.729 139.398,161.336 140.689,160.689 141.297 C 160.042 141.905,157.963 143.831,156.069 145.576 C 150.867 150.369,150.835 150.398,150.176 151.029 C 149.839 151.352,148.739 152.378,147.734 153.309 C 142.691 157.975,141.618 159.000,141.660 159.111 C 141.735 159.311,144.322 161.638,145.487 162.552 C 150.123 166.192,154.869 168.594,160.753 170.280 C 164.057 171.227,164.419 171.237,164.553 170.391 C 164.607 170.044,164.871 168.551,165.139 167.073 C 165.407 165.594,165.708 163.780,165.808 163.041 C 165.907 162.302,166.208 160.525,166.477 159.093 C 166.745 157.661,167.012 156.111,167.070 155.649 C 167.128 155.187,167.393 153.637,167.658 152.205 C 167.923 150.773,168.188 149.261,168.245 148.845 C 168.303 148.429,168.604 146.615,168.914 144.813 C 170.232 137.165,170.218 137.772,169.089 137.420 C 168.719 137.305,167.983 136.918,167.453 136.560 C 166.320 135.796,166.482 135.827,166.054 136.290 M175.220 137.643 C 174.568 137.888,173.810 138.003,172.637 138.035 C 171.724 138.060,170.949 138.108,170.916 138.142 C 170.845 138.213,170.006 142.777,169.613 145.233 C 169.464 146.157,169.155 148.009,168.925 149.349 C 168.695 150.689,168.237 153.373,167.908 155.313 C 167.579 157.253,167.087 160.088,166.815 161.613 C 166.544 163.137,166.208 165.141,166.070 166.065 C 165.931 166.989,165.672 168.501,165.494 169.425 C 165.101 171.459,164.916 171.271,167.647 171.615 C 171.909 172.154,178.833 171.725,182.827 170.677 C 187.067 169.563,192.246 167.488,192.121 166.952 C 192.084 166.793,188.880 160.745,185.001 153.512 C 181.122 146.279,177.630 139.756,177.241 139.017 C 176.286 137.204,176.324 137.230,175.220 137.643 M130.197 261.407 C 130.197 261.502,130.418 262.731,130.687 264.137 C 130.956 265.544,131.224 267.110,131.283 267.619 C 131.621 270.529,133.507 279.023,134.137 280.470 C 134.258 280.748,134.556 281.504,134.800 282.150 C 135.043 282.797,135.339 283.515,135.457 283.746 L 135.670 284.166 146.164 284.105 C 151.935 284.071,156.690 284.013,156.730 283.976 C 157.273 283.472,156.361 279.143,155.337 277.362 C 155.045 276.854,154.693 276.238,154.555 275.992 C 154.418 275.747,153.965 275.003,153.549 274.339 C 153.133 273.675,152.566 272.769,152.289 272.326 C 152.012 271.883,151.544 271.115,151.250 270.620 C 150.956 270.124,150.620 269.612,150.504 269.482 C 150.388 269.351,150.172 269.007,150.024 268.717 C 149.267 267.232,148.677 266.756,148.677 267.629 C 148.677 267.912,148.407 269.249,148.076 270.599 C 147.746 271.949,147.465 273.190,147.453 273.356 C 147.431 273.646,147.416 273.646,147.088 273.352 C 146.899 273.183,146.613 272.998,146.451 272.941 C 146.289 272.884,146.157 272.773,146.157 272.695 C 146.157 272.617,145.475 272.066,144.641 271.472 C 142.867 270.207,141.538 269.245,140.949 268.798 C 139.287 267.537,138.226 266.779,138.125 266.779 C 138.059 266.779,137.818 266.606,137.588 266.396 C 137.357 266.185,136.338 265.418,135.321 264.690 C 134.305 263.963,133.448 263.303,133.417 263.225 C 133.387 263.147,133.297 263.083,133.218 263.083 C 133.140 263.083,132.523 262.667,131.847 262.159 C 130.653 261.261,130.197 261.053,130.197 261.407 M2.142 284.207 C 2.997 284.238,4.395 284.238,5.250 284.207 C 6.105 284.177,5.405 284.152,3.696 284.152 C 1.987 284.152,1.287 284.177,2.142 284.207 M359.096 380.212 C 359.157 380.886,359.426 382.570,359.696 383.956 C 359.966 385.342,360.261 387.069,360.351 387.793 C 360.794 391.328,362.630 398.141,363.741 400.378 L 364.388 401.680 374.723 401.680 L 385.057 401.680 385.237 401.218 C 385.825 399.717,384.365 394.589,382.947 393.171 C 382.809 393.033,382.696 392.818,382.696 392.692 C 382.696 392.567,382.602 392.364,382.486 392.242 C 382.207 391.948,381.352 390.628,381.352 390.492 C 381.352 390.433,381.088 390.025,380.764 389.584 C 380.441 389.144,380.176 388.735,380.176 388.676 C 380.176 388.519,379.274 387.158,379.126 387.092 C 379.057 387.061,379.000 386.948,378.999 386.840 C 378.995 386.477,377.500 384.485,377.415 384.730 C 377.246 385.218,376.682 387.683,376.574 388.408 C 376.192 390.970,375.951 391.310,375.146 390.432 C 375.002 390.275,374.431 389.812,373.877 389.403 C 373.322 388.995,372.769 388.566,372.647 388.450 C 372.524 388.335,372.368 388.240,372.299 388.240 C 372.230 388.240,371.876 387.976,371.513 387.652 C 371.150 387.329,370.767 387.064,370.663 387.064 C 370.559 387.064,370.373 386.943,370.250 386.795 C 370.127 386.646,369.596 386.233,369.071 385.877 C 368.546 385.520,368.012 385.124,367.885 384.997 C 367.758 384.869,367.466 384.667,367.237 384.546 C 367.008 384.425,366.594 384.143,366.317 383.918 C 365.849 383.540,362.566 381.144,361.993 380.764 C 361.854 380.672,361.334 380.287,360.836 379.910 C 360.339 379.532,359.720 379.171,359.460 379.106 L 358.987 378.989 359.096 380.212 M396.262 403.148 C 396.840 403.181,397.785 403.181,398.362 403.148 C 398.940 403.116,398.467 403.089,397.312 403.089 C 396.157 403.089,395.685 403.116,396.262 403.148 " stroke="none" fill="#f1f1f1" fill-rule="evenodd"></path><path id="path3" d="M80.766 19.102 C 80.975 19.143,81.278 19.141,81.438 19.099 C 81.599 19.057,81.428 19.024,81.058 19.026 C 80.689 19.028,80.557 19.062,80.766 19.102 M93.198 19.102 C 93.407 19.143,93.709 19.141,93.870 19.099 C 94.031 19.057,93.860 19.024,93.490 19.026 C 93.121 19.028,92.989 19.062,93.198 19.102 M82.615 19.273 C 82.917 19.311,83.371 19.310,83.623 19.272 C 83.876 19.233,83.629 19.203,83.074 19.204 C 82.520 19.205,82.313 19.236,82.615 19.273 M91.015 19.273 C 91.317 19.311,91.771 19.310,92.023 19.272 C 92.276 19.233,92.029 19.203,91.474 19.204 C 90.920 19.205,90.713 19.236,91.015 19.273 M85.980 19.445 C 86.747 19.476,87.957 19.476,88.668 19.444 C 89.380 19.413,88.753 19.387,87.274 19.388 C 85.796 19.388,85.214 19.414,85.980 19.445 M79.519 21.840 C 79.519 22.533,79.549 22.816,79.585 22.470 C 79.621 22.123,79.621 21.556,79.585 21.210 C 79.549 20.863,79.519 21.147,79.519 21.840 M78.381 25.163 C 77.789 25.873,77.777 25.903,78.270 25.451 C 78.736 25.024,79.247 24.347,79.090 24.365 C 79.064 24.368,78.745 24.727,78.381 25.163 M84.201 26.164 C 84.821 26.196,85.879 26.196,86.553 26.164 C 87.227 26.132,86.720 26.106,85.426 26.106 C 84.133 26.106,83.581 26.132,84.201 26.164 M73.596 29.745 C 73.588 29.889,73.700 30.154,73.844 30.333 C 74.101 30.654,74.103 30.654,73.950 30.323 C 73.865 30.139,73.754 29.874,73.702 29.735 C 73.622 29.518,73.607 29.519,73.596 29.745 M74.675 30.763 C 74.363 31.129,74.362 31.140,74.662 30.908 C 75.008 30.642,75.010 30.703,74.683 31.667 C 74.620 31.852,74.692 31.791,74.842 31.532 C 75.257 30.815,75.129 30.228,74.675 30.763 M87.190 41.327 L 86.434 41.445 87.138 41.470 C 87.526 41.484,87.889 41.420,87.946 41.327 C 88.003 41.235,88.027 41.171,87.998 41.184 C 87.970 41.198,87.606 41.263,87.190 41.327 M81.142 86.266 C 80.819 86.391,80.668 86.493,80.806 86.493 C 80.945 86.493,81.323 86.391,81.646 86.266 C 81.970 86.142,82.121 86.040,81.982 86.040 C 81.844 86.040,81.466 86.142,81.142 86.266 M77.446 87.442 C 77.123 87.567,76.972 87.669,77.110 87.669 C 77.249 87.669,77.627 87.567,77.950 87.442 C 78.274 87.318,78.425 87.216,78.286 87.216 C 78.148 87.216,77.770 87.318,77.446 87.442 M85.872 87.862 C 85.872 88.001,85.974 88.379,86.098 88.702 C 86.223 89.026,86.325 89.177,86.325 89.038 C 86.325 88.900,86.223 88.522,86.098 88.198 C 85.974 87.875,85.872 87.724,85.872 87.862 M73.877 88.561 C 73.559 88.677,73.418 88.844,73.426 89.094 C 73.437 89.435,73.446 89.438,73.566 89.133 C 73.636 88.954,73.952 88.714,74.268 88.600 C 74.584 88.485,74.729 88.392,74.591 88.392 C 74.452 88.393,74.131 88.469,73.877 88.561 M73.289 90.298 C 73.291 90.668,73.325 90.799,73.365 90.590 C 73.406 90.381,73.404 90.079,73.362 89.918 C 73.320 89.758,73.287 89.929,73.289 90.298 M87.206 92.146 C 87.200 92.239,87.303 92.654,87.434 93.070 C 87.565 93.486,87.671 93.675,87.670 93.490 C 87.669 93.140,87.223 91.852,87.206 92.146 M73.521 92.566 C 73.578 92.797,73.727 93.213,73.854 93.490 C 74.038 93.895,74.063 93.911,73.980 93.574 C 73.923 93.343,73.774 92.927,73.647 92.650 C 73.463 92.245,73.438 92.229,73.521 92.566 M74.697 95.926 C 74.754 96.157,74.903 96.573,75.030 96.850 C 75.214 97.255,75.239 97.271,75.156 96.934 C 75.099 96.703,74.950 96.287,74.823 96.010 C 74.639 95.605,74.614 95.589,74.697 95.926 M88.400 96.850 C 88.400 97.035,88.460 97.375,88.534 97.606 C 88.641 97.939,88.669 97.956,88.669 97.690 C 88.669 97.505,88.608 97.165,88.534 96.934 C 88.428 96.601,88.400 96.584,88.400 96.850 M75.779 98.878 C 75.761 99.132,76.294 100.662,76.373 100.584 C 76.408 100.548,76.292 100.109,76.114 99.609 C 75.936 99.108,75.786 98.779,75.779 98.878 M89.744 102.562 C 89.744 102.747,89.804 103.087,89.878 103.318 C 89.985 103.650,90.013 103.668,90.013 103.402 C 90.013 103.217,89.952 102.877,89.878 102.646 C 89.772 102.313,89.744 102.296,89.744 102.562 M92.158 103.078 C 92.096 103.324,92.078 103.558,92.118 103.598 C 92.157 103.637,92.240 103.468,92.302 103.222 C 92.364 102.976,92.382 102.742,92.343 102.702 C 92.303 102.663,92.220 102.832,92.158 103.078 M220.540 104.109 C 220.749 104.149,221.051 104.147,221.212 104.105 C 221.372 104.063,221.201 104.030,220.832 104.032 C 220.462 104.034,220.331 104.069,220.540 104.109 M217.552 108.224 C 217.507 108.659,217.533 108.952,217.609 108.876 C 217.684 108.800,217.721 108.445,217.690 108.086 L 217.633 107.434 217.552 108.224 M216.456 109.546 C 216.383 109.665,215.930 109.690,215.144 109.620 C 208.233 109.002,203.542 116.451,207.060 122.454 C 208.432 124.795,211.671 126.650,214.417 126.667 C 214.719 126.668,215.174 126.908,215.677 127.331 C 216.109 127.694,219.374 130.318,222.932 133.160 C 226.489 136.003,230.030 138.841,230.800 139.466 L 232.201 140.604 232.578 140.146 C 234.444 137.882,234.901 137.092,235.204 135.613 C 235.680 133.287,236.416 129.008,236.348 128.957 C 236.315 128.931,234.024 126.912,231.257 124.472 C 228.490 122.031,225.447 119.364,224.495 118.546 C 223.257 117.483,222.764 116.951,222.764 116.682 C 222.764 116.144,222.163 114.474,221.664 113.621 C 221.429 113.221,221.274 112.894,221.318 112.894 C 221.849 112.894,218.758 110.585,217.574 110.097 C 217.056 109.883,216.651 109.631,216.674 109.537 C 216.729 109.312,216.597 109.318,216.456 109.546 M79.657 109.954 C 79.656 110.046,79.758 110.386,79.882 110.710 C 80.007 111.033,80.111 111.184,80.114 111.046 C 80.117 110.907,80.015 110.567,79.888 110.290 C 79.762 110.013,79.657 109.861,79.657 109.954 M228.689 111.718 C 228.689 112.134,228.722 112.304,228.762 112.096 C 228.802 111.888,228.802 111.548,228.762 111.340 C 228.722 111.132,228.689 111.302,228.689 111.718 M273.355 113.241 C 270.742 118.180,270.673 125.330,273.198 129.470 C 273.414 129.824,273.689 130.309,273.810 130.549 C 273.932 130.788,274.251 131.242,274.520 131.557 C 274.789 131.872,275.010 132.178,275.010 132.237 C 275.011 132.435,277.913 135.237,278.117 135.237 C 278.228 135.237,278.455 135.389,278.623 135.573 C 279.229 136.243,281.805 137.487,283.704 138.027 L 284.754 138.325 284.754 140.816 L 284.754 143.308 288.408 143.262 L 292.062 143.217 292.109 140.739 C 292.145 138.786,292.203 138.261,292.383 138.261 C 292.775 138.261,294.330 137.713,294.330 137.575 C 294.330 137.503,292.610 137.420,290.508 137.391 C 284.618 137.308,284.366 137.056,285.366 132.248 C 286.194 128.271,285.908 126.041,284.354 124.348 C 282.989 122.861,280.626 122.500,279.365 123.585 C 278.655 124.196,277.187 123.395,276.508 122.026 C 276.118 121.241,276.102 121.073,276.102 117.682 C 276.102 113.842,275.883 112.902,274.808 112.149 C 274.213 111.732,274.114 111.806,273.355 113.241 M80.819 113.158 C 80.801 113.412,81.334 114.942,81.413 114.863 C 81.448 114.828,81.332 114.389,81.154 113.888 C 80.976 113.387,80.825 113.059,80.819 113.158 M225.832 114.022 C 226.087 114.061,226.465 114.060,226.672 114.020 C 226.878 113.980,226.669 113.949,226.207 113.950 C 225.745 113.951,225.576 113.984,225.832 114.022 M81.995 116.518 C 81.977 116.771,82.510 118.302,82.589 118.223 C 82.624 118.188,82.508 117.749,82.330 117.248 C 82.152 116.747,82.001 116.419,81.995 116.518 M171.990 120.743 C 172.292 120.781,172.745 120.780,172.998 120.742 C 173.250 120.703,173.003 120.673,172.449 120.674 C 171.894 120.675,171.688 120.706,171.990 120.743 M166.149 123.226 C 165.741 123.641,165.445 123.982,165.491 123.982 C 165.537 123.982,165.909 123.641,166.317 123.226 C 166.725 122.810,167.021 122.470,166.975 122.470 C 166.928 122.470,166.557 122.810,166.149 123.226 M178.573 123.184 C 179.270 123.925,179.420 124.059,179.420 123.933 C 179.420 123.906,179.061 123.546,178.622 123.135 L 177.824 122.386 178.573 123.184 M181.151 129.861 C 181.151 130.370,181.182 130.577,181.221 130.323 C 181.259 130.069,181.259 129.654,181.221 129.399 C 181.182 129.145,181.151 129.353,181.151 129.861 M86.896 130.575 C 86.938 130.691,87.105 131.187,87.267 131.678 C 87.428 132.169,87.590 132.542,87.626 132.505 C 87.711 132.420,87.019 130.365,86.905 130.365 C 86.857 130.365,86.853 130.460,86.896 130.575 M165.645 134.954 C 165.645 134.983,165.890 135.228,166.191 135.500 L 166.737 135.993 166.243 135.447 C 165.783 134.938,165.645 134.824,165.645 134.954 M178.571 135.531 L 177.992 136.161 178.622 135.582 C 179.209 135.043,179.330 134.901,179.201 134.901 C 179.173 134.901,178.890 135.185,178.571 135.531 M88.241 136.329 C 88.242 136.699,88.277 136.830,88.317 136.621 C 88.357 136.412,88.356 136.110,88.314 135.949 C 88.272 135.789,88.239 135.960,88.241 136.329 M88.084 138.261 C 88.084 138.862,88.115 139.108,88.152 138.807 C 88.189 138.507,88.189 138.016,88.152 137.715 C 88.115 137.415,88.084 137.661,88.084 138.261 M171.987 138.047 C 172.287 138.084,172.778 138.084,173.079 138.047 C 173.379 138.010,173.133 137.979,172.533 137.979 C 171.932 137.979,171.686 138.010,171.987 138.047 M88.372 140.300 C 88.369 140.359,88.477 140.661,88.612 140.972 C 88.747 141.283,88.857 141.424,88.858 141.285 C 88.858 141.043,88.384 140.081,88.372 140.300 M97.102 167.157 C 97.291 167.526,97.483 167.829,97.529 167.829 C 97.575 167.829,97.459 167.526,97.270 167.157 C 97.082 166.787,96.889 166.485,96.843 166.485 C 96.797 166.485,96.914 166.787,97.102 167.157 M326.799 213.655 L 324.241 214.784 322.280 217.118 L 320.319 219.452 320.536 220.310 C 320.656 220.782,321.010 221.842,321.323 222.667 C 321.637 223.492,321.960 224.437,322.042 224.767 C 322.124 225.097,322.621 226.577,323.146 228.055 C 323.672 229.534,324.235 231.197,324.397 231.751 C 324.560 232.306,324.895 233.263,325.141 233.879 C 325.387 234.495,325.692 235.364,325.817 235.811 C 326.067 236.700,326.832 238.968,327.678 241.327 C 328.793 244.437,329.105 245.493,328.964 245.677 C 328.792 245.902,328.488 247.109,328.356 248.093 C 328.047 250.406,329.710 254.286,331.543 255.523 C 331.748 255.661,332.215 255.975,332.580 256.219 C 334.296 257.369,337.813 257.695,340.061 256.914 C 342.911 255.923,345.172 253.237,345.594 250.341 C 346.141 246.591,344.821 243.543,341.672 241.282 C 341.060 240.842,340.864 240.573,340.690 239.938 C 340.571 239.501,340.285 238.727,340.055 238.219 C 339.824 237.711,339.428 236.728,339.175 236.035 C 338.723 234.800,338.381 233.937,337.543 231.919 C 337.313 231.365,336.916 230.344,336.663 229.651 C 336.409 228.958,335.977 227.824,335.702 227.131 C 334.571 224.280,334.244 223.449,333.688 222.008 C 333.367 221.176,332.853 219.891,332.545 219.152 C 332.238 218.412,331.894 217.505,331.781 217.136 C 331.669 216.766,331.361 216.016,331.097 215.468 C 330.833 214.920,330.617 214.378,330.617 214.264 C 330.617 213.742,329.942 212.516,329.657 212.521 C 329.492 212.523,328.206 213.034,326.799 213.655 M50.231 252.406 C 50.231 252.453,50.458 252.608,50.735 252.751 C 51.012 252.894,51.239 252.974,51.239 252.928 C 51.239 252.881,51.012 252.726,50.735 252.583 C 50.458 252.440,50.231 252.360,50.231 252.406 M52.079 253.416 C 52.079 253.462,52.381 253.654,52.751 253.843 C 53.121 254.031,53.423 254.148,53.423 254.102 C 53.423 254.056,53.121 253.863,52.751 253.675 C 52.381 253.486,52.079 253.370,52.079 253.416 M94.708 262.536 C 96.117 262.565,98.423 262.565,99.832 262.536 C 101.241 262.508,100.088 262.485,97.270 262.485 C 94.452 262.485,93.299 262.508,94.708 262.536 M40.112 266.060 C 40.414 266.098,40.868 266.097,41.120 266.059 C 41.373 266.020,41.126 265.990,40.571 265.991 C 40.017 265.992,39.810 266.023,40.112 266.060 M42.625 266.228 C 42.924 266.265,43.453 266.266,43.801 266.229 C 44.150 266.193,43.906 266.163,43.259 266.162 C 42.612 266.161,42.327 266.191,42.625 266.228 M45.488 266.396 C 45.790 266.434,46.244 266.433,46.496 266.395 C 46.749 266.356,46.501 266.326,45.947 266.327 C 45.393 266.328,45.186 266.359,45.488 266.396 M92.520 274.964 C 92.819 275.001,93.348 275.001,93.696 274.965 C 94.045 274.929,93.801 274.898,93.154 274.898 C 92.507 274.897,92.222 274.927,92.520 274.964 M54.310 284.206 C 54.752 284.241,55.432 284.240,55.822 284.205 C 56.212 284.170,55.850 284.141,55.019 284.142 C 54.187 284.142,53.868 284.171,54.310 284.206 M95.560 284.208 C 97.622 284.235,100.948 284.235,102.951 284.208 C 104.955 284.181,103.268 284.159,99.202 284.159 C 95.136 284.160,93.497 284.181,95.560 284.208 M340.759 356.682 C 340.663 356.807,340.182 357.665,339.691 358.589 C 338.582 360.674,336.701 363.795,335.723 365.171 C 335.317 365.742,334.985 366.280,334.985 366.368 C 334.985 366.507,336.923 368.371,340.257 371.441 C 340.810 371.949,341.758 372.836,342.365 373.413 C 343.700 374.680,343.091 374.694,347.468 373.299 C 350.949 372.190,352.793 371.271,352.793 370.646 C 352.793 370.550,351.784 369.374,350.937 368.483 C 350.664 368.195,350.441 367.878,350.441 367.778 C 350.441 367.678,350.308 367.497,350.145 367.376 C 349.982 367.255,349.135 366.287,348.263 365.225 C 347.391 364.162,346.386 362.953,346.030 362.537 C 345.675 362.121,345.161 361.516,344.890 361.193 C 344.619 360.869,343.848 359.960,343.177 359.172 C 342.506 358.384,341.727 357.451,341.446 357.097 C 341.040 356.587,340.899 356.501,340.759 356.682 M283.578 373.287 C 283.578 373.519,283.874 375.939,284.237 378.664 C 284.599 381.390,285.018 384.679,285.168 385.972 C 285.318 387.266,285.531 388.406,285.643 388.507 C 286.384 389.173,292.707 391.432,293.832 391.432 L 295.002 391.432 295.002 382.150 L 295.002 372.869 289.290 372.867 L 283.578 372.865 283.578 373.287 M278.173 401.638 C 281.344 401.663,286.485 401.663,289.596 401.638 C 292.708 401.612,290.113 401.591,283.830 401.591 C 277.547 401.591,275.001 401.612,278.173 401.638 " stroke="none" fill="#a2636b" fill-rule="evenodd"></path><path id="path4" d="M97.322 18.484 C 92.285 19.544,84.211 19.777,79.967 18.984 C 79.043 18.812,79.107 18.711,79.388 19.909 C 80.222 23.454,78.992 25.845,75.937 26.617 C 73.793 27.160,72.963 29.037,74.150 30.660 C 74.388 30.985,74.399 30.985,74.743 30.673 C 75.090 30.360,75.094 30.361,75.094 30.728 C 75.094 31.178,74.795 31.785,74.482 31.970 C 73.575 32.506,79.545 37.127,81.145 37.127 C 81.282 37.127,81.302 37.660,81.217 39.042 L 81.099 40.957 82.564 41.079 C 83.371 41.147,84.911 41.211,85.988 41.222 L 87.946 41.243 88.114 39.498 L 88.282 37.752 89.794 37.381 C 97.546 35.478,102.345 27.467,100.513 19.488 C 100.123 17.785,100.331 17.851,97.322 18.484 M96.766 25.955 C 96.766 26.168,96.374 26.207,94.246 26.207 C 92.118 26.207,91.726 26.168,91.726 25.955 C 91.726 25.743,92.118 25.703,94.246 25.703 C 96.374 25.703,96.766 25.743,96.766 25.955 M87.862 26.123 C 87.862 26.336,87.480 26.375,85.426 26.375 C 83.373 26.375,82.990 26.336,82.990 26.123 C 82.990 25.911,83.373 25.871,85.426 25.871 C 87.480 25.871,87.862 25.911,87.862 26.123 M173.793 42.270 C 172.988 42.471,172.388 42.777,171.511 43.434 L 170.574 44.137 147.320 44.261 C 134.530 44.329,124.032 44.417,123.992 44.455 C 123.952 44.494,124.194 45.866,124.530 47.504 C 125.465 52.059,126.509 57.001,126.606 57.329 C 126.790 57.954,129.279 57.738,130.729 56.971 C 146.521 48.614,161.970 45.172,178.324 46.368 C 180.805 46.550,180.926 46.503,180.439 45.548 C 179.252 43.220,176.140 41.686,173.793 42.270 M162.067 61.257 C 161.935 61.388,161.999 61.944,162.708 66.863 C 163.022 69.034,163.398 71.680,163.545 72.743 C 164.166 77.235,164.667 80.729,165.070 83.385 C 165.547 86.523,165.535 86.686,164.820 86.686 C 162.104 86.686,154.219 89.642,149.483 92.435 C 148.863 92.800,148.282 93.053,148.190 92.997 C 148.054 92.913,146.149 90.295,144.944 88.536 C 144.785 88.304,144.369 87.725,144.020 87.249 C 143.671 86.773,142.801 85.563,142.087 84.561 C 141.372 83.558,140.219 81.945,139.524 80.974 C 138.432 79.451,137.397 78.002,135.162 74.866 C 133.274 72.217,133.313 72.260,132.994 72.494 C 132.654 72.742,132.559 72.584,135.405 76.516 C 136.191 77.601,137.029 78.764,137.267 79.101 C 137.506 79.439,138.321 80.584,139.079 81.646 C 139.836 82.709,141.039 84.398,141.752 85.401 C 142.466 86.403,143.200 87.436,143.385 87.695 C 143.570 87.955,144.175 88.797,144.729 89.568 C 145.965 91.284,146.074 91.439,146.910 92.650 L 147.578 93.618 147.197 93.890 C 142.589 97.176,138.680 101.198,135.628 105.794 C 134.687 107.211,133.889 108.455,133.855 108.558 C 133.818 108.667,133.064 108.341,132.037 107.772 C 131.071 107.237,129.866 106.574,129.357 106.299 C 128.849 106.024,128.018 105.568,127.509 105.285 C 127.001 105.003,125.508 104.180,124.192 103.457 C 122.875 102.734,120.682 101.528,119.320 100.778 C 117.000 99.501,115.337 98.592,114.154 97.950 C 113.877 97.800,113.138 97.389,112.512 97.037 C 111.419 96.422,110.877 96.344,110.879 96.803 C 110.880 97.025,111.138 97.193,113.146 98.276 C 113.793 98.625,114.662 99.098,115.078 99.327 C 125.235 104.919,127.305 106.056,130.281 107.679 C 133.778 109.586,133.514 109.305,132.914 110.480 C 129.596 116.984,128.099 124.868,128.659 132.883 C 128.753 134.222,128.810 135.337,128.787 135.360 C 128.707 135.440,123.739 136.066,121.126 136.326 C 119.693 136.468,117.161 136.768,115.498 136.992 C 113.835 137.215,111.907 137.446,111.214 137.503 C 109.811 137.620,103.260 138.438,103.188 138.506 C 103.163 138.530,103.190 138.673,103.248 138.825 C 103.396 139.210,103.816 139.188,108.898 138.528 C 111.327 138.212,113.881 137.904,114.574 137.843 C 115.267 137.782,117.913 137.480,120.454 137.171 C 126.503 136.436,128.859 136.195,128.964 136.300 C 129.011 136.347,129.302 137.506,129.612 138.877 C 131.203 145.921,134.601 152.440,139.674 158.184 L 140.430 159.040 137.876 161.402 C 136.471 162.702,135.054 164.018,134.727 164.327 C 134.400 164.636,133.304 165.654,132.291 166.589 C 129.558 169.112,123.356 174.854,122.396 175.749 C 121.370 176.707,121.491 177.495,122.531 176.626 C 123.144 176.113,133.225 166.796,133.967 166.055 C 134.158 165.866,134.843 165.230,135.489 164.642 C 136.956 163.311,138.726 161.661,139.970 160.465 L 140.923 159.549 142.490 160.995 C 148.033 166.111,155.633 170.103,162.523 171.519 C 163.440 171.707,164.220 171.892,164.258 171.930 C 164.296 171.968,164.099 173.271,163.821 174.827 C 163.072 179.021,162.143 184.439,162.026 185.300 C 161.970 185.716,161.706 187.266,161.440 188.744 C 160.067 196.382,159.964 197.228,160.404 197.228 C 160.815 197.228,160.868 197.076,161.109 195.212 C 161.211 194.427,161.513 192.612,161.779 191.180 C 162.046 189.748,162.311 188.236,162.369 187.820 C 162.426 187.404,162.729 185.590,163.042 183.788 C 163.991 178.314,164.784 173.664,164.896 172.911 C 165.031 172.004,164.969 172.026,166.653 172.302 C 168.701 172.639,176.163 172.634,178.262 172.294 C 183.536 171.442,189.619 169.597,191.992 168.130 C 192.720 167.680,191.881 166.306,198.824 179.313 C 202.058 185.371,204.780 190.329,204.872 190.331 C 205.664 190.349,205.870 190.760,194.109 168.881 L 193.365 167.497 193.994 167.100 C 194.341 166.882,194.851 166.585,195.128 166.440 C 198.254 164.811,203.490 160.329,206.458 156.744 C 208.336 154.474,211.844 149.120,211.844 148.522 C 211.844 148.190,212.713 148.527,217.220 150.602 C 219.194 151.512,221.229 152.438,227.467 155.269 C 228.900 155.919,231.205 156.976,232.591 157.619 C 233.977 158.262,235.200 158.824,235.308 158.869 C 235.417 158.914,235.591 158.791,235.696 158.595 C 235.899 158.215,236.023 158.288,232.507 156.712 C 232.092 156.526,231.033 156.047,230.155 155.649 C 229.278 155.250,227.350 154.378,225.871 153.709 C 214.850 148.726,212.423 147.583,212.469 147.398 C 212.489 147.316,212.882 146.318,213.341 145.179 C 215.103 140.816,216.146 135.818,216.353 130.749 L 216.464 128.025 215.624 127.316 C 215.162 126.926,214.965 126.808,215.187 127.054 L 215.591 127.502 215.491 131.076 C 215.338 136.561,214.187 141.691,212.099 146.199 C 211.554 147.374,211.861 147.388,208.964 146.055 C 207.637 145.444,205.380 144.413,203.948 143.763 C 197.340 140.766,192.368 138.506,191.264 137.999 C 190.802 137.787,189.215 137.069,187.736 136.405 C 182.766 134.169,180.684 133.195,180.598 133.063 C 180.551 132.991,180.399 133.167,180.260 133.455 C 180.021 133.950,180.026 133.980,180.344 134.001 C 180.529 134.013,181.210 134.266,181.856 134.562 C 182.503 134.858,183.864 135.479,184.880 135.942 C 185.897 136.404,187.106 136.958,187.568 137.171 C 188.030 137.384,189.202 137.913,190.172 138.346 C 191.142 138.779,193.221 139.722,194.792 140.440 C 196.363 141.159,198.858 142.293,200.336 142.961 C 201.814 143.629,204.271 144.739,205.796 145.428 C 210.129 147.386,211.172 147.894,211.172 148.044 C 211.172 148.988,207.667 154.187,204.854 157.416 C 201.974 160.723,194.401 166.653,193.058 166.653 C 192.912 166.653,192.415 165.738,182.690 147.585 C 176.088 135.262,177.011 136.846,176.568 137.083 C 176.320 137.216,176.257 137.339,176.367 137.475 C 176.455 137.584,176.847 138.278,177.238 139.017 C 177.629 139.756,181.122 146.279,185.001 153.512 C 188.880 160.745,192.084 166.793,192.121 166.952 C 192.246 167.488,187.067 169.563,182.827 170.677 C 178.833 171.725,171.909 172.154,167.647 171.615 C 164.916 171.271,165.101 171.459,165.494 169.425 C 165.672 168.501,165.931 166.989,166.070 166.065 C 166.208 165.141,166.544 163.137,166.815 161.613 C 167.087 160.088,167.579 157.253,167.908 155.313 C 168.237 153.373,168.701 150.651,168.938 149.265 C 169.176 147.879,169.480 146.065,169.615 145.233 C 170.115 142.137,170.714 138.835,170.856 138.387 C 170.968 138.037,170.948 137.925,170.774 137.925 C 170.647 137.925,170.439 137.885,170.311 137.836 C 170.131 137.767,170.011 138.174,169.780 139.642 C 169.616 140.684,169.227 143.011,168.916 144.813 C 168.605 146.615,168.303 148.429,168.245 148.845 C 168.188 149.261,167.923 150.773,167.658 152.205 C 167.393 153.637,167.128 155.187,167.070 155.649 C 167.012 156.111,166.745 157.661,166.477 159.093 C 166.208 160.525,165.907 162.302,165.808 163.041 C 165.708 163.780,165.407 165.594,165.139 167.073 C 164.871 168.551,164.607 170.044,164.553 170.391 C 164.196 172.657,151.941 167.618,145.487 162.552 C 144.322 161.638,141.735 159.311,141.660 159.111 C 141.618 159.000,142.691 157.975,147.734 153.309 C 148.739 152.378,149.839 151.352,150.176 151.029 C 150.835 150.398,150.867 150.369,156.069 145.576 C 157.963 143.831,160.045 141.906,160.695 141.298 C 161.345 140.690,162.446 139.664,163.140 139.017 C 163.835 138.370,164.876 137.401,165.454 136.862 C 166.306 136.067,166.467 135.838,166.306 135.644 C 166.023 135.303,165.996 135.316,164.945 136.289 C 158.703 142.067,155.405 145.124,154.212 146.241 C 151.994 148.316,150.421 149.778,148.339 151.701 C 147.288 152.671,145.230 154.585,143.766 155.954 C 142.301 157.324,141.042 158.420,140.969 158.390 C 140.505 158.204,137.370 154.248,135.867 151.951 C 133.315 148.049,130.855 141.955,130.112 137.692 C 129.795 135.873,129.489 136.102,132.750 135.720 C 134.256 135.543,137.077 135.205,139.017 134.967 C 140.958 134.730,143.830 134.400,145.401 134.234 C 148.096 133.949,152.607 133.415,160.408 132.460 C 162.286 132.230,163.889 132.083,163.971 132.133 C 164.052 132.184,164.042 132.004,163.948 131.733 C 163.834 131.406,163.682 131.261,163.493 131.300 C 163.098 131.381,154.623 132.406,147.585 133.225 C 144.351 133.602,139.551 134.167,136.917 134.481 C 134.284 134.796,131.588 135.098,130.927 135.154 L 129.724 135.255 129.622 134.784 C 128.293 128.614,130.037 117.910,133.497 111.004 C 134.183 109.636,133.722 109.593,136.874 111.324 C 138.330 112.124,139.824 112.943,140.193 113.146 C 140.563 113.348,142.491 114.407,144.477 115.499 C 146.464 116.590,149.563 118.291,151.365 119.278 C 154.189 120.825,158.039 122.943,160.353 124.223 C 160.722 124.427,161.682 124.952,162.484 125.389 C 163.287 125.827,163.978 126.313,164.019 126.469 C 164.078 126.694,164.098 126.682,164.113 126.413 C 164.124 126.226,164.259 125.892,164.414 125.671 C 164.568 125.450,164.604 125.326,164.493 125.394 C 164.379 125.465,163.801 125.246,163.162 124.890 C 162.541 124.545,161.730 124.096,161.361 123.893 C 160.067 123.183,155.307 120.566,154.641 120.199 C 154.271 119.995,152.759 119.163,151.281 118.351 C 149.803 117.538,148.291 116.706,147.921 116.503 C 146.768 115.867,141.927 113.206,140.772 112.573 C 140.167 112.241,138.655 111.418,137.412 110.744 C 134.289 109.050,134.462 109.218,134.915 108.331 C 135.392 107.397,137.651 104.060,138.253 103.402 C 138.507 103.125,138.820 102.739,138.950 102.544 C 140.285 100.535,147.089 94.429,148.005 94.418 C 148.144 94.416,148.370 94.600,148.509 94.826 C 148.648 95.051,149.479 96.237,150.357 97.460 C 151.235 98.684,152.066 99.851,152.205 100.054 C 152.344 100.257,153.213 101.469,154.137 102.747 C 155.061 104.026,155.930 105.237,156.069 105.439 C 156.379 105.891,159.225 109.877,162.537 114.498 C 163.184 115.401,164.015 116.570,164.385 117.097 C 164.754 117.624,165.646 118.873,166.365 119.872 C 167.085 120.871,167.635 121.789,167.588 121.912 C 167.513 122.109,167.743 122.008,168.473 121.526 C 168.504 121.505,168.240 121.112,167.885 120.652 C 167.531 120.191,166.976 119.432,166.653 118.963 C 166.329 118.495,165.718 117.637,165.294 117.057 C 164.870 116.476,164.227 115.577,163.866 115.058 C 162.754 113.460,159.910 109.483,159.437 108.862 C 159.069 108.380,157.770 106.556,156.405 104.605 C 156.266 104.407,155.714 103.639,155.178 102.899 C 154.642 102.159,154.022 101.289,153.800 100.966 C 153.579 100.643,152.909 99.698,152.311 98.866 C 151.712 98.034,150.971 96.991,150.664 96.547 C 150.357 96.103,149.822 95.374,149.475 94.927 C 148.670 93.888,148.674 93.862,149.743 93.178 C 153.236 90.943,158.446 88.851,163.146 87.797 C 165.818 87.197,165.804 87.192,165.810 88.656 C 165.812 88.954,166.039 90.598,166.316 92.309 C 166.593 94.021,166.900 96.158,166.999 97.059 C 167.097 97.961,167.395 100.059,167.661 101.722 C 167.927 103.385,168.193 105.237,168.253 105.838 C 168.313 106.438,168.580 108.328,168.847 110.038 C 169.114 111.747,169.412 113.864,169.511 114.742 C 169.609 115.619,169.840 117.278,170.025 118.428 C 170.209 119.577,170.329 120.599,170.291 120.698 C 170.246 120.816,170.463 120.852,170.915 120.804 C 171.296 120.762,171.476 120.699,171.315 120.663 C 171.124 120.620,171.021 120.439,171.021 120.147 C 171.022 119.900,170.761 117.959,170.443 115.834 C 169.897 112.191,169.609 110.177,168.831 104.578 C 168.133 99.549,167.291 93.686,166.829 90.634 C 166.266 86.908,166.143 87.185,168.450 86.981 C 175.402 86.369,183.641 87.653,189.458 90.257 C 190.919 90.911,190.901 90.688,189.688 93.158 C 189.144 94.265,188.153 96.342,187.486 97.774 C 186.819 99.206,185.799 101.361,185.219 102.562 C 184.044 105.000,183.013 107.164,181.659 110.038 C 181.158 111.100,180.493 112.499,180.182 113.146 C 178.261 117.134,176.998 119.800,176.699 120.496 C 176.510 120.934,176.270 121.296,176.166 121.300 C 175.969 121.306,176.720 121.781,176.942 121.792 C 177.012 121.795,177.068 121.706,177.068 121.594 C 177.068 121.482,177.366 120.783,177.729 120.040 C 178.754 117.946,180.932 113.367,180.932 113.308 C 180.932 113.237,183.571 107.721,183.862 107.182 C 183.987 106.951,184.883 105.061,185.854 102.982 C 186.825 100.903,187.962 98.516,188.380 97.677 C 188.798 96.839,189.645 95.062,190.261 93.729 C 190.877 92.397,191.411 91.275,191.448 91.237 C 191.596 91.084,194.742 92.829,196.718 94.158 C 199.229 95.848,202.604 98.719,204.245 100.561 L 205.130 101.554 204.485 102.142 C 204.131 102.465,203.142 103.297,202.289 103.990 C 201.436 104.683,200.572 105.391,200.369 105.564 C 200.166 105.737,199.250 106.493,198.333 107.244 C 197.417 107.995,196.160 109.026,195.540 109.534 C 194.920 110.042,193.402 111.285,192.166 112.296 C 190.931 113.307,189.651 114.365,189.321 114.648 C 188.992 114.931,188.425 115.403,188.061 115.697 C 187.144 116.441,184.369 118.734,182.203 120.538 C 181.204 121.369,180.018 122.321,179.566 122.652 C 178.762 123.242,178.752 123.261,179.073 123.551 C 179.389 123.837,179.427 123.824,180.174 123.200 C 180.600 122.845,181.039 122.554,181.150 122.554 C 181.261 122.554,181.352 122.456,181.352 122.337 C 181.352 122.062,181.786 121.789,182.016 121.920 C 182.113 121.974,182.138 121.959,182.071 121.885 C 181.909 121.706,182.972 120.787,183.195 120.913 C 183.290 120.967,183.312 120.949,183.243 120.874 C 183.129 120.747,183.726 120.206,183.984 120.203 C 184.046 120.202,184.159 120.133,184.236 120.049 C 184.319 119.959,184.273 119.947,184.124 120.021 C 183.986 120.090,184.059 119.995,184.288 119.809 C 184.516 119.624,184.757 119.505,184.822 119.545 C 184.887 119.586,184.996 119.531,185.063 119.422 C 185.145 119.290,185.108 119.269,184.948 119.360 C 184.688 119.509,184.741 119.456,185.630 118.688 C 185.950 118.411,186.101 118.337,185.966 118.522 C 185.831 118.706,186.078 118.506,186.514 118.077 C 187.528 117.080,188.589 116.239,188.697 116.346 C 188.743 116.392,188.886 116.296,189.014 116.132 C 189.227 115.861,189.222 115.855,188.954 116.064 C 188.793 116.191,188.660 116.253,188.660 116.202 C 188.660 116.150,188.901 115.937,189.195 115.728 C 189.488 115.519,189.666 115.450,189.589 115.575 C 189.494 115.727,189.512 115.762,189.642 115.682 C 189.749 115.616,189.836 115.471,189.836 115.360 C 189.836 115.122,190.519 114.649,190.760 114.720 C 190.853 114.747,190.874 114.716,190.808 114.649 C 190.659 114.501,191.528 113.796,191.765 113.874 C 191.859 113.905,191.880 113.874,191.811 113.805 C 191.673 113.667,192.358 113.122,192.579 113.193 C 192.655 113.218,192.685 113.179,192.646 113.108 C 192.606 113.036,192.843 112.751,193.171 112.474 C 193.499 112.197,193.698 112.083,193.614 112.220 C 193.531 112.358,193.727 112.207,194.051 111.884 C 195.108 110.832,196.338 109.876,196.475 110.000 C 196.549 110.067,196.558 110.031,196.494 109.920 C 196.391 109.741,196.645 109.514,197.144 109.340 C 197.236 109.308,197.296 109.232,197.275 109.172 C 197.255 109.111,197.514 108.852,197.850 108.595 C 198.186 108.339,198.403 108.237,198.332 108.369 C 198.260 108.502,198.405 108.363,198.652 108.062 C 198.908 107.751,199.188 107.563,199.299 107.627 C 199.408 107.689,199.440 107.678,199.371 107.602 C 199.236 107.453,199.911 106.904,200.138 106.977 C 200.215 107.002,200.245 106.964,200.206 106.892 C 200.166 106.820,200.402 106.535,200.730 106.258 C 201.058 105.981,201.268 105.851,201.196 105.969 C 201.125 106.087,201.454 105.796,201.929 105.321 C 202.404 104.846,202.834 104.500,202.885 104.551 C 202.936 104.602,203.165 104.420,203.394 104.148 C 203.623 103.876,203.874 103.692,203.952 103.740 C 204.029 103.788,204.147 103.739,204.214 103.631 C 204.295 103.500,204.257 103.476,204.100 103.559 C 203.970 103.627,204.051 103.531,204.279 103.346 C 204.508 103.160,204.765 103.052,204.851 103.105 C 204.937 103.158,204.957 103.120,204.895 103.019 C 204.617 102.569,205.486 102.307,205.968 102.696 C 206.219 102.900,206.402 103.105,206.376 103.153 C 206.349 103.201,206.586 103.531,206.902 103.886 C 207.218 104.241,207.476 104.584,207.476 104.649 C 207.476 104.714,207.608 104.913,207.770 105.092 C 208.107 105.465,209.712 108.014,210.433 109.322 C 210.829 110.040,210.981 110.183,211.255 110.099 C 211.742 109.950,211.770 109.892,211.537 109.519 C 211.422 109.334,211.112 108.789,210.849 108.308 C 209.766 106.331,209.255 105.565,207.271 102.947 L 206.289 101.651 207.192 100.931 C 207.689 100.534,209.552 99.000,211.332 97.522 C 213.111 96.044,214.770 94.683,215.016 94.498 C 215.263 94.313,216.634 93.188,218.064 91.998 C 219.494 90.807,221.411 89.220,222.324 88.470 C 226.233 85.259,226.134 85.354,225.921 85.013 C 225.695 84.652,226.000 84.436,221.668 88.030 C 220.277 89.185,218.393 90.735,217.482 91.474 C 216.571 92.213,215.242 93.310,214.529 93.910 C 213.815 94.511,212.116 95.909,210.753 97.018 C 209.390 98.127,207.762 99.469,207.136 100.000 C 205.722 101.201,206.026 101.279,203.948 99.178 C 201.476 96.678,198.457 94.315,194.974 92.154 C 194.704 91.986,193.986 91.588,193.378 91.269 C 191.718 90.397,191.754 90.501,192.552 88.866 C 192.935 88.083,193.433 87.064,193.658 86.602 C 193.883 86.140,194.864 84.061,195.838 81.982 C 196.811 79.903,197.664 78.127,197.733 78.034 C 197.802 77.942,198.632 76.203,199.577 74.171 C 200.522 72.138,201.432 70.210,201.601 69.887 C 202.433 68.285,202.781 67.308,202.566 67.172 C 202.197 66.938,202.097 67.011,201.779 67.745 C 201.380 68.663,199.140 73.368,198.839 73.919 C 198.713 74.150,197.776 76.115,196.757 78.286 C 195.739 80.458,194.590 82.871,194.204 83.648 C 193.819 84.426,193.012 86.127,192.411 87.428 C 191.061 90.354,191.221 90.203,190.048 89.669 C 184.259 87.030,175.731 85.592,169.341 86.176 C 168.093 86.289,166.885 86.394,166.656 86.408 C 166.269 86.432,166.231 86.364,166.117 85.426 C 166.049 84.872,165.723 82.566,165.393 80.302 C 165.063 78.039,164.528 74.297,164.203 71.987 C 163.446 66.604,162.802 62.202,162.685 61.613 C 162.600 61.181,162.310 61.014,162.067 61.257 M79.378 86.961 C 72.976 89.007,73.598 88.668,73.403 90.221 L 73.249 91.444 76.293 100.111 C 77.967 104.878,79.658 109.685,80.050 110.794 C 80.443 111.903,81.827 115.834,83.125 119.530 C 84.424 123.226,85.838 127.232,86.269 128.433 C 86.699 129.635,87.422 131.708,87.875 133.041 L 88.698 135.464 88.448 136.305 C 88.128 137.382,88.139 139.329,88.470 140.193 C 88.612 140.563,88.790 141.092,88.866 141.369 C 88.942 141.646,89.012 141.816,89.021 141.747 C 89.030 141.677,89.311 141.922,89.644 142.291 C 91.743 144.614,95.744 144.681,97.975 142.431 C 100.359 140.026,100.267 136.252,97.768 134.003 C 96.904 133.226,97.060 133.711,95.418 126.669 C 95.041 125.052,94.474 122.633,94.159 121.294 C 93.844 119.954,93.286 117.572,92.918 116.002 C 92.550 114.431,91.980 112.005,91.652 110.611 C 91.323 109.217,91.054 107.949,91.054 107.795 C 91.054 107.640,90.980 107.382,90.889 107.222 C 90.798 107.061,90.418 105.607,90.045 103.990 C 87.837 94.427,87.401 92.748,85.912 88.072 C 85.405 86.478,84.974 85.178,84.956 85.182 C 84.937 85.186,82.428 85.986,79.378 86.961 M222.764 116.868 C 222.764 116.960,222.971 117.218,223.226 117.442 L 223.688 117.850 223.268 117.346 C 223.037 117.068,222.829 116.810,222.806 116.772 C 222.782 116.733,222.764 116.777,222.764 116.868 M238.471 117.359 C 237.362 117.578,234.981 118.033,233.179 118.371 C 231.378 118.708,229.060 119.151,228.030 119.356 C 226.730 119.615,226.061 119.680,225.846 119.567 C 225.675 119.478,225.800 119.638,226.123 119.923 C 226.447 120.208,226.787 120.417,226.879 120.387 C 227.038 120.336,228.505 120.047,235.531 118.681 C 237.148 118.367,239.000 118.030,239.647 117.932 C 241.288 117.683,241.391 117.641,241.290 117.256 C 241.183 116.847,241.028 116.853,238.471 117.359 M204.788 123.641 C 203.448 123.899,200.916 124.376,199.160 124.702 C 197.404 125.029,193.960 125.679,191.506 126.147 C 186.696 127.064,182.690 127.816,181.814 127.964 C 181.270 128.057,181.268 128.060,181.295 129.001 C 181.310 129.530,181.351 129.719,181.388 129.431 L 181.453 128.916 184.175 128.392 C 185.672 128.103,188.370 127.594,190.172 127.259 C 193.500 126.642,196.745 126.026,202.940 124.837 C 204.834 124.473,206.787 124.124,207.279 124.061 L 208.173 123.946 207.795 123.544 C 207.587 123.323,207.374 123.149,207.321 123.158 C 207.267 123.167,206.128 123.384,204.788 123.641 M44.219 251.533 C 40.575 259.020,37.799 264.832,37.799 264.973 C 37.799 265.659,46.743 266.814,47.236 266.192 C 47.310 266.099,47.560 265.785,47.793 265.494 C 48.025 265.204,48.215 264.913,48.215 264.847 C 48.215 264.782,48.764 263.885,49.434 262.855 C 50.105 261.825,50.729 260.861,50.820 260.712 C 50.912 260.564,51.133 260.223,51.312 259.956 C 51.491 259.689,51.974 258.942,52.385 258.295 C 52.797 257.648,53.425 256.691,53.782 256.168 C 54.139 255.645,54.431 255.109,54.431 254.975 C 54.431 254.749,45.635 249.811,45.232 249.811 C 45.136 249.811,44.680 250.586,44.219 251.533 M92.006 262.691 C 91.945 262.752,91.894 265.512,91.894 268.823 L 91.894 274.843 93.074 274.843 C 94.164 274.843,94.506 274.739,97.568 273.486 C 101.529 271.865,101.116 272.226,101.319 270.205 C 101.535 268.039,102.144 263.250,102.250 262.873 C 102.335 262.570,92.305 262.392,92.006 262.691 M0.185 284.301 C -0.075 284.560,-0.045 285.357,0.234 285.636 C 0.482 285.884,152.167 285.870,165.375 285.621 C 171.769 285.500,171.709 285.511,171.465 284.539 L 171.355 284.103 85.862 284.110 C 23.966 284.114,0.318 284.167,0.185 284.301 M385.158 401.458 C 385.095 401.521,349.941 401.578,307.037 401.584 C 241.180 401.594,228.988 401.632,228.753 401.827 C 228.415 402.107,228.391 402.744,228.707 403.007 C 229.013 403.261,399.217 403.263,399.690 403.010 C 400.196 402.739,400.113 401.715,399.569 401.508 C 399.082 401.323,385.341 401.276,385.158 401.458 " stroke="none" fill="#fbb3b3" fill-rule="evenodd"></path></g></svg>